# Blender 3.6.1
# www.blender.org
mtllib link0_7.mtl
o link0_7
v -0.001633 0.003126 0.035644
v -0.001633 0.003126 0.035644
v -0.001633 0.003126 0.035644
v -0.001633 0.003126 0.035644
v -0.001633 0.003126 0.035644
v -0.001633 0.003126 0.035644
v -0.001633 0.003126 0.035644
v -0.002085 0.002499 0.035599
v -0.002085 0.002499 0.035599
v -0.002085 0.002499 0.035599
v -0.002085 0.002499 0.035599
v 0.001702 -0.001865 0.037859
v 0.001702 -0.001865 0.037859
v 0.001702 -0.001865 0.037859
v 0.001702 -0.001865 0.037859
v 0.001702 -0.001865 0.037859
v 0.001702 -0.001865 0.037859
v 0.001702 -0.001865 0.037859
v 0.001702 -0.001865 0.037859
v 0.001694 0.001516 0.039126
v 0.001694 0.001516 0.039126
v 0.001694 0.001516 0.039126
v 0.001694 0.001516 0.039126
v 0.001694 0.001516 0.039126
v 0.001694 0.001516 0.039126
v 0.001703 -0.000430 0.038863
v 0.001703 -0.000430 0.038863
v 0.001703 -0.000430 0.038863
v 0.001703 -0.000430 0.038863
v 0.001703 -0.003178 0.036431
v 0.001703 -0.003178 0.036431
v 0.001703 -0.003178 0.036431
v 0.001703 -0.003178 0.036431
v 0.001703 -0.003178 0.036431
v 0.001706 -0.004450 0.034157
v 0.001706 -0.004450 0.034157
v 0.001706 -0.004450 0.034157
v 0.001706 -0.004450 0.034157
v 0.001706 -0.004450 0.034157
v 0.001708 0.002640 0.038871
v 0.001708 0.002640 0.038871
v 0.001708 0.002640 0.038871
v 0.001708 0.002640 0.038871
v 0.001704 0.004138 0.037783
v 0.001704 0.004138 0.037783
v 0.001704 0.004138 0.037783
v 0.001704 0.004138 0.037783
v 0.001704 0.004138 0.037783
v 0.001704 0.004138 0.037783
v 0.001711 -0.005246 0.030754
v 0.001711 -0.005246 0.030754
v 0.001711 -0.005246 0.030754
v 0.001711 -0.005246 0.030754
v 0.001711 -0.005246 0.030754
v 0.001711 -0.005246 0.030754
v 0.001753 -0.005560 0.013314
v 0.001753 -0.005560 0.013314
v 0.001753 -0.005560 0.013314
v 0.001753 -0.005560 0.013314
v 0.001753 -0.005560 0.013314
v 0.001753 -0.005560 0.013314
v 0.001753 -0.005560 0.013314
v 0.001753 -0.005560 0.013314
v 0.001753 -0.005560 0.013314
v 0.001717 0.004985 0.036280
v 0.001717 0.004985 0.036280
v 0.001717 0.004985 0.036280
v 0.001717 0.004985 0.036280
v 0.001717 0.004985 0.036280
v 0.001717 0.004985 0.036280
v 0.001717 0.004985 0.036280
v 0.001717 0.004985 0.036280
v 0.001850 0.005806 -0.032367
v 0.001850 0.005806 -0.032367
v 0.001850 0.005806 -0.032367
v 0.001850 0.005806 -0.032367
v 0.001850 0.005806 -0.032367
v 0.001850 0.005806 -0.032367
v 0.001850 0.005806 -0.032367
v 0.001824 -0.005620 -0.016238
v 0.001824 -0.005620 -0.016238
v 0.001824 -0.005620 -0.016238
v 0.001824 -0.005620 -0.016238
v 0.001824 -0.005620 -0.016238
v 0.001824 -0.005620 -0.016238
v -0.002087 -0.002437 -0.036556
v -0.002087 -0.002437 -0.036556
v -0.002087 -0.002437 -0.036556
v -0.002087 -0.002437 -0.036556
v -0.002140 -0.002665 -0.003244
v -0.002140 -0.002665 -0.003244
v -0.002140 -0.002665 -0.003244
v -0.002140 -0.002665 -0.003244
v -0.002140 -0.002665 -0.003244
v -0.002140 -0.002665 -0.003244
v -0.002172 -0.002634 0.011714
v -0.002172 -0.002634 0.011714
v -0.002172 -0.002634 0.011714
v -0.002172 -0.002634 0.011714
v -0.002172 -0.002634 0.011714
v -0.002172 -0.002634 0.011714
v -0.002172 -0.002634 0.011714
v -0.002171 -0.002625 0.019229
v -0.002171 -0.002625 0.019229
v -0.002171 -0.002625 0.019229
v -0.002171 -0.002625 0.019229
v -0.002171 -0.002625 0.019229
v -0.002171 -0.002625 0.019229
v -0.002193 -0.002469 0.026335
v -0.002193 -0.002469 0.026335
v -0.002193 -0.002469 0.026335
v -0.002193 -0.002469 0.026335
v -0.002193 -0.002469 0.026335
v -0.002193 -0.002469 0.026335
v -0.002252 -0.002196 0.030547
v -0.002252 -0.002196 0.030547
v -0.002252 -0.002196 0.030547
v -0.002252 -0.002196 0.030547
v -0.002252 -0.002196 0.030547
v -0.002252 -0.002196 0.030547
v -0.002267 0.000921 0.036050
v -0.002267 0.000921 0.036050
v -0.002267 0.000921 0.036050
v -0.002161 -0.002656 0.003993
v -0.002161 -0.002656 0.003993
v -0.002161 -0.002656 0.003993
v -0.002161 -0.002656 0.003993
v -0.002161 -0.002656 0.003993
v -0.001798 -0.003359 -0.010598
v -0.001798 -0.003359 -0.010598
v -0.001798 -0.003359 -0.010598
v -0.001798 -0.003359 -0.010598
v -0.002136 -0.002630 -0.011867
v -0.002136 -0.002630 -0.011867
v -0.002136 -0.002630 -0.011867
v -0.002136 -0.002630 -0.011867
v -0.002136 -0.002630 -0.011867
v -0.002136 -0.002630 -0.011867
v -0.002039 -0.002991 -0.006397
v -0.002039 -0.002991 -0.006397
v -0.002039 -0.002991 -0.006397
v -0.002039 -0.002991 -0.006397
v -0.002039 -0.002991 -0.006397
v -0.001875 -0.003283 -0.002605
v -0.001875 -0.003283 -0.002605
v -0.001875 -0.003283 -0.002605
v -0.001875 -0.003283 -0.002605
v -0.001875 -0.003283 -0.002605
v -0.001604 0.000188 0.037013
v -0.001604 0.000188 0.037013
v -0.001604 0.000188 0.037013
v -0.001604 0.000188 0.037013
v -0.001604 0.000188 0.037013
v -0.001604 0.000188 0.037013
v -0.001604 0.000188 0.037013
v -0.001868 -0.003289 0.003490
v -0.001868 -0.003289 0.003490
v -0.001868 -0.003289 0.003490
v -0.001868 -0.003289 0.003490
v -0.001868 -0.003289 0.003490
v -0.001868 -0.003289 0.003490
v -0.001747 -0.003214 -0.031446
v -0.001747 -0.003214 -0.031446
v -0.001747 -0.003214 -0.031446
v -0.002061 -0.002589 -0.031143
v -0.002061 -0.002589 -0.031143
v -0.002061 -0.002589 -0.031143
v -0.002061 -0.002589 -0.031143
v -0.002061 -0.002589 -0.031143
v -0.002061 -0.002589 -0.031143
v -0.001642 -0.003549 -0.013324
v -0.001642 -0.003549 -0.013324
v -0.001642 -0.003549 -0.013324
v -0.001642 -0.003549 -0.013324
v -0.001642 -0.003549 -0.013324
v -0.001642 -0.003549 -0.013324
v -0.001642 -0.003549 -0.013324
v -0.001688 -0.003493 0.007606
v -0.001688 -0.003493 0.007606
v -0.001688 -0.003493 0.007606
v -0.001688 -0.003493 0.007606
v -0.001688 -0.003493 0.007606
v -0.001944 -0.003141 0.012020
v -0.001944 -0.003141 0.012020
v -0.001944 -0.003141 0.012020
v -0.001944 -0.003141 0.012020
v -0.001944 -0.003141 0.012020
v -0.001944 -0.003141 0.012020
v -0.002107 -0.002815 0.015288
v -0.002107 -0.002815 0.015288
v -0.002107 -0.002815 0.015288
v -0.002107 -0.002815 0.015288
v -0.002107 -0.002815 0.015288
v -0.001393 -0.003479 0.029658
v -0.001393 -0.003479 0.029658
v -0.001393 -0.003479 0.029658
v -0.001393 -0.003479 0.029658
v -0.001732 -0.003077 0.031471
v -0.001732 -0.003077 0.031471
v -0.001732 -0.003077 0.031471
v -0.001732 -0.003077 0.031471
v -0.001732 -0.003077 0.031471
v -0.001732 -0.003077 0.031471
v -0.001732 -0.003077 0.031471
v -0.002117 -0.002735 0.021957
v -0.002117 -0.002735 0.021957
v -0.002117 -0.002735 0.021957
v -0.002117 -0.002735 0.021957
v -0.002117 -0.002735 0.021957
v -0.001867 -0.003076 0.027725
v -0.001867 -0.003076 0.027725
v -0.001867 -0.003076 0.027725
v -0.001867 -0.003076 0.027725
v -0.001867 -0.003076 0.027725
v -0.001867 -0.003076 0.027725
v -0.002097 -0.001989 0.033326
v -0.002097 -0.001989 0.033326
v -0.002097 -0.001989 0.033326
v -0.002097 -0.001989 0.033326
v -0.002097 -0.001989 0.033326
v -0.001488 -0.003709 -0.005378
v -0.001488 -0.003709 -0.005378
v -0.001488 -0.003709 -0.005378
v -0.001488 -0.003709 -0.005378
v -0.001488 -0.003709 -0.005378
v -0.001488 -0.003709 -0.005378
v -0.001488 -0.003709 -0.005378
v -0.001484 -0.003710 0.002641
v -0.001484 -0.003710 0.002641
v -0.001484 -0.003710 0.002641
v -0.001484 -0.003710 0.002641
v -0.001484 -0.003710 0.002641
v -0.001484 -0.003710 0.002641
v -0.002255 -0.000729 0.034808
v -0.002255 -0.000729 0.034808
v -0.002255 -0.000729 0.034808
v -0.002255 -0.000729 0.034808
v -0.002255 -0.000729 0.034808
v -0.002255 -0.000729 0.034808
v -0.002255 -0.000729 0.034808
v -0.002079 -0.002907 0.007365
v -0.002079 -0.002907 0.007365
v -0.002079 -0.002907 0.007365
v -0.002079 -0.002907 0.007365
v -0.002079 -0.002907 0.007365
v -0.002119 0.000938 0.036570
v -0.002119 0.000938 0.036570
v -0.002119 0.000938 0.036570
v -0.002119 0.000938 0.036570
v -0.002119 0.000938 0.036570
v -0.002119 0.000938 0.036570
v -0.001851 -0.003224 0.018877
v -0.001851 -0.003224 0.018877
v -0.001851 -0.003224 0.018877
v -0.001851 -0.003224 0.018877
v -0.001851 -0.003224 0.018877
v -0.001997 -0.002927 0.024622
v -0.001997 -0.002927 0.024622
v -0.001997 -0.002927 0.024622
v -0.001997 -0.002927 0.024622
v -0.001514 -0.003504 -0.032044
v -0.001514 -0.003504 -0.032044
v -0.001514 -0.003504 -0.032044
v -0.001514 -0.003504 -0.032044
v -0.001514 -0.003504 -0.032044
v -0.001514 -0.003504 -0.032044
v -0.001514 -0.003504 -0.032044
v -0.001514 -0.003504 -0.032044
v -0.001701 -0.003234 -0.036637
v -0.001701 -0.003234 -0.036637
v -0.001701 -0.003234 -0.036637
v -0.001701 -0.003234 -0.036637
v -0.001701 -0.003234 -0.036637
v -0.001690 0.002407 0.036679
v -0.001690 0.002407 0.036679
v -0.001690 0.002407 0.036679
v -0.001690 0.002407 0.036679
v -0.001690 0.002407 0.036679
v -0.001690 0.002407 0.036679
v -0.001690 0.002407 0.036679
v -0.002264 0.001854 0.035874
v -0.002264 0.001854 0.035874
v -0.002264 0.001854 0.035874
v -0.002264 0.001854 0.035874
v -0.002264 0.001854 0.035874
v -0.002264 0.001854 0.035874
v -0.002264 0.001854 0.035874
v -0.002264 0.001854 0.035874
v -0.002264 0.001854 0.035874
v -0.002264 0.001854 0.035874
v -0.001526 0.001551 0.037218
v -0.001526 0.001551 0.037218
v -0.001526 0.001551 0.037218
v -0.001526 0.001551 0.037218
v -0.001526 0.001551 0.037218
v -0.001526 0.001551 0.037218
v -0.000993 0.004232 -0.035660
v -0.000993 0.004232 -0.035660
v -0.000993 0.004232 -0.035660
v -0.000993 0.004232 -0.035660
v -0.000993 0.004232 -0.035660
v -0.000993 0.004232 -0.035660
v -0.002086 0.002980 -0.035932
v -0.002086 0.002980 -0.035932
v -0.002086 0.002980 -0.035932
v -0.002086 0.002980 -0.035932
v -0.002086 0.002980 -0.035932
v -0.002086 0.002980 -0.035932
v -0.002086 0.002980 -0.035932
v -0.002086 0.002980 -0.035932
v -0.002086 0.002980 -0.035932
v -0.002086 0.002980 -0.035932
v -0.002086 0.002980 -0.035932
v 0.001045 -0.004953 -0.035298
v 0.001045 -0.004953 -0.035298
v 0.001045 -0.004953 -0.035298
v 0.001796 -0.005409 -0.033818
v 0.001796 -0.005409 -0.033818
v 0.001796 -0.005409 -0.033818
v 0.001796 -0.005409 -0.033818
v 0.001796 -0.005409 -0.033818
v 0.001796 -0.005409 -0.033818
v -0.000198 -0.004218 -0.036305
v -0.000198 -0.004218 -0.036305
v -0.000198 -0.004218 -0.036305
v -0.000198 -0.004218 -0.036305
v -0.000198 -0.004218 -0.036305
v -0.000198 -0.004218 -0.036305
v 0.000955 0.005309 -0.034270
v 0.000955 0.005309 -0.034270
v 0.000955 0.005309 -0.034270
v 0.000955 0.005309 -0.034270
v 0.000955 0.005309 -0.034270
v -0.001576 -0.003482 0.023077
v -0.001576 -0.003482 0.023077
v -0.001576 -0.003482 0.023077
v -0.001576 -0.003482 0.023077
v -0.001576 -0.003482 0.023077
v -0.001576 -0.003482 0.023077
v -0.001576 -0.003482 0.023077
v -0.001576 -0.003482 0.023077
v -0.001544 -0.003573 0.017414
v -0.001544 -0.003573 0.017414
v -0.001544 -0.003573 0.017414
v -0.001544 -0.003573 0.017414
v -0.001544 -0.003573 0.017414
v -0.001544 -0.003573 0.017414
v -0.001612 -0.001449 0.035509
v -0.001612 -0.001449 0.035509
v -0.001612 -0.001449 0.035509
v -0.001612 -0.001449 0.035509
v -0.001612 -0.001449 0.035509
v -0.001612 -0.001449 0.035509
v -0.001517 -0.002605 0.033658
v -0.001517 -0.002605 0.033658
v -0.001517 -0.002605 0.033658
v -0.001517 -0.002605 0.033658
v -0.001517 -0.002605 0.033658
v -0.001467 -0.003683 0.011244
v -0.001467 -0.003683 0.011244
v -0.001467 -0.003683 0.011244
v -0.001467 -0.003683 0.011244
v -0.001467 -0.003683 0.011244
v -0.000062 0.002507 0.037777
v -0.000062 0.002507 0.037777
v -0.000062 0.002507 0.037777
v -0.000062 0.002507 0.037777
v -0.000062 0.002507 0.037777
v 0.000051 0.000660 0.038155
v 0.000051 0.000660 0.038155
v 0.000051 0.000660 0.038155
v 0.000051 0.000660 0.038155
vn 0.9999 0.0058 -0.0087
vn 1.0000 -0.0018 0.0020
vn 1.0000 -0.0018 0.0023
vn 1.0000 -0.0017 0.0020
vn 1.0000 -0.0014 0.0024
vn 1.0000 0.0011 0.0024
vn 1.0000 -0.0008 0.0019
vn 1.0000 -0.0046 -0.0017
vn 0.9997 -0.0068 0.0242
vn 1.0000 -0.0003 0.0085
vn 1.0000 -0.0004 -0.0040
vn -1.0000 -0.0005 0.0047
vn -1.0000 -0.0079 -0.0039
vn -1.0000 0.0067 -0.0005
vn -0.9998 -0.0217 0.0002
vn -0.9999 -0.0102 -0.0029
vn -0.9997 0.0169 -0.0151
vn -1.0000 -0.0040 0.0007
vn -0.9999 0.0006 -0.0113
vn -1.0000 -0.0066 -0.0026
vn -1.0000 0.0027 -0.0015
vn -1.0000 -0.0071 -0.0029
vn -0.8957 -0.4444 0.0162
vn -0.8934 -0.4488 -0.0196
vn -0.9589 -0.2838 -0.0017
vn -0.9226 -0.3855 0.0100
vn -0.8941 -0.4478 -0.0031
vn -0.7860 -0.6181 -0.0069
vn -0.8841 -0.4673 -0.0044
vn -0.6850 -0.7285 0.0038
vn -0.7410 -0.6715 -0.0010
vn -0.7047 -0.7090 0.0251
vn -0.8747 -0.4836 0.0313
vn -0.7380 -0.6748 0.0069
vn -0.7912 -0.6115 0.0040
vn -0.6928 -0.7209 0.0197
vn -0.7649 -0.6100 0.2069
vn -0.8981 -0.4396 -0.0131
vn -0.8937 -0.4410 0.0826
vn -0.7985 -0.6020 0.0068
vn -0.9767 -0.2032 0.0694
vn -0.7837 -0.6210 -0.0141
vn -0.7397 -0.6730 0.0003
vn -0.9194 -0.3934 0.0008
vn -0.7693 -0.5588 0.3097
vn -0.8375 -0.4570 0.2996
vn -0.9081 -0.4188 -0.0021
vn -0.8341 -0.5515 0.0090
vn -0.9100 -0.4145 -0.0086
vn -0.8315 -0.5556 -0.0037
vn -0.7433 -0.6688 0.0103
vn -0.8495 -0.3490 0.3957
vn -0.8416 -0.3634 0.3995
vn -0.9376 -0.2137 0.2745
vn -0.7629 -0.6465 0.0018
vn -0.7489 -0.6627 0.0022
vn -0.9108 -0.4128 -0.0042
vn -0.7390 -0.6737 0.0002
vn -0.8235 -0.5672 0.0155
vn -0.7826 -0.6224 -0.0150
vn -0.9485 -0.3168 -0.0005
vn -0.8820 -0.4713 -0.0014
vn -0.8231 -0.5675 0.0191
vn -0.8053 -0.5929 -0.0066
vn -0.9436 -0.3310 0.0005
vn -0.8960 -0.4437 0.0166
vn -0.9129 -0.4081 0.0060
vn -0.8797 -0.4755 0.0086
vn -0.9053 -0.4247 0.0101
vn -0.9379 -0.3469 0.0047
vn -0.8997 -0.4363 0.0111
vn -0.8624 -0.5060 -0.0101
vn -0.9111 -0.3737 -0.1739
vn -0.7771 0.5361 0.3296
vn -0.8085 0.1946 0.5553
vn -0.9606 0.0544 0.2726
vn -0.8557 0.3853 0.3454
vn -0.7046 -0.0656 0.7066
vn -0.8590 0.2161 0.4642
vn -0.7537 0.6572 0.0034
vn -0.8112 0.5847 0.0040
vn -0.9632 0.2688 0.0018
vn 0.8970 0.0518 -0.4390
vn 0.8984 0.0521 -0.4361
vn 0.0275 0.1144 -0.9931
vn 0.1098 0.1188 -0.9868
vn 0.2755 0.0991 -0.9562
vn 0.5341 0.1143 -0.8376
vn 0.6563 0.0809 -0.7502
vn -0.4928 -0.8474 0.1976
vn -0.4962 -0.8682 0.0001
vn -0.4983 -0.8670 0.0006
vn -0.5173 -0.8558 -0.0072
vn -0.5163 -0.8564 -0.0056
vn -0.5171 -0.8510 0.0917
vn -0.5028 -0.8644 -0.0095
vn -0.5016 -0.8650 -0.0123
vn -0.5032 -0.8641 -0.0106
vn -0.5431 -0.8393 -0.0271
vn -0.4988 -0.8666 0.0144
vn -0.4987 -0.8667 0.0143
vn -0.5059 -0.8625 0.0111
vn -0.5195 -0.5770 0.6303
vn -0.4968 -0.6390 0.5873
vn -0.5078 -0.8614 0.0087
vn -0.4986 -0.7568 0.4227
vn -0.5086 -0.7416 0.4374
vn -0.5100 -0.8291 0.2290
vn -0.5053 -0.8629 0.0037
vn -0.4951 0.5332 0.6860
vn -0.5339 0.3746 0.7581
vn -0.4573 -0.1211 0.8811
vn -0.5075 -0.2299 0.8304
vn -0.4894 0.2637 0.8312
vn -0.4784 0.5150 0.7112
vn -0.5265 0.1936 0.8279
vn -0.5471 -0.0935 0.8318
vn -0.5096 0.0030 0.8604
vn -0.5176 0.7158 0.4688
vn -0.4998 0.7564 0.4218
vn -0.4922 -0.4995 0.7129
vn -0.4865 0.8737 0.0095
vn -0.4925 0.8703 0.0091
vn -0.4829 0.8757 -0.0015
s 1
usemtl white
f 14//1 25//1 28//1
f 31//2 65//2 18//2
f 37//3 69//3 32//3
f 50//4 68//4 35//4
f 56//5 72//5 53//5
f 79//6 60//6 84//6
f 75//7 67//7 64//7
f 321//8 77//8 80//8
f 19//9 43//9 23//9
f 12//10 66//10 45//10
f 13//11 44//11 40//11
f 165//12 303//12 89//12
f 134//13 313//13 169//13
f 94//14 304//14 135//14
f 286//15 96//15 107//15
f 290//16 103//16 111//16
f 288//17 112//17 118//17
f 237//18 281//18 116//18
f 238//19 123//19 285//19
f 283//20 312//20 98//20
f 102//21 310//21 124//21
f 128//22 305//22 90//22
f 119//23 109//23 210//23
f 176//24 130//24 136//24
f 137//25 139//25 91//25
f 95//26 143//26 144//26
f 164//27 171//27 166//27
f 262//28 175//28 163//28
f 177//29 138//29 170//29
f 359//30 182//30 228//30
f 229//31 179//31 156//31
f 197//32 202//32 211//32
f 201//33 115//33 213//33
f 256//34 346//34 340//34
f 339//35 215//35 260//35
f 196//36 214//36 336//36
f 356//37 218//37 198//37
f 133//38 131//38 141//38
f 199//39 219//39 120//39
f 129//40 225//40 140//40
f 220//41 234//41 117//41
f 142//42 224//42 148//42
f 158//43 147//43 230//43
f 92//44 146//44 159//44
f 355//45 352//45 217//45
f 350//46 235//46 216//46
f 160//47 126//47 93//47
f 181//48 243//48 161//48
f 157//49 242//49 127//49
f 241//50 178//50 186//50
f 360//51 187//51 180//51
f 247//52 236//52 154//52
f 150//53 240//53 349//53
f 121//54 239//54 249//54
f 227//55 132//55 173//55
f 347//56 188//56 362//56
f 192//57 100//57 184//57
f 231//58 145//58 226//58
f 190//59 185//59 345//59
f 193//60 343//60 254//60
f 125//61 244//61 101//61
f 252//62 206//62 105//62
f 335//63 207//63 253//63
f 208//64 334//64 257//64
f 99//65 189//65 104//65
f 258//66 212//66 110//66
f 245//67 183//67 97//67
f 255//68 108//68 191//68
f 259//69 113//69 209//69
f 106//70 205//70 114//70
f 267//71 87//71 273//71
f 261//72 168//72 86//72
f 162//73 167//73 266//73
f 274//74 6//74 8//74
f 294//75 279//75 246//75
f 251//76 282//76 122//76
f 278//77 11//77 287//77
f 151//78 293//78 250//78
f 280//79 284//79 248//79
f 5//80 302//80 309//80
f 10//81 3//81 308//81
f 289//82 9//82 306//82
f 320//83 314//83 333//83
f 317//84 330//84 78//84
f 272//85 88//85 311//85
f 271//86 307//86 298//86
f 327//87 270//87 297//87
f 326//88 299//88 331//88
f 316//89 325//89 332//89
f 39//90 204//90 54//90
f 221//91 62//91 232//91
f 58//92 222//92 85//92
f 83//93 223//93 174//93
f 268//94 82//94 172//94
f 200//95 195//95 55//95
f 81//96 265//96 319//96
f 322//97 324//97 315//97
f 263//98 323//98 318//98
f 269//99 328//99 264//99
f 52//100 338//100 59//100
f 194//101 341//101 51//101
f 337//102 344//102 63//102
f 155//103 351//103 16//103
f 17//104 353//104 34//104
f 342//105 361//105 61//105
f 33//106 354//106 38//106
f 348//107 357//107 30//107
f 358//108 203//108 36//108
f 363//109 233//109 57//109
f 364//110 47//110 275//110
f 368//111 277//111 291//111
f 370//112 29//112 20//112
f 152//113 26//113 369//113
f 21//114 367//114 296//114
f 366//115 42//115 48//115
f 22//116 41//116 365//116
f 372//117 292//117 153//117
f 371//118 24//118 295//118
f 49//119 1//119 276//119
f 46//120 70//120 4//120
f 149//121 15//121 27//121
f 74//122 7//122 71//122
f 301//123 2//123 73//123
f 329//124 300//124 76//124
