# Blender 3.6.1
# www.blender.org
mtllib link6_7.mtl
o link6_7
v -0.000601 -0.000018 -0.000500
v -0.000601 -0.000018 -0.000500
v -0.000601 -0.000018 -0.000500
v -0.000601 -0.000018 -0.000500
v -0.001422 -0.000064 -0.000500
v -0.001421 -0.000063 0.000000
v -0.001421 -0.000063 0.000000
v -0.001421 -0.000063 0.000000
v -0.001421 -0.000063 0.000000
v 0.000434 0.000020 -0.000738
v 0.000434 0.000020 -0.000738
v 0.000434 0.000020 -0.000738
v 0.000434 0.000020 -0.000738
v 0.000267 0.000010 -0.001350
v 0.000267 0.000010 -0.001350
v -0.000164 -0.000001 -0.000927
v -0.000164 -0.000001 -0.000927
v -0.000164 -0.000001 -0.000927
v -0.000192 0.000001 -0.000125
v -0.000192 0.000001 -0.000125
v -0.000192 0.000001 -0.000125
v -0.000192 0.000001 0.000000
v -0.000192 0.000001 0.000000
v -0.000192 0.000001 0.000000
v -0.000192 0.000001 0.000000
v 0.000833 0.000029 -0.000796
v 0.000833 0.000029 -0.000796
v 0.000833 0.000029 -0.000796
v 0.000931 0.000033 -0.000250
v 0.000931 0.000033 -0.000250
v 0.001389 0.000038 -0.000250
v -0.000601 -0.000018 0.000500
v -0.000601 -0.000018 0.000500
v -0.000601 -0.000018 0.000500
v -0.000601 -0.000018 0.000500
v -0.001422 -0.000064 0.000500
v -0.000192 0.000001 0.000125
v -0.000192 0.000001 0.000125
v -0.000192 0.000001 0.000125
v -0.000164 -0.000001 0.000927
v -0.000164 -0.000001 0.000927
v -0.000164 -0.000001 0.000927
v 0.000434 0.000020 0.000738
v 0.000434 0.000020 0.000738
v 0.000434 0.000020 0.000738
v 0.000434 0.000020 0.000738
v 0.000267 0.000010 0.001350
v 0.000267 0.000010 0.001350
v 0.000833 0.000029 0.000795
v 0.000833 0.000029 0.000795
v 0.000833 0.000029 0.000795
v 0.000931 0.000033 0.000250
v 0.000931 0.000033 0.000250
v 0.001389 0.000038 0.000250
vn -0.0558 0.9984 -0.0022
vn -0.0330 0.9994 -0.0065
vn -0.0422 0.9991 -0.0040
vn -0.0339 0.9994 -0.0037
vn -0.0518 0.9986 0.0048
vn -0.0456 0.9990 -0.0003
vn -0.0237 0.9997 -0.0089
vn -0.0228 0.9997 -0.0028
vn -0.0125 0.9999 -0.0046
vn -0.0520 0.9986 -0.0046
vn -0.0558 0.9984 0.0022
vn -0.0456 0.9990 0.0003
vn -0.0422 0.9991 0.0040
vn -0.0339 0.9994 0.0037
vn -0.0330 0.9994 0.0065
vn -0.0228 0.9997 0.0028
vn -0.0236 0.9997 0.0089
vn -0.0125 0.9999 0.0046
s 1
usemtl light_blue
f 1//1 5//1 9//1
f 13//2 14//2 17//2
f 19//3 18//3 4//3
f 21//4 11//4 16//4
f 25//5 3//5 7//5
f 24//6 20//6 2//6
f 26//7 15//7 10//7
f 29//8 27//8 12//8
f 31//9 28//9 30//9
f 33//10 22//10 6//10
f 32//11 8//11 36//11
f 37//12 23//12 34//12
f 42//13 38//13 35//13
f 43//14 39//14 40//14
f 47//15 44//15 41//15
f 49//16 53//16 45//16
f 50//17 46//17 48//17
f 54//18 52//18 51//18
