# Blender 3.6.1
# www.blender.org
mtllib link6_4.mtl
o link6_4
v 0.000244 -0.000577 -0.001267
v 0.000244 -0.000577 -0.001267
v 0.000244 -0.000577 -0.001267
v 0.000244 -0.000577 -0.001267
v -0.000071 -0.000858 -0.000151
v -0.000071 -0.000858 -0.000151
v -0.000071 -0.000858 -0.000151
v -0.000071 -0.000858 -0.000151
v -0.000071 -0.000858 -0.000151
v -0.000071 -0.000858 -0.000151
v -0.000274 -0.000997 -0.001224
v -0.000274 -0.000997 -0.001224
v -0.000274 -0.000997 -0.001224
v 0.000226 -0.000493 0.000015
v 0.000226 -0.000493 0.000015
v 0.000226 -0.000493 0.000015
v 0.000226 -0.000493 0.000015
v 0.000226 -0.000493 0.000015
v 0.000020 -0.000724 0.001316
v 0.000020 -0.000724 0.001316
v 0.000020 -0.000724 0.001316
v 0.000020 -0.000724 0.001316
v 0.000020 -0.000724 0.001316
v 0.000020 -0.000724 0.001316
v 0.000020 -0.000724 0.001316
v -0.000390 -0.000988 0.001288
v -0.000390 -0.000988 0.001288
v -0.000390 -0.000988 0.001288
v -0.000251 0.001004 -0.001416
v -0.000251 0.001004 -0.001416
v -0.000251 0.001004 -0.001416
v 0.000390 0.000111 -0.001318
v 0.000390 0.000111 -0.001318
v 0.000390 0.000111 -0.001318
v 0.000390 0.000111 -0.001318
v 0.000390 0.000111 -0.001318
v 0.000310 -0.000143 -0.001685
v 0.000310 -0.000143 -0.001685
v 0.000310 -0.000143 -0.001685
v 0.000310 -0.000143 -0.001685
v 0.000310 -0.000143 -0.001685
v 0.000310 -0.000143 -0.001685
v 0.000263 0.000560 -0.001394
v 0.000263 0.000560 -0.001394
v 0.000263 0.000560 -0.001394
v 0.000263 0.000560 -0.001394
v 0.000263 0.000560 -0.001394
v 0.000263 0.000560 -0.001394
v 0.000263 0.000560 -0.001394
v 0.000263 0.000560 -0.001394
v 0.000068 -0.000771 -0.001511
v 0.000068 -0.000771 -0.001511
v 0.000068 -0.000771 -0.001511
v 0.000068 -0.000771 -0.001511
v 0.000068 -0.000771 -0.001511
v 0.000068 -0.000771 -0.001511
v 0.000068 -0.000771 -0.001511
v 0.000068 -0.000771 -0.001511
v 0.000356 -0.000307 -0.001380
v 0.000356 -0.000307 -0.001380
v 0.000356 -0.000307 -0.001380
v 0.000356 -0.000307 -0.001380
v 0.000356 -0.000307 -0.001380
v 0.000356 -0.000307 -0.001380
v 0.000063 -0.000318 -0.001968
v 0.000063 -0.000318 -0.001968
v 0.000063 -0.000318 -0.001968
v 0.000063 -0.000318 -0.001968
v 0.000063 -0.000318 -0.001968
v -0.000234 -0.000889 -0.001680
v -0.000234 -0.000889 -0.001680
v -0.000219 -0.000649 -0.001967
v -0.000219 -0.000649 -0.001967
v -0.000219 -0.000649 -0.001967
v 0.000140 0.000390 -0.001874
v 0.000140 0.000390 -0.001874
v 0.000140 0.000390 -0.001874
v 0.000140 0.000390 -0.001874
v 0.000140 0.000390 -0.001874
v 0.000140 0.000390 -0.001874
v -0.000203 -0.000197 -0.002199
v -0.000203 -0.000197 -0.002199
v -0.000203 -0.000197 -0.002199
v -0.000205 0.000304 -0.002166
v -0.000205 0.000304 -0.002166
v -0.000219 0.000755 -0.001898
v -0.000219 0.000755 -0.001898
v -0.000219 0.000755 -0.001898
v 0.000259 0.000402 0.000017
v 0.000259 0.000402 0.000017
v 0.000259 0.000402 0.000017
v 0.000259 0.000402 0.000017
v 0.000259 0.000402 0.000017
v -0.000054 0.000845 0.000029
v -0.000054 0.000845 0.000029
v -0.000054 0.000845 0.000029
v -0.000054 0.000845 0.000029
v -0.000054 0.000845 0.000029
v 0.000129 0.000573 0.001271
v 0.000129 0.000573 0.001271
v 0.000129 0.000573 0.001271
v 0.000129 0.000573 0.001271
v 0.000129 0.000573 0.001271
v -0.000389 0.000998 0.001369
v -0.000389 0.000998 0.001369
v -0.000338 0.001002 -0.000033
v -0.000338 0.001002 -0.000033
v -0.000338 0.001002 -0.000033
v -0.000162 0.000865 0.001453
v -0.000162 0.000865 0.001453
v -0.000162 0.000865 0.001453
v -0.000162 0.000865 0.001453
v -0.000162 0.000865 0.001453
v -0.000162 0.000865 0.001453
v -0.000162 0.000865 0.001453
v 0.000210 0.000346 0.001436
v 0.000210 0.000346 0.001436
v 0.000210 0.000346 0.001436
v 0.000210 0.000346 0.001436
v 0.000210 0.000346 0.001436
v 0.000210 0.000346 0.001436
v 0.000210 0.000346 0.001436
v -0.000410 0.000769 0.001772
v -0.000410 0.000769 0.001772
v -0.000410 0.000769 0.001772
v -0.000155 0.000460 0.001883
v -0.000155 0.000460 0.001883
v -0.000155 0.000460 0.001883
v -0.000155 0.000460 0.001883
v -0.000155 0.000460 0.001883
v -0.000420 -0.000151 0.002136
v -0.000420 -0.000151 0.002136
v -0.000420 -0.000151 0.002136
v -0.000054 0.000044 0.001954
v -0.000054 0.000044 0.001954
v -0.000054 0.000044 0.001954
v -0.000054 0.000044 0.001954
v -0.000054 0.000044 0.001954
v -0.000054 0.000044 0.001954
v -0.000414 -0.000585 0.001945
v -0.000414 -0.000585 0.001945
v -0.000414 -0.000585 0.001945
v -0.000118 -0.000316 0.001926
v -0.000118 -0.000316 0.001926
v -0.000118 -0.000316 0.001926
v -0.000118 -0.000316 0.001926
v -0.000118 -0.000316 0.001926
v 0.000182 -0.000267 0.001547
v 0.000182 -0.000267 0.001547
v 0.000182 -0.000267 0.001547
v 0.000182 -0.000267 0.001547
v 0.000182 -0.000267 0.001547
v 0.000182 -0.000267 0.001547
v -0.000110 -0.000593 0.001748
v -0.000110 -0.000593 0.001748
v -0.000110 -0.000593 0.001748
v -0.000110 -0.000593 0.001748
v -0.000110 -0.000593 0.001748
v -0.000418 0.000414 0.002057
v -0.000418 0.000414 0.002057
v -0.000418 0.000414 0.002057
v 0.000261 -0.000188 0.001242
v 0.000261 -0.000188 0.001242
v 0.000261 -0.000188 0.001242
v 0.000261 -0.000188 0.001242
v 0.000261 -0.000188 0.001242
v 0.000261 -0.000188 0.001242
v 0.000261 -0.000188 0.001242
v -0.000406 -0.000855 0.001640
v -0.000406 -0.000855 0.001640
v -0.000406 -0.000855 0.001640
vn 0.7734 -0.6338 0.0099
vn 0.7210 -0.6923 0.0294
vn 0.5532 -0.8330 0.0033
vn 0.9283 -0.3699 0.0375
vn 0.9135 -0.4002 0.0735
vn 0.5388 -0.8413 0.0434
vn 0.7625 -0.6447 0.0532
vn 0.4712 -0.8817 0.0248
vn 0.9954 -0.0869 0.0400
vn 0.9512 -0.3046 0.0485
vn 0.6264 0.7089 -0.3243
vn 0.5476 -0.6568 -0.5184
vn 0.8522 -0.4595 -0.2503
vn 0.6382 -0.5435 -0.5453
vn 0.8356 -0.4198 -0.3543
vn 0.4398 -0.8818 -0.1703
vn 0.7958 -0.4257 -0.4307
vn 0.6377 0.0533 -0.7684
vn 0.4832 -0.4118 -0.7726
vn 0.9825 -0.0534 -0.1787
vn 0.6685 0.6303 -0.3948
vn 0.9328 0.1894 -0.3065
vn 0.9178 0.2028 -0.3413
vn 0.5082 0.4516 -0.7334
vn 0.6630 0.0271 -0.7482
vn 0.7516 0.0058 -0.6596
vn 0.4986 0.8666 0.0209
vn 0.7215 0.6910 0.0450
vn 0.4783 0.8776 0.0314
vn 0.9879 0.1405 0.0663
vn 0.7493 0.6614 0.0344
vn 0.9250 0.3773 0.0446
vn 0.9960 0.0815 0.0376
vn 0.6538 0.7566 -0.0059
vn 0.4796 0.8771 0.0241
vn 0.9299 0.3650 0.0468
vn 0.9600 0.2781 0.0335
vn 0.3022 0.8216 0.4834
vn 0.7269 0.5058 0.4645
vn 0.3867 -0.3667 0.8462
vn 0.4717 -0.4668 0.7481
vn 0.7825 -0.1836 0.5949
vn 0.8787 0.0458 0.4753
vn 0.7595 -0.3355 0.5573
vn 0.9678 0.0012 0.2517
vn 0.3797 0.5747 0.7250
vn 0.5082 0.6310 0.5861
vn 0.9106 -0.3907 0.1349
vn 0.7633 0.5353 0.3617
vn 0.5046 -0.1538 0.8495
vn 0.7772 0.2834 0.5618
vn 0.3822 -0.6864 0.6187
vn 0.3871 0.1251 0.9135
vn 0.5004 0.2614 0.8254
vn 0.4956 -0.8050 0.3260
vn 0.5275 -0.7558 0.3879
vn 0.7934 -0.4740 0.3819
s 1
usemtl white
f 17//1 21//1 5//1
f 51//2 2//2 7//2
f 52//3 9//3 13//3
f 63//4 15//4 4//4
f 14//5 167//5 25//5
f 27//6 10//6 23//6
f 8//7 3//7 18//7
f 11//8 6//8 26//8
f 166//9 62//9 36//9
f 16//10 61//10 165//10
f 29//11 49//11 88//11
f 72//12 55//12 71//12
f 1//13 54//13 59//13
f 74//14 65//14 56//14
f 64//15 58//15 37//15
f 70//16 53//16 12//16
f 66//17 38//17 57//17
f 85//18 79//18 81//18
f 83//19 69//19 73//19
f 33//20 60//20 41//20
f 46//21 77//21 86//21
f 39//22 75//22 44//22
f 48//23 35//23 40//23
f 87//24 80//24 84//24
f 82//25 76//25 68//25
f 78//26 42//26 67//26
f 104//27 112//27 107//27
f 111//28 101//28 97//28
f 108//29 96//29 30//29
f 32//30 90//30 163//30
f 98//31 99//31 47//31
f 43//32 100//32 93//32
f 91//33 121//33 164//33
f 31//34 95//34 50//34
f 110//35 94//35 106//35
f 102//36 122//36 92//36
f 34//37 45//37 89//37
f 113//38 105//38 125//38
f 127//39 120//39 114//39
f 142//40 143//40 131//40
f 147//41 141//41 158//41
f 145//42 150//42 137//42
f 136//43 151//43 116//43
f 157//44 152//44 144//44
f 148//45 168//45 118//45
f 160//46 128//46 124//46
f 123//47 129//47 109//47
f 22//48 162//48 149//48
f 115//49 119//49 103//49
f 134//50 133//50 146//50
f 130//51 135//51 117//51
f 170//52 155//52 140//52
f 138//53 161//53 132//53
f 126//54 159//54 139//54
f 28//55 19//55 169//55
f 171//56 20//56 156//56
f 154//57 24//57 153//57
