# Blender 4.2.0
# www.blender.org
mtllib tablet_base.mtl
o SM_Simulator_TabletBase_DR017_S0150_A_000
v -0.086586 -0.077221 0.190278
v -0.059908 -0.091298 0.091119
v -0.088746 0.093624 0.198520
v -0.062609 0.076419 0.090118
v -0.059116 0.093623 0.087959
v -0.059503 0.094441 0.084067
v -0.065554 0.075184 0.087971
v -0.066457 -0.095600 0.089950
v -0.096414 0.090009 0.201376
v -0.096571 0.081411 0.201966
v -0.096412 -0.090008 0.201369
v -0.064963 0.088999 0.083999
v -0.066035 0.088999 0.087999
v -0.096029 -0.095561 0.199939
v -0.096264 -0.094929 0.200812
v -0.096299 -0.094591 0.200947
v -0.097838 -0.089544 0.206691
v -0.096625 -0.082606 0.202163
v -0.096347 -0.090162 0.201125
v -0.096313 0.094099 0.200997
v -0.096265 0.094859 0.200820
v -0.096313 0.092299 0.200997
v -0.097790 0.089499 0.206510
v -0.066434 0.095631 0.089964
v -0.061999 0.077904 0.088003
v -0.061463 0.088999 0.087999
v -0.094365 0.092804 0.194350
v -0.088017 -0.081868 0.201950
v -0.057612 -0.095008 0.089211
v -0.059495 -0.095614 0.089285
v -0.089271 -0.088070 0.206498
v -0.088113 -0.089941 0.201081
v -0.087923 -0.095112 0.200628
v -0.057511 -0.093816 0.088058
v -0.087284 0.093780 0.199022
v -0.088013 0.090100 0.200987
v -0.087975 0.080574 0.201603
v -0.057489 0.094326 0.087362
v -0.087282 -0.093769 0.199039
v -0.096317 -0.090344 0.201012
v -0.089589 -0.089884 0.206510
v -0.057791 0.095190 0.089251
v -0.089363 0.089398 0.206718
v -0.087901 0.095132 0.200576
v -0.096355 0.090131 0.201155
v -0.056487 0.073262 0.086107
v -0.056562 0.084326 0.086103
v -0.055194 -0.094956 0.086149
v -0.056876 -0.094559 0.086511
v -0.056487 -0.074038 0.086145
v -0.055242 0.095160 0.084204
v -0.088672 0.092850 0.194229
v -0.052458 -0.073299 0.085999
v -0.052247 0.073773 0.085998
v -0.055173 0.085558 0.086001
v -0.055235 -0.095156 0.084201
v -0.051499 -0.094999 0.085999
v -0.051499 -0.094999 0.083999
v -0.051499 0.094999 0.083999
v -0.051499 0.094999 0.085999
v -0.056550 -0.084626 0.086094
v -0.055449 0.094799 0.086152
v -0.061463 0.088999 0.083999
v -0.091178 0.088313 0.089537
v -0.091187 -0.088396 0.089565
v -0.090436 -0.089494 0.089573
v -0.090242 0.089718 0.089605
v -0.084326 0.095327 0.089616
v -0.089373 0.087811 0.089601
v -0.089464 -0.087601 0.089602
v -0.079181 0.095419 0.089693
v -0.091418 -0.088970 0.092068
v -0.091411 0.088979 0.092076
v -0.118001 -0.035235 0.148071
v -0.118178 0.035544 0.148731
v -0.103400 -0.064961 0.094596
v -0.103896 0.061358 0.095820
v -0.084260 0.092956 0.089573
v -0.127855 -0.021500 0.204497
v -0.128011 0.041499 0.202352
v -0.128001 0.043499 0.202226
v -0.127855 0.021000 0.204497
v -0.130298 0.043499 0.202379
v -0.099434 -0.062116 0.094254
v -0.101569 -0.041500 0.095803
v -0.099491 -0.041499 0.094448
v -0.106786 -0.041499 0.113942
v -0.120248 -0.071219 0.171897
v -0.119736 -0.071265 0.169965
v -0.129855 -0.020000 0.204497
v -0.111513 0.042686 0.227369
v -0.115658 0.042818 0.228426
v -0.115914 0.042499 0.225497
v -0.115841 0.042600 0.244226
v -0.129855 0.020000 0.204497
v -0.115843 0.041051 0.247007
v -0.111647 -0.042557 0.227342
v -0.116795 0.042828 0.246494
v -0.116841 0.038822 0.249363
v -0.115864 0.038829 0.248530
v -0.116703 -0.038895 0.249350
v -0.115867 -0.039602 0.248266
v -0.116132 -0.042897 0.245745
v -0.116715 -0.043722 0.228259
v -0.115723 -0.042741 0.228538
v -0.116280 0.043940 0.227773
v -0.114571 -0.044359 0.227533
v -0.111678 -0.089505 0.206693
v -0.111912 -0.089779 0.217842
v -0.084369 -0.095007 0.089641
v -0.119522 -0.090127 0.200957
v -0.116635 -0.092966 0.199732
v -0.078867 -0.095332 0.084193
v -0.079102 -0.095202 0.089530
v -0.119345 -0.089835 0.198849
v -0.131864 -0.065239 0.201114
v -0.128154 -0.086837 0.223175
v -0.117508 -0.090821 0.195171
v -0.114138 -0.094464 0.196719
v -0.111922 -0.086999 0.223531
v -0.131656 -0.078777 0.227305
v -0.131343 -0.082607 0.226337
v -0.128991 -0.085421 0.224729
v -0.111913 -0.080788 0.227166
v -0.131867 0.063341 0.200576
v -0.131787 -0.043509 0.227548
v -0.131658 -0.043243 0.244119
v -0.131340 0.038820 0.249277
v -0.131551 0.078298 0.227656
v -0.131215 0.082145 0.226641
v -0.098722 -0.077721 0.092191
v -0.101620 0.070693 0.093241
v -0.127349 0.087558 0.222376
v -0.125039 0.089399 0.218793
v -0.129078 0.085429 0.224718
v -0.118947 0.089618 0.196640
v -0.115319 0.092999 0.195120
v -0.096314 0.090389 0.201003
v -0.094095 0.094329 0.192713
v -0.096030 0.095564 0.199941
v -0.094255 0.093095 0.193310
v -0.111736 0.090000 0.206693
v -0.079355 0.095099 0.083999
v -0.059499 0.092999 0.084199
v -0.064985 0.092999 0.084079
v -0.091240 0.093128 0.192647
v -0.111914 0.080357 0.227346
v -0.114207 -0.095197 0.200674
v -0.111918 0.086660 0.223794
v -0.111833 0.089394 0.217491
v -0.091317 0.094326 0.192527
v -0.119354 0.090232 0.200927
v -0.114734 0.094340 0.198373
v -0.118578 0.091082 0.199947
v -0.114174 0.095258 0.200476
v -0.115293 0.094292 0.200917
v -0.131297 0.041788 0.247371
v -0.131384 -0.040268 0.248549
v -0.131308 -0.042500 0.246513
v -0.131655 0.043031 0.245082
v -0.131700 0.039777 0.248594
v -0.131787 0.043441 0.227578
v -0.131703 -0.039042 0.248998
v -0.124614 -0.089679 0.218188
v -0.115913 -0.042324 0.244816
v -0.060605 -0.078879 0.099985
v -0.084856 -0.078879 0.190297
v -0.060605 0.076023 0.099985
v -0.084856 0.076023 0.190297
v -0.059381 -0.078879 0.100185
v -0.083632 -0.078879 0.190497
v -0.059381 0.076023 0.100185
v -0.083632 0.076023 0.190497
v -0.115790 -0.039251 0.228414
v -0.115788 0.039524 0.228314
v -0.115819 0.039536 0.245876
v -0.115820 -0.039830 0.245713
v -0.106137 -0.040209 0.230097
v -0.106465 -0.038221 0.228188
v -0.106533 0.040263 0.244352
v -0.104680 0.039297 0.243922
v -0.104097 0.037528 0.244598
v -0.104091 0.038507 0.230464
v -0.106180 0.038310 0.246217
v -0.105649 -0.038152 0.246119
v -0.104074 -0.038488 0.243952
v -0.106336 -0.040021 0.244836
v -0.103982 -0.038228 0.230668
v -0.104853 0.038479 0.229143
v -0.106646 0.038385 0.228203
v -0.106188 0.040236 0.230272
v -0.104918 -0.038068 0.229050
vn 0.4390 -0.6260 0.6445
vn 0.1094 -0.5900 0.8000
vn -0.0019 -0.9514 0.3079
vn 0.7540 0.6327 0.1766
vn 0.7436 -0.3582 0.5646
vn 0.1493 0.7208 0.6769
vn -0.2524 0.6359 -0.7293
vn 0.7423 -0.3018 0.5982
vn 0.5639 0.1973 0.8020
vn 0.8244 -0.5419 0.1636
vn 0.9478 0.0830 0.3079
vn 0.4898 -0.6028 0.6298
vn 0.1170 -0.9836 -0.1373
vn 0.9519 -0.0626 0.3000
vn 0.7747 -0.1325 0.6183
vn 0.8095 0.2655 0.5237
vn 0.4489 0.3813 0.8081
vn 0.7004 0.1443 0.6990
vn 0.5216 0.5974 0.6091
vn 0.4009 -0.7560 0.5175
vn -0.3186 -0.7537 0.5748
vn -0.0340 -0.9994 0.0064
vn 0.0092 -0.9972 -0.0745
vn 0.0112 -0.1915 0.9814
vn 0.0043 -0.6107 0.7918
vn 0.0065 -0.9550 0.2964
vn 0.0089 -0.2818 0.9594
vn -0.4764 -0.8784 0.0394
vn 0.0088 -0.7015 0.7126
vn 0.0259 0.9973 -0.0690
vn 0.0074 0.9475 0.3196
vn -0.0159 0.9995 -0.0285
vn 0.0053 0.5278 0.8494
vn 0.0070 0.1164 0.9932
vn -0.0012 0.0014 1.0000
vn 0.0034 0.2599 0.9656
vn 0.0065 0.7166 0.6975
vn -0.6861 0.7034 -0.1859
vn -0.7498 0.6297 -0.2033
vn -0.7409 0.6652 -0.0921
vn 0.1242 0.5913 0.7968
vn 0.0022 0.9560 0.2934
vn 0.5569 -0.1918 0.8081
vn 0.5377 0.2321 0.8106
vn -0.0472 -0.7621 -0.6457
vn 0.5939 -0.5666 0.5712
vn -0.0099 -0.7038 0.7103
vn 0.5749 -0.5608 -0.5959
vn 0.5796 0.0011 0.8149
vn 0.5954 0.5552 -0.5808
vn 0.5987 0.5597 0.5730
vn 0.5105 -0.0025 0.8599
vn 0.0175 -0.0008 0.9998
vn 0.0437 -0.0055 0.9990
vn 0.4988 -0.0008 0.8667
vn 0.3832 -0.0015 0.9237
vn 0.4440 0.0014 0.8960
vn -0.0789 0.8818 -0.4649
vn -0.0003 0.6187 -0.7856
vn -0.6719 0.1849 -0.7172
vn -0.6829 -0.1853 -0.7066
vn -0.8701 -0.4063 -0.2790
vn -0.8693 0.4127 -0.2719
vn -0.2110 -0.6672 -0.7144
vn -0.2044 0.0523 -0.9775
vn -0.4475 0.7716 -0.4521
vn -0.5166 0.3097 -0.7983
vn -0.3958 -0.8839 -0.2490
vn -0.2306 0.0443 -0.9720
vn -0.6160 -0.4095 -0.6729
vn -0.4923 0.4403 -0.7508
vn -0.5987 -0.2799 -0.7505
vn -0.8014 -0.0977 -0.5901
vn -0.9660 -0.0037 -0.2585
vn -0.9661 0.0017 -0.2583
vn -0.8929 0.0513 -0.4473
vn -0.9021 0.3006 0.3097
vn -0.6767 -0.7248 0.1297
vn -0.6827 -0.1572 0.7136
vn 0.2286 0.5166 0.8252
vn 0.3511 0.8176 0.4563
vn 0.8279 0.5555 0.0770
vn 0.7448 0.3803 0.5483
vn 0.8756 0.3101 0.3705
vn 0.3146 0.2727 0.9092
vn 0.8657 0.1666 0.4721
vn 0.3672 -0.2768 0.8880
vn 0.8455 -0.2762 0.4571
vn 0.5554 -0.7503 0.3585
vn 0.2881 -0.6255 0.7251
vn 0.6691 -0.3886 0.6335
vn 0.1971 -0.1952 0.9607
vn 0.3119 -0.8785 0.3618
vn -0.4559 -0.8881 0.0583
vn 0.6534 -0.7388 0.1650
vn -0.6887 -0.7205 -0.0806
vn -0.7648 -0.6147 -0.1930
vn -0.7140 -0.6730 -0.1930
vn -0.6303 -0.7572 -0.1717
vn -0.9698 -0.1793 -0.1651
vn 0.6478 -0.5598 0.5167
vn -0.5854 -0.7768 0.2321
vn -0.7049 -0.4953 0.5078
vn -0.5524 -0.6982 0.4555
vn 0.6514 -0.2014 0.7315
vn -0.6942 -0.1192 0.7099
vn 0.7949 -0.0489 0.6047
vn -0.9076 -0.2902 0.3035
vn -0.4518 0.2052 0.8682
vn -0.6531 0.7318 0.1950
vn -0.6652 0.2131 -0.7156
vn -0.4683 0.8818 0.0555
vn -0.5182 0.8538 0.0495
vn -0.6543 0.7389 -0.1611
vn -0.3114 0.8543 0.4162
vn 0.6765 0.7175 0.1659
vn 0.3045 0.8982 0.3172
vn 0.8869 0.0502 0.4593
vn 0.6593 0.1921 0.7269
vn -0.5850 0.7000 0.4096
vn 0.6461 0.5603 0.5183
vn -0.5475 0.8091 0.2136
vn -0.7052 0.4641 0.5361
vn -0.6894 0.1203 0.7144
vn -0.4736 0.5842 0.6591
vn -0.9723 0.1663 -0.1642
vn -0.4382 0.6558 0.6148
vn -0.4497 -0.5139 0.7305
vn -0.5066 -0.7135 0.4840
vn -0.7596 0.3305 0.5601
vn 0.9849 -0.1697 0.0337
vn -0.9658 -0.0000 -0.2593
vn -0.0000 1.0000 -0.0000
vn 0.9658 -0.0000 0.2593
vn -0.0000 -1.0000 -0.0000
vn 0.1612 -0.0000 -0.9869
vn -0.1612 -0.0000 0.9869
vn -0.5998 -0.5430 -0.5876
vn 0.2201 0.3503 -0.9104
vn 0.2396 -0.3297 -0.9132
vn -0.5898 0.5585 -0.5833
vn 0.2907 0.9079 -0.3019
vn 0.3214 -0.8831 -0.3418
vn 0.2239 0.9098 0.3495
vn 0.7251 0.6372 0.2613
vn 0.8912 0.3901 -0.2316
vn 0.8851 0.1794 0.4293
vn 0.3181 0.3392 0.8853
vn 0.4233 -0.2756 0.8630
vn 0.8696 -0.4135 0.2700
vn 0.2847 -0.8667 0.4095
vn 0.9022 -0.3635 -0.2320
vn 0.6421 0.3606 -0.6765
vn 0.6736 -0.2856 -0.6817
vn -0.5985 0.5585 0.5743
vn -0.5904 -0.5762 0.5653
vt 0.000000 0.000000
vt 0.224341 0.099804
vt 0.000070 0.000070
vt 0.241350 0.045547
vt 0.582161 0.312179
vt 0.442176 0.138130
vt 0.000070 0.458494
vt 0.000070 0.312320
vt 0.146244 0.312320
vt 0.341022 0.106416
vt 0.656506 0.074583
vt 0.146244 0.458494
vt 0.999929 0.312179
s 1
usemtl M_head_tilt_link_visual_2
f 41/1/1 17/1/2 11/1/3
f 42/1/4 38/1/5 62/1/6
f 143/1/7 42/1/4 62/1/6
f 41/1/1 32/1/8 31/1/9
f 29/1/10 34/1/11 33/1/12
f 29/1/10 33/1/12 30/1/13
f 39/1/14 32/1/8 33/1/12
f 37/1/15 36/1/16 43/1/17
f 39/1/14 37/1/15 28/1/18
f 39/1/14 28/1/18 32/1/8
f 44/1/19 38/1/5 42/1/4
f 49/1/20 38/1/5 34/1/11
f 39/1/14 36/1/16 37/1/15
f 38/1/5 39/1/14 34/1/11
f 32/1/8 28/1/18 31/1/9
f 33/1/12 34/1/11 39/1/14
f 29/1/10 49/1/20 34/1/11
f 148/1/21 114/1/22 8/1/23
f 30/1/13 33/1/12 8/1/23
f 33/1/12 16/1/24 15/1/25
f 33/1/12 15/1/25 14/1/26
f 33/1/12 40/1/27 16/1/24
f 32/1/8 40/1/27 33/1/12
f 148/1/21 16/1/24 111/1/28
f 32/1/8 11/1/3 19/1/29
f 19/1/29 40/1/27 32/1/8
f 11/1/3 32/1/8 41/1/1
f 41/1/1 31/1/9 17/1/2
f 42/1/4 143/1/7 24/1/30
f 42/1/4 24/1/30 44/1/19
f 140/1/31 44/1/19 71/1/32
f 44/1/19 140/1/31 21/1/33
f 20/1/34 36/1/16 44/1/19
f 21/1/33 20/1/34 44/1/19
f 22/1/35 36/1/16 20/1/34
f 22/1/35 138/1/36 36/1/16
f 138/1/36 45/1/37 36/1/16
f 24/1/30 71/1/32 44/1/19
f 137/1/38 136/1/39 154/1/40
f 43/1/17 36/1/16 23/1/41
f 36/1/16 9/1/42 23/1/41
f 30/1/13 8/1/23 49/1/20
f 23/1/41 10/1/43 37/1/15
f 31/1/9 28/1/18 18/1/44
f 17/1/2 31/1/9 18/1/44
f 111/1/28 19/1/29 11/1/3
f 44/1/19 36/1/16 38/1/5
f 39/1/14 38/1/5 36/1/16
f 56/1/45 57/1/46 48/1/47
f 57/1/46 56/1/45 58/1/48
f 54/1/49 57/1/46 58/1/48
f 58/1/48 59/1/50 54/1/49
f 54/1/49 59/1/50 60/1/51
f 48/1/47 61/1/52 49/1/20
f 61/1/52 48/1/47 57/1/46
f 54/1/49 53/1/53 57/1/46
f 62/1/6 55/1/54 60/1/51
f 55/1/54 62/1/6 47/1/55
f 61/1/52 50/1/56 49/1/20
f 46/1/57 38/1/5 49/1/20
f 46/1/57 49/1/20 50/1/56
f 38/1/5 46/1/57 47/1/55
f 62/1/6 38/1/5 47/1/55
f 62/1/6 51/1/58 6/1/59
f 59/1/50 51/1/58 60/1/51
f 6/1/59 51/1/58 59/1/50
f 58/1/48 56/1/45 6/1/59
f 59/1/50 58/1/48 6/1/59
f 64/1/60 65/1/61 72/1/62
f 73/1/63 64/1/60 72/1/62
f 143/1/7 113/1/64 69/1/65
f 68/1/66 143/1/7 78/1/67
f 71/1/32 143/1/7 68/1/66
f 68/1/66 78/1/67 69/1/65
f 114/1/22 110/1/68 113/1/64
f 64/1/60 69/1/65 70/1/69
f 64/1/60 70/1/69 65/1/61
f 143/1/7 69/1/65 78/1/67
f 110/1/68 66/1/70 113/1/64
f 70/1/69 66/1/70 65/1/61
f 69/1/65 64/1/60 67/1/71
f 69/1/65 67/1/71 68/1/66
f 131/1/72 73/1/63 72/1/62
f 76/1/73 74/1/74 75/1/75
f 76/1/73 75/1/75 77/1/76
f 162/1/77 127/1/78 163/1/79
f 106/1/80 98/1/81 94/1/82
f 94/1/82 92/1/83 106/1/80
f 94/1/82 98/1/81 96/1/84
f 96/1/84 98/1/81 99/1/85
f 96/1/84 99/1/85 100/1/86
f 101/1/87 102/1/88 100/1/86
f 101/1/87 100/1/86 99/1/85
f 102/1/88 101/1/87 103/1/89
f 103/1/89 104/1/90 105/1/91
f 105/1/91 104/1/90 107/1/92
f 18/1/44 23/1/41 17/1/2
f 111/1/28 17/1/2 108/1/93
f 111/1/28 108/1/93 164/1/94
f 11/1/3 17/1/2 111/1/28
f 108/1/93 109/1/95 164/1/94
f 148/1/21 14/1/26 15/1/25
f 49/1/20 8/1/23 113/1/64
f 111/1/28 112/1/96 148/1/21
f 16/1/24 148/1/21 15/1/25
f 65/1/61 66/1/70 72/1/62
f 111/1/28 115/1/97 112/1/96
f 115/1/97 111/1/28 164/1/94
f 118/1/98 72/1/62 66/1/70
f 148/1/21 112/1/96 119/1/99
f 148/1/21 119/1/99 110/1/68
f 72/1/62 118/1/98 115/1/97
f 72/1/62 115/1/97 164/1/94
f 66/1/70 110/1/68 119/1/99
f 66/1/70 119/1/99 118/1/98
f 116/1/100 76/1/73 131/1/72
f 164/1/94 120/1/101 117/1/102
f 122/1/103 123/1/104 120/1/101
f 124/1/105 121/1/106 122/1/103
f 123/1/104 117/1/102 120/1/101
f 97/1/107 107/1/92 121/1/106
f 97/1/107 121/1/106 124/1/105
f 127/1/78 126/1/108 104/1/90
f 127/1/78 104/1/90 103/1/89
f 128/1/109 101/1/87 99/1/85
f 163/1/79 101/1/87 128/1/109
f 160/1/110 98/1/81 162/1/77
f 162/1/77 98/1/81 106/1/80
f 131/1/72 76/1/73 132/1/111
f 131/1/72 132/1/111 73/1/63
f 132/1/111 76/1/73 77/1/76
f 134/1/112 152/1/113 136/1/39
f 68/1/66 153/1/114 155/1/115
f 152/1/113 150/1/116 142/1/117
f 152/1/113 142/1/117 23/1/41
f 152/1/113 134/1/112 150/1/116
f 23/1/41 9/1/42 152/1/113
f 71/1/32 68/1/66 155/1/115
f 6/1/59 113/1/64 143/1/7
f 62/1/6 6/1/59 143/1/7
f 106/1/80 91/1/118 147/1/119
f 147/1/119 162/1/77 106/1/80
f 164/1/94 109/1/95 120/1/101
f 135/1/120 149/1/121 133/1/122
f 149/1/121 135/1/120 130/1/123
f 147/1/119 130/1/123 129/1/124
f 150/1/116 134/1/112 149/1/121
f 149/1/121 134/1/112 133/1/122
f 130/1/123 147/1/119 149/1/121
f 112/1/96 115/1/97 118/1/98
f 120/1/101 124/1/105 122/1/103
f 147/1/119 129/1/124 162/1/77
f 60/1/51 51/1/58 62/1/6
f 143/1/7 71/1/32 24/1/30
f 153/1/114 137/1/38 154/1/40
f 140/1/31 71/1/32 155/1/115
f 21/1/33 155/1/115 156/1/125
f 156/1/125 20/1/34 21/1/33
f 140/1/31 155/1/115 21/1/33
f 138/1/36 22/1/35 156/1/125
f 156/1/125 22/1/35 20/1/34
f 152/1/113 138/1/36 156/1/125
f 152/1/113 45/1/37 138/1/36
f 45/1/37 152/1/113 9/1/42
f 36/1/16 45/1/37 9/1/42
f 152/1/113 156/1/125 154/1/40
f 64/1/60 73/1/63 67/1/71
f 68/1/66 67/1/71 153/1/114
f 153/1/114 67/1/71 137/1/38
f 77/1/76 125/1/126 132/1/111
f 155/1/115 153/1/114 156/1/125
f 134/1/112 67/1/71 73/1/63
f 156/1/125 153/1/114 154/1/40
f 67/1/71 134/1/112 136/1/39
f 67/1/71 136/1/39 137/1/38
f 121/1/106 126/1/108 116/1/100
f 129/1/124 125/1/126 162/1/77
f 152/1/113 154/1/40 136/1/39
f 98/1/81 160/1/110 157/1/127
f 98/1/81 157/1/127 99/1/85
f 128/1/109 99/1/85 157/1/127
f 101/1/87 163/1/79 158/1/128
f 159/1/129 103/1/89 158/1/128
f 101/1/87 158/1/128 103/1/89
f 103/1/89 159/1/129 127/1/78
f 157/1/127 161/1/130 128/1/109
f 157/1/127 160/1/110 161/1/130
f 161/1/130 163/1/79 128/1/109
f 158/1/128 163/1/79 159/1/129
f 163/1/79 127/1/78 159/1/129
f 127/1/78 162/1/77 126/1/108
f 126/1/108 162/1/77 116/1/100
f 162/1/77 161/1/130 160/1/110
f 162/1/77 163/1/79 161/1/130
f 125/1/126 116/1/100 162/1/77
f 56/1/45 49/1/20 113/1/64
f 30/1/13 49/1/20 29/1/10
f 49/1/20 56/1/45 48/1/47
f 119/1/99 112/1/96 118/1/98
f 16/1/24 40/1/27 111/1/28
f 19/1/29 111/1/28 40/1/27
f 148/1/21 110/1/68 114/1/22
f 148/1/21 8/1/23 14/1/26
f 33/1/12 14/1/26 8/1/23
f 70/1/69 69/1/65 113/1/64
f 70/1/69 113/1/64 66/1/70
f 8/1/23 114/1/22 113/1/64
f 164/1/94 116/1/100 72/1/62
f 125/1/126 74/1/74 116/1/100
f 75/1/75 74/1/74 125/1/126
f 131/1/72 72/1/62 116/1/100
f 105/1/91 107/1/92 97/1/107
f 92/1/83 91/1/118 106/1/80
f 123/1/104 122/1/103 116/1/100
f 164/1/94 117/1/102 116/1/100
f 123/1/104 116/1/100 117/1/102
f 122/1/103 121/1/106 116/1/100
f 103/1/89 105/1/91 165/1/131
f 103/1/89 165/1/131 102/1/88
f 107/1/92 104/1/90 121/1/106
f 126/1/108 121/1/106 104/1/90
f 130/1/123 125/1/126 129/1/124
f 125/1/126 130/1/123 135/1/120
f 135/1/120 133/1/122 125/1/126
f 134/1/112 125/1/126 133/1/122
f 134/1/112 73/1/63 125/1/126
f 125/1/126 73/1/63 132/1/111
f 77/1/76 75/1/75 125/1/126
f 76/1/73 116/1/100 74/1/74
f 43/1/17 23/1/41 37/1/15
f 108/1/93 17/1/2 23/1/41
f 23/1/41 18/1/44 10/1/43
f 18/1/44 28/1/18 10/1/43
f 37/1/15 10/1/43 28/1/18
f 142/1/117 109/1/95 108/1/93
f 150/1/116 109/1/95 142/1/117
f 150/1/116 149/1/121 109/1/95
f 109/1/95 149/1/121 120/1/101
f 149/1/121 147/1/119 120/1/101
f 124/1/105 120/1/101 97/1/107
f 147/1/119 91/1/118 120/1/101
f 120/1/101 91/1/118 97/1/107
f 105/1/91 97/1/107 91/1/118
f 91/1/118 92/1/83 105/1/91
f 94/1/82 105/1/91 92/1/83
f 105/1/91 94/1/82 165/1/131
f 94/1/82 96/1/84 165/1/131
f 165/1/131 96/1/84 102/1/88
f 96/1/84 100/1/86 102/1/88
f 57/1/46 53/1/53 61/1/52
f 61/1/52 53/1/53 50/1/56
f 53/1/53 54/1/49 50/1/56
f 50/1/56 54/1/49 46/1/57
f 60/1/51 55/1/54 54/1/49
f 54/1/49 55/1/54 46/1/57
f 47/1/55 46/1/57 55/1/54
f 56/1/45 113/1/64 6/1/59
f 142/1/117 108/1/93 23/1/41
f 169/2/132 168/3/132 166/4/132
f 173/5/133 172/6/133 168/3/133
f 171/7/134 170/8/134 172/9/134
f 167/10/135 166/4/135 170/11/135
f 168/3/136 172/6/136 170/11/136
f 173/5/137 169/2/137 167/10/137
f 167/10/132 169/2/132 166/4/132
f 169/2/133 173/5/133 168/3/133
f 173/12/134 171/7/134 172/9/134
f 171/13/135 167/10/135 170/11/135
f 166/4/136 168/3/136 170/11/136
f 171/13/137 173/5/137 167/10/137
f 174/1/138 190/1/139 179/1/140
f 175/1/141 190/1/139 174/1/138
f 190/1/139 175/1/141 191/1/142
f 174/1/138 179/1/140 178/1/143
f 180/1/144 181/1/145 191/1/142
f 183/1/146 181/1/145 182/1/147
f 181/1/145 183/1/146 191/1/142
f 184/1/148 181/1/145 180/1/144
f 182/1/147 181/1/145 184/1/148
f 182/1/147 184/1/148 185/1/149
f 186/1/150 182/1/147 185/1/149
f 186/1/150 185/1/149 187/1/151
f 186/1/150 187/1/151 178/1/143
f 188/1/152 186/1/150 178/1/143
f 182/1/147 186/1/150 183/1/146
f 186/1/150 188/1/152 183/1/146
f 189/1/153 190/1/139 191/1/142
f 183/1/146 189/1/153 191/1/142
f 192/1/154 188/1/152 178/1/143
f 179/1/140 192/1/154 178/1/143
f 176/1/155 180/1/144 175/1/141
f 175/1/141 180/1/144 191/1/142
f 176/1/155 184/1/148 180/1/144
f 176/1/155 185/1/149 184/1/148
f 176/1/155 177/1/156 185/1/149
f 187/1/151 185/1/149 177/1/156
f 178/1/143 187/1/151 177/1/156
f 178/1/143 177/1/156 174/1/138
f 189/1/153 183/1/146 188/1/152
f 188/1/152 192/1/154 189/1/153
f 190/1/139 192/1/154 179/1/140
f 190/1/139 189/1/153 192/1/154
f 176/1/155 175/1/141 177/1/156
f 175/1/141 174/1/138 177/1/156
