# Blender 3.6.1
# www.blender.org
mtllib link6_8.mtl
o link6_8
v -0.001354 0.000868 -0.000753
v -0.001354 0.000868 -0.000753
v -0.000697 0.000467 -0.000399
v -0.000697 0.000467 -0.000399
v -0.000697 0.000467 -0.000399
v -0.000697 0.000467 -0.000399
v -0.001116 0.000720 -0.001125
v -0.001116 0.000720 -0.001125
v -0.001116 0.000720 -0.001125
v -0.000550 0.000373 -0.000607
v -0.000550 0.000373 -0.000607
v -0.000550 0.000373 -0.000607
v 0.000763 -0.000491 0.000087
v 0.000763 -0.000491 0.000087
v 0.000763 -0.000491 0.000087
v 0.000763 -0.000491 0.000087
v 0.001480 -0.000995 -0.000240
v 0.001480 -0.000995 -0.000240
v 0.001480 -0.000995 -0.000240
v 0.000745 -0.000478 -0.000202
v 0.000745 -0.000478 -0.000202
v 0.000745 -0.000478 -0.000202
v 0.001318 -0.000883 -0.000770
v 0.001318 -0.000883 -0.000770
v 0.001318 -0.000883 -0.000770
v 0.000633 -0.000403 -0.000481
v 0.000633 -0.000403 -0.000481
v 0.000633 -0.000403 -0.000481
v 0.001062 -0.000705 -0.001158
v 0.001062 -0.000705 -0.001158
v 0.001062 -0.000705 -0.001158
v 0.000419 -0.000259 -0.000713
v 0.000419 -0.000259 -0.000713
v 0.000419 -0.000259 -0.000713
v 0.000419 -0.000259 -0.000713
v 0.000793 -0.000521 -0.001393
v 0.000793 -0.000521 -0.001393
v 0.000394 -0.000252 -0.001600
v 0.000394 -0.000252 -0.001600
v 0.000394 -0.000252 -0.001600
v 0.000126 -0.000065 -0.000841
v 0.000126 -0.000065 -0.000841
v 0.000126 -0.000065 -0.000841
v -0.000155 0.000110 -0.001646
v -0.000155 0.000110 -0.001646
v -0.000155 0.000110 -0.001646
v -0.000155 0.000110 -0.001646
v -0.000118 0.000095 -0.000840
v -0.000118 0.000095 -0.000840
v -0.000356 0.000249 -0.000764
v -0.000356 0.000249 -0.000764
v -0.000356 0.000249 -0.000764
v -0.001513 0.000965 -0.000222
v -0.001513 0.000965 -0.000222
v -0.001513 0.000965 -0.000222
v -0.000783 0.000521 -0.000087
v -0.000783 0.000521 -0.000087
v -0.000783 0.000521 -0.000087
v -0.000685 0.000449 -0.001487
v -0.000685 0.000449 -0.001487
v -0.000685 0.000449 -0.001487
v -0.000289 0.000206 0.000798
v -0.000289 0.000206 0.000798
v -0.000289 0.000206 0.000798
v -0.000915 0.000595 0.001325
v -0.000915 0.000595 0.001325
v -0.000915 0.000595 0.001325
v -0.000427 0.000285 0.001598
v -0.000427 0.000285 0.001598
v -0.000427 0.000285 0.001598
v -0.000609 0.000410 0.000555
v -0.000609 0.000410 0.000555
v -0.000609 0.000410 0.000555
v -0.000609 0.000410 0.000555
v -0.001152 0.000743 0.001077
v -0.001152 0.000743 0.001077
v -0.001341 0.000859 0.000784
v -0.001341 0.000859 0.000784
v -0.001341 0.000859 0.000784
v -0.000764 0.000509 0.000204
v -0.000764 0.000509 0.000204
v -0.000764 0.000509 0.000204
v -0.001489 0.000950 0.000341
v -0.001489 0.000950 0.000341
v -0.001489 0.000950 0.000341
v 0.000478 -0.000298 0.000668
v 0.000478 -0.000298 0.000668
v 0.000478 -0.000298 0.000668
v 0.000478 -0.000298 0.000668
v 0.000884 -0.000582 0.001331
v 0.000884 -0.000582 0.001331
v 0.001181 -0.000787 0.001008
v 0.001181 -0.000787 0.001008
v 0.001181 -0.000787 0.001008
v 0.000680 -0.000434 0.000397
v 0.000680 -0.000434 0.000397
v 0.000680 -0.000434 0.000397
v 0.000525 -0.000340 0.001546
v 0.000525 -0.000340 0.001546
v 0.000525 -0.000340 0.001546
v 0.001382 -0.000928 0.000618
v 0.001382 -0.000928 0.000618
v 0.001382 -0.000928 0.000618
v 0.000190 -0.000107 0.000827
v 0.000190 -0.000107 0.000827
v 0.000190 -0.000107 0.000827
v 0.000123 -0.000072 0.001649
v 0.000123 -0.000072 0.001649
v 0.000123 -0.000072 0.001649
v 0.001474 -0.000991 0.000234
v 0.001474 -0.000991 0.000234
v -0.000051 0.000052 0.000850
v -0.000051 0.000052 0.000850
v -0.000051 0.000052 0.000850
vn 0.5269 0.8499 -0.0077
vn 0.5228 0.8524 -0.0047
vn 0.5272 0.8497 -0.0082
vn 0.5753 0.8180 -0.0015
vn 0.5753 0.8180 -0.0020
vn 0.5718 0.8204 -0.0071
vn 0.5732 0.8194 -0.0023
vn 0.5652 0.8249 -0.0098
vn 0.5676 0.8233 -0.0050
vn 0.5620 0.8271 -0.0091
vn 0.5551 0.8318 -0.0087
vn 0.5483 0.8362 -0.0096
vn 0.5511 0.8344 -0.0110
vn 0.5415 0.8407 -0.0096
vn 0.5368 0.8437 -0.0109
vn 0.5202 0.8540 -0.0059
vn 0.5209 0.8536 0.0001
vn 0.5340 0.8454 -0.0092
vn 0.5328 0.8462 0.0084
vn 0.5335 0.8457 0.0096
vn 0.5252 0.8510 0.0049
vn 0.5231 0.8523 0.0020
vn 0.5243 0.8515 0.0074
vn 0.5197 0.8544 0.0012
vn 0.5199 0.8542 0.0013
vn 0.5193 0.8546 0.0005
vn 0.5697 0.8219 0.0025
vn 0.5673 0.8234 0.0098
vn 0.5632 0.8263 0.0083
vn 0.5742 0.8187 0.0013
vn 0.5562 0.8310 0.0099
vn 0.5575 0.8301 0.0089
vn 0.5759 0.8175 0.0011
vn 0.5733 0.8193 0.0056
vn 0.5759 0.8175 0.0006
vn 0.5438 0.8391 0.0112
vn 0.5499 0.8352 0.0092
vn 0.5432 0.8395 0.0108
s 1
usemtl light_blue
f 8//1 12//1 60//1
f 9//2 2//2 5//2
f 7//3 6//3 10//3
f 22//4 16//4 18//4
f 21//5 17//5 24//5
f 28//6 20//6 25//6
f 31//7 26//7 23//7
f 35//8 27//8 30//8
f 36//9 34//9 29//9
f 38//10 32//10 37//10
f 39//11 42//11 33//11
f 47//12 48//12 41//12
f 46//13 43//13 40//13
f 45//14 50//14 49//14
f 61//15 51//15 44//15
f 53//16 58//16 3//16
f 1//17 54//17 4//17
f 59//18 11//18 52//18
f 64//19 67//19 69//19
f 73//20 65//20 62//20
f 76//21 66//21 71//21
f 79//22 75//22 72//22
f 78//23 74//23 82//23
f 83//24 77//24 80//24
f 85//25 81//25 57//25
f 55//26 84//26 56//26
f 89//27 91//27 94//27
f 97//28 87//28 92//28
f 86//29 100//29 90//29
f 95//30 93//30 101//30
f 105//31 109//31 98//31
f 106//32 99//32 88//32
f 14//33 103//33 110//33
f 15//34 96//34 102//34
f 13//35 111//35 19//35
f 112//36 68//36 107//36
f 113//37 108//37 104//37
f 63//38 70//38 114//38
