# Blender 3.6.1
# www.blender.org
mtllib link6_6.mtl
o link6_6
v 0.000696 -0.000266 -0.001191
v 0.000696 -0.000266 -0.001191
v 0.000696 -0.000266 -0.001191
v 0.000696 -0.000266 -0.001191
v 0.000696 -0.000266 -0.001191
v 0.000696 -0.000266 -0.001191
v 0.000217 -0.000495 0.000063
v 0.000217 -0.000495 0.000063
v 0.000217 -0.000495 0.000063
v 0.000217 -0.000495 0.000063
v 0.000217 -0.000495 0.000063
v 0.000102 -0.000984 -0.001428
v 0.000102 -0.000984 -0.001428
v 0.000102 -0.000984 -0.001428
v -0.000650 -0.000999 0.000969
v -0.000650 -0.000999 0.000969
v -0.000460 -0.000857 0.001242
v -0.000460 -0.000857 0.001242
v -0.000460 -0.000857 0.001242
v -0.000460 -0.000857 0.001242
v -0.000460 -0.000857 0.001242
v -0.000460 -0.000857 0.001242
v -0.000460 -0.000857 0.001242
v -0.000226 -0.000590 0.001328
v -0.000226 -0.000590 0.001328
v -0.000226 -0.000590 0.001328
v -0.000226 -0.000590 0.001328
v -0.000226 -0.000590 0.001328
v -0.000669 0.001003 0.001032
v -0.000669 0.001003 0.001032
v -0.000669 0.001003 0.001032
v -0.000669 0.001003 0.001032
v -0.000403 0.000782 0.001369
v -0.000403 0.000782 0.001369
v -0.000403 0.000782 0.001369
v -0.000403 0.000782 0.001369
v -0.000403 0.000782 0.001369
v -0.000403 0.000782 0.001369
v -0.000403 0.000782 0.001369
v -0.000267 -0.000311 0.001594
v -0.000267 -0.000311 0.001594
v -0.000267 -0.000311 0.001594
v -0.000267 -0.000311 0.001594
v -0.000267 -0.000311 0.001594
v -0.000069 -0.000178 0.001315
v -0.000069 -0.000178 0.001315
v -0.000069 -0.000178 0.001315
v -0.000069 -0.000178 0.001315
v -0.000069 -0.000178 0.001315
v -0.000069 -0.000178 0.001315
v -0.000069 -0.000178 0.001315
v -0.000864 0.000686 0.001747
v -0.000864 0.000686 0.001747
v -0.000864 0.000686 0.001747
v -0.000144 0.000236 0.001478
v -0.000144 0.000236 0.001478
v -0.000144 0.000236 0.001478
v -0.000144 0.000236 0.001478
v -0.000144 0.000236 0.001478
v -0.000144 0.000236 0.001478
v -0.000511 0.000113 0.001874
v -0.000511 0.000113 0.001874
v -0.000511 0.000113 0.001874
v -0.000511 0.000113 0.001874
v -0.000511 0.000113 0.001874
v -0.000511 0.000113 0.001874
v -0.000511 0.000113 0.001874
v -0.000792 0.000892 0.001470
v -0.000792 0.000892 0.001470
v -0.000929 0.000317 0.001936
v -0.000929 0.000317 0.001936
v -0.000939 -0.000203 0.001965
v -0.000939 -0.000203 0.001965
v -0.000939 -0.000203 0.001965
v -0.000586 -0.000533 0.001759
v -0.000586 -0.000533 0.001759
v -0.000586 -0.000533 0.001759
v -0.000586 -0.000533 0.001759
v -0.000586 -0.000533 0.001759
v -0.000586 -0.000533 0.001759
v -0.000586 -0.000533 0.001759
v -0.000868 -0.000684 0.001721
v -0.000868 -0.000684 0.001721
v -0.000759 -0.000936 0.001359
v -0.000759 -0.000936 0.001359
v -0.000759 -0.000936 0.001359
v 0.000712 0.000171 -0.001233
v 0.000712 0.000171 -0.001233
v 0.000712 0.000171 -0.001233
v 0.000712 0.000171 -0.001233
v 0.000712 0.000171 -0.001233
v 0.000712 0.000171 -0.001233
v 0.000209 0.000471 0.000123
v 0.000209 0.000471 0.000123
v 0.000209 0.000471 0.000123
v 0.000209 0.000471 0.000123
v 0.000209 0.000471 0.000123
v 0.000209 0.000471 0.000123
v 0.000209 0.000471 0.000123
v -0.000100 0.000849 0.000123
v -0.000100 0.000849 0.000123
v -0.000100 0.000849 0.000123
v -0.000100 0.000849 0.000123
v -0.000100 0.000849 0.000123
v -0.000188 0.000568 0.001265
v -0.000188 0.000568 0.001265
v -0.000188 0.000568 0.001265
v -0.000188 0.000568 0.001265
v 0.000545 0.000536 -0.001050
v 0.000545 0.000536 -0.001050
v 0.000545 0.000536 -0.001050
v 0.000545 0.000536 -0.001050
v 0.000078 0.000997 -0.001354
v 0.000078 0.000997 -0.001354
v 0.000334 0.000850 -0.001243
v 0.000334 0.000850 -0.001243
v 0.000334 0.000850 -0.001243
v 0.000334 0.000850 -0.001243
v 0.000334 0.000850 -0.001243
v 0.000334 0.000850 -0.001243
v 0.000334 0.000850 -0.001243
v 0.000443 -0.000775 -0.001361
v 0.000443 -0.000775 -0.001361
v 0.000443 -0.000775 -0.001361
v 0.000443 -0.000775 -0.001361
v 0.000443 -0.000775 -0.001361
v 0.000443 -0.000775 -0.001361
v 0.000584 -0.000461 -0.001703
v 0.000584 -0.000461 -0.001703
v 0.000584 -0.000461 -0.001703
v 0.000584 -0.000461 -0.001703
v 0.000584 -0.000461 -0.001703
v 0.000685 0.000123 -0.001706
v 0.000685 0.000123 -0.001706
v 0.000685 0.000123 -0.001706
v 0.000685 0.000123 -0.001706
v 0.000685 0.000123 -0.001706
v 0.000685 0.000123 -0.001706
v 0.000535 0.000626 -0.001552
v 0.000535 0.000626 -0.001552
v 0.000535 0.000626 -0.001552
v 0.000535 0.000626 -0.001552
v 0.000535 0.000626 -0.001552
v 0.000535 0.000626 -0.001552
v 0.000272 -0.000656 -0.001957
v 0.000272 -0.000656 -0.001957
v 0.000272 -0.000656 -0.001957
v 0.000348 -0.000134 -0.002172
v 0.000348 -0.000134 -0.002172
v 0.000348 -0.000134 -0.002172
v 0.000333 0.000353 -0.002127
v 0.000333 0.000353 -0.002127
v 0.000333 0.000353 -0.002127
v 0.000218 0.000816 -0.001787
v 0.000218 0.000816 -0.001787
v 0.000218 0.000816 -0.001787
vn 0.4579 -0.8782 0.1381
vn 0.4964 -0.8559 0.1453
vn 0.7488 -0.6177 0.2403
vn 0.8970 -0.3342 0.2894
vn 0.7059 -0.6805 0.1964
vn 0.8390 -0.4931 0.2301
vn 0.9037 -0.3179 0.2867
vn 0.6424 -0.4779 0.5991
vn 0.5414 -0.6467 0.5372
vn 0.7089 0.4462 0.5462
vn 0.3339 0.8872 0.3185
vn 0.7366 -0.0233 0.6759
vn 0.3581 0.7021 0.6155
vn 0.8285 -0.0697 0.5556
vn 0.8386 -0.3070 0.4500
vn 0.3165 0.3882 0.8655
vn 0.4987 0.4699 0.7283
vn 0.1699 0.0518 0.9841
vn 0.5965 0.4204 0.6837
vn 0.3446 -0.2039 0.9163
vn 0.1128 -0.4374 0.8921
vn 0.3102 -0.7337 0.6045
vn 0.4077 -0.7257 0.5542
vn 0.5595 -0.2086 0.8022
vn 0.3343 -0.9109 0.2418
vn 0.7392 0.6386 0.2141
vn 0.4772 0.8655 0.1521
vn 0.7513 0.6152 0.2390
vn 0.9359 0.1674 0.3098
vn 0.7563 0.6193 0.2108
vn 0.4476 0.8836 0.1379
vn 0.9623 0.0700 0.2629
vn 0.4970 0.8516 0.1669
vn 0.9066 0.3070 0.2895
vn 0.7290 0.6396 0.2438
vn 0.9182 0.2822 0.2779
vn 0.9470 0.3098 -0.0847
vn 0.8003 0.5928 0.0898
vn 0.9174 0.3945 0.0521
vn 0.8992 -0.4364 -0.0299
vn 0.8378 -0.1478 -0.5255
vn 0.7859 0.0804 -0.6132
vn 0.8010 0.3811 -0.4616
vn 0.8011 0.3811 -0.4616
vn 0.9743 -0.1699 -0.1476
vn 0.9978 -0.0421 -0.0516
vn 0.5401 -0.7819 -0.3113
vn 0.6777 -0.6591 -0.3262
vn 0.7135 -0.3525 -0.6055
vn 0.6866 0.5336 -0.4938
vn 0.5445 0.8218 -0.1675
vn 0.5995 0.7808 -0.1761
vn 0.9564 -0.0081 0.2920
s 1
usemtl white
f 12//1 21//1 16//1
f 123//2 20//2 14//2
f 19//3 126//3 8//3
f 10//4 48//4 24//4
f 26//5 17//5 11//5
f 6//6 9//6 127//6
f 7//7 3//7 45//7
f 81//8 28//8 40//8
f 23//9 25//9 76//9
f 108//10 34//10 59//10
f 68//11 33//11 32//11
f 56//12 64//12 43//12
f 69//13 53//13 39//13
f 50//14 58//14 44//14
f 42//15 27//15 49//15
f 71//16 67//16 54//16
f 52//17 62//17 37//17
f 73//18 63//18 70//18
f 65//19 60//19 36//19
f 74//20 75//20 61//20
f 83//21 80//21 72//21
f 85//22 79//22 82//22
f 84//23 18//23 78//23
f 77//24 41//24 66//24
f 15//25 22//25 86//25
f 35//26 105//26 103//26
f 30//27 100//27 115//27
f 121//28 104//28 97//28
f 92//29 95//29 47//29
f 101//30 106//30 93//30
f 31//31 118//31 114//31
f 94//32 55//32 51//32
f 38//33 102//33 29//33
f 107//34 57//34 96//34
f 111//35 116//35 98//35
f 90//36 109//36 99//36
f 141//37 89//37 138//37
f 119//38 110//38 144//38
f 139//39 112//39 88//39
f 128//40 4//40 122//40
f 150//41 136//41 129//41
f 152//42 134//42 149//42
f 153//43 143//43 135//44
f 130//45 137//45 2//45
f 1//46 133//46 87//46
f 146//47 125//47 13//47
f 147//48 132//48 124//48
f 145//49 148//49 131//49
f 154//50 142//50 151//50
f 113//51 117//51 155//51
f 156//52 120//52 140//52
f 5//53 91//53 46//53
