# Blender 3.6.1
# www.blender.org
mtllib link0_11.mtl
o link0_11
v 0.002282 0.001883 0.035954
v 0.002282 0.001883 0.035954
v 0.002282 0.001883 0.035954
v 0.002282 0.001883 0.035954
v 0.002282 0.001883 0.035954
v 0.002282 0.001883 0.035954
v 0.002282 0.001883 0.035954
v 0.002282 0.001883 0.035954
v 0.001794 0.001744 0.036923
v 0.001794 0.001744 0.036923
v 0.001794 0.001744 0.036923
v 0.001794 0.001744 0.036923
v 0.001794 0.001744 0.036923
v 0.001794 0.001744 0.036923
v 0.001794 0.001744 0.036923
v 0.002126 0.002433 0.035811
v 0.002126 0.002433 0.035811
v 0.002126 0.002433 0.035811
v 0.002126 0.002433 0.035811
v 0.002126 0.002433 0.035811
v 0.002126 0.002433 0.035811
v 0.001463 0.002757 0.036533
v 0.001463 0.002757 0.036533
v 0.001463 0.002757 0.036533
v 0.001463 0.002757 0.036533
v 0.001463 0.002757 0.036533
v 0.001441 0.000863 0.037287
v 0.001441 0.000863 0.037287
v 0.001441 0.000863 0.037287
v 0.001441 0.000863 0.037287
v 0.001441 0.000863 0.037287
v 0.002089 0.000541 0.036487
v 0.002089 0.000541 0.036487
v 0.002089 0.000541 0.036487
v 0.002089 0.000541 0.036487
v 0.002089 0.000541 0.036487
v 0.002089 0.000541 0.036487
v -0.001697 -0.000435 0.038838
v -0.001697 -0.000435 0.038838
v -0.001697 -0.000435 0.038838
v -0.001697 -0.000435 0.038838
v -0.001697 -0.000435 0.038838
v -0.001687 0.001848 0.039074
v -0.001687 0.001848 0.039074
v -0.001687 0.001848 0.039074
v -0.001687 0.001848 0.039074
v -0.001687 0.001848 0.039074
v -0.001687 0.001848 0.039074
v -0.001706 -0.004011 0.035115
v -0.001706 -0.004011 0.035115
v -0.001706 -0.004011 0.035115
v -0.001706 -0.004011 0.035115
v -0.001706 -0.004011 0.035115
v -0.001700 -0.002302 0.037446
v -0.001700 -0.002302 0.037446
v -0.001700 -0.002302 0.037446
v -0.001700 -0.002302 0.037446
v -0.001700 -0.002302 0.037446
v -0.001700 -0.002302 0.037446
v -0.001810 -0.005664 -0.006399
v -0.001810 -0.005664 -0.006399
v -0.001810 -0.005664 -0.006399
v -0.001810 -0.005664 -0.006399
v -0.001810 -0.005664 -0.006399
v -0.001810 -0.005664 -0.006399
v -0.001810 -0.005664 -0.006399
v -0.001842 0.005803 -0.032393
v -0.001842 0.005803 -0.032393
v -0.001842 0.005803 -0.032393
v -0.001842 0.005803 -0.032393
v -0.001842 0.005803 -0.032393
v -0.001842 0.005803 -0.032393
v -0.001720 -0.005318 0.029580
v -0.001720 -0.005318 0.029580
v -0.001720 -0.005318 0.029580
v -0.001720 -0.005318 0.029580
v -0.001720 -0.005318 0.029580
v -0.001720 -0.005318 0.029580
v -0.001720 -0.005318 0.029580
v -0.001720 -0.005318 0.029580
v -0.001705 0.005020 0.036163
v -0.001705 0.005020 0.036163
v -0.001705 0.005020 0.036163
v -0.001705 0.005020 0.036163
v -0.001705 0.005020 0.036163
v -0.001705 0.005020 0.036163
v -0.001705 0.005020 0.036163
v -0.001705 0.005020 0.036163
v -0.001705 0.005020 0.036163
v -0.001705 0.005020 0.036163
v -0.001700 0.004117 0.037778
v -0.001700 0.004117 0.037778
v -0.001700 0.004117 0.037778
v -0.001700 0.004117 0.037778
v -0.001700 0.004117 0.037778
v -0.001690 0.003042 0.038629
v -0.001690 0.003042 0.038629
v -0.001690 0.003042 0.038629
v -0.001690 0.003042 0.038629
v -0.001712 -0.004890 0.032662
v -0.001712 -0.004890 0.032662
v -0.001712 -0.004890 0.032662
v -0.001712 -0.004890 0.032662
v -0.000948 0.005304 -0.034296
v -0.000948 0.005304 -0.034296
v -0.000948 0.005304 -0.034296
v -0.000948 0.005304 -0.034296
v 0.000997 0.004223 -0.035686
v 0.000997 0.004223 -0.035686
v 0.000997 0.004223 -0.035686
v 0.000997 0.004223 -0.035686
v 0.000997 0.004223 -0.035686
v 0.000997 0.004223 -0.035686
v 0.000997 0.004223 -0.035686
v 0.001464 0.000110 0.037036
v 0.001464 0.000110 0.037036
v 0.001464 0.000110 0.037036
v 0.001464 0.000110 0.037036
v 0.001464 0.000110 0.037036
v 0.001349 -0.003813 0.003395
v 0.001349 -0.003813 0.003395
v 0.001349 -0.003813 0.003395
v 0.001349 -0.003813 0.003395
v 0.001491 -0.003670 0.012157
v 0.001491 -0.003670 0.012157
v 0.001491 -0.003670 0.012157
v 0.001491 -0.003670 0.012157
v 0.001491 -0.003670 0.012157
v 0.001491 -0.003670 0.012157
v 0.001732 -0.003240 0.030194
v 0.001732 -0.003240 0.030194
v 0.001732 -0.003240 0.030194
v 0.001732 -0.003240 0.030194
v 0.001732 -0.003240 0.030194
v 0.001732 -0.003240 0.030194
v 0.001247 -0.003615 0.027296
v 0.001247 -0.003615 0.027296
v 0.001247 -0.003615 0.027296
v 0.001247 -0.003615 0.027296
v 0.001247 -0.003615 0.027296
v -0.001808 -0.005413 -0.033844
v -0.001808 -0.005413 -0.033844
v -0.001808 -0.005413 -0.033844
v -0.001808 -0.005413 -0.033844
v -0.001808 -0.005413 -0.033844
v -0.000432 -0.004586 -0.036056
v -0.000432 -0.004586 -0.036056
v -0.000432 -0.004586 -0.036056
v -0.000432 -0.004586 -0.036056
v 0.001598 -0.003535 0.019175
v 0.001598 -0.003535 0.019175
v 0.001598 -0.003535 0.019175
v 0.001598 -0.003535 0.019175
v 0.001598 -0.003535 0.019175
v 0.001598 -0.003535 0.019175
v 0.001780 -0.001206 0.035626
v 0.001780 -0.001206 0.035626
v 0.001780 -0.001206 0.035626
v 0.001780 -0.001206 0.035626
v 0.001780 -0.001206 0.035626
v 0.001780 -0.001206 0.035626
v 0.001780 -0.001206 0.035626
v 0.001506 -0.001944 0.034919
v 0.001506 -0.001944 0.034919
v 0.001506 -0.001944 0.034919
v 0.001506 -0.001944 0.034919
v 0.001490 -0.003479 -0.036662
v 0.001490 -0.003479 -0.036662
v 0.001490 -0.003479 -0.036662
v 0.001490 -0.003479 -0.036662
v 0.001490 -0.003479 -0.036662
v 0.001490 -0.003479 -0.036662
v 0.001490 -0.003479 -0.036662
v 0.001490 -0.003479 -0.036662
v 0.002090 0.002966 -0.035959
v 0.002090 0.002966 -0.035959
v 0.002090 0.002966 -0.035959
v 0.002090 0.002966 -0.035959
v 0.002090 0.002966 -0.035959
v 0.002090 0.002966 -0.035959
v 0.002090 0.002966 -0.035959
v 0.002090 0.002966 -0.035959
v 0.002090 0.002966 -0.035959
v 0.002090 0.002966 -0.035959
v 0.002090 0.002966 -0.035959
v 0.002075 -0.002488 -0.036590
v 0.002075 -0.002488 -0.036590
v 0.002075 -0.002488 -0.036590
v 0.002075 -0.002488 -0.036590
v 0.002075 -0.002488 -0.036590
v 0.001534 0.003184 0.035669
v 0.001534 0.003184 0.035669
v 0.001534 0.003184 0.035669
v 0.001534 0.003184 0.035669
v 0.001534 0.003184 0.035669
v 0.001534 0.003184 0.035669
v 0.002111 -0.002241 0.032570
v 0.002111 -0.002241 0.032570
v 0.002111 -0.002241 0.032570
v 0.002111 -0.002241 0.032570
v 0.002111 -0.002241 0.032570
v 0.001501 -0.003041 0.032515
v 0.001501 -0.003041 0.032515
v 0.001501 -0.003041 0.032515
v 0.001501 -0.003041 0.032515
v 0.001501 -0.003041 0.032515
v 0.001501 -0.003041 0.032515
v 0.001501 -0.003041 0.032515
v 0.002224 -0.002348 0.025345
v 0.002224 -0.002348 0.025345
v 0.002224 -0.002348 0.025345
v 0.002224 -0.002348 0.025345
v 0.002224 -0.002348 0.025345
v 0.001832 -0.003157 0.025895
v 0.001832 -0.003157 0.025895
v 0.001832 -0.003157 0.025895
v 0.001832 -0.003157 0.025895
v 0.001832 -0.003157 0.025895
v 0.002243 -0.002263 0.028545
v 0.002243 -0.002263 0.028545
v 0.002243 -0.002263 0.028545
v 0.002243 -0.002263 0.028545
v 0.002243 -0.002263 0.028545
v 0.002243 -0.002263 0.028545
v 0.002134 -0.002729 0.003409
v 0.002134 -0.002729 0.003409
v 0.002134 -0.002729 0.003409
v 0.002134 -0.002729 0.003409
v 0.002173 -0.002627 0.010868
v 0.002173 -0.002627 0.010868
v 0.002173 -0.002627 0.010868
v 0.002173 -0.002627 0.010868
v 0.002173 -0.002627 0.010868
v 0.001945 -0.003077 0.020710
v 0.001945 -0.003077 0.020710
v 0.001945 -0.003077 0.020710
v 0.001945 -0.003077 0.020710
v 0.001945 -0.003077 0.020710
v 0.002178 -0.002638 0.018406
v 0.002178 -0.002638 0.018406
v 0.002178 -0.002638 0.018406
v 0.002178 -0.002638 0.018406
v 0.002178 -0.002638 0.018406
v 0.002178 -0.002638 0.018406
v 0.002178 -0.002638 0.018406
v 0.002278 -0.000858 0.034427
v 0.002278 -0.000858 0.034427
v 0.002278 -0.000858 0.034427
v 0.002278 -0.000858 0.034427
v 0.002278 -0.000858 0.034427
v 0.001847 -0.003334 0.002926
v 0.001847 -0.003334 0.002926
v 0.001847 -0.003334 0.002926
v 0.001847 -0.003334 0.002926
v 0.001847 -0.003334 0.002926
v 0.001847 -0.003334 0.002926
v 0.001847 -0.003334 0.002926
v 0.001847 -0.003334 0.002926
v 0.001847 -0.003334 0.002926
v 0.002136 -0.002386 -0.021689
v 0.002136 -0.002386 -0.021689
v 0.002136 -0.002386 -0.021689
v 0.002128 -0.002592 -0.013531
v 0.002128 -0.002592 -0.013531
v 0.002128 -0.002592 -0.013531
v 0.002128 -0.002592 -0.013531
v 0.002128 -0.002592 -0.013531
v 0.002144 -0.002626 -0.005427
v 0.002144 -0.002626 -0.005427
v 0.002144 -0.002626 -0.005427
v 0.002144 -0.002626 -0.005427
v 0.001919 -0.003176 0.012609
v 0.001919 -0.003176 0.012609
v 0.001919 -0.003176 0.012609
v 0.001919 -0.003176 0.012609
v 0.001919 -0.003176 0.012609
vn 0.8892 0.0535 0.4543
vn 0.7203 -0.1997 0.6643
vn 0.6975 0.6180 0.3627
vn 0.7676 -0.0431 0.6395
vn 0.7520 0.4354 0.4948
vn 0.8160 0.3493 0.4605
vn -0.9999 0.0033 0.0096
vn -1.0000 -0.0004 0.0020
vn -1.0000 -0.0030 -0.0001
vn -1.0000 -0.0002 0.0025
vn -1.0000 -0.0003 0.0028
vn -1.0000 0.0018 0.0020
vn -0.9999 0.0040 0.0163
vn -1.0000 -0.0056 -0.0000
vn -1.0000 -0.0005 0.0030
vn -1.0000 -0.0003 0.0026
vn 0.4845 0.8748 -0.0016
vn 0.4940 0.8694 0.0089
vn 0.4885 -0.5219 0.6993
vn 0.5238 0.1378 0.8406
vn 0.5116 -0.2581 0.8195
vn 0.4716 -0.0927 0.8769
vn 0.5224 0.4488 0.7251
vn 0.5077 0.3023 0.8067
vn 0.4989 0.5407 0.6773
vn 0.4925 0.7635 0.4178
vn 0.4947 0.7592 0.4229
vn 0.4958 -0.8597 0.1228
vn 0.5178 -0.8555 -0.0053
vn 0.5007 -0.8656 -0.0079
vn 0.5123 -0.8584 0.0255
vn 0.4950 -0.8687 -0.0169
vn 0.5150 -0.5659 0.6438
vn 0.5054 -0.8628 0.0133
vn 0.4941 -0.6897 0.5293
vn 0.4942 -0.6897 0.5293
vn 0.4856 -0.7056 0.5160
vn 0.4959 -0.8683 0.0093
vn 0.4871 -0.8733 0.0072
vn 0.5215 -0.7766 0.3534
vn 0.4868 -0.8227 0.2936
vn 0.4911 -0.8711 0.0062
vn 0.4993 -0.8584 0.1179
vn -0.1111 0.1180 -0.9868
vn -0.0734 0.1149 -0.9907
vn -0.8986 0.0535 -0.4356
vn -0.8559 0.0470 -0.5150
vn -0.5315 0.1214 -0.8383
vn -0.3493 0.0958 -0.9321
vn 0.9623 0.2720 0.0015
vn 0.7555 0.6551 0.0045
vn 0.7851 0.6193 0.0031
vn 0.9860 -0.1636 0.0333
vn 0.7535 -0.5936 0.2826
vn 0.8117 -0.5320 0.2411
vn 0.8302 -0.5570 -0.0222
vn 0.8728 -0.4257 0.2386
vn 0.9015 -0.4328 0.0061
vn 0.7445 -0.3965 0.5371
vn 0.8616 -0.5075 -0.0059
vn 0.9080 -0.3030 0.2892
vn 0.9857 -0.0826 0.1469
vn 0.9024 -0.4309 -0.0040
vn 0.9876 -0.1571 -0.0030
vn 0.6909 -0.7229 -0.0036
vn 0.9067 -0.4217 -0.0036
vn 0.9047 -0.4261 -0.0041
vn 0.6931 -0.7209 0.0004
vn 0.9029 -0.4298 0.0012
vn 0.9075 -0.4200 0.0001
vn 0.7545 -0.6562 0.0052
vn 0.6152 -0.7884 -0.0009
vn 0.9058 -0.4236 -0.0012
vn 0.7562 -0.6544 0.0012
vn 0.8943 -0.4472 0.0123
vn 0.8438 -0.5365 0.0119
vn 0.9067 -0.4206 0.0321
vn 0.9071 -0.4207 0.0116
vn 0.7518 -0.6589 0.0259
vn 0.7843 -0.6066 0.1298
vn 0.9033 -0.4289 0.0131
vn 0.6185 -0.7858 0.0014
vn 1.0000 0.0023 -0.0065
vn 1.0000 0.0022 -0.0061
vn 1.0000 0.0033 -0.0067
vn 0.9999 0.0120 0.0013
vn 1.0000 -0.0013 -0.0020
vn 1.0000 -0.0024 -0.0041
vn 0.9999 -0.0119 -0.0028
vn 1.0000 0.0089 -0.0007
vn 0.9997 -0.0252 -0.0048
vn 0.9999 0.0168 0.0013
s 1
usemtl white
f 14//1 35//1 1//1
f 30//2 116//2 34//2
f 195//3 23//3 19//3
f 29//4 37//4 15//4
f 26//5 12//5 16//5
f 11//6 8//6 17//6
f 39//7 43//7 89//7
f 55//8 40//8 88//8
f 63//9 68//9 145//9
f 81//10 65//10 80//10
f 57//11 90//11 51//11
f 85//12 70//12 66//12
f 46//13 98//13 92//13
f 47//14 93//14 87//14
f 100//15 82//15 78//15
f 53//16 86//16 101//16
f 72//17 108//17 106//17
f 196//18 109//18 71//18
f 83//18 191//18 67//18
f 117//19 38//19 58//19
f 44//20 28//20 10//20
f 27//21 41//21 118//21
f 45//22 42//22 31//22
f 96//23 13//23 24//23
f 97//24 48//24 9//24
f 25//25 91//25 99//25
f 192//26 94//26 22//26
f 193//27 84//27 95//27
f 133//28 203//28 74//28
f 61//29 174//29 121//29
f 168//30 62//30 144//30
f 137//31 130//31 75//31
f 149//32 172//32 143//32
f 161//33 119//33 59//33
f 150//34 138//34 73//34
f 165//35 159//36 54//36
f 164//37 56//37 49//37
f 125//38 152//38 79//38
f 128//39 76//39 60//39
f 206//40 163//40 52//40
f 205//41 50//41 103//41
f 123//42 127//42 64//42
f 202//43 102//43 77//43
f 169//44 110//44 183//44
f 187//45 173//45 181//45
f 141//46 69//46 107//46
f 148//47 142//47 105//47
f 146//48 104//48 113//48
f 171//49 147//49 112//49
f 18//50 2//50 182//50
f 20//51 184//51 111//51
f 194//52 21//52 114//52
f 250//53 200//53 220//53
f 156//54 207//54 201//54
f 160//55 166//55 208//55
f 238//56 151//56 240//56
f 247//57 162//57 199//57
f 217//58 209//58 219//58
f 157//59 32//59 115//59
f 252//60 170//60 186//60
f 249//61 33//61 158//61
f 246//62 3//62 36//62
f 263//63 253//63 188//63
f 266//64 189//64 262//64
f 257//65 120//65 167//65
f 271//66 259//66 267//66
f 227//67 258//67 269//67
f 256//68 124//68 122//68
f 255//69 226//69 233//69
f 251//70 232//70 273//70
f 129//71 254//71 274//71
f 131//72 136//72 215//72
f 275//73 230//73 241//73
f 276//74 153//74 126//74
f 223//75 135//75 216//75
f 272//76 245//76 154//76
f 198//77 132//77 222//77
f 234//78 242//78 210//78
f 235//79 140//79 155//79
f 197//80 204//80 134//80
f 236//81 213//81 218//81
f 214//82 139//82 237//82
f 224//83 4//83 248//83
f 212//84 5//84 221//84
f 244//85 6//85 211//85
f 178//86 264//86 261//86
f 176//87 270//87 265//87
f 190//88 175//88 260//88
f 179//89 7//89 239//89
f 180//90 243//90 231//90
f 177//91 229//91 228//91
f 185//92 225//92 268//92
