# Blender 3.6.1
# www.blender.org
mtllib link6_5.mtl
o link6_5
v -0.000472 0.000148 -0.001303
v -0.000472 0.000148 -0.001303
v -0.000472 0.000148 -0.001303
v -0.000472 0.000148 -0.001303
v -0.000472 0.000148 -0.001303
v -0.001062 -0.000148 -0.000005
v -0.001062 -0.000148 -0.000005
v -0.001062 -0.000148 -0.000005
v -0.001065 -0.000306 -0.001256
v -0.001065 -0.000306 -0.001256
v -0.000179 0.000172 -0.001401
v -0.000179 0.000172 -0.001401
v -0.000179 0.000172 -0.001401
v -0.000179 0.000172 -0.001401
v -0.000179 0.000172 -0.001401
v -0.000179 0.000172 -0.001401
v -0.000763 0.000291 0.001466
v -0.000763 0.000291 0.001466
v -0.000763 0.000291 0.001466
v -0.000763 0.000291 0.001466
v -0.000763 0.000291 0.001466
v -0.000763 0.000291 0.001466
v -0.000998 0.000026 0.001412
v -0.000998 0.000026 0.001412
v -0.000438 0.000464 0.001266
v -0.000438 0.000464 0.001266
v -0.000438 0.000464 0.001266
v -0.000438 0.000464 0.001266
v -0.000438 0.000464 0.001266
v -0.000438 0.000464 0.001266
v 0.000170 0.000122 -0.001401
v 0.000170 0.000122 -0.001401
v 0.000170 0.000122 -0.001401
v 0.000170 0.000122 -0.001401
v 0.000170 0.000122 -0.001401
v -0.000061 -0.000036 -0.001801
v -0.000061 -0.000036 -0.001801
v -0.000061 -0.000036 -0.001801
v -0.000061 -0.000036 -0.001801
v -0.000061 -0.000036 -0.001801
v -0.000798 -0.000013 -0.001377
v -0.000798 -0.000013 -0.001377
v -0.000798 -0.000013 -0.001377
v -0.000798 -0.000013 -0.001377
v -0.000798 -0.000013 -0.001377
v -0.000798 -0.000013 -0.001377
v -0.000798 -0.000013 -0.001377
v 0.000706 -0.000209 -0.001361
v 0.000706 -0.000209 -0.001361
v 0.000706 -0.000209 -0.001361
v 0.000706 -0.000209 -0.001361
v 0.000706 -0.000209 -0.001361
v 0.000706 -0.000209 -0.001361
v 0.000706 -0.000209 -0.001361
v 0.000481 -0.000251 -0.001763
v 0.000481 -0.000251 -0.001763
v 0.000481 -0.000251 -0.001763
v 0.000481 -0.000251 -0.001763
v 0.000481 -0.000251 -0.001763
v 0.000481 -0.000251 -0.001763
v 0.000481 -0.000251 -0.001763
v -0.000018 -0.000580 -0.002147
v -0.000018 -0.000580 -0.002147
v -0.000018 -0.000580 -0.002147
v -0.000018 -0.000580 -0.002147
v 0.000892 -0.000659 -0.001365
v 0.000892 -0.000659 -0.001365
v 0.000892 -0.000659 -0.001365
v -0.000494 -0.000089 -0.001800
v -0.000494 -0.000089 -0.001800
v -0.000494 -0.000089 -0.001800
v -0.000494 -0.000089 -0.001800
v -0.000494 -0.000089 -0.001800
v -0.000494 -0.000089 -0.001800
v -0.000494 -0.000089 -0.001800
v 0.000673 -0.000670 -0.001752
v 0.000673 -0.000670 -0.001752
v 0.000331 -0.000639 -0.002036
v 0.000331 -0.000639 -0.002036
v -0.000397 -0.000518 -0.002080
v -0.000397 -0.000518 -0.002080
v -0.000863 -0.000403 -0.001765
v -0.000863 -0.000403 -0.001765
v -0.000863 -0.000403 -0.001765
v 0.000957 -0.000350 0.001243
v 0.000957 -0.000350 0.001243
v 0.000957 -0.000350 0.001243
v 0.000863 -0.000055 0.001314
v 0.000863 -0.000055 0.001314
v 0.000863 -0.000055 0.001314
v 0.000863 -0.000055 0.001314
v 0.000863 -0.000055 0.001314
v 0.000679 0.000202 0.001282
v 0.000679 0.000202 0.001282
v 0.000679 0.000202 0.001282
v 0.000679 0.000202 0.001282
v -0.000768 0.000040 0.001824
v -0.000768 0.000040 0.001824
v -0.000768 0.000040 0.001824
v -0.000355 0.000365 0.001776
v -0.000355 0.000365 0.001776
v -0.000355 0.000365 0.001776
v -0.000355 0.000365 0.001776
v -0.000355 0.000365 0.001776
v -0.000355 0.000365 0.001776
v 0.000148 -0.000067 0.002182
v 0.000148 -0.000067 0.002182
v 0.000148 -0.000067 0.002182
v -0.000002 0.000132 0.002077
v -0.000002 0.000132 0.002077
v -0.000002 0.000132 0.002077
v -0.000002 0.000132 0.002077
v -0.000002 0.000132 0.002077
v 0.000070 0.000434 0.001661
v 0.000070 0.000434 0.001661
v 0.000070 0.000434 0.001661
v 0.000070 0.000434 0.001661
v 0.000070 0.000434 0.001661
v 0.000070 0.000434 0.001661
v 0.000530 0.000117 0.001857
v 0.000530 0.000117 0.001857
v 0.000530 0.000117 0.001857
v 0.000530 0.000117 0.001857
v 0.000530 0.000117 0.001857
v 0.000530 0.000117 0.001857
v 0.000530 0.000117 0.001857
v 0.000530 0.000117 0.001857
v 0.000569 -0.000166 0.002001
v 0.000569 -0.000166 0.002001
v 0.000454 0.000363 0.001322
v 0.000454 0.000363 0.001322
v 0.000454 0.000363 0.001322
v 0.000454 0.000363 0.001322
v 0.000454 0.000363 0.001322
v 0.000454 0.000363 0.001322
v 0.000454 0.000363 0.001322
v -0.000412 0.000020 0.002106
v -0.000412 0.000020 0.002106
v -0.000412 0.000020 0.002106
v 0.000003 0.000495 0.001245
v 0.000003 0.000495 0.001245
v 0.000003 0.000495 0.001245
v 0.000003 0.000495 0.001245
v 0.000003 0.000495 0.001245
v 0.000827 -0.000260 0.001691
v 0.000827 -0.000260 0.001691
v 0.000827 -0.000260 0.001691
vn -0.7424 0.6682 -0.0485
vn -0.5086 0.8568 -0.0854
vn -0.7074 0.7037 -0.0665
vn -0.0739 0.9899 -0.1210
vn -0.4198 0.9015 -0.1055
vn -0.1193 0.9865 -0.1121
vn -0.7534 0.6526 -0.0804
vn -0.1079 0.8686 -0.4837
vn -0.3324 0.8569 -0.3941
vn -0.2114 0.8858 -0.4132
vn 0.8060 0.3364 -0.4871
vn 0.3378 0.4508 -0.8262
vn 0.5077 0.7795 -0.3668
vn 0.8083 0.3574 -0.4679
vn 0.6299 0.2693 -0.7285
vn 0.1288 0.8948 -0.4274
vn 0.2674 0.5321 -0.8034
vn -0.0670 0.5317 -0.8443
vn -0.4347 0.4220 -0.7956
vn -0.0599 0.5367 -0.8416
vn 0.3476 0.7860 -0.5112
vn -0.7541 0.5214 -0.3994
vn -0.5786 0.6208 -0.5289
vn 0.2990 0.9446 -0.1356
vn 0.9223 0.3805 -0.0680
vn 0.9449 0.3189 -0.0733
vn 0.8152 0.5736 -0.0809
vn 0.5271 0.8399 -0.1294
vn 0.5645 0.8166 -0.1209
vn 0.1417 0.9847 -0.1019
vn -0.7276 0.5662 0.3874
vn 0.0302 0.8062 0.5908
vn -0.3415 0.9108 0.2320
vn 0.4398 0.4550 0.7744
vn 0.2682 0.7569 0.5960
vn -0.0606 0.9863 0.1536
vn -0.1015 0.9734 0.2054
vn 0.4405 0.8376 0.3230
vn -0.4451 0.6545 0.6112
vn 0.5918 0.7610 0.2658
vn -0.5029 0.7104 0.4923
vn 0.2638 0.9597 0.0971
vn 0.3158 0.6175 0.7204
vn -0.0556 0.4330 0.8997
vn -0.1410 0.6946 0.7054
vn 0.7654 0.3724 0.5249
vn 0.9428 0.2476 0.2231
vn 0.8054 0.4857 0.3398
vn 0.7631 0.5806 0.2840
s 1
usemtl white
f 21//1 6//1 24//1
f 26//2 47//2 20//2
f 17//3 44//3 8//3
f 143//4 5//4 30//4
f 29//5 3//5 46//5
f 141//6 14//6 2//6
f 9//7 7//7 43//7
f 70//8 16//8 40//8
f 45//9 4//9 71//9
f 73//10 1//10 12//10
f 67//11 61//11 51//11
f 64//12 57//12 78//12
f 59//13 32//13 50//13
f 77//14 60//14 68//14
f 79//15 56//15 76//15
f 38//16 13//16 31//16
f 58//17 63//17 37//17
f 65//18 69//18 36//18
f 82//19 72//19 81//19
f 80//20 75//20 62//20
f 55//21 39//21 34//21
f 10//22 42//22 83//22
f 84//23 41//23 74//23
f 140//24 130//24 15//24
f 66//25 52//25 86//25
f 85//26 53//26 91//26
f 54//27 93//27 92//27
f 33//28 136//28 49//28
f 48//29 135//29 95//29
f 11//30 133//30 35//30
f 99//31 22//31 23//31
f 101//32 112//32 117//32
f 19//33 100//33 27//33
f 129//34 125//34 106//34
f 119//35 110//35 124//35
f 25//36 115//36 142//36
f 103//37 118//37 28//37
f 120//38 131//38 116//38
f 139//39 104//39 98//39
f 94//40 132//40 126//40
f 97//41 102//41 18//41
f 134//42 144//42 114//42
f 111//43 108//43 123//43
f 109//44 137//44 107//44
f 105//45 138//45 113//45
f 145//46 122//46 128//46
f 87//47 90//47 147//47
f 146//48 89//48 121//48
f 88//49 96//49 127//49
