# Blender 3.6.1
# www.blender.org
mtllib link6_2.mtl
o link6_2
v 0.000106 -0.029628 -0.027711
v 0.000106 -0.029628 -0.027711
v 0.000867 -0.029990 -0.005900
v 0.000867 -0.029990 -0.005900
v 0.000276 -0.030899 -0.022958
v 0.000276 -0.030899 -0.022958
v 0.000468 -0.031549 -0.017556
v 0.000468 -0.031549 -0.017556
v 0.001052 -0.027614 -0.000373
v 0.001052 -0.027614 -0.000373
v 0.001368 -0.024822 0.003988
v 0.001368 -0.024822 0.003988
v 0.001368 -0.024822 0.003988
v -0.000552 -0.015033 -0.045744
v -0.000552 -0.015033 -0.045744
v -0.000438 -0.019467 -0.042536
v -0.000438 -0.019467 -0.042536
v -0.000310 -0.022959 -0.039087
v -0.000310 -0.022959 -0.039087
v -0.000129 -0.026675 -0.034125
v -0.000129 -0.026675 -0.034125
v -0.000534 0.008235 -0.050286
v -0.000534 0.008235 -0.050286
v -0.000534 0.008235 -0.050286
v -0.000534 0.008235 -0.050286
v -0.000534 0.008235 -0.050286
v -0.000534 0.008235 -0.050286
v -0.000534 0.008235 -0.050286
v -0.000534 0.008235 -0.050286
v -0.000534 0.008235 -0.050286
v -0.000534 0.008235 -0.050286
v -0.000534 0.008235 -0.050286
v -0.000534 0.008235 -0.050286
v -0.000534 0.008235 -0.050286
v -0.000534 0.008235 -0.050286
v -0.000534 0.008235 -0.050286
v 0.000664 -0.031275 -0.012001
v 0.000664 -0.031275 -0.012001
v -0.000626 -0.010701 -0.047983
v -0.000626 -0.010701 -0.047983
v -0.000673 -0.005313 -0.049843
v -0.000673 -0.005313 -0.049843
v -0.000686 0.000636 -0.050767
v -0.000686 0.000636 -0.050767
v -0.000668 0.004868 -0.050789
v 0.001224 -0.001160 0.011428
v 0.001224 -0.001160 0.011428
v 0.001224 -0.001160 0.011428
v 0.001224 -0.001160 0.011428
v 0.000003 -0.018703 0.012630
v 0.000003 -0.018703 0.012630
v -0.001750 -0.013379 0.017875
v -0.001750 -0.013379 0.017875
v -0.002443 -0.002648 0.021456
v -0.002443 -0.002648 0.021456
v -0.002443 -0.002648 0.021456
v -0.002443 -0.002648 0.021456
v -0.002443 -0.002648 0.021456
v -0.001121 -0.016074 0.015709
v -0.001121 -0.016074 0.015709
v -0.001121 -0.016074 0.015709
v -0.002214 -0.006759 0.020427
v -0.002214 -0.006759 0.020427
v -0.002101 -0.009467 0.019574
v -0.002101 -0.009467 0.019574
v -0.002328 -0.006653 0.020563
v -0.001075 0.008230 -0.050217
v -0.001075 0.008230 -0.050217
v -0.001075 0.008230 -0.050217
v -0.001075 0.008230 -0.050217
v -0.001075 0.008230 -0.050217
v -0.001075 0.008230 -0.050217
v -0.001075 0.008230 -0.050217
v -0.001075 0.008230 -0.050217
v -0.001075 0.008230 -0.050217
v -0.000195 0.029977 -0.038170
v -0.000195 0.029977 -0.038170
v 0.000396 0.036907 -0.023618
v 0.000396 0.036907 -0.023618
v -0.000426 0.023550 -0.044284
v -0.000426 0.023550 -0.044284
v -0.000604 0.016959 -0.048021
v -0.000604 0.016959 -0.048021
v -0.000672 0.012501 -0.049584
v 0.000217 0.035473 -0.028446
v 0.000217 0.035473 -0.028446
v 0.000988 0.037100 -0.009780
v 0.000988 0.037100 -0.009780
v 0.000988 0.037100 -0.009780
v 0.000616 0.037686 -0.017397
v 0.000616 0.037686 -0.017397
v 0.000055 0.033605 -0.032592
v 0.000055 0.033605 -0.032592
v 0.001548 0.025227 0.010295
v 0.001548 0.025227 0.010295
v 0.001462 0.029423 0.006085
v 0.001462 0.029423 0.006085
v 0.001355 0.032110 0.002482
v 0.001355 0.032110 0.002482
v 0.001215 0.034810 -0.002489
v 0.001215 0.034810 -0.002489
v -0.002540 -0.002650 0.021483
v -0.002540 -0.002650 0.021483
v -0.002540 -0.002650 0.021483
v -0.001529 0.009525 0.021193
v -0.001529 0.009525 0.021193
v -0.001529 0.009525 0.021193
v 0.001505 0.020559 0.013665
v 0.001505 0.020559 0.013665
v -0.000323 0.013928 0.018877
v -0.000323 0.013928 0.018877
v 0.001127 -0.001190 0.011632
v 0.001127 -0.001190 0.011632
v 0.001127 -0.001190 0.011632
v 0.001127 -0.001190 0.011632
v 0.001127 -0.001190 0.011632
v 0.001127 -0.001190 0.011632
v 0.001127 -0.001190 0.011632
v 0.001127 -0.001190 0.011632
v 0.001127 -0.001190 0.011632
v -0.002414 0.000873 0.021792
v -0.002006 0.005407 0.021778
v -0.002006 0.005407 0.021778
vn 0.9995 -0.0015 -0.0329
vn 0.9996 0.0143 -0.0263
vn 0.9987 -0.0105 -0.0500
vn 0.9994 -0.0037 -0.0351
vn 0.9989 -0.0095 -0.0463
vn 0.9992 -0.0068 -0.0397
vn 0.9981 -0.0299 -0.0532
vn 0.9991 -0.0081 -0.0425
vn 0.9993 -0.0045 -0.0361
vn 0.9995 -0.0014 -0.0328
vn 0.9993 -0.0053 -0.0372
vn 0.9984 -0.0116 -0.0553
vn 0.9981 -0.0122 -0.0604
vn 0.9948 -0.0135 -0.1011
vn 0.9752 -0.0055 -0.2213
vn 0.9796 -0.0549 0.1935
vn 0.9404 -0.0513 0.3363
vn 0.9398 -0.0520 0.3376
vn 0.9274 -0.0390 0.3719
vn 0.9729 0.1056 -0.2057
vn 0.9699 -0.0184 0.2428
vn 0.7103 -0.1337 0.6911
vn 0.9936 -0.0748 0.0843
vn 0.9993 -0.0244 -0.0290
vn 0.9992 -0.0209 -0.0327
vn 0.9993 -0.0252 -0.0279
vn 0.9988 -0.0028 -0.0490
vn 0.9993 -0.0230 -0.0305
vn 0.9988 -0.0467 0.0114
vn 0.9224 -0.1403 0.3599
vn 0.9991 -0.0171 -0.0375
vn 0.9989 -0.0189 -0.0437
vn 0.9991 -0.0178 -0.0377
vn 0.9991 -0.0178 -0.0383
vn 0.9992 -0.0167 -0.0364
vn 0.9358 -0.0752 0.3443
vn 0.9586 -0.0430 0.2815
vn 0.9382 -0.0698 0.3389
vn 0.9998 -0.0164 -0.0100
vn 0.9612 -0.0735 0.2658
vn 0.8564 -0.0755 0.5108
s 1
usemtl black
f 37//1 27//1 3//1
f 13//2 28//2 46//2
f 36//3 17//3 15//3
f 8//4 35//4 38//4
f 19//5 16//5 34//5
f 33//6 2//6 20//6
f 12//7 10//7 32//7
f 21//8 18//8 31//8
f 5//9 30//9 7//9
f 4//10 29//10 9//10
f 1//11 23//11 6//11
f 39//12 22//12 14//12
f 41//13 24//13 40//13
f 25//14 42//14 44//14
f 43//15 45//15 26//15
f 47//16 50//16 11//16
f 58//17 60//17 48//17
f 57//18 53//18 61//18
f 49//19 59//19 51//19
f 55//20 62//20 64//20
f 56//21 65//21 52//21
f 63//22 54//22 66//22
f 80//23 74//23 83//23
f 93//24 72//24 77//24
f 71//25 78//25 91//25
f 92//26 85//26 70//26
f 68//27 90//27 87//27
f 79//28 73//28 86//28
f 67//29 81//29 76//29
f 82//30 69//30 84//30
f 101//31 98//31 118//31
f 96//32 119//32 99//32
f 95//33 114//33 97//33
f 89//34 120//34 75//34
f 100//35 117//35 88//35
f 106//36 116//36 110//36
f 115//37 109//37 111//37
f 107//38 102//38 113//38
f 108//39 112//39 94//39
f 122//40 104//40 105//40
f 103//41 123//41 121//41
