# Blender 3.6.1
# www.blender.org
mtllib link6_9.mtl
o link6_9
v 0.000180 -0.011845 0.004527
v 0.000180 -0.011845 0.004527
v 0.000180 -0.011845 0.004527
v 0.000180 -0.011845 0.004527
v -0.000269 -0.006445 -0.014388
v -0.000269 -0.006445 -0.014388
v -0.000269 -0.006445 -0.014388
v 0.000169 -0.015930 0.004932
v 0.000169 -0.015930 0.004932
v 0.000169 -0.015930 0.004932
v 0.000204 0.007859 0.002253
v 0.000204 0.007859 0.002253
v 0.000204 0.007859 0.002253
v 0.000193 0.007890 0.003604
v 0.000193 0.007890 0.003604
v 0.000193 0.007890 0.003604
v 0.000193 0.007890 0.003604
v 0.000155 0.004613 -0.006600
v 0.000155 0.004613 -0.006600
v 0.000155 0.004613 -0.006600
v 0.000155 0.004613 -0.006600
v 0.000155 0.004613 -0.006600
v 0.000155 0.004613 -0.006600
v 0.000155 0.004613 -0.006600
v 0.000155 0.004613 -0.006600
v 0.000205 -0.011110 0.001887
v 0.000205 -0.011110 0.001887
v 0.000205 -0.011110 0.001887
v 0.000205 -0.011110 0.001887
v 0.000200 -0.009064 -0.002115
v 0.000200 -0.009064 -0.002115
v 0.000200 -0.009064 -0.002115
v 0.000200 -0.009064 -0.002115
v 0.000200 -0.009064 -0.002115
v -0.000188 -0.008434 -0.013389
v -0.000188 -0.008434 -0.013389
v -0.000188 -0.008434 -0.013389
v 0.000135 0.014830 -0.005935
v 0.000135 0.014830 -0.005935
v 0.000135 0.014830 -0.005935
v -0.000052 -0.011233 -0.011298
v -0.000052 -0.011233 -0.011298
v -0.000052 -0.011233 -0.011298
v -0.000279 0.006346 -0.014339
v -0.000279 0.006346 -0.014339
v -0.000279 0.006346 -0.014339
v 0.000208 -0.009815 0.000631
v 0.000208 -0.009815 0.000631
v 0.000208 -0.009815 0.000631
v 0.000208 -0.009815 0.000631
v -0.000353 0.004204 -0.015116
v -0.000353 0.004204 -0.015116
v 0.000095 -0.005223 0.008078
v 0.000095 -0.005223 0.008078
v 0.000095 -0.005223 0.008078
v 0.000095 -0.005223 0.008078
v 0.000095 -0.005223 0.008078
v 0.000095 -0.005223 0.008078
v 0.000130 -0.014760 -0.006525
v 0.000130 -0.014760 -0.006525
v 0.000130 -0.014760 -0.006525
v 0.000130 -0.014760 -0.006525
v 0.000040 0.013021 -0.009018
v 0.000040 0.013021 -0.009018
v 0.000210 -0.012020 -0.000735
v 0.000210 -0.012020 -0.000735
v 0.000210 -0.012020 -0.000735
v 0.000210 -0.012020 -0.000735
v -0.000067 0.011983 0.011801
v -0.000067 0.011983 0.011801
v -0.000067 0.011983 0.011801
v 0.000028 0.013402 0.009974
v 0.000028 0.013402 0.009974
v 0.000028 0.013402 0.009974
v -0.000166 0.009672 0.013901
v -0.000166 0.009672 0.013901
v -0.000166 0.009672 0.013901
v -0.000166 0.009672 0.013901
v -0.000166 0.009672 0.013901
v 0.000091 0.014418 0.008282
v 0.000091 0.014418 0.008282
v 0.000091 0.014418 0.008282
v -0.000269 0.006685 0.015685
v -0.000269 0.006685 0.015685
v -0.000269 0.006685 0.015685
v -0.000132 -0.011201 0.012813
v -0.000132 -0.011201 0.012813
v -0.000132 -0.011201 0.012813
v -0.000211 -0.009052 0.014478
v -0.000211 -0.009052 0.014478
v 0.000039 -0.002452 0.009494
v 0.000039 -0.002452 0.009494
v 0.000039 -0.002452 0.009494
v 0.000151 0.015333 0.006137
v 0.000151 0.015333 0.006137
v 0.000151 0.015333 0.006137
v 0.000199 -0.016430 0.001773
v 0.000199 -0.016430 0.001773
v 0.000199 -0.016430 0.001773
v 0.000199 -0.016430 0.001773
v -0.000330 0.003853 0.016650
v -0.000330 0.003853 0.016650
v -0.000330 0.003853 0.016650
v 0.000198 0.016069 0.003212
v 0.000198 0.016069 0.003212
v 0.000198 0.016069 0.003212
v 0.000178 0.012709 0.004776
v 0.000178 0.012709 0.004776
v 0.000178 0.012709 0.004776
v 0.000178 0.012709 0.004776
v 0.000178 0.012709 0.004776
v -0.000081 -0.003893 0.012195
v -0.000081 -0.003893 0.012195
v -0.000081 -0.003893 0.012195
v -0.000081 -0.003893 0.012195
v -0.000081 -0.003893 0.012195
v -0.000263 -0.007333 0.015451
v -0.000263 -0.007333 0.015451
v -0.000263 -0.007333 0.015451
v -0.000363 0.001026 0.017112
v 0.000209 0.001236 0.000183
v 0.000209 0.001236 0.000183
v 0.000209 0.001236 0.000183
v -0.000006 0.005800 -0.010290
v -0.000006 0.005800 -0.010290
v -0.000006 0.005800 -0.010290
v -0.000006 0.005800 -0.010290
v -0.000006 0.005800 -0.010290
v -0.000006 0.005800 -0.010290
v -0.000006 0.005800 -0.010290
v -0.000007 -0.013283 0.010489
v -0.000007 -0.013283 0.010489
v -0.000007 -0.013283 0.010489
v -0.000351 -0.003955 -0.015250
v -0.000351 -0.003955 -0.015250
v -0.000351 -0.003955 -0.015250
v -0.000351 -0.003955 -0.015250
v -0.000390 0.001597 -0.015600
v -0.000390 0.001597 -0.015600
v 0.000134 -0.007977 0.006562
v 0.000134 -0.007977 0.006562
v 0.000134 -0.007977 0.006562
v 0.000134 -0.007977 0.006562
v 0.000057 -0.013314 -0.008899
v 0.000057 -0.013314 -0.008899
v 0.000057 -0.013314 -0.008899
v 0.000208 0.016213 0.000157
v 0.000208 0.016213 0.000157
v 0.000208 0.016213 0.000157
v -0.000071 0.010927 -0.011358
v -0.000071 0.010927 -0.011358
v -0.000071 0.010927 -0.011358
v -0.000071 0.010927 -0.011358
v 0.000202 0.001216 -0.001588
v 0.000202 0.001216 -0.001588
v 0.000202 0.001216 -0.001588
v 0.000202 0.001216 -0.001588
v 0.000183 0.003071 -0.003498
v 0.000183 0.003071 -0.003498
v 0.000183 0.003071 -0.003498
v 0.000183 0.003071 -0.003498
v 0.000183 0.003071 -0.003498
v 0.000183 0.003071 -0.003498
v -0.000387 -0.000810 -0.015677
v 0.000123 -0.003619 0.007911
v 0.000123 -0.003619 0.007911
v 0.000123 -0.003619 0.007911
v 0.000123 -0.003619 0.007911
v 0.000123 -0.003619 0.007911
v 0.000123 -0.003619 0.007911
v 0.000123 -0.003619 0.007911
v 0.000123 -0.003619 0.007911
v 0.000123 -0.003619 0.007911
v 0.000123 -0.003619 0.007911
v 0.000206 -0.016354 -0.000973
v 0.000206 -0.016354 -0.000973
v 0.000183 -0.015863 -0.003616
v 0.000183 -0.015863 -0.003616
v 0.000183 -0.015863 -0.003616
v -0.000361 -0.001834 0.017045
v -0.000361 -0.001834 0.017045
v 0.000208 0.011534 0.001061
v 0.000208 0.011534 0.001061
v 0.000208 0.011534 0.001061
v 0.000208 0.011534 0.001061
v 0.000161 0.003227 -0.005163
v 0.000161 0.003227 -0.005163
v 0.000161 0.003227 -0.005163
v 0.000161 0.003227 -0.005163
v 0.000204 -0.005938 0.002682
v 0.000204 -0.005938 0.002682
v 0.000204 -0.005938 0.002682
v 0.000191 0.015896 -0.002564
v 0.000191 0.015896 -0.002564
v 0.000210 -0.005918 0.000787
v 0.000210 -0.005918 0.000787
v 0.000210 -0.005918 0.000787
v 0.000210 -0.005918 0.000787
v -0.000194 0.008442 -0.013257
v -0.000194 0.008442 -0.013257
v -0.000194 0.008442 -0.013257
v -0.000324 -0.004830 0.016468
v -0.000324 -0.004830 0.016468
v -0.000324 -0.004830 0.016468
v 0.000096 -0.014880 0.007817
v 0.000096 -0.014880 0.007817
v 0.000096 -0.014880 0.007817
v 0.000096 -0.014880 0.007817
v 0.000042 0.002022 -0.009068
v 0.000042 0.002022 -0.009068
v 0.000163 -0.009944 -0.004805
v 0.000163 -0.009944 -0.004805
v 0.000163 -0.009944 -0.004805
v 0.000163 -0.009944 -0.004805
vn 0.9992 -0.0380 0.0085
vn 1.0000 -0.0082 -0.0053
vn 0.9999 -0.0007 -0.0136
vn 0.9988 -0.0009 0.0485
vn 0.9987 -0.0008 0.0513
vn 0.9990 0.0003 0.0446
vn 0.9995 0.0006 -0.0304
vn 0.9998 0.0007 -0.0215
vn 0.9999 -0.0020 0.0100
vn 0.9980 -0.0005 0.0624
vn 0.9999 -0.0001 -0.0136
vn 0.9999 0.0017 0.0167
vn 0.9999 -0.0005 0.0149
vn 0.9989 0.0003 0.0475
vn 0.9981 -0.0006 0.0609
vn 1.0000 -0.0014 0.0089
vn 0.9950 0.0019 -0.0996
vn 0.9984 -0.0005 0.0566
vn 0.9991 0.0048 -0.0421
vn 0.9991 0.0001 0.0426
vn 0.9958 0.0011 -0.0911
vn 1.0000 -0.0025 0.0094
vn 0.9995 -0.0011 -0.0300
vn 0.9962 0.0017 -0.0876
vn 0.9980 -0.0017 0.0628
vn 1.0000 -0.0012 0.0025
vn 0.9909 -0.0036 0.1344
vn 0.9997 -0.0234 -0.0037
vn 1.0000 0.0059 -0.0040
vn 0.9984 -0.0023 0.0563
vn 0.9980 0.0033 -0.0633
vn 1.0000 0.0007 0.0036
vn 0.9996 0.0012 0.0283
vn 0.9999 -0.0026 0.0164
vn 1.0000 -0.0011 0.0027
vn 1.0000 -0.0020 0.0088
vn 0.9978 -0.0008 0.0660
vn 0.9999 -0.0027 0.0165
vn 1.0000 -0.0002 -0.0086
vn 0.9988 0.0024 -0.0496
vn 0.9998 -0.0115 -0.0147
vn 0.9992 -0.0005 0.0403
vn 0.9993 -0.0002 0.0375
vn 0.9999 0.0011 -0.0109
vn 0.9961 -0.0621 -0.0635
vn 0.9969 0.0010 -0.0785
vn 0.9985 -0.0007 0.0546
vn 0.9879 -0.0014 0.1550
vn 0.9997 0.0254 0.0040
vn 0.9998 -0.0004 -0.0184
vn 1.0000 -0.0010 -0.0061
vn 0.9998 0.0004 0.0193
vn 0.9993 0.0005 -0.0378
vn 0.9977 -0.0007 0.0680
vn 0.9992 -0.0010 0.0388
vn 1.0000 -0.0000 -0.0035
vn 0.9983 0.0007 -0.0577
vn 0.9990 -0.0000 -0.0454
vn 0.9997 -0.0009 0.0257
vn 1.0000 -0.0006 0.0039
vn 1.0000 -0.0004 -0.0030
vn 1.0000 0.0003 -0.0094
vn 0.9997 -0.0005 0.0236
vn 1.0000 0.0013 0.0076
vn 1.0000 -0.0028 -0.0044
vn 0.9998 0.0032 -0.0179
vn 1.0000 -0.0011 -0.0059
vn 0.9980 0.0007 -0.0639
vn 0.9978 0.0009 -0.0656
vn 0.9999 0.0080 0.0114
vn 0.9967 0.0011 -0.0806
s 1
usemtl black
f 16//1 25//1 12//1
f 28//2 33//2 50//2
f 159//3 62//3 188//3
f 89//4 86//4 78//4
f 71//5 93//5 74//5
f 114//6 92//6 70//6
f 186//7 144//7 209//7
f 214//8 60//8 161//8
f 10//9 99//9 3//9
f 103//10 202//10 84//10
f 34//11 211//11 158//11
f 95//12 110//12 105//12
f 108//13 165//13 14//13
f 76//14 116//14 69//14
f 203//15 119//15 85//15
f 4//16 100//16 29//16
f 46//17 137//17 52//17
f 118//18 75//18 83//18
f 21//19 126//19 39//19
f 113//20 131//20 58//20
f 7//21 135//21 45//21
f 169//22 122//22 17//22
f 40//23 128//23 63//23
f 136//24 138//24 51//24
f 87//25 112//25 79//25
f 27//26 97//26 67//26
f 59//7 144//7 186//7
f 206//27 167//27 56//27
f 121//28 172//28 157//28
f 154//29 163//29 123//29
f 88//30 133//30 115//30
f 134//31 164//31 139//31
f 184//32 149//32 106//32
f 80//33 174//33 94//33
f 208//34 141//34 166//34
f 98//35 176//35 68//35
f 111//36 182//36 104//36
f 181//37 101//37 120//37
f 142//38 191//38 170//38
f 175//39 177//39 66//39
f 64//40 129//40 150//40
f 189//41 24//41 162//41
f 91//42 54//42 72//42
f 73//43 53//43 81//43
f 65//44 178//44 212//44
f 130//45 23//45 187//45
f 35//46 5//46 201//46
f 117//47 90//47 77//47
f 55//48 173//48 82//48
f 168//49 192//49 196//49
f 179//50 61//50 213//50
f 22//51 194//51 148//51
f 171//52 109//52 96//52
f 146//53 124//53 210//53
f 180//54 204//54 102//54
f 132//55 205//55 57//55
f 197//56 30//56 156//56
f 43//57 153//57 125//57
f 145//58 41//58 127//58
f 207//59 9//59 143//59
f 48//60 195//60 190//60
f 49//61 32//61 198//61
f 31//62 160//62 155//62
f 8//63 2//63 140//63
f 15//64 11//64 107//64
f 13//65 20//65 183//65
f 19//66 38//66 193//66
f 185//67 18//67 147//67
f 42//68 36//68 151//68
f 152//69 37//69 199//69
f 26//70 47//70 1//70
f 200//71 6//71 44//71
