# Blender 3.6.1
# www.blender.org
mtllib link6_11.mtl
o link6_11
v -0.000057 -0.002287 -0.000086
v -0.000057 -0.002287 -0.000086
v -0.000057 -0.002287 -0.000086
v -0.000057 -0.002287 -0.000086
v -0.000057 -0.002287 -0.000086
v -0.000057 -0.002287 -0.000086
v -0.000007 0.000300 -0.003737
v -0.000007 0.000300 -0.003737
v -0.000007 0.000300 -0.003737
v -0.000007 0.000300 -0.003737
v -0.000007 0.000300 -0.003737
v -0.000007 0.000300 -0.003737
v -0.000007 0.000300 -0.003737
v -0.000007 0.000300 -0.003737
v -0.000007 0.000300 -0.003737
v 0.000060 0.004710 -0.001699
v 0.000060 0.004710 -0.001699
v 0.000060 0.004710 -0.001699
v 0.000060 0.004841 -0.001282
v 0.000060 0.004841 -0.001282
v -0.000075 -0.001347 -0.000441
v -0.000075 -0.001347 -0.000441
v -0.000075 -0.001347 -0.000441
v -0.000075 -0.001347 -0.000441
v -0.000075 -0.001347 -0.000441
v 0.000058 -0.001699 0.004710
v 0.000058 -0.001699 0.004710
v 0.000058 -0.001699 0.004710
v 0.000058 -0.001699 0.004710
v 0.000058 -0.001699 0.004710
v 0.000057 0.002124 -0.004520
v 0.000057 0.002124 -0.004520
v 0.000057 0.002124 -0.004520
v 0.000057 0.002124 -0.004520
v 0.000057 0.002124 -0.004520
v 0.000057 0.002124 -0.004520
v -0.000044 0.002743 0.000077
v -0.000044 0.002743 0.000077
v -0.000044 0.002743 0.000077
v -0.000044 0.002743 0.000077
v -0.000044 0.002743 0.000077
v -0.000077 -0.000261 -0.001357
v -0.000077 -0.000261 -0.001357
v -0.000077 -0.000261 -0.001357
v -0.000077 -0.000261 -0.001357
v -0.000077 -0.000261 -0.001357
v -0.000077 -0.000261 -0.001357
v -0.000077 -0.000261 -0.001357
v 0.000060 -0.004521 0.002125
v 0.000060 -0.004521 0.002125
v 0.000060 -0.004521 0.002125
v 0.000060 -0.004521 0.002125
v 0.000060 -0.004521 0.002125
v -0.000033 0.001077 0.002855
v -0.000033 0.001077 0.002855
v -0.000033 0.001077 0.002855
v -0.000033 0.001077 0.002855
v -0.000033 0.001077 0.002855
v -0.000033 0.001077 0.002855
v -0.000049 -0.000340 0.002543
v -0.000049 -0.000340 0.002543
v -0.000049 -0.000340 0.002543
v -0.000001 0.000055 0.003891
v -0.000001 0.000055 0.003891
v -0.000001 0.000055 0.003891
v -0.000001 0.000055 0.003891
v -0.000001 0.000055 0.003891
v -0.000001 0.000055 0.003891
v -0.000001 0.000055 0.003891
v -0.000001 0.000055 0.003891
v -0.000001 0.000055 0.003891
v -0.000001 0.000055 0.003891
v -0.000001 0.000055 0.003891
v -0.000052 0.002142 0.001117
v -0.000052 0.002142 0.001117
v -0.000052 0.002142 0.001117
v -0.000043 0.000904 -0.002565
v -0.000043 0.000904 -0.002565
v -0.000043 0.000904 -0.002565
v -0.000043 0.000904 -0.002565
v 0.000005 0.003983 -0.000544
v 0.000005 0.003983 -0.000544
v 0.000005 0.003983 -0.000544
v 0.000005 0.003983 -0.000544
v 0.000005 0.003983 -0.000544
v 0.000005 0.003983 -0.000544
v 0.000005 0.003983 -0.000544
v 0.000005 0.003983 -0.000544
v 0.000005 0.003983 -0.000544
v 0.000005 0.003983 -0.000544
v 0.000060 0.002511 -0.004318
v 0.000061 -0.001284 0.004841
v -0.000035 0.002907 0.000692
v -0.000035 0.002907 0.000692
v -0.000072 -0.001514 -0.000293
v -0.000072 -0.001514 -0.000293
v -0.000072 -0.001514 -0.000293
v 0.000061 -0.000857 0.004936
v 0.000061 -0.000857 0.004936
v 0.000061 -0.000857 0.004936
v -0.000059 0.000604 -0.002046
v -0.000059 0.000604 -0.002046
v -0.000059 0.000604 -0.002046
v -0.000059 0.000604 -0.002046
v -0.000017 -0.002600 0.002300
v -0.000017 -0.002600 0.002300
v -0.000017 -0.002600 0.002300
v -0.000017 -0.002600 0.002300
v -0.000017 -0.002600 0.002300
v -0.000017 -0.002600 0.002300
v -0.000017 -0.002600 0.002300
v -0.000017 -0.002600 0.002300
v -0.000017 -0.002600 0.002300
v -0.000078 -0.001064 0.000614
v -0.000078 -0.001064 0.000614
v -0.000078 -0.001064 0.000614
v -0.000039 0.002307 0.001731
v -0.000039 0.002307 0.001731
v -0.000039 0.002307 0.001731
v -0.000039 0.002307 0.001731
v 0.000052 0.004841 0.001306
v 0.000052 0.004841 0.001306
v 0.000052 0.004841 0.001306
v 0.000052 0.004841 0.001306
v 0.000052 0.004841 0.001306
v 0.000052 0.004841 0.001306
v 0.000052 0.004841 0.001306
v 0.000052 0.004841 0.001306
v 0.000052 0.004841 0.001306
v 0.000061 -0.004085 0.002880
v 0.000061 -0.004085 0.002880
v 0.000061 -0.004085 0.002880
v 0.000062 -0.004319 0.002512
v -0.000088 -0.000100 0.000437
v -0.000088 -0.000100 0.000437
v -0.000088 -0.000100 0.000437
v 0.000060 0.004935 -0.000856
v 0.000060 0.004935 -0.000856
v -0.000000 0.003061 -0.002462
v -0.000000 0.003061 -0.002462
v -0.000000 0.003061 -0.002462
v -0.000000 0.003061 -0.002462
v -0.000000 0.003061 -0.002462
v -0.000000 0.003061 -0.002462
v -0.000000 0.003061 -0.002462
v -0.000000 0.003061 -0.002462
v -0.000000 0.003061 -0.002462
v -0.000000 0.003061 -0.002462
v -0.000000 0.003061 -0.002462
v -0.000000 0.003061 -0.002462
v -0.000000 0.003061 -0.002462
v -0.000000 0.003061 -0.002462
v -0.000000 0.003061 -0.002462
v -0.000066 0.000977 -0.001590
v -0.000066 0.000977 -0.001590
v -0.000066 0.000977 -0.001590
v -0.000066 0.000977 -0.001590
v -0.000066 0.000977 -0.001590
v 0.000060 0.002879 -0.004084
v 0.000060 0.002879 -0.004084
v 0.000060 0.002879 -0.004084
v 0.000062 -0.003819 0.003226
v 0.000062 -0.003819 0.003226
v 0.000060 0.004992 -0.000424
v 0.000060 0.004992 -0.000424
v 0.000061 -0.000425 0.004993
v 0.000061 -0.000425 0.004993
v 0.000060 0.003225 -0.003819
v 0.000060 0.003225 -0.003819
v -0.000061 0.001124 -0.001746
v -0.000061 0.001124 -0.001746
v -0.000061 0.001124 -0.001746
v -0.000061 0.001124 -0.001746
v -0.000061 0.001124 -0.001746
v -0.000000 0.002710 0.002808
v -0.000000 0.002710 0.002808
v -0.000000 0.002710 0.002808
v -0.000000 0.002710 0.002808
v -0.000000 0.002710 0.002808
v -0.000000 0.002710 0.002808
v -0.000000 0.002710 0.002808
v -0.000000 0.002710 0.002808
v -0.000000 0.002710 0.002808
v -0.000000 0.002710 0.002808
v -0.000000 0.002710 0.002808
v 0.000061 -0.002102 -0.004520
v 0.000061 -0.002102 -0.004520
v 0.000062 -0.002489 -0.004318
v 0.000062 -0.002489 -0.004318
v 0.000061 -0.004319 -0.002488
v 0.000061 -0.004319 -0.002488
v 0.000061 -0.004319 -0.002488
v 0.000062 -0.004521 -0.002101
v 0.000062 -0.004521 -0.002101
v 0.000062 -0.003525 -0.003524
v 0.000059 -0.003820 -0.003202
v 0.000059 -0.003820 -0.003202
v 0.000059 -0.003820 -0.003202
v 0.000059 -0.003820 -0.003202
v 0.000059 -0.003820 -0.003202
v 0.000059 -0.003820 -0.003202
v 0.000062 -0.003203 -0.003819
v 0.000062 -0.003203 -0.003819
v 0.000062 -0.003203 -0.003819
v 0.000062 -0.004085 -0.002856
v 0.000062 -0.002856 -0.004084
v 0.000062 -0.002856 -0.004084
v -0.000025 -0.001152 -0.003144
v -0.000025 -0.001152 -0.003144
v -0.000025 -0.001152 -0.003144
v -0.000025 -0.001152 -0.003144
v -0.000025 -0.001152 -0.003144
v -0.000025 -0.001152 -0.003144
v -0.000025 -0.001152 -0.003144
v -0.000025 -0.001152 -0.003144
v -0.000025 -0.001152 -0.003144
v -0.000025 -0.001152 -0.003144
v -0.000025 -0.001152 -0.003144
v -0.000025 -0.001152 -0.003144
v -0.000025 -0.001152 -0.003144
v 0.000002 -0.003654 -0.001322
v 0.000002 -0.003654 -0.001322
v 0.000002 -0.003654 -0.001322
v 0.000002 -0.003654 -0.001322
v 0.000002 -0.003654 -0.001322
v 0.000002 -0.003654 -0.001322
v 0.000002 -0.003654 -0.001322
v 0.000002 -0.003654 -0.001322
v 0.000002 -0.003654 -0.001322
v 0.000002 -0.003654 -0.001322
v 0.000002 -0.003654 -0.001322
v 0.000062 -0.004687 -0.001698
v 0.000062 -0.004687 -0.001698
v -0.000087 -0.000006 0.000537
v -0.000087 -0.000006 0.000537
v -0.000087 -0.000006 0.000537
v -0.000087 -0.000006 0.000537
v -0.000087 -0.000006 0.000537
v -0.000087 -0.000006 0.000537
v 0.000061 -0.001284 -0.004818
v 0.000061 -0.001284 -0.004818
v 0.000061 -0.001699 -0.004687
v 0.000061 -0.001699 -0.004687
v 0.000062 -0.004818 -0.001282
v 0.000062 -0.004818 -0.001282
v 0.000062 -0.004913 -0.000856
v 0.000062 -0.004913 -0.000856
v 0.000062 -0.004913 -0.000856
v 0.000061 -0.000857 -0.004912
v 0.000061 -0.000857 -0.004912
v 0.000061 -0.000857 -0.004912
v 0.000059 0.005011 0.000012
v 0.000059 0.005011 0.000012
v 0.000060 0.003547 -0.003524
v 0.000060 0.003547 -0.003524
v 0.000061 0.000011 0.005012
v 0.000061 0.000011 0.005012
v 0.000061 -0.000425 -0.004969
v 0.000061 -0.000425 -0.004969
v 0.000062 -0.004970 -0.000424
v 0.000061 0.000447 0.004993
v 0.000061 0.000447 0.004993
v 0.000057 0.002124 0.004544
v 0.000057 0.002124 0.004544
v 0.000057 0.002124 0.004544
v 0.000057 0.002124 0.004544
v 0.000057 0.002124 0.004544
v 0.000057 0.002124 0.004544
v 0.000060 0.004992 0.000448
v 0.000060 0.004992 0.000448
v 0.000060 0.004992 0.000448
v 0.000059 -0.004989 0.000013
v 0.000059 -0.004989 0.000013
v 0.000059 -0.004989 0.000013
v 0.000059 -0.004989 0.000013
v 0.000059 -0.004989 0.000013
v 0.000059 -0.004989 0.000013
v -0.000065 -0.000740 0.001822
v -0.000065 -0.000740 0.001822
v -0.000065 -0.000740 0.001822
v -0.000065 -0.000740 0.001822
v -0.000065 -0.000740 0.001822
v -0.000065 -0.000740 0.001822
v 0.000061 -0.003525 0.003548
v 0.000061 -0.003525 0.003548
v 0.000061 -0.003525 0.003548
v 0.000062 -0.003203 0.003842
v -0.000042 -0.001902 -0.002024
v -0.000042 -0.001902 -0.002024
v -0.000042 -0.001902 -0.002024
v -0.000042 -0.001902 -0.002024
v -0.000042 -0.001902 -0.002024
v -0.000042 -0.001902 -0.002024
v -0.000074 0.001516 -0.000351
v -0.000074 0.001516 -0.000351
v -0.000074 0.001516 -0.000351
v -0.000074 0.001516 -0.000351
v 0.000060 0.000879 0.004936
v 0.000060 0.000879 0.004936
v 0.000061 0.000011 -0.004988
v 0.000061 0.000011 -0.004988
v -0.000055 0.002015 -0.001218
v -0.000055 0.002015 -0.001218
v -0.000055 0.002015 -0.001218
v 0.000060 0.004935 0.000880
v 0.000060 0.003841 -0.003202
v 0.000060 0.003841 -0.003202
v 0.000061 0.000447 -0.004969
v 0.000061 0.000447 -0.004969
v 0.000061 0.001305 0.004841
v 0.000061 0.001305 0.004841
v 0.000061 0.001305 0.004841
v -0.000074 0.001442 0.000149
v -0.000074 0.001442 0.000149
v -0.000074 0.001442 0.000149
v -0.000074 0.001442 0.000149
v 0.000062 -0.004970 0.000448
v 0.000060 0.003225 0.003842
v 0.000060 0.003225 0.003842
v 0.000060 0.003547 0.003548
v 0.000060 0.003547 0.003548
v 0.000059 -0.002857 0.004108
v 0.000059 -0.002857 0.004108
v 0.000059 -0.002857 0.004108
v 0.000059 -0.002857 0.004108
v 0.000059 -0.002857 0.004108
v 0.000059 -0.002857 0.004108
v 0.000061 0.001721 0.004710
v 0.000060 0.004710 0.001722
v 0.000060 0.003841 0.003226
v 0.000060 0.003841 0.003226
v 0.000060 0.004106 0.002880
v 0.000060 0.004106 0.002880
v 0.000060 0.004543 0.002125
v 0.000060 0.004543 0.002125
v 0.000060 0.002879 0.004108
v 0.000060 0.002879 0.004108
v 0.000060 0.002879 0.004108
v 0.000060 0.002511 0.004342
v 0.000060 0.004341 0.002512
v 0.000060 0.004341 0.002512
v 0.000060 0.004341 0.002512
v 0.000060 0.004106 -0.002856
v 0.000060 0.004106 -0.002856
v -0.000010 -0.003592 0.000449
v -0.000010 -0.003592 0.000449
v -0.000010 -0.003592 0.000449
v -0.000010 -0.003592 0.000449
v -0.000010 -0.003592 0.000449
v -0.000010 -0.003592 0.000449
v 0.000062 -0.004913 0.000880
v 0.000062 -0.004913 0.000880
v -0.000068 -0.000548 0.001770
v -0.000068 -0.000548 0.001770
v -0.000068 -0.000548 0.001770
v -0.000068 -0.000548 0.001770
v -0.000068 -0.000548 0.001770
v 0.000060 0.000879 -0.004912
v 0.000060 0.000879 -0.004912
v 0.000060 0.000879 -0.004912
v -0.000044 -0.002494 -0.000859
v -0.000044 -0.002494 -0.000859
v -0.000044 -0.002494 -0.000859
v -0.000044 -0.002494 -0.000859
v 0.000062 -0.002489 0.004342
v -0.000036 0.002882 -0.000717
v -0.000036 0.002882 -0.000717
v -0.000036 0.002882 -0.000717
v -0.000036 0.002882 -0.000717
v -0.000035 -0.001113 0.002750
v -0.000035 -0.001113 0.002750
v -0.000035 -0.001113 0.002750
v -0.000035 -0.001113 0.002750
v -0.000035 -0.001113 0.002750
v -0.000035 -0.001113 0.002750
v 0.000060 0.004341 -0.002488
v 0.000060 0.004341 -0.002488
v -0.000070 0.001311 0.001190
v -0.000070 0.001311 0.001190
v -0.000070 0.001311 0.001190
v -0.000070 0.001311 0.001190
v -0.000070 0.001311 0.001190
v -0.000070 0.001311 0.001190
v -0.000070 0.001311 0.001190
v -0.000070 0.001311 0.001190
v 0.000061 0.001305 -0.004818
v 0.000061 0.001305 -0.004818
v 0.000062 -0.004818 0.001306
v 0.000062 -0.004818 0.001306
v 0.000062 -0.004818 0.001306
v 0.000062 -0.004818 0.001306
v 0.000060 0.004543 -0.002101
v 0.000060 0.004543 -0.002101
v -0.000054 0.002382 0.000149
v -0.000054 0.002382 0.000149
v -0.000054 0.002382 0.000149
v -0.000054 0.002382 0.000149
v -0.000054 0.002382 0.000149
v 0.000061 -0.002102 0.004544
v 0.000061 -0.002102 0.004544
v 0.000061 0.001721 -0.004687
v 0.000062 -0.004687 0.001722
vn 0.9990 0.0132 -0.0437
vn 0.9997 -0.0052 -0.0243
vn 0.9998 0.0146 0.0156
vn 0.9997 -0.0221 -0.0074
vn 0.9995 -0.0000 0.0308
vn 0.9986 -0.0501 0.0151
vn 0.9988 -0.0451 0.0184
vn 0.9997 -0.0060 -0.0232
vn 0.9993 -0.0379 0.0027
vn 0.9996 -0.0228 -0.0159
vn 0.9996 0.0018 0.0280
vn 0.9995 0.0001 0.0308
vn 0.9994 -0.0030 -0.0347
vn 0.9990 0.0416 -0.0186
vn 0.9998 0.0184 -0.0022
vn 0.9963 0.0191 -0.0833
vn 0.9987 0.0098 -0.0500
vn 0.9999 0.0171 -0.0015
vn 0.9991 -0.0420 -0.0058
vn 0.9964 0.0729 -0.0436
vn 1.0000 0.0061 0.0060
vn 0.9985 -0.0528 0.0127
vn 0.9991 -0.0196 0.0370
vn 0.9998 -0.0047 0.0192
vn 0.9958 -0.0480 0.0778
vn 0.9958 -0.0481 0.0778
vn 0.9986 0.0074 -0.0524
vn 0.9990 -0.0442 -0.0022
vn 0.9997 -0.0082 0.0220
vn 0.9985 -0.0544 0.0073
vn 0.9995 -0.0212 -0.0253
vn 0.9994 -0.0149 -0.0306
vn 0.9994 0.0307 -0.0127
vn 0.9988 0.0425 -0.0262
vn 0.9975 0.0484 0.0522
vn 0.9932 0.0957 0.0656
vn 0.9988 0.0297 0.0385
vn 0.9987 0.0272 0.0430
vn 0.9986 0.0246 0.0458
vn 0.9989 -0.0216 0.0422
vn 0.9991 -0.0390 -0.0183
vn 0.9985 0.0507 0.0203
vn 0.9999 -0.0085 0.0072
vn 0.9988 -0.0263 0.0402
vn 0.9986 0.0200 0.0490
vn 0.9987 0.0395 -0.0330
vn 0.9985 0.0521 0.0168
vn 0.9985 -0.0538 0.0024
vn 0.9989 0.0308 0.0352
vn 0.9986 0.0164 0.0502
vn 0.9985 0.0492 0.0220
vn 0.9985 -0.0367 0.0400
vn 0.9986 -0.0327 0.0409
vn 1.0000 -0.0069 0.0070
vn 0.9985 0.0018 -0.0548
vn 0.9986 0.0120 0.0506
vn 0.9985 -0.0025 -0.0548
vn 0.9988 0.0405 0.0269
vn 0.9989 -0.0137 -0.0452
vn 0.9994 -0.0210 0.0283
vn 0.9986 -0.0527 -0.0008
vn 0.9987 -0.0514 -0.0023
vn 0.9987 0.0081 0.0500
vn 0.9986 0.0519 0.0117
vn 0.9997 0.0223 -0.0138
vn 0.9994 0.0280 -0.0183
vn 0.9987 0.0394 -0.0333
vn 0.9976 0.0680 0.0084
vn 0.9989 0.0309 0.0359
vn 0.9998 -0.0171 0.0140
vn 0.9985 -0.0055 -0.0537
vn 0.9994 -0.0220 0.0254
vn 0.9987 0.0067 0.0509
vn 0.9804 -0.1955 -0.0259
vn 0.9984 -0.0405 0.0387
vn 0.9986 0.0020 0.0537
vn 0.9998 -0.0149 0.0133
vn 0.9987 0.0501 0.0070
vn 0.9990 -0.0211 -0.0404
vn 0.9999 0.0110 0.0017
vn 0.9988 -0.0131 -0.0469
vn 0.9987 -0.0116 -0.0490
vn 0.9990 -0.0396 -0.0214
vn 0.9990 0.0361 0.0269
vn 0.9985 -0.0354 -0.0407
vn 0.9936 0.0749 -0.0846
vn 0.9987 0.0349 -0.0366
vn 0.9970 -0.0229 -0.0733
vn 0.9999 0.0111 -0.0112
vn 0.9985 -0.0024 0.0548
vn 0.9986 -0.0413 -0.0319
vn 0.9826 -0.1712 -0.0716
vn 0.9987 -0.0276 -0.0424
vn 0.9955 -0.0493 -0.0803
vn 0.9989 -0.0407 -0.0230
vn 0.9973 -0.0659 -0.0334
vn 0.9986 -0.0334 -0.0416
vn 0.9986 -0.0402 -0.0352
vn 0.9984 -0.0453 0.0336
vn 0.9988 -0.0416 -0.0275
vn 0.9988 0.0481 0.0050
vn 0.9995 0.0197 -0.0244
vn 0.9999 0.0121 -0.0106
vn 0.9985 -0.0057 0.0543
vn 0.9978 0.0651 -0.0084
vn 0.9995 0.0070 -0.0293
vn 0.9993 -0.0321 0.0168
vn 0.9990 0.0237 -0.0385
vn 0.9985 -0.0465 0.0306
vn 0.9999 -0.0108 -0.0047
vn 0.9993 0.0327 0.0186
vn 0.9997 0.0230 -0.0048
vn 0.9986 -0.0466 0.0237
vn 0.9998 -0.0207 -0.0032
vn 0.9955 0.0447 -0.0841
vn 0.9989 0.0217 -0.0411
vn 0.9986 0.0525 -0.0086
vn 0.9998 -0.0043 -0.0177
vn 0.9991 -0.0399 0.0162
vn 0.9998 -0.0209 -0.0062
vn 0.9993 0.0068 -0.0375
vn 0.9986 -0.0135 0.0505
vn 0.9995 -0.0073 0.0306
vn 0.9971 -0.0227 0.0733
vn 0.9993 0.0381 0.0054
vn 0.9993 0.0377 0.0061
vn 0.9968 0.0374 -0.0713
vn 0.9997 0.0114 0.0229
vn 0.9987 0.0481 -0.0149
vn 0.9977 0.0639 -0.0207
vn 0.9997 0.0222 0.0130
vn 0.9995 -0.0307 0.0039
vn 0.9988 -0.0456 0.0196
vn 0.9997 0.0245 0.0068
vn 0.9994 -0.0336 -0.0103
s 1
usemtl white
f 374//1 71//1 30//1
f 353//2 57//2 62//2
f 292//3 44//3 25//3
f 397//4 76//4 378//4
f 8//5 80//5 213//5
f 20//6 81//6 17//6
f 18//7 83//7 141//7
f 384//8 55//8 357//8
f 368//9 85//9 39//9
f 74//10 119//10 382//10
f 219//11 104//11 42//11
f 79//12 102//12 208//12
f 61//13 56//13 67//13
f 346//14 111//14 50//14
f 96//15 116//15 3//15
f 28//16 98//16 92//16
f 63//17 100//17 26//17
f 24//18 115//18 97//18
f 90//19 128//19 38//19
f 52//20 131//20 133//20
f 43//21 135//21 22//21
f 19//22 137//22 89//22
f 31//23 153//23 13//23
f 103//24 158//24 45//24
f 91//25 160//26 33//26
f 68//27 167//27 99//27
f 41//28 125//28 94//28
f 101//29 170//29 157//29
f 138//30 165//30 87//30
f 379//31 179//31 54//31
f 120//32 178//32 385//32
f 6//33 105//33 349//33
f 49//34 110//34 132//34
f 204//35 198//35 195//35
f 197//36 192//36 205//36
f 206//37 217//37 203//37
f 189//38 220//38 207//38
f 186//39 215//39 188//39
f 10//40 143//40 78//40
f 93//41 121//41 118//41
f 194//42 223//42 232//42
f 47//43 234//43 136//43
f 161//44 149//44 32//44
f 242//45 218//45 187//45
f 130//46 106//46 162//46
f 231//47 244//47 233//47
f 164//48 252//48 88//48
f 202//49 209//49 201//49
f 241//50 210//50 243//50
f 190//51 230//51 193//51
f 255//52 147//52 169//52
f 168//53 144//53 159//53
f 156//54 237//54 48//54
f 65//55 256//55 166//55
f 250//56 212//56 240//56
f 262//57 257//57 73//57
f 200//58 229//58 191//58
f 59//59 263//59 69//59
f 77//60 148//60 174//60
f 82//61 271//61 127//61
f 253//62 269//62 84//62
f 249//63 7//63 216//63
f 245//64 226//64 246//64
f 5//65 279//65 113//65
f 114//66 280//66 4//66
f 109//67 284//67 163//67
f 248//68 276//68 260//68
f 214//69 293//69 199//69
f 173//70 294//70 154//70
f 72//71 298//71 261//71
f 151//72 304//72 172//72
f 258//73 12//73 251//73
f 270//74 305//74 126//74
f 254//75 307//75 150//75
f 301//76 15//76 259//76
f 171//77 302//77 297//77
f 222//78 277//78 247//78
f 181//79 267//79 58//79
f 155//80 295//80 315//80
f 265//81 312//81 66//81
f 70//82 311//82 299//82
f 124//83 180//83 117//83
f 196//84 289//84 221//84
f 319//85 183//85 321//85
f 285//86 324//86 287//86
f 107//87 325//87 286//87
f 266//88 328//88 310//88
f 134//89 239//89 283//89
f 309//90 9//90 300//90
f 330//91 185//91 332//91
f 122//92 329//92 334//92
f 182//93 337//93 268//93
f 264//94 336//94 339//94
f 129//95 340//95 184//95
f 335//96 341//96 123//96
f 318//97 338//97 175//97
f 331//98 320//98 177//98
f 343//99 146//99 306//99
f 342//100 333//100 176//100
f 225//101 348//101 273//101
f 282//102 370//102 112//102
f 236//103 356//103 278//103
f 308//104 360//104 14//104
f 317//105 274//105 351//105
f 355//106 371//106 281//106
f 152//107 367//107 303//107
f 108//108 372//108 326//108
f 344//109 377//109 142//109
f 314//110 383//110 235//110
f 288//111 364//111 228//111
f 272//112 389//112 352//112
f 393//113 139//113 376//113
f 296//114 394//114 313//114
f 323//115 400//115 365//115
f 373//116 27//116 322//116
f 275//117 345//117 390//117
f 381//118 354//118 238//118
f 140//119 86//119 366//119
f 316//120 396//120 380//120
f 60//121 64//121 375//121
f 359//122 34//122 11//122
f 387//123 36//123 358//123
f 401//124 35//124 386//124
f 224//125 2//125 350//125
f 361//126 1//126 227//126
f 327//127 29//127 399//127
f 211//128 46//128 290//128
f 347//129 53//129 388//129
f 391//130 51//130 402//130
f 291//131 21//131 363//131
f 369//132 40//132 395//132
f 392//133 16//133 145//133
f 362//134 23//134 95//134
f 75//135 398//135 37//135
