# Blender 4.0.0
# www.blender.org
mtllib apple_juice_box.mtl
o apple_juice_box
v 0.031261 0.036223 -0.119776
v -0.030991 -0.033312 -0.119776
v -0.030991 0.036223 -0.119776
v 0.031261 -0.033312 -0.119776
v 0.031261 -0.033312 -0.119776
v 0.031261 0.036223 -0.119776
v -0.030991 -0.033312 -0.119776
v -0.030991 0.036223 -0.119776
v 0.000505 0.000728 0.119776
v 0.000101 0.014488 0.119776
v -0.000497 0.010922 0.119776
v 0.000505 0.029223 0.119776
v -0.030991 -0.033312 0.119776
v -0.027991 0.000728 0.119776
v -0.027991 0.029223 0.119776
v 0.031261 -0.033312 0.119776
v -0.017797 0.001730 0.119776
v -0.014230 0.001132 0.119776
v -0.010631 0.001477 0.119776
v -0.030991 0.036223 0.119776
v 0.031261 0.036223 0.119776
v -0.016856 0.028474 0.119776
v -0.013256 0.028819 0.119776
v -0.009690 0.028221 0.119776
v -0.000245 0.018088 0.119776
v -0.027241 0.011863 0.119776
v -0.027587 0.015463 0.119776
v -0.026989 0.019029 0.119776
v -0.027991 0.000728 0.119776
v -0.027991 0.029223 0.119776
v -0.027587 0.015463 0.119776
v -0.026989 0.019029 0.119776
v -0.027241 0.011863 0.119776
v 0.000101 0.014488 0.119776
v -0.000245 0.018088 0.119776
v 0.000505 0.029223 0.119776
v 0.031261 -0.033312 0.119776
v 0.000505 0.000728 0.119776
v 0.031261 0.036223 0.119776
v -0.009690 0.028221 0.119776
v -0.013256 0.028819 0.119776
v -0.016856 0.028474 0.119776
v -0.030991 -0.033312 0.119776
v -0.030991 0.036223 0.119776
v -0.010631 0.001477 0.119776
v -0.014230 0.001132 0.119776
v -0.017797 0.001730 0.119776
v -0.000497 0.010922 0.119776
v -0.030991 0.036223 0.119776
v 0.031261 0.036223 -0.119776
v -0.030991 0.036223 -0.119776
v 0.031261 0.036223 0.119776
v 0.031261 0.036223 0.119776
v -0.030991 0.036223 0.119776
v 0.031261 0.036223 -0.119776
v -0.030991 0.036223 -0.119776
v 0.031261 0.036223 -0.119776
v 0.031261 -0.033312 0.119776
v 0.031261 -0.033312 -0.119776
v 0.031261 0.036223 0.119776
v 0.031261 0.036223 0.119776
v 0.031261 0.036223 -0.119776
v 0.031261 -0.033312 0.119776
v 0.031261 -0.033312 -0.119776
v 0.031261 -0.033312 0.119776
v -0.030991 -0.033312 -0.119776
v 0.031261 -0.033312 -0.119776
v -0.030991 -0.033312 0.119776
v -0.030991 -0.033312 0.119776
v 0.031261 -0.033312 0.119776
v -0.030991 -0.033312 -0.119776
v 0.031261 -0.033312 -0.119776
v -0.030991 0.036223 0.119776
v -0.030991 -0.033312 -0.119776
v -0.030991 -0.033312 0.119776
v -0.030991 0.036223 -0.119776
v -0.030991 0.036223 -0.119776
v -0.030991 0.036223 0.119776
v -0.030991 -0.033312 -0.119776
v -0.030991 -0.033312 0.119776
v -0.027991 0.029223 0.119776
v -0.020243 0.027208 0.119776
v -0.016856 0.028474 0.119776
v -0.023188 0.025109 0.119776
v -0.025488 0.022319 0.119776
v -0.026989 0.019029 0.119776
v -0.026989 0.019029 0.119776
v -0.027991 0.029223 0.119776
v -0.025488 0.022319 0.119776
v -0.023188 0.025109 0.119776
v -0.020243 0.027208 0.119776
v -0.016856 0.028474 0.119776
v -0.026989 0.019029 0.119776
v -0.027241 0.011863 0.119776
v -0.027587 0.015463 0.119776
v -0.025976 0.008476 0.119776
v -0.025488 0.022319 0.119776
v -0.023877 0.005531 0.119776
v -0.023188 0.025109 0.119776
v -0.021087 0.003230 0.119776
v -0.020243 0.027208 0.119776
v -0.017797 0.001730 0.119776
v -0.016856 0.028474 0.119776
v -0.014230 0.001132 0.119776
v -0.013256 0.028819 0.119776
v -0.010631 0.001477 0.119776
v -0.009690 0.028221 0.119776
v -0.007243 0.002743 0.119776
v -0.006399 0.026721 0.119776
v -0.004299 0.004842 0.119776
v -0.003610 0.024420 0.119776
v -0.001998 0.007632 0.119776
v -0.001511 0.021475 0.119776
v -0.000497 0.010922 0.119776
v -0.000245 0.018088 0.119776
v 0.000101 0.014488 0.119776
v 0.000101 0.014488 0.119776
v -0.000245 0.018088 0.119776
v -0.000497 0.010922 0.119776
v -0.001511 0.021475 0.119776
v -0.001998 0.007632 0.119776
v -0.003610 0.024420 0.119776
v -0.004299 0.004842 0.119776
v -0.006399 0.026721 0.119776
v -0.007243 0.002743 0.119776
v -0.009690 0.028221 0.119776
v -0.010631 0.001477 0.119776
v -0.013256 0.028819 0.119776
v -0.014230 0.001132 0.119776
v -0.016856 0.028474 0.119776
v -0.017797 0.001730 0.119776
v -0.020243 0.027208 0.119776
v -0.021087 0.003230 0.119776
v -0.023188 0.025109 0.119776
v -0.023877 0.005531 0.119776
v -0.025488 0.022319 0.119776
v -0.025976 0.008476 0.119776
v -0.026989 0.019029 0.119776
v -0.027241 0.011863 0.119776
v -0.027587 0.015463 0.119776
v 0.000505 0.000728 0.119776
v -0.007243 0.002743 0.119776
v -0.010631 0.001477 0.119776
v -0.004299 0.004842 0.119776
v -0.001998 0.007632 0.119776
v -0.000497 0.010922 0.119776
v -0.000497 0.010922 0.119776
v 0.000505 0.000728 0.119776
v -0.001998 0.007632 0.119776
v -0.004299 0.004842 0.119776
v -0.007243 0.002743 0.119776
v -0.010631 0.001477 0.119776
v -0.027991 0.000728 0.119776
v -0.025976 0.008476 0.119776
v -0.027241 0.011863 0.119776
v -0.023877 0.005531 0.119776
v -0.021087 0.003230 0.119776
v -0.017797 0.001730 0.119776
v -0.017797 0.001730 0.119776
v -0.027991 0.000728 0.119776
v -0.021087 0.003230 0.119776
v -0.023877 0.005531 0.119776
v -0.025976 0.008476 0.119776
v -0.027241 0.011863 0.119776
v -0.006399 0.026721 0.119776
v 0.000505 0.029223 0.119776
v -0.009690 0.028221 0.119776
v -0.003610 0.024420 0.119776
v -0.001511 0.021475 0.119776
v -0.000245 0.018088 0.119776
v -0.000245 0.018088 0.119776
v -0.001511 0.021475 0.119776
v 0.000505 0.029223 0.119776
v -0.003610 0.024420 0.119776
v -0.006399 0.026721 0.119776
v -0.009690 0.028221 0.119776
v -0.027241 0.011863 0.130776
v -0.026989 0.019029 0.130776
v -0.027587 0.015463 0.130776
v -0.025976 0.008476 0.130776
v -0.025488 0.022319 0.130776
v -0.023877 0.005531 0.130776
v -0.023188 0.025109 0.130776
v -0.021087 0.003230 0.130776
v -0.020243 0.027208 0.130776
v -0.017797 0.001730 0.130776
v -0.016856 0.028474 0.130776
v -0.014230 0.001132 0.130776
v -0.013256 0.028819 0.130776
v -0.010631 0.001477 0.130776
v -0.009690 0.028221 0.130776
v -0.007243 0.002743 0.130776
v -0.006399 0.026721 0.130776
v -0.004299 0.004842 0.130776
v -0.003610 0.024420 0.130776
v -0.001998 0.007632 0.130776
v -0.001511 0.021475 0.130776
v -0.000497 0.010922 0.130776
v -0.000245 0.018088 0.130776
v 0.000101 0.014488 0.130776
v 0.000101 0.014488 0.130776
v -0.000497 0.010922 0.130776
v -0.000245 0.018088 0.130776
v -0.001511 0.021475 0.130776
v -0.001998 0.007632 0.130776
v -0.003610 0.024420 0.130776
v -0.004299 0.004842 0.130776
v -0.006399 0.026721 0.130776
v -0.007243 0.002743 0.130776
v -0.009690 0.028221 0.130776
v -0.010631 0.001477 0.130776
v -0.013256 0.028819 0.130776
v -0.014230 0.001132 0.130776
v -0.016856 0.028474 0.130776
v -0.017797 0.001730 0.130776
v -0.020243 0.027208 0.130776
v -0.021087 0.003230 0.130776
v -0.023188 0.025109 0.130776
v -0.023877 0.005531 0.130776
v -0.025488 0.022319 0.130776
v -0.025976 0.008476 0.130776
v -0.026989 0.019029 0.130776
v -0.027241 0.011863 0.130776
v -0.027587 0.015463 0.130776
v -0.007243 0.002743 0.130776
v -0.010631 0.001477 0.119776
v -0.007243 0.002743 0.119776
v -0.010631 0.001477 0.130776
v -0.010631 0.001477 0.130776
v -0.007243 0.002743 0.130776
v -0.010631 0.001477 0.119776
v -0.007243 0.002743 0.119776
v -0.004299 0.004842 0.130776
v -0.004299 0.004842 0.119776
v -0.004299 0.004842 0.130776
v -0.004299 0.004842 0.119776
v -0.001998 0.007632 0.119776
v -0.001998 0.007632 0.130776
v -0.001998 0.007632 0.130776
v -0.001998 0.007632 0.119776
v -0.000497 0.010922 0.119776
v -0.000497 0.010922 0.130776
v -0.000497 0.010922 0.130776
v -0.000497 0.010922 0.119776
v 0.000101 0.014488 0.119776
v 0.000101 0.014488 0.130776
v 0.000101 0.014488 0.130776
v 0.000101 0.014488 0.119776
v -0.000245 0.018088 0.119776
v -0.000245 0.018088 0.130776
v -0.000245 0.018088 0.130776
v -0.000245 0.018088 0.119776
v -0.001511 0.021475 0.119776
v -0.001511 0.021475 0.130776
v -0.001511 0.021475 0.130776
v -0.001511 0.021475 0.119776
v -0.003610 0.024420 0.119776
v -0.003610 0.024420 0.130776
v -0.003610 0.024420 0.130776
v -0.003610 0.024420 0.119776
v -0.006399 0.026721 0.130776
v -0.006399 0.026721 0.119776
v -0.006399 0.026721 0.130776
v -0.006399 0.026721 0.119776
v -0.009690 0.028221 0.130776
v -0.009690 0.028221 0.119776
v -0.009690 0.028221 0.130776
v -0.009690 0.028221 0.119776
v -0.013256 0.028819 0.130776
v -0.013256 0.028819 0.119776
v -0.013256 0.028819 0.130776
v -0.013256 0.028819 0.119776
v -0.016856 0.028474 0.130776
v -0.016856 0.028474 0.119776
v -0.016856 0.028474 0.130776
v -0.016856 0.028474 0.119776
v -0.020243 0.027208 0.130776
v -0.020243 0.027208 0.119776
v -0.020243 0.027208 0.130776
v -0.020243 0.027208 0.119776
v -0.023188 0.025109 0.130776
v -0.023188 0.025109 0.119776
v -0.023188 0.025109 0.130776
v -0.023188 0.025109 0.119776
v -0.025488 0.022319 0.119776
v -0.025488 0.022319 0.130776
v -0.025488 0.022319 0.119776
v -0.025488 0.022319 0.130776
v -0.026989 0.019029 0.119776
v -0.026989 0.019029 0.130776
v -0.026989 0.019029 0.119776
v -0.026989 0.019029 0.130776
v -0.027587 0.015463 0.119776
v -0.027587 0.015463 0.130776
v -0.027587 0.015463 0.119776
v -0.027587 0.015463 0.130776
v -0.027241 0.011863 0.119776
v -0.027241 0.011863 0.130776
v -0.027241 0.011863 0.119776
v -0.027241 0.011863 0.130776
v -0.025976 0.008476 0.119776
v -0.025976 0.008476 0.130776
v -0.025976 0.008476 0.119776
v -0.025976 0.008476 0.130776
v -0.023877 0.005531 0.119776
v -0.023877 0.005531 0.130776
v -0.023877 0.005531 0.119776
v -0.023877 0.005531 0.130776
v -0.021087 0.003230 0.130776
v -0.021087 0.003230 0.119776
v -0.021087 0.003230 0.130776
v -0.021087 0.003230 0.119776
v -0.017797 0.001730 0.130776
v -0.017797 0.001730 0.119776
v -0.017797 0.001730 0.130776
v -0.017797 0.001730 0.119776
v -0.014230 0.001132 0.130776
v -0.014230 0.001132 0.119776
v -0.014230 0.001132 0.130776
v -0.014230 0.001132 0.119776
v -0.013743 0.014975 0.130776
v -0.013743 0.014975 0.119776
vn -0.0000 -0.0000 -1.0000
vn -0.0000 -0.0000 1.0000
vn -0.0000 1.0000 -0.0000
vn -0.0000 -1.0000 -0.0000
vn 1.0000 -0.0000 -0.0000
vn -1.0000 -0.0000 -0.0000
vn 0.4692 -0.8831 -0.0000
vn 0.2247 -0.9744 -0.0000
vn -0.2247 0.9744 -0.0000
vn -0.4692 0.8831 -0.0000
vn 0.6818 -0.7315 -0.0000
vn -0.6818 0.7315 -0.0000
vn 0.8479 -0.5301 -0.0000
vn -0.8479 0.5301 -0.0000
vn 0.9562 -0.2926 -0.0000
vn -0.9562 0.2926 -0.0000
vn 0.9994 -0.0352 -0.0000
vn -0.9994 0.0352 -0.0000
vn 0.9744 0.2247 -0.0000
vn -0.9744 -0.2247 -0.0000
vn 0.8831 0.4692 -0.0000
vn -0.8831 -0.4692 -0.0000
vn 0.7315 0.6818 -0.0000
vn -0.7315 -0.6818 -0.0000
vn 0.5302 0.8479 -0.0000
vn -0.5302 -0.8479 -0.0000
vn 0.2926 0.9562 -0.0000
vn -0.2926 -0.9562 -0.0000
vn 0.0352 0.9994 -0.0000
vn -0.0352 -0.9994 -0.0000
vn -0.8479 0.5302 -0.0000
vn 0.8479 -0.5302 -0.0000
vt 0.000000 1.000000
vt 1.000000 0.000000
vt 1.000000 1.000000
vt 0.000000 0.000000
s 0
usemtl apple_juice_bottom
f 1/1/1 2/2/1 3/3/1
f 2/2/1 1/1/1 4/4/1
usemtl material
f 5/4/2 6/4/2 7/4/2
f 8/4/2 7/4/2 6/4/2
f 29/4/1 30/4/1 31/4/1
f 32/4/1 31/4/1 30/4/1
f 29/4/1 31/4/1 33/4/1
f 34/4/1 35/4/1 36/4/1
f 37/4/1 38/4/1 39/4/1
f 38/4/1 36/4/1 39/4/1
f 36/4/1 40/4/1 39/4/1
f 40/4/1 41/4/1 39/4/1
f 41/4/1 42/4/1 39/4/1
f 42/4/1 30/4/1 39/4/1
f 43/4/1 44/4/1 30/4/1
f 39/4/1 30/4/1 44/4/1
f 38/4/1 37/4/1 45/4/1
f 45/4/1 37/4/1 46/4/1
f 46/4/1 37/4/1 47/4/1
f 47/4/1 37/4/1 29/4/1
f 37/4/1 43/4/1 29/4/1
f 30/4/1 29/4/1 43/4/1
f 36/4/1 38/4/1 34/4/1
f 48/4/1 34/4/1 38/4/1
f 53/4/4 54/4/4 55/4/4
f 56/4/4 55/4/4 54/4/4
f 61/4/6 62/4/6 63/4/6
f 64/4/6 63/4/6 62/4/6
f 69/4/3 70/4/3 71/4/3
f 72/4/3 71/4/3 70/4/3
f 77/4/5 78/4/5 79/4/5
f 80/4/5 79/4/5 78/4/5
f 87/4/1 88/4/1 89/4/1
f 89/4/1 88/4/1 90/4/1
f 90/4/1 88/4/1 91/4/1
f 92/4/1 91/4/1 88/4/1
f 147/4/1 148/4/1 149/4/1
f 149/4/1 148/4/1 150/4/1
f 150/4/1 148/4/1 151/4/1
f 152/4/1 151/4/1 148/4/1
f 159/4/1 160/4/1 161/4/1
f 161/4/1 160/4/1 162/4/1
f 162/4/1 160/4/1 163/4/1
f 164/4/1 163/4/1 160/4/1
f 171/4/1 172/4/1 173/4/1
f 172/4/1 174/4/1 173/4/1
f 174/4/1 175/4/1 173/4/1
f 176/4/1 173/4/1 175/4/1
usemtl apple_juice_top
f 9/4/2 10/4/2 11/4/2
f 10/4/2 9/4/2 12/4/2
f 13/4/2 14/4/2 15/4/2
f 14/4/2 13/4/2 16/4/2
f 14/4/2 16/4/2 17/4/2
f 17/4/2 16/4/2 18/4/2
f 18/4/2 16/4/2 19/4/2
f 19/4/2 16/4/2 9/4/2
f 20/4/2 15/4/2 21/4/2
f 15/4/2 20/4/2 13/4/2
f 21/4/2 15/4/2 22/4/2
f 21/4/2 22/4/2 23/4/2
f 21/4/2 23/4/2 24/4/2
f 21/4/2 24/4/2 12/4/2
f 21/4/2 12/4/2 9/4/2
f 21/4/2 9/4/2 16/4/2
f 12/4/2 25/4/2 10/4/2
f 26/4/2 27/4/2 14/4/2
f 15/4/2 27/4/2 28/4/2
f 27/4/2 15/4/2 14/4/2
f 81/4/2 82/4/2 83/4/2
f 82/4/2 81/4/2 84/4/2
f 84/4/2 81/4/2 85/4/2
f 85/4/2 81/4/2 86/4/2
f 117/4/2 118/4/2 119/4/2
f 118/4/2 120/4/2 119/4/2
f 119/4/2 120/4/2 121/4/2
f 120/4/2 122/4/2 121/4/2
f 121/4/2 122/4/2 123/4/2
f 122/4/2 124/4/2 123/4/2
f 123/4/2 124/4/2 125/4/2
f 124/4/2 126/4/2 125/4/2
f 125/4/2 126/4/2 127/4/2
f 126/4/2 128/4/2 127/4/2
f 127/4/2 128/4/2 129/4/2
f 128/4/2 130/4/2 129/4/2
f 129/4/2 130/4/2 131/4/2
f 130/4/2 132/4/2 131/4/2
f 131/4/2 132/4/2 133/4/2
f 132/4/2 134/4/2 133/4/2
f 133/4/2 134/4/2 135/4/2
f 134/4/2 136/4/2 135/4/2
f 135/4/2 136/4/2 137/4/2
f 136/4/2 138/4/2 137/4/2
f 137/4/2 138/4/2 139/4/2
f 140/4/2 139/4/2 138/4/2
f 141/4/2 142/4/2 143/4/2
f 142/4/2 141/4/2 144/4/2
f 144/4/2 141/4/2 145/4/2
f 145/4/2 141/4/2 146/4/2
f 153/4/2 154/4/2 155/4/2
f 154/4/2 153/4/2 156/4/2
f 156/4/2 153/4/2 157/4/2
f 157/4/2 153/4/2 158/4/2
f 165/4/2 166/4/2 167/4/2
f 166/4/2 165/4/2 168/4/2
f 166/4/2 168/4/2 169/4/2
f 166/4/2 169/4/2 170/4/2
f 177/4/2 178/4/2 179/4/2
f 178/4/2 177/4/2 180/4/2
f 178/4/2 180/4/2 181/4/2
f 181/4/2 180/4/2 182/4/2
f 181/4/2 182/4/2 183/4/2
f 183/4/2 182/4/2 184/4/2
f 183/4/2 184/4/2 185/4/2
f 185/4/2 184/4/2 186/4/2
f 185/4/2 186/4/2 187/4/2
f 187/4/2 186/4/2 188/4/2
f 187/4/2 188/4/2 189/4/2
f 189/4/2 188/4/2 190/4/2
f 189/4/2 190/4/2 191/4/2
f 191/4/2 190/4/2 192/4/2
f 191/4/2 192/4/2 193/4/2
f 193/4/2 192/4/2 194/4/2
f 193/4/2 194/4/2 195/4/2
f 195/4/2 194/4/2 196/4/2
f 195/4/2 196/4/2 197/4/2
f 197/4/2 196/4/2 198/4/2
f 197/4/2 198/4/2 199/4/2
f 199/4/2 198/4/2 200/4/2
f 201/4/1 202/4/1 203/4/1
f 203/4/1 202/4/1 204/4/1
f 202/4/1 205/4/1 204/4/1
f 204/4/1 205/4/1 206/4/1
f 205/4/1 207/4/1 206/4/1
f 206/4/1 207/4/1 208/4/1
f 207/4/1 209/4/1 208/4/1
f 208/4/1 209/4/1 210/4/1
f 209/4/1 211/4/1 210/4/1
f 210/4/1 211/4/1 212/4/1
f 211/4/1 213/4/1 212/4/1
f 212/4/1 213/4/1 214/4/1
f 213/4/1 215/4/1 214/4/1
f 214/4/1 215/4/1 216/4/1
f 215/4/1 217/4/1 216/4/1
f 216/4/1 217/4/1 218/4/1
f 217/4/1 219/4/1 218/4/1
f 218/4/1 219/4/1 220/4/1
f 219/4/1 221/4/1 220/4/1
f 220/4/1 221/4/1 222/4/1
f 221/4/1 223/4/1 222/4/1
f 224/4/1 222/4/1 223/4/1
s 1
f 225/4/7 226/4/8 227/4/7
f 226/4/8 225/4/7 228/4/8
f 229/4/9 230/4/10 231/4/9
f 232/4/10 231/4/9 230/4/10
f 233/4/11 227/4/7 234/4/11
f 227/4/7 233/4/11 225/4/7
f 230/4/10 235/4/12 232/4/10
f 236/4/12 232/4/10 235/4/12
f 237/4/13 233/4/11 234/4/11
f 233/4/11 237/4/13 238/4/13
f 239/4/14 240/4/14 235/4/12
f 236/4/12 235/4/12 240/4/14
f 241/4/15 238/4/13 237/4/13
f 238/4/13 241/4/15 242/4/15
f 243/4/16 244/4/16 239/4/14
f 240/4/14 239/4/14 244/4/16
f 245/4/17 242/4/15 241/4/15
f 242/4/15 245/4/17 246/4/17
f 247/4/18 248/4/18 243/4/16
f 244/4/16 243/4/16 248/4/18
f 249/4/19 246/4/17 245/4/17
f 246/4/17 249/4/19 250/4/19
f 251/4/20 252/4/20 247/4/18
f 248/4/18 247/4/18 252/4/20
f 253/4/21 250/4/19 249/4/19
f 250/4/19 253/4/21 254/4/21
f 255/4/22 256/4/22 251/4/20
f 252/4/20 251/4/20 256/4/22
f 257/4/23 254/4/21 253/4/21
f 254/4/21 257/4/23 258/4/23
f 259/4/24 260/4/24 255/4/22
f 256/4/22 255/4/22 260/4/24
f 261/4/25 257/4/23 262/4/25
f 257/4/23 261/4/25 258/4/23
f 259/4/24 263/4/26 260/4/24
f 264/4/26 260/4/24 263/4/26
f 265/4/27 262/4/25 266/4/27
f 262/4/25 265/4/27 261/4/25
f 263/4/26 267/4/28 264/4/26
f 268/4/28 264/4/26 267/4/28
f 269/4/29 266/4/27 270/4/29
f 266/4/27 269/4/29 265/4/27
f 267/4/28 271/4/30 268/4/28
f 272/4/30 268/4/28 271/4/30
f 273/4/9 270/4/29 274/4/9
f 270/4/29 273/4/9 269/4/29
f 271/4/30 275/4/8 272/4/30
f 276/4/8 272/4/30 275/4/8
f 277/4/10 274/4/9 278/4/10
f 274/4/9 277/4/10 273/4/9
f 275/4/8 279/4/7 276/4/8
f 280/4/7 276/4/8 279/4/7
f 281/4/12 278/4/10 282/4/12
f 278/4/10 281/4/12 277/4/10
f 279/4/7 283/4/11 280/4/7
f 284/4/11 280/4/7 283/4/11
f 281/4/12 285/4/31 286/4/31
f 285/4/31 281/4/12 282/4/12
f 284/4/11 283/4/11 287/4/32
f 288/4/32 287/4/32 283/4/11
f 286/4/31 289/4/16 290/4/16
f 289/4/16 286/4/31 285/4/31
f 287/4/32 288/4/32 291/4/15
f 292/4/15 291/4/15 288/4/32
f 290/4/16 293/4/18 294/4/18
f 293/4/18 290/4/16 289/4/16
f 291/4/15 292/4/15 295/4/17
f 296/4/17 295/4/17 292/4/15
f 294/4/18 297/4/20 298/4/20
f 297/4/20 294/4/18 293/4/18
f 295/4/17 296/4/17 299/4/19
f 300/4/19 299/4/19 296/4/17
f 298/4/20 301/4/22 302/4/22
f 301/4/22 298/4/20 297/4/20
f 299/4/19 300/4/19 303/4/21
f 304/4/21 303/4/21 300/4/19
f 302/4/22 305/4/24 306/4/24
f 305/4/24 302/4/22 301/4/22
f 303/4/21 304/4/21 307/4/23
f 308/4/23 307/4/23 304/4/21
f 309/4/26 305/4/24 310/4/26
f 305/4/24 309/4/26 306/4/24
f 308/4/23 311/4/25 307/4/23
f 312/4/25 307/4/23 311/4/25
f 313/4/28 310/4/26 314/4/28
f 310/4/26 313/4/28 309/4/26
f 311/4/25 315/4/27 312/4/25
f 316/4/27 312/4/25 315/4/27
f 317/4/30 314/4/28 318/4/30
f 314/4/28 317/4/30 313/4/28
f 315/4/27 319/4/29 316/4/27
f 320/4/29 316/4/27 319/4/29
f 228/4/8 318/4/30 226/4/8
f 318/4/30 228/4/8 317/4/30
f 319/4/29 229/4/9 320/4/29
f 231/4/9 320/4/29 229/4/9
s 0
usemtl apple_juice_box_left
f 49/4/3 50/4/3 51/4/3
f 50/4/3 49/4/3 52/4/3
usemtl apple_juice_box
f 57/4/5 58/4/5 59/4/5
f 58/4/5 57/4/5 60/4/5
f 73/4/6 74/4/6 75/4/6
f 74/4/6 73/4/6 76/4/6
usemtl apple_juice_right
f 65/4/4 66/4/4 67/4/4
f 66/4/4 65/4/4 68/4/4
usemtl material_0
f 93/4/1 94/4/1 95/4/1
f 94/4/1 93/4/1 96/4/1
f 96/4/1 93/4/1 97/4/1
f 96/4/1 97/4/1 98/4/1
f 98/4/1 97/4/1 99/4/1
f 98/4/1 99/4/1 100/4/1
f 100/4/1 99/4/1 101/4/1
f 100/4/1 101/4/1 102/4/1
f 102/4/1 101/4/1 103/4/1
f 102/4/1 103/4/1 104/4/1
f 104/4/1 103/4/1 105/4/1
f 104/4/1 105/4/1 106/4/1
f 106/4/1 105/4/1 107/4/1
f 106/4/1 107/4/1 108/4/1
f 108/4/1 107/4/1 109/4/1
f 108/4/1 109/4/1 110/4/1
f 110/4/1 109/4/1 111/4/1
f 110/4/1 111/4/1 112/4/1
f 112/4/1 111/4/1 113/4/1
f 112/4/1 113/4/1 114/4/1
f 114/4/1 113/4/1 115/4/1
f 114/4/1 115/4/1 116/4/1
