# Blender 4.0.0
# www.blender.org
mtllib pizza_box.mtl
o pizza_box
v 0.203326 0.300196 0.000000
v -0.206926 -0.299339 0.000000
v -0.206926 0.300196 0.000000
v 0.203326 -0.299339 0.000000
v 0.203326 -0.299339 0.000000
v 0.203326 0.300196 0.000000
v -0.206926 -0.299339 0.000000
v -0.206926 0.300196 0.000000
v 0.203326 -0.299339 0.034551
v -0.206926 0.300196 0.034551
v -0.206926 -0.299339 0.034551
v 0.203326 0.300196 0.034551
v 0.203326 0.300196 0.034551
v 0.203326 -0.299339 0.034551
v -0.206926 0.300196 0.034551
v -0.206926 -0.299339 0.034551
v 0.203326 -0.299339 0.034551
v -0.206926 -0.299339 0.000000
v 0.203326 -0.299339 0.000000
v -0.206926 -0.299339 0.034551
v -0.206926 -0.299339 0.034551
v 0.203326 -0.299339 0.034551
v -0.206926 -0.299339 0.000000
v 0.203326 -0.299339 0.000000
v 0.203326 0.300196 0.000000
v 0.203326 -0.299339 0.034551
v 0.203326 -0.299339 0.000000
v 0.203326 0.300196 0.034551
v 0.203326 0.300196 0.034551
v 0.203326 0.300196 0.000000
v 0.203326 -0.299339 0.034551
v 0.203326 -0.299339 0.000000
v -0.206926 0.300196 0.034551
v 0.203326 0.300196 0.000000
v -0.206926 0.300196 0.000000
v 0.203326 0.300196 0.034551
v 0.203326 0.300196 0.034551
v -0.206926 0.300196 0.034551
v 0.203326 0.300196 0.000000
v -0.206926 0.300196 0.000000
v -0.206926 0.300196 0.034551
v -0.206926 -0.299339 0.000000
v -0.206926 -0.299339 0.034551
v -0.206926 0.300196 0.000000
v -0.206926 0.300196 0.000000
v -0.206926 0.300196 0.034551
v -0.206926 -0.299339 0.000000
v -0.206926 -0.299339 0.034551
vn -0.0000 -0.0000 -1.0000
vn -0.0000 -0.0000 1.0000
vn -0.0000 -1.0000 -0.0000
vn -0.0000 1.0000 -0.0000
vn -1.0000 -0.0000 -0.0000
vn 1.0000 -0.0000 -0.0000
vt 0.000000 1.000000
vt 0.550906 0.000000
vt 0.550906 1.000000
vt 0.000000 0.000000
s 0
usemtl pizza_box_white
f 1/1/1 2/2/1 3/3/1
f 2/2/1 1/1/1 4/4/1
usemtl material
f 5/4/2 6/4/2 7/4/2
f 8/4/2 7/4/2 6/4/2
f 13/4/1 14/4/1 15/4/1
f 16/4/1 15/4/1 14/4/1
f 21/4/4 22/4/4 23/4/4
f 24/4/4 23/4/4 22/4/4
f 29/4/5 30/4/5 31/4/5
f 32/4/5 31/4/5 30/4/5
f 37/4/3 38/4/3 39/4/3
f 40/4/3 39/4/3 38/4/3
f 45/4/6 46/4/6 47/4/6
f 48/4/6 47/4/6 46/4/6
usemtl pizza_box_top
f 9/4/2 10/4/2 11/4/2
f 10/4/2 9/4/2 12/4/2
usemtl pizza_box_side_noholes
f 17/4/3 18/4/3 19/4/3
f 18/4/3 17/4/3 20/4/3
usemtl pizza_box_side_noholes_0
f 25/4/6 26/4/6 27/4/6
f 26/4/6 25/4/6 28/4/6
usemtl pizza_box_side_noholes_1
f 33/4/4 34/4/4 35/4/4
f 34/4/4 33/4/4 36/4/4
usemtl pizza_box_side
f 41/4/5 42/4/5 43/4/5
f 42/4/5 41/4/5 44/4/5
