# Blender 4.0.0
# www.blender.org
mtllib table_bedside.mtl
o table_bedside
v 0.176462 0.163991 0.000000
v 0.121822 0.113991 0.000000
v 0.121822 0.163991 0.000000
v 0.176462 0.113747 0.000000
v 0.176462 0.113747 0.000000
v 0.176462 0.163991 0.000000
v 0.121822 0.113991 0.000000
v 0.121822 0.163991 0.000000
v 0.000995 0.163991 0.289822
v 0.121822 0.113991 0.000000
v 0.000995 0.113991 0.289822
v 0.121822 0.163991 0.000000
v 0.121822 0.163991 0.000000
v 0.000995 0.163991 0.289822
v 0.121822 0.113991 0.000000
v 0.000995 0.113991 0.289822
v -0.163790 0.163991 0.450551
v -0.119772 0.163991 0.000000
v -0.163790 0.163991 0.000000
v 0.000995 0.163991 0.289822
v 0.176462 0.163991 0.000000
v 0.121822 0.163991 0.000000
v 0.176462 0.163991 0.450551
v -0.163790 0.163991 0.450551
v 0.000995 0.163991 0.289822
v 0.176462 0.163991 0.450551
v 0.176462 0.163991 0.000000
v 0.121822 0.163991 0.000000
v -0.119772 0.163991 0.000000
v -0.163790 0.163991 0.000000
v 0.176462 -0.128367 0.000000
v 0.176462 -0.175545 0.450551
v 0.176462 -0.175545 0.000000
v 0.176462 -0.005613 0.291510
v 0.176462 0.163991 0.450551
v 0.176462 -0.042044 0.204995
v 0.176462 0.113747 0.000000
v 0.176462 0.163991 0.000000
v 0.176462 0.163991 0.000000
v 0.176462 0.113747 0.000000
v 0.176462 0.163991 0.450551
v 0.176462 -0.005613 0.291510
v 0.176462 -0.042044 0.204995
v 0.176462 -0.128367 0.000000
v 0.176462 -0.175545 0.450551
v 0.176462 -0.175545 0.000000
v -0.119772 0.163991 0.000000
v 0.000995 0.113991 0.289822
v -0.119772 0.113991 0.000000
v 0.000995 0.163991 0.289822
v 0.000995 0.163991 0.289822
v -0.119772 0.163991 0.000000
v 0.000995 0.113991 0.289822
v -0.119772 0.113991 0.000000
v -0.119772 0.163991 0.000000
v -0.163790 0.113747 0.000000
v -0.163790 0.163991 0.000000
v -0.119772 0.113991 0.000000
v -0.119772 0.113991 0.000000
v -0.119772 0.163991 0.000000
v -0.163790 0.113747 0.000000
v -0.163790 0.163991 0.000000
v -0.163790 -0.175545 0.450551
v -0.163790 -0.005613 0.291510
v -0.163790 -0.175545 0.000000
v -0.163790 0.163991 0.450551
v -0.163790 -0.128367 0.000000
v -0.163790 0.113747 0.000000
v -0.163790 0.163991 0.000000
v -0.163790 0.163991 0.000000
v -0.163790 0.163991 0.450551
v -0.163790 0.113747 0.000000
v -0.163790 -0.005613 0.291510
v -0.163790 -0.128367 0.000000
v -0.163790 -0.175545 0.000000
v -0.163790 -0.175545 0.450551
v 0.176462 -0.128367 0.000000
v 0.124533 -0.175545 0.000000
v 0.124533 -0.128367 0.000000
v 0.176462 -0.175545 0.000000
v 0.176462 -0.175545 0.000000
v 0.176462 -0.128367 0.000000
v 0.124533 -0.175545 0.000000
v 0.124533 -0.128367 0.000000
v 0.176462 -0.175545 0.450551
v 0.124533 -0.175545 0.000000
v 0.176462 -0.175545 0.000000
v 0.002553 -0.175545 0.290863
v -0.163790 -0.175545 0.000000
v -0.115746 -0.175545 0.000000
v -0.163790 -0.175545 0.450551
v 0.176462 -0.175545 0.450551
v 0.002553 -0.175545 0.290863
v -0.163790 -0.175545 0.450551
v -0.163790 -0.175545 0.000000
v -0.115746 -0.175545 0.000000
v 0.124533 -0.175545 0.000000
v 0.176462 -0.175545 0.000000
v -0.163790 -0.005613 0.291510
v -0.163790 0.113747 0.000000
v -0.119772 0.113991 0.000000
v -0.119772 0.113991 0.000000
v -0.163790 0.113747 0.000000
v -0.163790 -0.005613 0.291510
v -0.115746 -0.128367 0.000000
v -0.163790 -0.175545 0.000000
v -0.163790 -0.128367 0.000000
v -0.115746 -0.175545 0.000000
v -0.115746 -0.175545 0.000000
v -0.115746 -0.128367 0.000000
v -0.163790 -0.175545 0.000000
v -0.163790 -0.128367 0.000000
v 0.002553 -0.128367 0.290863
v 0.124533 -0.175545 0.000000
v 0.002553 -0.175545 0.290863
v 0.124533 -0.128367 0.000000
v 0.124533 -0.128367 0.000000
v 0.002553 -0.128367 0.290863
v 0.124533 -0.175545 0.000000
v 0.002553 -0.175545 0.290863
v -0.115746 -0.128367 0.000000
v 0.002553 -0.175545 0.290863
v -0.115746 -0.175545 0.000000
v 0.002553 -0.128367 0.290863
v 0.002553 -0.128367 0.290863
v -0.115746 -0.128367 0.000000
v 0.002553 -0.175545 0.290863
v -0.115746 -0.175545 0.000000
v 0.176462 -0.175545 0.450551
v -0.163790 0.163991 0.450551
v -0.163790 -0.175545 0.450551
v 0.176462 0.163991 0.450551
v 0.176462 0.163991 0.450551
v 0.176462 -0.175545 0.450551
v -0.163790 0.163991 0.450551
v -0.163790 -0.175545 0.450551
v 0.176462 -0.005613 0.291510
v -0.163790 -0.005613 0.291510
v 0.000995 0.113991 0.289822
v 0.000995 0.113991 0.289822
v -0.163790 -0.005613 0.291510
v 0.176462 -0.005613 0.291510
v 0.176462 -0.005613 0.291510
v 0.000995 0.113991 0.289822
v 0.176462 0.113747 0.000000
v 0.176462 0.113747 0.000000
v 0.000995 0.113991 0.289822
v 0.176462 -0.005613 0.291510
v 0.176462 -0.005613 0.291510
v 0.002553 -0.128367 0.290863
v -0.163790 -0.005613 0.291510
v -0.163790 -0.005613 0.291510
v 0.002553 -0.128367 0.290863
v 0.176462 -0.005613 0.291510
v -0.163790 -0.005613 0.291510
v -0.119772 0.113991 0.000000
v 0.000995 0.113991 0.289822
v 0.000995 0.113991 0.289822
v -0.119772 0.113991 0.000000
v -0.163790 -0.005613 0.291510
v 0.000995 0.113991 0.289822
v 0.121822 0.113991 0.000000
v 0.176462 0.113747 0.000000
v 0.176462 0.113747 0.000000
v 0.121822 0.113991 0.000000
v 0.000995 0.113991 0.289822
v 0.176462 -0.005613 0.291510
v 0.176462 -0.042044 0.204995
v 0.002553 -0.128367 0.290863
v 0.002553 -0.128367 0.290863
v 0.176462 -0.042044 0.204995
v 0.176462 -0.005613 0.291510
v -0.163790 -0.005613 0.291510
v 0.002553 -0.128367 0.290863
v -0.163790 -0.128367 0.000000
v -0.163790 -0.128367 0.000000
v 0.002553 -0.128367 0.290863
v -0.163790 -0.005613 0.291510
v -0.163790 -0.005613 0.291510
v -0.163790 0.113747 0.000000
v -0.119772 0.113991 0.000000
v -0.119772 0.113991 0.000000
v -0.163790 0.113747 0.000000
v -0.163790 -0.005613 0.291510
v 0.002553 -0.128367 0.290863
v 0.176462 -0.042044 0.204995
v 0.176462 -0.128367 0.000000
v 0.176462 -0.128367 0.000000
v 0.176462 -0.042044 0.204995
v 0.002553 -0.128367 0.290863
v 0.002553 -0.128367 0.290863
v -0.115746 -0.128367 0.000000
v -0.163790 -0.128367 0.000000
v -0.163790 -0.128367 0.000000
v -0.115746 -0.128367 0.000000
v 0.002553 -0.128367 0.290863
v 0.002553 -0.128367 0.290863
v 0.176462 -0.128367 0.000000
v 0.124533 -0.128367 0.000000
v 0.124533 -0.128367 0.000000
v 0.176462 -0.128367 0.000000
v 0.002553 -0.128367 0.290863
vn -0.0000 -0.0000 -1.0000
vn -0.9230 -0.0000 -0.3848
vn -0.0000 1.0000 -0.0000
vn 1.0000 -0.0000 -0.0000
vn -0.0000 -1.0000 -0.0000
vn 0.9231 -0.0000 -0.3846
vn -1.0000 -0.0000 -0.0000
vn 0.0051 -0.9254 -0.3789
vn -0.9222 -0.0000 -0.3867
vn 0.9263 -0.0000 -0.3767
vn -0.0000 -0.0000 1.0000
vn 0.9230 -0.0000 0.3848
vn -0.9231 -0.0000 0.3846
vn -0.0051 0.9254 0.3789
vn 0.9222 -0.0000 0.3867
vn -0.9263 -0.0000 0.3767
vn -0.0000 -0.0141 -0.9999
vn -0.5313 -0.7840 -0.3210
vn -0.0000 0.0053 -1.0000
vn 0.5691 -0.7874 -0.2371
vn -0.0045 -1.0000 -0.0019
vn -0.5444 0.7731 -0.3255
vn 0.5615 0.7626 -0.3211
vn -0.0000 0.0141 0.9999
vn 0.5313 0.7840 0.3210
vn -0.0000 -0.0053 1.0000
vn -0.5691 0.7874 0.2371
vn 0.0045 1.0000 0.0019
vn 0.5444 -0.7731 0.3255
vn -0.5615 -0.7626 0.3211
vt 0.997717 -0.000304
vt 1.156065 -0.111279
vt 1.156065 -0.000304
vt 0.997717 -0.111820
vt 1.033858 0.592577
vt 1.178759 -0.104347
vt 1.178759 0.592577
vt 1.033858 -0.104347
vt 1.983774 0.999696
vt 1.856209 -0.000304
vt 1.983774 -0.000304
vt 1.506223 0.642958
vt 0.997717 0.999696
vt 0.141461 -0.000046
vt 0.004738 0.999954
vt 0.004738 -0.000046
vt 0.497203 0.646961
vt 0.988719 0.999954
vt 0.391625 0.454941
vt 0.843112 -0.000046
vt 0.988719 -0.000046
vt 1.984356 -0.102554
vt 1.839454 0.594320
vt 1.839454 -0.102554
vt 1.984356 0.594320
vt -1.991249 -0.099016
vt -1.845642 -0.001317
vt -1.991249 -0.001317
vt -1.846348 -0.099016
vt -1.007269 0.998683
vt -1.499733 0.645690
vt -1.007269 -0.001317
vt -1.991249 0.998683
vt -1.143991 -0.001317
vt 0.004738 -0.104758
vt -0.145753 -0.000046
vt -0.145753 -0.104758
vt -0.499253 0.645526
vt -0.981319 -0.000046
vt -0.842085 -0.000046
vt -0.981319 0.999954
vt -1.727690 -0.038527
vt -1.143991 -0.107953
vt -1.007269 -0.107953
vt -0.134642 0.593101
vt 0.002080 -0.106942
vt 0.002080 0.593101
vt -0.134642 -0.106942
vt -0.878661 -0.096832
vt -1.015383 0.600092
vt -1.015383 -0.096832
vt -0.878661 0.600092
vt 0.000000 0.000000
s 0
usemtl CIMG0283
f 1/1/1 2/2/1 3/3/1
f 2/2/1 1/1/1 4/4/1
f 9/5/2 10/6/2 11/7/2
f 10/6/2 9/5/2 12/8/2
f 17/9/3 18/10/3 19/11/3
f 18/10/3 17/9/3 20/12/3
f 20/12/3 21/1/3 22/3/3
f 21/1/3 20/12/3 23/13/3
f 23/13/3 20/12/3 17/9/3
f 31/14/4 32/15/4 33/16/4
f 32/15/4 31/14/4 34/17/4
f 32/15/4 34/17/4 35/18/4
f 34/17/5 31/14/5 36/19/4
f 35/18/4 34/17/4 37/20/4
f 35/18/4 37/20/4 38/21/4
f 47/22/6 48/23/6 49/24/6
f 48/23/6 47/22/6 50/25/6
f 55/26/1 56/27/1 57/28/1
f 56/27/1 55/26/1 58/29/1
f 63/30/7 64/31/7 65/32/7
f 64/31/7 63/30/7 66/33/7
f 65/32/7 64/31/7 67/34/7
f 64/31/7 66/33/7 68/27/7
f 68/27/7 66/33/7 69/28/7
f 77/35/1 78/36/1 79/37/1
f 78/36/1 77/35/1 80/16/1
f 85/15/5 86/36/5 87/16/5
f 86/36/5 85/15/5 88/38/5
f 88/38/5 89/39/5 90/40/5
f 89/39/5 88/38/5 91/41/5
f 91/41/5 88/38/5 85/15/5
f 99/31/8 100/27/8 101/42/8
f 105/43/1 106/32/1 107/34/1
f 106/32/1 105/43/1 108/44/1
f 113/45/9 114/46/9 115/47/9
f 114/46/9 113/45/9 116/48/9
f 121/49/10 122/50/10 123/51/10
f 122/50/10 121/49/10 124/52/10
usemtl material
f 5/53/11 6/53/11 7/53/11
f 8/53/11 7/53/11 6/53/11
f 13/53/12 14/53/12 15/53/12
f 16/53/12 15/53/12 14/53/12
f 24/53/5 25/53/5 26/53/5
f 26/53/5 25/53/5 27/53/5
f 28/53/5 27/53/5 25/53/5
f 25/53/5 24/53/5 29/53/5
f 30/53/5 29/53/5 24/53/5
f 39/53/7 40/53/7 41/53/7
f 40/53/7 42/53/7 41/53/7
f 43/53/7 44/53/3 42/53/3
f 41/53/7 42/53/7 45/53/7
f 42/53/7 44/53/7 45/53/7
f 46/53/7 45/53/7 44/53/7
f 51/53/13 52/53/13 53/53/13
f 54/53/13 53/53/13 52/53/13
f 59/53/11 60/53/11 61/53/11
f 62/53/11 61/53/11 60/53/11
f 70/53/4 71/53/4 72/53/4
f 72/53/4 71/53/4 73/53/4
f 74/53/4 73/53/4 75/53/4
f 71/53/4 76/53/4 73/53/4
f 75/53/4 73/53/4 76/53/4
f 81/53/11 82/53/11 83/53/11
f 84/53/11 83/53/11 82/53/11
f 92/53/3 93/53/3 94/53/3
f 94/53/3 93/53/3 95/53/3
f 96/53/3 95/53/3 93/53/3
f 93/53/3 92/53/3 97/53/3
f 98/53/3 97/53/3 92/53/3
f 102/53/14 103/53/14 104/53/14
f 109/53/11 110/53/11 111/53/11
f 112/53/11 111/53/11 110/53/11
f 117/53/15 118/53/15 119/53/15
f 120/53/15 119/53/15 118/53/15
f 125/53/16 126/53/16 127/53/16
f 128/53/16 127/53/16 126/53/16
f 133/53/1 134/53/1 135/53/1
f 136/53/1 135/53/1 134/53/1
f 140/53/24 141/53/24 142/53/24
f 146/53/25 147/53/25 148/53/25
f 152/53/26 153/53/26 154/53/26
f 158/53/27 159/53/27 160/53/27
f 164/53/28 165/53/28 166/53/28
f 170/53/29 171/53/29 172/53/29
f 176/53/30 177/53/30 178/53/30
f 182/53/14 183/53/14 184/53/14
f 188/53/29 189/53/29 190/53/29
f 194/53/5 195/53/5 196/53/5
f 200/53/5 201/53/5 202/53/5
usemtl CIMG0288
f 129/53/11 130/53/11 131/53/11
f 130/53/11 129/53/11 132/53/11
f 137/53/17 138/53/17 139/53/17
f 143/53/18 144/53/18 145/53/18
f 149/53/19 150/53/19 151/53/19
f 155/53/20 156/53/20 157/53/20
f 161/53/21 162/53/21 163/53/21
f 167/53/22 168/53/22 169/53/22
f 173/53/23 174/53/23 175/53/23
f 179/53/8 180/53/8 181/53/8
f 185/53/22 186/53/22 187/53/22
f 191/53/3 192/53/3 193/53/3
f 197/53/3 198/53/3 199/53/3
