# Blender 4.0.0
# www.blender.org
mtllib tea_box.mtl
o tea_box
v 0.032000 0.078768 -0.036276
v -0.031252 -0.078768 -0.036276
v -0.031252 0.078768 -0.036276
v 0.032000 -0.078768 -0.036276
v 0.032000 -0.078768 -0.036276
v 0.032000 0.078768 -0.036276
v -0.031252 -0.078768 -0.036276
v -0.031252 0.078768 -0.036276
v 0.032000 -0.078768 0.036276
v -0.031252 0.078768 0.036276
v -0.031252 -0.078768 0.036276
v 0.032000 0.078768 0.036276
v 0.032000 0.078768 0.036276
v 0.032000 -0.078768 0.036276
v -0.031252 0.078768 0.036276
v -0.031252 -0.078768 0.036276
v 0.032000 0.078768 -0.036276
v 0.032000 -0.078768 0.036276
v 0.032000 -0.078768 -0.036276
v 0.032000 0.078768 0.036276
v 0.032000 0.078768 0.036276
v 0.032000 0.078768 -0.036276
v 0.032000 -0.078768 0.036276
v 0.032000 -0.078768 -0.036276
v 0.032000 -0.078768 0.036276
v -0.031252 -0.078768 -0.036276
v 0.032000 -0.078768 -0.036276
v -0.031252 -0.078768 0.036276
v -0.031252 -0.078768 0.036276
v 0.032000 -0.078768 0.036276
v -0.031252 -0.078768 -0.036276
v 0.032000 -0.078768 -0.036276
v -0.031252 0.078768 0.036276
v -0.031252 -0.078768 -0.036276
v -0.031252 -0.078768 0.036276
v -0.031252 0.078768 -0.036276
v -0.031252 0.078768 -0.036276
v -0.031252 0.078768 0.036276
v -0.031252 -0.078768 -0.036276
v -0.031252 -0.078768 0.036276
v -0.031252 0.078768 0.036276
v 0.032000 0.078768 -0.036276
v -0.031252 0.078768 -0.036276
v 0.032000 0.078768 0.036276
v 0.032000 0.078768 0.036276
v -0.031252 0.078768 0.036276
v 0.032000 0.078768 -0.036276
v -0.031252 0.078768 -0.036276
vn -0.0000 -0.0000 -1.0000
vn -0.0000 -0.0000 1.0000
vn 1.0000 -0.0000 -0.0000
vn -1.0000 -0.0000 -0.0000
vn -0.0000 -1.0000 -0.0000
vn -0.0000 1.0000 -0.0000
vt 0.000000 1.000000
vt 1.000000 -0.000000
vt 1.000000 1.000000
vt 0.000000 -0.000000
s 0
usemtl material
f 5/4/2 6/4/2 7/4/2
f 8/4/2 7/4/2 6/4/2
f 13/4/1 14/4/1 15/4/1
f 16/4/1 15/4/1 14/4/1
f 21/4/4 22/4/4 23/4/4
f 24/4/4 23/4/4 22/4/4
f 29/4/6 30/4/6 31/4/6
f 32/4/6 31/4/6 30/4/6
f 37/4/3 38/4/3 39/4/3
f 40/4/3 39/4/3 38/4/3
f 45/4/5 46/4/5 47/4/5
f 48/4/5 47/4/5 46/4/5
usemtl tea_box_bottom
f 1/1/1 2/2/1 3/3/1
f 2/2/1 1/1/1 4/4/1
usemtl tea_box_front
f 9/4/2 10/4/2 11/4/2
f 10/4/2 9/4/2 12/4/2
f 17/4/3 18/4/3 19/4/3
f 18/4/3 17/4/3 20/4/3
usemtl tea_box_left
f 25/4/5 26/4/5 27/4/5
f 26/4/5 25/4/5 28/4/5
usemtl tea_box_back
f 33/4/4 34/4/4 35/4/4
f 34/4/4 33/4/4 36/4/4
usemtl tea_box_right
f 41/4/6 42/4/6 43/4/6
f 42/4/6 41/4/6 44/4/6
