# Blender v3.6.0 OBJ File: ''
# www.blender.org
mtllib SM_Window_002.mtl
o SM_Window_002
v 0.013086 0.092885 -0.961064
v -0.010764 0.765444 -0.961064
v 0.013086 0.092884 0.950072
v 0.013086 0.765444 -0.961064
v 0.013086 0.765444 0.950072
v -0.010014 0.842677 -1.041795
v -0.009076 0.000188 -1.042358
v -0.009076 0.000187 1.031366
v -0.010014 0.000750 -1.041795
v -0.009076 0.843239 1.031366
v -0.010014 0.000750 1.030803
v -0.009076 0.843239 -1.042358
v -0.010764 0.003000 -1.039545
v -0.010576 0.841739 -1.040858
v -0.010576 0.001688 -1.040858
v -0.010764 0.003000 1.028553
v -0.010576 0.001687 1.029866
v -0.010576 0.841739 1.029866
v -0.010014 0.842676 1.030803
v -0.007764 0.000000 -1.042545
v -0.007764 0.000000 1.031553
v -0.007764 0.843426 1.031553
v -0.007764 0.843427 -1.042545
v -0.010764 0.072885 -0.981064
v -0.010764 0.092885 -0.961064
v -0.010764 0.840426 1.028553
v -0.010764 0.765444 0.950072
v -0.010764 0.092884 0.950072
v -0.010764 0.072884 0.970072
v -0.010764 0.785444 0.970072
v -0.010764 0.785444 -0.981064
v -0.010764 0.840427 -1.039545
v 0.019236 0.092885 -0.961064
v 0.019236 0.765444 -0.961064
v 0.019236 0.765444 0.950072
v 0.019236 0.092884 0.950072
v 0.019236 0.000000 -1.042545
v 0.019236 0.000000 1.031553
v 0.019236 0.843426 1.031550
v 0.019236 0.843427 -1.042545
v -0.019236 0.822829 -0.002728
v -0.019236 0.811219 -0.007406
v -0.019236 0.802730 -0.027701
v -0.019236 0.807682 0.000190
v -0.019236 0.807947 -0.002728
v -0.019236 0.802340 0.025348
v -0.019236 0.807947 0.002694
v -0.019236 0.802730 0.029636
v -0.019236 0.809721 0.006301
v -0.019236 0.808650 0.004802
v -0.019236 0.821055 0.006301
v -0.019236 0.822829 0.002694
v -0.019236 0.822126 0.004802
v -0.019236 0.826880 0.033143
v -0.019236 0.823094 0.000190
v -0.019236 0.828049 0.029636
v -0.019236 0.815285 -0.037445
v -0.019236 0.812084 -0.037055
v -0.019236 0.813361 -0.008119
v -0.019236 0.815317 -0.008358
v -0.019236 0.817423 -0.008117
v -0.019236 0.819557 -0.007406
v -0.019236 0.821055 -0.006335
v -0.019236 0.826880 -0.031209
v -0.019236 0.828049 -0.027701
v -0.019236 0.809721 -0.006335
v -0.019236 0.808576 -0.035886
v -0.019236 0.818695 0.038990
v -0.019236 0.824931 0.035872
v -0.000888 0.805848 -0.033938
v -0.000888 0.822203 -0.035886
v -0.000888 0.822203 0.037821
v -0.000888 0.805848 0.035872
v -0.019236 0.822126 -0.004836
v -0.000888 0.808576 -0.035886
v -0.000888 0.812084 -0.037055
v -0.000888 0.815285 -0.037445
v -0.019236 0.818695 -0.037055
v -0.000888 0.818695 -0.037055
v -0.019236 0.822203 -0.035886
v -0.019236 0.803899 0.033143
v -0.000888 0.803899 0.033143
v -0.000888 0.802730 0.029636
v -0.000888 0.802340 0.025348
v -0.019236 0.802340 -0.023414
v -0.000888 0.802340 -0.023414
v -0.000888 0.802730 -0.027701
v -0.000888 0.803899 -0.031209
v -0.019236 0.805848 -0.033938
v -0.019236 0.822203 0.037821
v -0.000888 0.818695 0.038990
v -0.019236 0.815285 0.039380
v -0.000888 0.815285 0.039380
v -0.000888 0.812084 0.038990
v -0.019236 0.808576 0.037821
v -0.000888 0.808576 0.037821
v -0.000888 0.824931 -0.033938
v -0.019236 0.824931 -0.033938
v -0.000888 0.826880 -0.031209
v -0.000888 0.828049 -0.027701
v -0.019236 0.828439 -0.023414
v -0.000888 0.828439 -0.023414
v -0.019236 0.828439 0.025348
v -0.000888 0.828439 0.025348
v -0.000888 0.828049 0.029636
v -0.000888 0.826880 0.033143
v -0.000888 0.824931 0.035872
v -0.019236 0.813361 0.008085
v -0.019236 0.812084 0.038990
v -0.019236 0.815317 0.008323
v -0.019236 0.817423 0.008082
v -0.019236 0.819557 0.007371
v -0.019236 0.808650 -0.004836
v -0.019236 0.803899 -0.031209
v -0.019236 0.811219 0.007371
v -0.019236 0.805848 0.035872
vt 0.037800 1.200300
vt 0.037800 1.191300
vt 0.296600 1.191300
vt 0.296600 1.200300
vt -0.241200 1.045300
vt -0.241200 1.036200
vt 0.487100 1.036200
vt 0.487100 1.045300
vt 0.037800 1.138300
vt 0.037800 1.129300
vt 0.296600 1.129300
vt 0.296600 1.138300
vt -0.241200 1.014300
vt -0.241200 1.005200
vt 0.487100 1.005200
vt 0.487100 1.014300
vt 0.408200 0.105000
vt 0.408200 0.429200
vt 0.407700 0.428700
vt 0.407700 0.105500
vt -0.241200 0.986600
vt 0.548800 0.986600
vt 0.548800 0.987000
vt -0.241000 0.987000
vt 0.378700 0.105000
vt 0.378700 0.429200
vt 0.378400 0.428700
vt 0.378400 0.105500
vt -0.241200 0.963300
vt 0.548800 0.963300
vt 0.548800 0.963700
vt -0.241000 0.963700
vt 0.980500 -0.267600
vt 0.658700 -0.267600
vt 0.658200 -0.267600
vt 0.981000 -0.267600
vt 0.657700 -0.268600
vt 0.981400 -0.268600
vt 1.539100 0.064900
vt 2.328100 0.064900
vt 2.328100 0.065400
vt 1.538100 0.065400
vt 0.658700 0.520500
vt 0.980500 0.520500
vt 0.981000 0.521000
vt 0.658200 0.521000
vt 0.981400 0.521200
vt 0.657700 0.521200
vt 2.328100 -0.257800
vt 1.539100 -0.257800
vt 1.538100 -0.257800
vt 2.328100 -0.257800
vt 0.408700 0.105000
vt 0.408700 0.429200
vt -0.241200 0.986100
vt 0.548800 0.986100
vt 0.379200 0.105000
vt 0.379200 0.429200
vt -0.241200 0.962900
vt 0.548800 0.962900
vt 0.679700 -0.245100
vt 0.954100 -0.245100
vt 0.946300 -0.237300
vt 0.687500 -0.237300
vt 0.954100 0.498500
vt 0.679700 0.498500
vt 0.687500 0.490700
vt 0.946300 0.490700
vt 1.569300 0.030300
vt 2.296900 0.030300
vt 2.304700 0.037600
vt 1.561500 0.037600
vt 1.539100 0.064500
vt 2.326200 0.064500
vt 2.296900 -0.228500
vt 1.569300 -0.228500
vt 1.561500 -0.236300
vt 2.304700 -0.236300
vt 2.326200 -0.256800
vt 1.539100 -0.256800
vt 0.000000 0.000000
vt 0.000000 0.000000
vt 0.000000 0.000000
vt 0.000000 0.000000
vt 0.000000 0.000000
vt 0.000000 0.000000
vt 0.000000 0.000000
vt 0.000000 0.000000
vt 0.379200 0.429200
vt 0.548800 0.986100
vt -0.241200 0.962900
vt 0.548800 0.962900
vt 0.408700 0.429200
vt 0.379200 0.105000
vt -0.241200 0.986100
vt 0.408700 0.105000
vn 0.0000 0.0000 1.0000
vn 0.0000 1.0000 0.0000
vn 0.0000 0.0000 -1.0000
vn 0.0000 -1.0000 -0.0000
vn -0.5126 0.0000 -0.8586
vn -0.5124 0.0000 -0.8587
vn -0.5128 -0.8585 -0.0000
vn -0.5125 -0.8587 0.0000
vn -0.5127 -0.8586 0.0000
vn -0.5126 -0.0000 0.8586
vn -0.5127 0.0000 0.8586
vn -0.5128 0.0000 0.8585
vn -0.5125 0.8587 0.0000
vn -0.5124 0.8587 0.0000
vn -0.5126 0.8586 0.0000
vn -0.9961 -0.0627 -0.0627
vn -0.9961 0.0628 -0.0628
vn -0.9949 0.0712 -0.0713
vn -0.9949 -0.0713 -0.0713
vn -0.8587 -0.0000 -0.5124
vn -0.8588 -0.0000 -0.5123
vn -0.8586 0.0000 -0.5126
vn -0.8586 -0.0000 -0.5127
vn -0.8587 -0.5124 0.0000
vn -0.8586 -0.5126 -0.0000
vn -0.8587 -0.5125 -0.0000
vn -0.8588 -0.5124 0.0000
vn -0.9961 0.0626 0.0626
vn -0.9961 -0.0627 0.0627
vn -0.9949 -0.0712 0.0712
vn -0.9949 0.0712 0.0712
vn -0.8588 0.0000 0.5124
vn -0.8586 0.0000 0.5126
vn -0.8587 0.0000 0.5125
vn -0.8587 0.5125 -0.0000
vn -0.8588 0.5123 -0.0000
vn -0.8587 0.5124 -0.0000
vn -0.8588 0.5124 0.0000
vn -0.0708 -0.0000 -0.9975
vn -0.0709 0.0000 -0.9975
vn -0.1419 0.0000 -0.9899
vn -0.1411 0.0000 -0.9900
vn -0.0708 -0.9975 -0.0000
vn -0.1421 -0.9899 -0.0000
vn -0.1419 -0.9899 -0.0000
vn -0.0707 -0.0000 0.9975
vn -0.1410 0.0000 0.9900
vn -0.1418 -0.0000 0.9899
vn -0.0709 0.9975 0.0000
vn -0.0708 0.9975 0.0000
vn -0.1418 0.9899 0.0000
vn -0.1411 0.9900 0.0000
vn -1.0000 0.0000 0.0000
vn 1.0000 -0.0000 0.0000
vn 0.0007 0.0706 0.9975
vn 0.0706 -0.0047 0.9975
vn 0.0033 0.0706 0.9975
vn 0.0706 -0.9975 -0.0009
vn 0.0705 -0.9975 -0.0038
vn 0.0032 -0.9975 0.0706
vn 0.0029 0.9975 -0.0713
vn 0.0714 0.9975 0.0000
vn 0.0713 0.9975 0.0032
vn 0.0006 -0.0707 -0.9975
vn 0.0706 0.0048 -0.9975
vn 0.0032 -0.0707 -0.9975
vn 0.0286 0.0646 0.9975
vn -0.0653 0.0270 0.9975
vn 0.0635 0.0309 0.9975
vn 0.0277 -0.9975 0.0650
vn -0.0653 -0.9975 0.0270
vn -0.0009 -0.9975 -0.0706
vn -0.0000 0.9975 0.0714
vn 0.0273 0.9975 -0.0659
vn -0.0660 0.9975 -0.0271
vn 0.0286 -0.0647 -0.9975
vn -0.0654 -0.0271 -0.9975
vn 0.0636 -0.0309 -0.9975
usemtl _Game_Materials_Laborraum_M_Metal_Brushed_Inst_M_Metal_Brus_001
s 1
f 25/1/1 1/2/1 4/3/1
f 4/3/1 2/4/1 25/1/1
f 28/5/2 3/6/2 1/7/2
f 1/7/2 25/8/2 28/5/2
f 27/9/3 5/10/3 3/11/3
f 3/11/3 28/12/3 27/9/3
f 2/13/4 4/14/4 5/15/4
f 5/15/4 27/16/4 2/13/4
f 12/17/5 7/18/6 9/19/5
f 9/19/5 6/20/5 12/17/5
f 7/21/7 8/22/8 11/23/9
f 11/23/9 9/24/7 7/21/7
f 8/25/10 10/26/11 19/27/10
f 19/27/10 11/28/12 8/25/10
f 10/29/13 12/30/14 6/31/13
f 6/31/13 19/32/15 10/29/13
f 13/33/16 32/34/17 14/35/18
f 14/35/18 15/36/19 13/33/16
f 15/36/20 14/35/21 6/37/22
f 6/37/22 9/38/23 15/36/20
f 17/39/24 15/40/25 9/41/26
f 9/41/26 11/42/27 17/39/24
f 26/43/28 16/44/29 17/45/30
f 17/45/30 18/46/31 26/43/28
f 18/46/32 17/45/33 11/47/34
f 11/47/34 19/48/34 18/46/32
f 14/49/35 18/50/36 19/51/37
f 19/51/37 6/52/38 14/49/35
f 23/53/39 20/54/40 7/18/41
f 7/18/41 12/17/42 23/53/39
f 20/55/43 21/56/43 8/22/44
f 8/22/44 7/21/45 20/55/43
f 21/57/46 22/58/46 10/26/47
f 10/26/47 8/25/48 21/57/46
f 22/59/49 23/60/50 12/30/51
f 12/30/51 10/29/52 22/59/49
f 31/61/53 32/34/53 13/33/53
f 13/33/53 24/62/53 31/61/53
f 31/61/53 24/62/53 25/63/53
f 25/63/53 2/64/53 31/61/53
f 29/65/53 16/44/53 26/43/53
f 26/43/53 30/66/53 29/65/53
f 29/65/53 30/66/53 27/67/53
f 27/67/53 28/68/53 29/65/53
f 28/69/53 25/70/53 24/71/53
f 24/71/53 29/72/53 28/69/53
f 16/73/29 29/72/53 24/71/53
f 24/71/53 13/74/16 16/73/29
f 16/73/29 13/74/16 15/40/19
f 15/40/19 17/39/30 16/73/29
f 2/75/53 27/76/53 30/77/53
f 30/77/53 31/78/53 2/75/53
f 32/79/17 31/78/53 30/77/53
f 30/77/53 26/80/28 32/79/17
f 32/79/17 26/80/28 18/50/31
f 18/50/31 14/49/18 32/79/17
f 39/81/54 35/82/54 40/83/54
f 33/84/54 40/83/54 34/85/54
f 36/86/54 38/87/54 37/88/54
f 33/84/54 36/86/54 37/88/54
f 33/84/54 37/88/54 40/83/54
f 39/81/54 38/87/54 36/86/54
f 35/82/54 39/81/54 36/86/54
f 21/57/55 39/89/56 22/58/57
f 20/55/58 38/90/59 21/56/60
f 23/60/61 39/91/62 40/92/63
f 23/53/64 37/93/65 20/54/66
f 35/82/54 34/85/54 40/83/54
f 21/57/67 38/94/68 39/89/69
f 20/55/70 37/95/71 38/90/72
f 23/60/73 22/59/74 39/91/75
f 23/53/76 40/96/77 37/93/78
