# Blender 3.6.8
# www.blender.org
mtllib sm_elevator_door_02.mtl
o sm_elevator_door_02
v -1.500000 70.000000 220.000000
v -1.500000 0.000000 0.000000
v -1.500000 0.000000 220.000000
v -1.500000 70.000000 0.000000
v 1.500000 0.000000 220.000000
v 1.500000 70.000000 0.000000
v 1.500000 70.000000 220.000000
v 1.500000 0.000000 0.000000
v 1.500000 70.000000 220.000000
v -1.500000 70.000000 0.000000
v -1.500000 70.000000 220.000000
v 1.500000 70.000000 0.000000
v -1.500000 0.000000 220.000000
v 1.500000 0.000000 0.000000
v 1.500000 0.000000 220.000000
v -1.500000 0.000000 0.000000
v -1.500000 0.000000 0.000000
v -1.500000 70.000000 0.000000
v 1.500000 0.000000 0.000000
v 1.500000 70.000000 0.000000
v -1.500000 70.000000 220.000000
v -1.500000 0.000000 220.000000
v 1.500000 70.000000 220.000000
v 1.500000 0.000000 220.000000
vn -1.0000 -0.0000 -0.0000
vn 1.0000 -0.0000 -0.0000
vn -0.0000 1.0000 -0.0000
vn -0.0000 -1.0000 -0.0000
vn -0.0000 -0.0000 -1.0000
vn -0.0000 -0.0000 1.0000
s 1
f 1//1 2//1 3//1
f 2//1 1//1 4//1
f 5//2 6//2 7//2
f 6//2 5//2 8//2
f 9//3 10//3 11//3
f 10//3 9//3 12//3
f 13//4 14//4 15//4
f 14//4 13//4 16//4
f 17//5 18//5 19//5
f 19//5 18//5 20//5
f 21//6 22//6 23//6
f 23//6 22//6 24//6
