# Blender 3.6.8
# www.blender.org
mtllib SM_Floor.mtl
o SM_Floor
v -4.737500 2.570000 -0.000001
v 0.000000 -2.570000 -0.000001
v 0.000000 2.570000 -0.000001
v -4.737500 -2.570000 -0.000001
v 4.737500 2.570000 -0.000001
v 9.474999 -2.570000 -0.000001
v 9.474999 2.570000 -0.000001
v 4.737500 -2.570000 -0.000001
v 0.000000 2.570000 -0.000001
v 4.737500 -2.570000 -0.000001
v 4.737500 2.570000 -0.000001
v 0.000000 -2.570000 -0.000001
v -4.737500 2.570000 -0.000001
v -9.474999 2.570000 -0.000001
v -4.737500 -2.570000 -0.000001
v -9.474999 -2.570000 -0.000001
vn -0.0000 -0.0000 1.0000
s 1
f 1//1 2//1 3//1
f 2//1 1//1 4//1
f 5//1 6//1 7//1
f 6//1 5//1 8//1
f 9//1 10//1 11//1
f 10//1 9//1 12//1
f 13//1 14//1 15//1
f 14//1 16//1 15//1
