# Blender 3.6.8
# www.blender.org
mtllib SM_Lobby_Floor_01.mtl
o SM_Lobby_Floor_01
v 1.724327 3.840952 -0.000000
v 0.248051 3.840952 -0.000000
v 0.248051 3.583304 -0.000000
v 1.724327 3.583304 -0.000000
v -3.140126 0.059998 -0.000000
v -0.855039 3.583304 -0.000000
v -3.140126 3.583303 -0.000000
v -3.140126 2.672285 -0.000000
v -3.140126 0.503283 -0.000000
v -3.358621 2.672285 -0.000000
v -3.358621 0.503283 -0.000000
v -5.307455 0.059998 -0.000000
v -5.307455 -3.583486 -0.000000
v 0.924113 -3.583487 -0.000000
v 5.179760 0.618301 -0.000000
v 2.775640 3.583304 -0.000000
v 5.307455 -1.550700 -0.000000
v 5.307455 0.618301 -0.000000
v 5.179760 -1.550700 -0.000000
v 5.179760 1.122746 -0.000000
v 2.961129 -3.583487 -0.000000
v 5.179760 -3.583487 -0.000000
v 0.924113 -3.840951 -0.000000
v 2.961129 -3.840951 -0.000000
v 5.179760 3.291746 -0.000000
v 5.179760 3.583303 -0.000000
v 5.307455 1.122746 -0.000000
v 5.307455 3.291746 -0.000000
vn -0.0000 -0.0000 1.0000
s 1
f 1//1 2//1 3//1
f 1//1 3//1 4//1
f 5//1 4//1 3//1
f 6//1 5//1 3//1
f 6//1 7//1 8//1
f 6//1 8//1 9//1
f 9//1 5//1 6//1
f 10//1 9//1 8//1
f 9//1 10//1 11//1
f 5//1 12//1 13//1
f 14//1 5//1 13//1
f 5//1 15//1 4//1
f 15//1 5//1 14//1
f 15//1 16//1 4//1
f 17//1 18//1 15//1
f 15//1 19//1 17//1
f 16//1 15//1 20//1
f 19//1 15//1 21//1
f 15//1 14//1 21//1
f 21//1 22//1 19//1
f 21//1 14//1 23//1
f 21//1 23//1 24//1
f 16//1 20//1 25//1
f 16//1 25//1 26//1
f 25//1 20//1 27//1
f 27//1 28//1 25//1
