# Blender v3.6.0 OBJ File: ''
# www.blender.org
mtllib SM_Wall_02.mtl
o SM_Wall_02
v 10.075000 3.196894 0.263262
v 10.075000 -1.615800 0.263262
v 10.075000 3.196894 0.691050
v 10.075000 -1.615800 0.691050
v 10.075000 3.196894 2.335000
v 10.075000 -1.615800 2.335000
v 10.075000 -1.615800 3.243214
v 10.075000 3.196894 3.243214
v 10.075000 3.196894 3.260242
v 10.075000 -1.615800 3.260242
v 9.885448 -1.615800 3.260242
v 9.885448 -1.615800 3.243214
v 9.885448 -1.615800 2.335000
v 9.885448 -1.615800 0.691050
v 9.885448 -1.615800 0.263262
v 9.885448 -1.770000 0.263262
v 9.885448 -1.770000 0.691050
v 9.885448 -1.770000 2.335000
v 9.885448 -1.770000 3.243214
v 9.885448 -1.770000 3.260242
v 10.068983 3.192530 0.263262
v 10.068983 -1.611457 0.208540
v 10.068983 -1.611457 0.263262
v 10.068983 3.192530 0.208540
v 9.881275 -1.611457 0.263262
v 9.881275 -1.611457 0.208540
v 9.881275 -1.765927 0.208540
v 9.881275 -1.765928 0.263262
v 10.060000 -1.600800 0.200000
v 10.060000 3.181894 0.200000
v 9.870449 -1.600800 0.200000
v 9.870449 -1.755000 0.200000
vt -1.950195 -0.966797
vt 2.861328 -0.966797
vt -1.950195 -0.539062
vt 2.861328 -0.539062
vt -1.950195 1.104858
vt 2.861328 1.104858
vt 2.861328 2.012695
vt -1.950195 2.012695
vt -1.950195 2.029297
vt 2.861328 2.029297
vt -8.781250 2.029297
vt -8.968750 2.029297
vt -8.968750 2.012695
vt -8.781250 2.012695
vt -8.968750 1.104858
vt -8.781250 1.104858
vt -8.781250 -0.539062
vt -8.968750 -0.539062
vt -8.968750 -0.966797
vt -8.781250 -0.966797
vt 3.015625 -0.966797
vt 2.861328 -0.539062
vt 2.861328 -0.966797
vt 3.015625 -0.539062
vt 2.861328 1.104858
vt 3.015625 1.104858
vt 3.015625 2.012695
vt 2.861328 2.012695
vt 2.861328 2.029297
vt 3.015625 2.029297
vt -1.946289 -0.966797
vt 2.855469 -1.021484
vt 2.855469 -0.966797
vt -1.946289 -1.021484
vt -8.781250 -0.966797
vt -8.968750 -0.966797
vt -8.968750 -1.021484
vt -8.781250 -1.021484
vt 2.855469 -0.966797
vt 3.009766 -1.021484
vt 3.009766 -0.966797
vt 2.855469 -1.021484
vt 9.781250 -1.861328
vt 9.781250 -2.009766
vt 9.781250 -2.015625
vt 9.781250 -1.855469
vt 9.968750 -1.855469
vt 9.968750 -1.861328
vt 9.968750 2.946289
vt 9.968750 2.950195
vt 9.968750 2.946289
vt 9.953125 -1.845703
vt 9.968750 -1.855469
vt 9.953125 2.935547
vt 9.765625 -1.845703
vt 9.781250 -1.855469
vt 9.765625 -2.000000
vt 9.781250 -2.009766
vn -1.0000 0.0000 0.0000
vn 0.0000 1.0000 0.0000
vn 0.0000 0.0000 1.0000
vn -0.6913 -0.0000 0.7226
vn -0.6912 -0.0000 0.7226
vn 0.0000 0.6237 0.7817
vn 0.0000 0.6237 0.7816
vn 0.0000 0.6238 0.7816
vn -0.6198 0.0000 0.7848
vn -0.6197 0.0000 0.7848
vn -0.6200 0.0000 0.7846
usemtl M_Basic_Wall
s 1
f 1/1/1 2/2/1 3/3/1
f 4/4/1 3/3/1 2/2/1
f 3/3/1 4/4/1 5/5/1
f 6/6/1 5/5/1 4/4/1
f 7/7/1 5/5/1 6/6/1
f 7/7/1 8/8/1 5/5/1
f 8/8/1 7/7/1 9/9/1
f 10/10/1 9/9/1 7/7/1
f 11/11/2 10/12/2 7/13/2
f 11/11/2 7/13/2 12/14/2
f 7/13/2 6/15/2 12/14/2
f 12/14/2 6/15/2 13/16/2
f 14/17/2 13/16/2 6/15/2
f 6/15/2 4/18/2 14/17/2
f 4/18/2 2/19/2 14/17/2
f 14/17/2 2/19/2 15/20/2
f 16/21/1 14/22/1 15/23/1
f 14/22/1 16/21/1 17/24/1
f 13/25/1 14/22/1 17/24/1
f 17/24/1 18/26/1 13/25/1
f 19/27/1 13/25/1 18/26/1
f 12/28/1 13/25/1 19/27/1
f 19/27/1 11/29/1 12/28/1
f 11/29/1 19/27/1 20/30/1
usemtl M_Plastic_White
f 21/31/1 22/32/1 23/33/1
f 22/32/1 21/31/1 24/34/1
f 25/35/2 23/36/2 22/37/2
f 25/35/2 22/37/2 26/38/2
f 25/39/1 27/40/1 28/41/1
f 27/40/1 25/39/1 26/42/1
f 15/43/3 28/44/3 16/45/3
f 28/44/3 15/43/3 25/46/3
f 23/47/3 25/46/3 15/43/3
f 15/43/3 2/48/3 23/47/3
f 21/49/3 2/48/3 1/50/3
f 2/48/3 21/49/3 23/47/3
f 24/51/4 29/52/4 22/53/5
f 29/52/4 24/51/4 30/54/5
f 29/52/6 31/55/7 26/56/8
f 29/52/6 26/56/8 22/53/8
f 26/56/9 32/57/10 27/58/11
f 32/57/10 26/56/9 31/55/10
