# Blender v3.6.0 OBJ File: ''
# www.blender.org
mtllib wardrobe_door_handle.mtl
o wardrobe_door_handle_SM_Kleiderschrank_GriffLinks
v -0.005545 -0.007541 0.050413
v -0.005545 -0.007541 -0.055601
v -0.005545 0.007541 0.050413
v -0.005545 0.007541 -0.055601
v 0.020031 -0.007541 0.050413
v -0.005545 0.007541 0.050413
v 0.020031 0.007541 0.050413
v -0.005545 -0.007541 0.050413
v 0.020031 0.007541 -0.055601
v -0.005545 0.007541 -0.055601
v 0.020031 -0.007541 -0.055601
v -0.005545 -0.007541 -0.055601
v -0.020031 0.007541 0.065000
v -0.020031 0.007541 0.050413
v -0.020031 -0.007541 0.065000
v -0.020031 -0.007541 0.050413
v -0.020031 0.007541 -0.055601
v -0.020031 -0.007541 -0.055601
v -0.020031 0.007541 -0.065000
v -0.020031 -0.007541 -0.065000
v -0.020031 -0.007541 -0.065000
v -0.020031 0.007541 -0.065000
v -0.005545 0.007541 -0.065000
v -0.005545 -0.007541 -0.065000
v 0.020031 -0.007541 -0.065000
v 0.020031 0.007541 -0.065000
v -0.005545 0.007541 0.065000
v -0.020031 0.007541 0.065000
v -0.020031 -0.007541 0.065000
v -0.005545 -0.007541 0.065000
v 0.020031 -0.007541 0.065000
v 0.020031 0.007541 0.065000
v 0.020031 -0.007541 0.065000
v -0.005545 -0.007541 0.065000
v 0.020031 -0.007541 0.050413
v -0.005545 -0.007541 0.050413
v -0.020031 -0.007541 0.050413
v -0.020031 -0.007541 0.065000
v -0.020031 -0.007541 -0.055601
v -0.005545 -0.007541 -0.055601
v -0.020031 -0.007541 -0.065000
v -0.005545 -0.007541 -0.065000
v 0.020031 -0.007541 -0.065000
v 0.020031 -0.007541 -0.055601
v -0.005545 0.007541 -0.065000
v 0.020031 0.007541 -0.055601
v 0.020031 0.007541 -0.065000
v -0.005545 0.007541 -0.055601
v -0.020031 0.007541 -0.055601
v -0.020031 0.007541 -0.065000
v -0.020031 0.007541 0.050413
v -0.005545 0.007541 0.050413
v -0.020031 0.007541 0.065000
v -0.005545 0.007541 0.065000
v 0.020031 0.007541 0.065000
v 0.020031 0.007541 0.050413
vt 0.558100 0.010300
vt 0.750500 0.010300
vt 0.558100 0.120100
vt 0.470000 0.839000
vt 0.356700 0.042500
vt 0.470000 0.042500
vt 0.515100 0.208000
vt 0.707000 0.321300
vt 0.515100 0.321300
vt 0.707000 0.208000
vt 0.515100 0.340300
vt 0.707000 0.340300
vt 0.515100 0.453600
vt 0.707000 0.453600
vt 0.989700 0.010300
vt 0.989700 0.120100
vt 0.876500 0.010300
vt 0.876500 0.120100
vt 0.989700 0.916400
vt 0.876500 0.916400
vt 0.989700 0.987100
vt 0.876500 0.987100
vt 0.278600 0.510700
vt 0.165300 0.510700
vt 0.165300 0.401900
vt 0.278600 0.401900
vt 0.278600 0.210000
vt 0.165300 0.210000
vt 0.165300 0.636700
vt 0.165300 0.527800
vt 0.278600 0.527800
vt 0.278600 0.636700
vt 0.278600 0.829000
vt 0.165300 0.829000
vt 0.356700 0.839000
vt 0.750500 0.120100
vt 0.859400 0.120100
vt 0.859400 0.010300
vt 0.859400 0.916400
vt 0.750500 0.916400
vt 0.859400 0.987100
vt 0.750500 0.987100
vt 0.558100 0.987100
vt 0.558100 0.916400
vt 0.118800 0.987100
vt 0.311000 0.916400
vt 0.311000 0.987100
vt 0.118800 0.916400
vt 0.010000 0.916400
vt 0.010000 0.987100
vt 0.010000 0.120100
vt 0.118800 0.120100
vt 0.010000 0.010300
vt 0.118800 0.010300
vt 0.311000 0.010300
vt 0.311000 0.120100
vn 0.0000 -1.0000 0.0000
vn 1.0000 0.0000 0.0000
vn 0.0000 0.0000 -1.0000
vn 0.0000 0.0000 1.0000
vn -1.0000 0.0000 0.0000
vn 0.0000 1.0000 -0.0000
usemtl _Game_Materials_Laborraum_M_Metal_Dark_M_Metal_Dark
s 1
f 33/1/1 34/2/1 35/3/1
f 3/4/2 2/5/2 4/6/2
f 5/7/3 6/8/3 7/9/3
f 6/8/3 5/7/3 8/10/3
f 9/11/4 10/12/4 11/13/4
f 10/12/4 12/14/4 11/13/4
f 13/15/5 14/16/5 15/17/5
f 15/17/5 14/16/5 16/18/5
f 14/16/5 17/19/5 16/18/5
f 16/18/5 17/19/5 18/20/5
f 18/20/5 17/19/5 19/21/5
f 18/20/5 19/21/5 20/22/5
f 21/23/3 22/24/3 23/25/3
f 24/26/3 21/23/3 23/25/3
f 23/25/3 25/27/3 24/26/3
f 25/27/3 23/25/3 26/28/3
f 27/29/4 28/30/4 29/31/4
f 27/29/4 29/31/4 30/32/4
f 27/29/4 30/32/4 31/33/4
f 32/34/4 27/29/4 31/33/4
f 1/35/2 2/5/2 3/4/2
f 36/36/1 35/3/1 34/2/1
f 37/37/1 34/2/1 38/38/1
f 34/2/1 37/37/1 36/36/1
f 37/37/1 39/39/1 36/36/1
f 36/36/1 39/39/1 40/40/1
f 40/40/1 39/39/1 41/41/1
f 40/40/1 41/41/1 42/42/1
f 42/42/1 43/43/1 40/40/1
f 44/44/1 40/40/1 43/43/1
f 45/45/6 46/46/6 47/47/6
f 46/46/6 45/45/6 48/48/6
f 49/49/6 45/45/6 50/50/6
f 49/49/6 48/48/6 45/45/6
f 51/51/6 48/48/6 49/49/6
f 52/52/6 48/48/6 51/51/6
f 53/53/6 52/52/6 51/51/6
f 54/54/6 52/52/6 53/53/6
f 55/55/6 52/52/6 54/54/6
f 52/52/6 55/55/6 56/56/6
