# Blender 4.5.4 LTS
# www.blender.org
mtllib robotiq_2f_140_outer_knuckle.mtl
o robotiq_2f_140_outer_knuckle
v 0.004500 0.001760 -0.021523
v 0.004500 0.001316 -0.019740
v 0.004500 -0.002160 -0.015500
v 0.004500 0.001547 -0.017917
v 0.004500 -0.001708 -0.014573
v 0.004500 0.002420 -0.016300
v 0.004500 -0.001555 -0.013784
v 0.004500 -0.010933 -0.014673
v 0.004500 -0.009393 -0.022523
v 0.004500 -0.007737 -0.015755
v 0.004500 0.005967 0.016753
v 0.004500 0.002448 0.015377
v 0.004500 0.003161 0.014829
v 0.004500 -0.008176 -0.015082
v 0.004500 -0.008450 -0.014327
v 0.004500 -0.011018 -0.012952
v 0.004500 -0.004460 0.032870
v 0.004500 0.001957 0.037201
v 0.004500 0.000909 0.038096
v 0.004500 0.000764 0.015975
v 0.004500 0.001637 0.015764
v 0.004500 0.004902 0.030038
v 0.004500 -0.004123 -0.010142
v 0.004500 -0.003378 -0.010441
v 0.004500 -0.005325 -0.007007
v 0.004500 0.005553 -0.014502
v 0.004500 0.007389 -0.014563
v 0.004500 0.004497 0.011596
v 0.004500 0.004427 0.012492
v 0.004500 0.006357 0.015993
v 0.004500 0.003744 0.014145
v 0.004500 0.007336 0.014015
v 0.004500 0.004172 0.013354
v 0.004500 -0.008545 -0.013529
v 0.004500 -0.008455 -0.012731
v 0.004500 -0.010611 -0.011277
v 0.004500 -0.008186 -0.011974
v 0.004500 -0.009744 -0.009788
v 0.004500 -0.007751 -0.011298
v 0.004500 -0.008491 -0.008606
v 0.004500 -0.007173 -0.010740
v 0.004500 -0.006953 -0.007829
v 0.004500 -0.003982 0.012720
v 0.004500 -0.003681 0.013567
v 0.004500 -0.002634 0.024287
v 0.004500 0.001416 0.007588
v 0.004500 0.000531 0.007425
v 0.004500 0.004378 0.010705
v 0.004500 0.004078 0.009857
v 0.004500 0.003607 0.009091
v 0.004500 -0.000363 0.038627
v 0.004500 -0.001737 0.038743
v 0.004500 -0.005095 0.034300
v 0.004500 0.005793 0.017590
v 0.004500 0.003818 -0.015108
v 0.004500 -0.003998 -0.005757
v 0.004500 -0.000367 0.007450
v 0.004500 -0.004060 0.005246
v 0.004500 0.002988 0.008440
v 0.004500 0.002246 0.007932
v 0.004500 0.010604 -0.015256
v 0.004500 0.010061 -0.014509
v 0.004500 0.009080 -0.015283
v 0.004500 0.009755 -0.013638
v 0.004500 0.006044 0.005287
v 0.004500 0.006042 0.006508
v 0.004500 0.006497 0.007641
v 0.004500 0.007409 0.009650
v 0.004500 0.007697 0.011838
v 0.004500 -0.001019 0.015836
v 0.004500 -0.000135 0.015999
v 0.004500 -0.002395 0.026530
v 0.004500 -0.002629 0.028774
v 0.004500 -0.002720 -0.010902
v 0.004500 -0.002185 -0.011501
v 0.004500 -0.001800 -0.012206
v 0.004500 -0.001586 -0.012981
v 0.004500 -0.003211 0.014333
v 0.004500 -0.002591 0.014985
v 0.004500 -0.001850 0.015493
v 0.004500 0.011669 -0.016751
v 0.004500 0.010396 -0.016566
v 0.004500 0.012232 -0.018497
v 0.004500 0.011160 -0.018237
v 0.004500 0.012241 -0.020333
v 0.004500 0.011268 -0.020071
v 0.004500 0.011695 -0.022085
v 0.004500 0.010707 -0.021821
v 0.004500 0.010645 -0.023590
v 0.004500 0.009551 -0.023249
v 0.004500 0.009188 -0.024708
v 0.004500 0.007958 -0.024164
v 0.004500 0.007462 -0.025332
v 0.004500 0.006141 -0.024442
v 0.004500 -0.002351 -0.027256
v 0.004500 0.004347 -0.024044
v 0.004500 0.002818 -0.023025
v 0.004500 -0.004227 -0.027325
v 0.004500 -0.006032 -0.026811
v 0.004500 -0.007590 -0.025763
v 0.004500 -0.008748 -0.024286
v 0.004500 -0.006968 -0.016443
v 0.004500 -0.007156 -0.016310
v 0.004500 0.003442 0.035042
v 0.004500 -0.003328 0.030919
v 0.004500 0.004439 0.032617
v 0.004500 -0.003691 0.004261
v 0.004500 -0.002740 -0.000587
v 0.004500 -0.002650 -0.002408
v 0.004500 -0.003081 -0.004180
v 0.004500 -0.003238 0.038304
v 0.004500 -0.004424 0.037284
v 0.004500 -0.005082 0.035864
v 0.004500 -0.006484 -0.010327
v 0.004500 -0.005718 -0.010083
v 0.004500 -0.004917 -0.010020
v 0.004500 -0.001241 0.007660
v 0.004500 -0.002052 0.008048
v 0.004500 -0.004729 0.006058
v 0.004500 -0.002765 0.008596
v 0.004500 -0.005997 0.007485
v 0.004500 -0.003348 0.009280
v 0.004500 -0.006864 0.009186
v 0.004500 -0.003776 0.010071
v 0.004500 -0.007273 0.011051
v 0.004500 -0.004100 0.011829
v 0.004500 -0.003337 0.022143
v 0.004500 -0.006643 0.014786
v 0.004500 -0.004031 0.010933
v 0.004500 -0.007197 0.012959
v -0.004500 -0.007590 -0.025763
v -0.004500 -0.008748 -0.024286
v -0.004500 0.001456 -0.020652
v -0.004500 0.010061 -0.014509
v -0.004500 0.010604 -0.015256
v -0.004500 0.009797 -0.015863
v -0.004500 0.003535 -0.023605
v -0.004500 0.005226 -0.024326
v -0.004500 -0.002351 -0.027256
v -0.004500 0.004658 -0.014724
v -0.004500 0.003064 -0.015639
v -0.004500 -0.002160 -0.015500
v -0.004500 0.001908 -0.017068
v -0.004500 -0.006968 -0.016443
v -0.004500 0.007462 -0.025332
v -0.004500 0.007062 -0.024387
v -0.004500 0.009188 -0.024708
v -0.004500 0.008797 -0.023781
v -0.004500 0.010645 -0.023590
v -0.004500 0.011069 -0.020972
v -0.004500 0.011695 -0.022085
v -0.004500 0.010195 -0.022589
v -0.004500 0.009551 -0.023249
v -0.004500 0.001347 -0.018817
v -0.004500 0.010855 -0.017366
v -0.004500 0.011669 -0.016751
v -0.004500 0.011299 -0.019149
v -0.004500 0.012232 -0.018497
v -0.004500 0.012241 -0.020333
v -0.004500 -0.003998 -0.005757
v -0.004500 -0.003081 -0.004180
v -0.004500 0.008268 -0.014845
v -0.004500 -0.002650 -0.002408
v -0.004500 0.004902 0.030038
v -0.004500 0.005793 0.017590
v -0.004500 -0.002634 0.024287
v -0.004500 -0.003776 0.010071
v -0.004500 -0.003348 0.009280
v -0.004500 0.006474 -0.014447
v -0.004500 -0.001708 -0.014573
v -0.004500 -0.001555 -0.013784
v -0.004500 0.002219 -0.022323
v -0.004500 -0.004227 -0.027325
v -0.004500 -0.006032 -0.026811
v -0.004500 -0.009393 -0.022523
v -0.004500 -0.010933 -0.014673
v -0.004500 -0.008176 -0.015082
v -0.004500 -0.001586 -0.012981
v -0.004500 -0.001800 -0.012206
v -0.004500 -0.002185 -0.011501
v -0.004500 0.009755 -0.013638
v -0.004500 -0.002765 0.008596
v -0.004500 -0.002052 0.008048
v -0.004500 -0.001241 0.007660
v -0.004500 -0.000367 0.007450
v -0.004500 0.000531 0.007425
v -0.004500 -0.005325 -0.007007
v -0.004500 -0.002720 -0.010902
v -0.004500 -0.003378 -0.010441
v -0.004500 0.005967 0.016753
v -0.004500 0.002448 0.015377
v -0.004500 0.001637 0.015764
v -0.004500 -0.001019 0.015836
v -0.004500 -0.003337 0.022143
v -0.004500 -0.000135 0.015999
v -0.004500 0.000764 0.015975
v -0.004500 -0.007156 -0.016310
v -0.004500 -0.007737 -0.015755
v -0.004500 -0.002740 -0.000587
v -0.004500 -0.003691 0.004261
v -0.004500 -0.004060 0.005246
v -0.004500 -0.004031 0.010933
v -0.004500 -0.006643 0.014786
v -0.004500 -0.003681 0.013567
v -0.004500 -0.007197 0.012959
v -0.004500 -0.003982 0.012720
v -0.004500 -0.004100 0.011829
v -0.004500 -0.002395 0.026530
v -0.004500 -0.002629 0.028774
v -0.004500 0.004439 0.032617
v -0.004500 -0.003328 0.030919
v -0.004500 -0.004460 0.032870
v -0.004500 0.001957 0.037201
v -0.004500 0.003442 0.035042
v -0.004500 0.001416 0.007588
v -0.004500 0.002246 0.007932
v -0.004500 0.006044 0.005287
v -0.004500 0.002988 0.008440
v -0.004500 0.006042 0.006508
v -0.004500 0.003607 0.009091
v -0.004500 0.006497 0.007641
v -0.004500 0.004078 0.009857
v -0.004500 0.007409 0.009650
v -0.004500 0.004378 0.010705
v -0.004500 0.007697 0.011838
v -0.004500 0.004497 0.011596
v -0.004500 0.007336 0.014015
v -0.004500 0.004427 0.012492
v -0.004500 0.004172 0.013354
v -0.004500 0.006357 0.015993
v -0.004500 0.003744 0.014145
v -0.004500 0.003161 0.014829
v -0.004500 -0.011018 -0.012952
v -0.004500 -0.008545 -0.013529
v -0.004500 -0.008450 -0.014327
v -0.004500 -0.001737 0.038743
v -0.004500 -0.000363 0.038627
v -0.004500 0.000909 0.038096
v -0.004500 -0.004123 -0.010142
v -0.004500 -0.004917 -0.010020
v -0.004500 -0.006953 -0.007829
v -0.004500 -0.001850 0.015493
v -0.004500 -0.002591 0.014985
v -0.004500 -0.003211 0.014333
v -0.004500 -0.004729 0.006058
v -0.004500 -0.005997 0.007485
v -0.004500 -0.005718 -0.010083
v -0.004500 -0.006484 -0.010327
v -0.004500 -0.008491 -0.008606
v -0.004500 -0.007173 -0.010740
v -0.004500 -0.009744 -0.009788
v -0.004500 -0.007751 -0.011298
v -0.004500 -0.010611 -0.011277
v -0.004500 -0.008186 -0.011974
v -0.004500 -0.008455 -0.012731
v -0.004500 -0.006864 0.009186
v -0.004500 -0.007273 0.011051
v -0.004500 -0.005095 0.034300
v -0.004500 -0.005082 0.035864
v -0.004500 -0.003238 0.038304
v -0.004500 -0.004424 0.037284
v -0.011500 -0.006854 -0.015911
v -0.005000 -0.006854 -0.015911
v -0.011500 -0.007356 -0.015431
v -0.005000 -0.007352 -0.015435
v -0.011500 -0.007658 -0.014823
v -0.005000 -0.007729 -0.014859
v -0.011500 -0.007965 -0.014207
v -0.005000 -0.007964 -0.014211
v -0.011500 -0.007966 -0.013527
v -0.005000 -0.008045 -0.013527
v -0.011500 -0.007967 -0.012840
v -0.005000 -0.007968 -0.012843
v -0.011500 -0.007666 -0.012229
v -0.005000 -0.007737 -0.012194
v -0.011500 -0.007363 -0.011614
v -0.005000 -0.007364 -0.011615
v -0.011500 -0.006821 -0.011199
v -0.005000 -0.006869 -0.011137
v -0.011500 -0.006278 -0.010783
v -0.005000 -0.006278 -0.010783
v -0.011500 -0.005607 -0.010651
v -0.005000 -0.005622 -0.010574
v -0.011500 -0.004936 -0.010520
v -0.005000 -0.004936 -0.010520
v -0.011500 -0.004276 -0.010700
v -0.005000 -0.004255 -0.010624
v -0.011500 -0.003618 -0.010879
v -0.005000 -0.003616 -0.010880
v -0.011500 -0.003104 -0.011335
v -0.005000 -0.003052 -0.011276
v -0.011500 -0.002595 -0.011786
v -0.005000 -0.002593 -0.011789
v -0.011500 -0.002337 -0.012423
v -0.005000 -0.002264 -0.012394
v -0.011500 -0.002081 -0.013053
v -0.005000 -0.002080 -0.013058
v -0.011500 -0.002132 -0.013740
v -0.005000 -0.002054 -0.013746
v -0.011500 -0.002182 -0.014416
v -0.005000 -0.002184 -0.014422
v -0.011500 -0.002466 -0.015050
v -0.005000 -0.002466 -0.015050
v -0.012000 -0.003188 -0.015192
v -0.012000 -0.006132 -0.015769
v -0.012000 -0.007480 -0.012953
v -0.012000 -0.006977 -0.011931
v -0.012000 -0.003003 -0.012075
v -0.012000 -0.002660 -0.014266
v -0.012000 -0.006971 -0.015112
v -0.012000 -0.002575 -0.013130
v -0.012000 -0.007478 -0.014092
v -0.012000 -0.006072 -0.011239
v -0.012000 -0.004954 -0.011020
v -0.012000 -0.003855 -0.011319
v 0.011500 -0.002466 -0.015050
v 0.005000 -0.002466 -0.015050
v 0.011500 -0.002182 -0.014416
v 0.005000 -0.002184 -0.014422
v 0.011500 -0.002132 -0.013740
v 0.005000 -0.002054 -0.013746
v 0.011500 -0.002081 -0.013053
v 0.005000 -0.002080 -0.013058
v 0.011500 -0.002337 -0.012423
v 0.005000 -0.002264 -0.012394
v 0.011500 -0.002595 -0.011786
v 0.005000 -0.002593 -0.011789
v 0.011500 -0.003104 -0.011335
v 0.005000 -0.003052 -0.011276
v 0.011500 -0.003618 -0.010879
v 0.005000 -0.003616 -0.010880
v 0.011500 -0.004276 -0.010700
v 0.005000 -0.004255 -0.010624
v 0.011500 -0.004936 -0.010520
v 0.005000 -0.004936 -0.010520
v 0.011500 -0.005607 -0.010651
v 0.005000 -0.005622 -0.010574
v 0.011500 -0.006278 -0.010783
v 0.005000 -0.006278 -0.010783
v 0.011500 -0.006821 -0.011199
v 0.005000 -0.006869 -0.011137
v 0.011500 -0.007363 -0.011614
v 0.005000 -0.007364 -0.011615
v 0.011500 -0.007666 -0.012229
v 0.005000 -0.007737 -0.012194
v 0.011500 -0.007967 -0.012840
v 0.005000 -0.007968 -0.012843
v 0.011500 -0.007966 -0.013527
v 0.005000 -0.008045 -0.013527
v 0.011500 -0.007965 -0.014207
v 0.005000 -0.007964 -0.014211
v 0.011500 -0.007658 -0.014823
v 0.005000 -0.007729 -0.014859
v 0.011500 -0.007356 -0.015431
v 0.005000 -0.007352 -0.015435
v 0.011500 -0.006854 -0.015911
v 0.005000 -0.006854 -0.015911
v 0.012000 -0.006132 -0.015769
v 0.012000 -0.003188 -0.015192
v 0.012000 -0.006072 -0.011239
v 0.012000 -0.006977 -0.011931
v 0.012000 -0.007480 -0.012953
v 0.012000 -0.002660 -0.014266
v 0.012000 -0.002575 -0.013130
v 0.012000 -0.006971 -0.015112
v 0.012000 -0.007478 -0.014092
v 0.012000 -0.004954 -0.011020
v 0.012000 -0.003855 -0.011319
v 0.012000 -0.003003 -0.012075
v 0.005000 0.007958 -0.024164
v 0.005000 0.006141 -0.024442
v 0.005000 0.004347 -0.024044
v 0.005000 0.002818 -0.023025
v 0.005000 0.001760 -0.021523
v 0.005000 0.001316 -0.019740
v 0.005000 0.001547 -0.017917
v 0.005000 0.002420 -0.016300
v 0.005000 0.003818 -0.015108
v 0.005000 0.005553 -0.014502
v 0.005000 0.007389 -0.014563
v 0.005000 0.009080 -0.015283
v 0.005000 0.010396 -0.016566
v 0.005000 0.011160 -0.018237
v 0.005000 0.011268 -0.020071
v 0.005000 0.010707 -0.021821
v 0.005000 0.009551 -0.023249
v 0.005000 0.006308 -0.019444
v 0.004800 -0.002973 0.014150
v 0.008000 -0.002973 0.014150
v 0.004800 -0.002397 0.014756
v 0.008000 -0.002397 0.014756
v 0.004800 -0.001707 0.015229
v 0.008000 -0.001707 0.015229
v 0.004800 -0.000934 0.015549
v 0.008000 -0.000909 0.015465
v 0.004800 -0.000112 0.015700
v 0.008000 -0.000112 0.015700
v 0.004800 0.000724 0.015678
v 0.008000 0.000713 0.015591
v 0.004800 0.001537 0.015482
v 0.008000 0.001537 0.015482
v 0.004800 0.002291 0.015121
v 0.008000 0.002246 0.015046
v 0.004800 0.002954 0.014611
v 0.008000 0.002954 0.014611
v 0.004800 0.003497 0.013975
v 0.008000 0.003425 0.013925
v 0.004800 0.003895 0.013240
v 0.008000 0.003895 0.013240
v 0.004800 0.004132 0.012438
v 0.008000 0.004046 0.012422
v 0.004800 0.004197 0.011604
v 0.008000 0.004197 0.011604
v 0.004800 0.004087 0.010775
v 0.008000 0.004002 0.010795
v 0.004800 0.003807 0.009987
v 0.008000 0.003807 0.009987
v 0.004800 0.003369 0.009274
v 0.008000 0.003300 0.009328
v 0.004800 0.002793 0.008668
v 0.008000 0.002793 0.008668
v 0.004800 0.002103 0.008195
v 0.008000 0.002062 0.008272
v 0.004800 0.001331 0.007876
v 0.008000 0.001331 0.007876
v 0.004800 0.000508 0.007724
v 0.008000 0.000501 0.007812
v 0.004800 -0.000328 0.007747
v 0.008000 -0.000328 0.007747
v 0.004800 -0.001141 0.007943
v 0.008000 -0.001111 0.008025
v 0.004800 -0.001895 0.008304
v 0.008000 -0.001895 0.008304
v 0.004800 -0.002558 0.008813
v 0.008000 -0.002498 0.008877
v 0.004800 -0.003100 0.009450
v 0.008000 -0.003100 0.009450
v 0.004800 -0.003499 0.010185
v 0.008000 -0.003418 0.010219
v 0.004800 -0.003736 0.010987
v 0.008000 -0.003736 0.010987
v 0.004800 -0.003800 0.011821
v 0.008000 -0.003713 0.011819
v 0.004800 -0.003690 0.012650
v 0.008000 -0.003690 0.012650
v 0.004800 -0.003411 0.013438
v 0.008000 -0.003332 0.013400
v 0.008250 -0.002235 0.014566
v 0.008250 -0.002775 0.013998
v 0.008250 0.000198 0.011712
v 0.008250 0.001453 0.015246
v 0.008250 -0.000092 0.015451
v 0.008250 -0.001588 0.015010
v 0.008250 0.003947 0.011611
v 0.008250 0.003664 0.013144
v 0.008250 0.002782 0.014430
v 0.008250 0.001260 0.008116
v 0.008250 0.002631 0.008859
v 0.008250 0.003581 0.010095
v 0.008250 -0.002894 0.009591
v 0.008250 -0.001764 0.008517
v 0.008250 -0.000295 0.007995
v 0.008250 -0.003447 0.012591
v 0.008250 -0.003490 0.011033
v -0.005000 0.008797 -0.023781
v -0.005000 0.010195 -0.022589
v -0.005000 0.011069 -0.020972
v -0.005000 0.011299 -0.019149
v -0.005000 0.010855 -0.017366
v -0.005000 0.009797 -0.015863
v -0.005000 0.008268 -0.014845
v -0.005000 0.006474 -0.014447
v -0.005000 0.004658 -0.014724
v -0.005000 0.003064 -0.015639
v -0.005000 0.001908 -0.017068
v -0.005000 0.001347 -0.018817
v -0.005000 0.001456 -0.020652
v -0.005000 0.002219 -0.022323
v -0.005000 0.003535 -0.023605
v -0.005000 0.005226 -0.024326
v -0.005000 0.007062 -0.024387
v -0.005000 0.006308 -0.019444
v -0.008000 -0.000934 0.015549
v -0.008000 -0.002397 0.014756
v -0.004800 -0.001707 0.015229
v -0.004800 -0.000934 0.015549
v -0.004800 -0.000112 0.015700
v -0.008000 0.000724 0.015678
v -0.004800 0.000724 0.015678
v -0.004800 0.001537 0.015482
v -0.008000 0.002291 0.015121
v -0.004800 0.002291 0.015121
v -0.004800 0.002954 0.014611
v -0.008000 0.003497 0.013975
v -0.004800 0.003497 0.013975
v -0.004800 0.003895 0.013240
v -0.008000 0.004132 0.012438
v -0.004800 0.004132 0.012438
v -0.004800 0.004197 0.011604
v -0.008000 0.004087 0.010775
v -0.004800 0.004087 0.010775
v -0.004800 0.003807 0.009987
v -0.008000 0.003369 0.009274
v -0.004800 0.003369 0.009274
v -0.008000 0.002793 0.008668
v -0.004800 0.002793 0.008668
v -0.008000 0.002103 0.008195
v -0.004800 0.002103 0.008195
v -0.004800 0.001331 0.007876
v -0.008000 0.000508 0.007724
v -0.004800 0.000508 0.007724
v -0.004800 -0.000328 0.007747
v -0.008000 -0.001141 0.007943
v -0.004800 -0.001141 0.007943
v -0.004800 -0.001895 0.008304
v -0.008000 -0.002558 0.008813
v -0.004800 -0.002558 0.008813
v -0.004800 -0.003100 0.009450
v -0.008000 -0.003499 0.010185
v -0.004800 -0.003499 0.010185
v -0.004800 -0.003736 0.010987
v -0.008000 -0.003800 0.011821
v -0.004800 -0.003800 0.011821
v -0.004800 -0.003690 0.012650
v -0.008000 -0.003411 0.013438
v -0.004800 -0.003411 0.013438
v -0.004800 -0.002973 0.014150
v -0.004800 -0.002397 0.014756
v -0.008250 0.002631 0.008859
v -0.008250 0.001984 0.008415
v -0.008250 0.000198 0.011712
v -0.008250 0.003886 0.012392
v -0.008250 0.003844 0.010833
v -0.008250 0.003171 0.009427
v -0.008250 0.000691 0.015430
v -0.008250 0.002161 0.014908
v -0.008250 0.003291 0.013833
v -0.008250 -0.003185 0.013330
v -0.008250 -0.002235 0.014566
v -0.008250 -0.000863 0.015309
v -0.008250 -0.002386 0.008995
v -0.008250 -0.003268 0.010281
v -0.008250 -0.003550 0.011814
v -0.008250 0.000489 0.007974
v -0.008250 -0.001057 0.008179
v -0.004540 0.002890 0.008554
v -0.004540 0.002175 0.008063
v -0.004540 0.001373 0.007732
v -0.004540 0.000520 0.007575
v -0.004540 -0.000347 0.007598
v -0.004540 -0.001191 0.007802
v -0.004540 -0.001974 0.008176
v -0.004540 -0.002661 0.008705
v -0.004540 -0.003224 0.009365
v -0.004540 -0.003637 0.010128
v -0.004540 -0.003883 0.010960
v -0.004540 -0.003950 0.011825
v -0.004540 -0.003836 0.012685
v -0.004540 -0.003546 0.013503
v -0.004540 -0.003092 0.014242
v -0.004540 -0.002494 0.014871
v -0.004540 -0.001779 0.015361
v -0.004540 -0.000977 0.015693
v -0.004540 -0.000123 0.015850
v -0.004540 0.000744 0.015826
v -0.004540 0.001587 0.015623
v -0.004540 0.002370 0.015249
v -0.004540 0.003058 0.014720
v -0.004540 0.003621 0.014060
v -0.004540 0.004034 0.013297
v -0.004540 0.004279 0.012465
v -0.004540 0.004347 0.011600
v -0.004540 0.004233 0.010740
v -0.004540 0.003942 0.009922
v -0.004540 0.003488 0.009183
v -0.004650 0.002819 0.008638
v -0.004650 0.002123 0.008160
v -0.004650 0.001342 0.007837
v -0.004650 0.000511 0.007684
v -0.004650 -0.000333 0.007707
v -0.004650 -0.001154 0.007905
v -0.004650 -0.001916 0.008270
v -0.004650 -0.002586 0.008784
v -0.004650 -0.003134 0.009427
v -0.004650 -0.003536 0.010170
v -0.004650 -0.003775 0.010980
v -0.004650 -0.003841 0.011822
v -0.004650 -0.003729 0.012659
v -0.004650 -0.003447 0.013455
v -0.004650 -0.003005 0.014175
v -0.004650 -0.002423 0.014787
v -0.004650 -0.001726 0.015265
v -0.004650 -0.000946 0.015587
v -0.004650 -0.000115 0.015740
v -0.004650 0.000729 0.015717
v -0.004650 0.001550 0.015520
v -0.004650 0.002312 0.015155
v -0.004650 0.002982 0.014640
v -0.004650 0.003530 0.013998
v -0.004650 0.003932 0.013255
v -0.004650 0.004171 0.012445
v -0.004650 0.004237 0.011603
v -0.004650 0.004126 0.010765
v -0.004650 0.003843 0.009970
v -0.004650 0.003401 0.009250
v 0.004650 0.002819 0.008638
v 0.004650 0.002123 0.008160
v 0.004650 0.001342 0.007837
v 0.004650 0.000511 0.007684
v 0.004650 -0.000333 0.007707
v 0.004650 -0.001154 0.007905
v 0.004650 -0.001916 0.008270
v 0.004650 -0.002586 0.008784
v 0.004650 -0.003134 0.009427
v 0.004650 -0.003536 0.010170
v 0.004650 -0.003775 0.010980
v 0.004650 -0.003841 0.011822
v 0.004650 -0.003729 0.012659
v 0.004650 -0.003447 0.013455
v 0.004650 -0.003005 0.014175
v 0.004650 -0.002423 0.014787
v 0.004650 -0.001726 0.015265
v 0.004650 -0.000946 0.015587
v 0.004650 -0.000115 0.015740
v 0.004650 0.000729 0.015717
v 0.004650 0.001550 0.015520
v 0.004650 0.002312 0.015155
v 0.004650 0.002982 0.014640
v 0.004650 0.003530 0.013998
v 0.004650 0.003932 0.013255
v 0.004650 0.004171 0.012445
v 0.004650 0.004237 0.011603
v 0.004650 0.004126 0.010765
v 0.004650 0.003843 0.009970
v 0.004650 0.003401 0.009250
v 0.004540 0.002890 0.008554
v 0.004540 0.002175 0.008063
v 0.004540 0.001373 0.007732
v 0.004540 0.000520 0.007575
v 0.004540 -0.000347 0.007598
v 0.004540 -0.001191 0.007802
v 0.004540 -0.001974 0.008176
v 0.004540 -0.002661 0.008705
v 0.004540 -0.003224 0.009365
v 0.004540 -0.003637 0.010128
v 0.004540 -0.003883 0.010960
v 0.004540 -0.003950 0.011825
v 0.004540 -0.003836 0.012685
v 0.004540 -0.003546 0.013503
v 0.004540 -0.003092 0.014242
v 0.004540 -0.002494 0.014871
v 0.004540 -0.001779 0.015361
v 0.004540 -0.000977 0.015693
v 0.004540 -0.000123 0.015850
v 0.004540 0.000744 0.015826
v 0.004540 0.001587 0.015623
v 0.004540 0.002370 0.015249
v 0.004540 0.003058 0.014720
v 0.004540 0.003621 0.014060
v 0.004540 0.004034 0.013297
v 0.004540 0.004279 0.012465
v 0.004540 0.004347 0.011600
v 0.004540 0.004233 0.010740
v 0.004540 0.003942 0.009922
v 0.004540 0.003488 0.009183
v 0.004845 -0.002450 -0.015072
v 0.004845 -0.006860 -0.015937
v 0.004811 -0.002439 -0.015088
v 0.004708 -0.006877 -0.016012
v 0.004753 -0.002421 -0.015115
v 0.004753 -0.006872 -0.015987
v 0.004811 -0.006865 -0.015956
v 0.004543 -0.002274 -0.015330
v 0.004573 -0.002309 -0.015277
v 0.004597 -0.006903 -0.016129
v 0.004597 -0.002339 -0.015234
v 0.004651 -0.006890 -0.016072
v 0.004651 -0.002372 -0.015186
v 0.004708 -0.002407 -0.015135
v 0.004500 -0.002163 -0.015495
v 0.004523 -0.002249 -0.015366
v 0.004500 -0.006967 -0.016437
v 0.004573 -0.006914 -0.016180
v 0.004543 -0.006927 -0.016242
v 0.004523 -0.006936 -0.016285
v 0.004750 -0.006895 -0.015964
v 0.004567 -0.007005 -0.016110
v 0.004567 -0.001946 -0.014497
v 0.004750 -0.002120 -0.014442
v 0.004750 -0.007404 -0.015478
v 0.004750 -0.007789 -0.014889
v 0.004750 -0.008029 -0.014227
v 0.004750 -0.008112 -0.013528
v 0.004750 -0.008033 -0.012828
v 0.004750 -0.007797 -0.012165
v 0.004750 -0.007416 -0.011573
v 0.004750 -0.006910 -0.011083
v 0.004750 -0.006306 -0.010722
v 0.004750 -0.005635 -0.010508
v 0.004750 -0.004933 -0.010453
v 0.004750 -0.004237 -0.010559
v 0.004750 -0.003584 -0.010821
v 0.004750 -0.003007 -0.011226
v 0.004750 -0.002538 -0.011751
v 0.004750 -0.002201 -0.012369
v 0.004750 -0.002014 -0.013047
v 0.004750 -0.001987 -0.013751
v 0.004567 -0.007545 -0.015595
v 0.004567 -0.007952 -0.014970
v 0.004567 -0.008207 -0.014269
v 0.004567 -0.008295 -0.013528
v 0.004567 -0.008212 -0.012787
v 0.004567 -0.007961 -0.012084
v 0.004567 -0.007558 -0.011457
v 0.004567 -0.007021 -0.010938
v 0.004567 -0.006381 -0.010555
v 0.004567 -0.005670 -0.010329
v 0.004567 -0.004927 -0.010270
v 0.004567 -0.004189 -0.010383
v 0.004567 -0.003497 -0.010660
v 0.004567 -0.002886 -0.011089
v 0.004567 -0.002389 -0.011645
v 0.004567 -0.002032 -0.012300
v 0.004567 -0.001833 -0.013019
v 0.004567 -0.001804 -0.013765
v -0.004845 -0.006860 -0.015937
v -0.004651 -0.002372 -0.015186
v -0.004707 -0.006877 -0.016012
v -0.004707 -0.002407 -0.015135
v -0.004752 -0.006872 -0.015987
v -0.004752 -0.002421 -0.015115
v -0.004811 -0.006865 -0.015956
v -0.004811 -0.002439 -0.015088
v -0.004845 -0.002450 -0.015072
v -0.004597 -0.002339 -0.015234
v -0.004597 -0.006903 -0.016129
v -0.004651 -0.006890 -0.016072
v -0.004543 -0.006927 -0.016242
v -0.004572 -0.006914 -0.016180
v -0.004543 -0.002274 -0.015330
v -0.004572 -0.002309 -0.015277
v -0.004522 -0.006936 -0.016285
v -0.004522 -0.002249 -0.015366
v -0.004500 -0.006967 -0.016437
v -0.004500 -0.002163 -0.015495
v -0.004750 -0.002120 -0.014442
v -0.004567 -0.001946 -0.014497
v -0.004567 -0.007005 -0.016110
v -0.004750 -0.006895 -0.015964
v -0.004567 -0.007545 -0.015595
v -0.004567 -0.007952 -0.014970
v -0.004567 -0.008207 -0.014269
v -0.004567 -0.008295 -0.013528
v -0.004567 -0.008212 -0.012787
v -0.004567 -0.007961 -0.012084
v -0.004567 -0.007558 -0.011457
v -0.004567 -0.007021 -0.010938
v -0.004567 -0.006381 -0.010555
v -0.004567 -0.005670 -0.010329
v -0.004567 -0.004927 -0.010270
v -0.004567 -0.004189 -0.010383
v -0.004567 -0.003497 -0.010660
v -0.004567 -0.002886 -0.011089
v -0.004567 -0.002389 -0.011645
v -0.004567 -0.002032 -0.012300
v -0.004567 -0.001833 -0.013019
v -0.004567 -0.001804 -0.013765
v -0.004750 -0.007404 -0.015478
v -0.004750 -0.007789 -0.014889
v -0.004750 -0.008029 -0.014227
v -0.004750 -0.008112 -0.013528
v -0.004750 -0.008033 -0.012828
v -0.004750 -0.007797 -0.012165
v -0.004750 -0.007416 -0.011573
v -0.004750 -0.006910 -0.011083
v -0.004750 -0.006306 -0.010722
v -0.004750 -0.005635 -0.010508
v -0.004750 -0.004933 -0.010453
v -0.004750 -0.004237 -0.010559
v -0.004750 -0.003584 -0.010821
v -0.004750 -0.003007 -0.011226
v -0.004750 -0.002538 -0.011751
v -0.004750 -0.002201 -0.012369
v -0.004750 -0.002014 -0.013047
v -0.004750 -0.001987 -0.013751
vn 1.0000 0.0001 -0.0000
vn 1.0000 0.0001 -0.0001
vn 1.0000 -0.0000 -0.0000
vn 0.9999 0.0104 -0.0034
vn 0.9998 0.0217 -0.0009
vn -0.0000 -0.9839 -0.1787
vn -0.0000 -0.9704 -0.2414
vn 1.0000 -0.0039 -0.0034
vn -0.0001 0.9271 0.3749
vn 0.9998 0.0091 0.0160
vn 0.9999 0.0078 0.0088
vn 0.9993 -0.0325 -0.0177
vn 0.9998 -0.0172 -0.0048
vn -0.0001 -0.9989 0.0462
vn -0.0000 0.7408 0.6717
vn -0.0000 0.4783 0.8782
vn 1.0000 0.0004 0.0041
vn 1.0000 0.0005 0.0014
vn 0.0001 0.7207 -0.6932
vn 0.9995 0.0073 0.0311
vn 0.9992 0.0177 0.0358
vn 0.0001 0.7208 -0.6932
vn 1.0000 -0.0001 -0.0001
vn 1.0000 0.0021 -0.0000
vn 1.0000 0.0019 0.0004
vn -0.0000 0.8945 0.4471
vn 1.0000 0.0066 0.0049
vn -0.0001 0.9353 0.3537
vn 0.9998 0.0160 0.0073
vn 0.9994 -0.0346 -0.0014
vn 0.9998 -0.0174 0.0034
vn -0.0001 -0.9446 0.3281
vn 0.9998 -0.0162 0.0073
vn -0.0000 -0.8124 0.5831
vn 0.9998 -0.0142 0.0108
vn -0.0001 -0.6132 0.7899
vn 0.9998 -0.0114 0.0138
vn -0.0000 -0.4507 0.8927
vn 0.9993 -0.0360 0.0074
vn 0.9999 -0.0140 0.0061
vn -0.0000 -0.9845 0.1755
vn 1.0000 0.0008 -0.0025
vn 1.0000 0.0001 -0.0007
vn 1.0000 0.0081 -0.0016
vn 1.0000 0.0046 -0.0020
vn 1.0000 0.0030 -0.0022
vn -0.0001 0.1865 0.9825
vn -0.0000 -0.1716 0.9852
vn -0.0000 -0.9619 -0.2734
vn -0.0000 0.9968 0.0800
vn -0.0000 0.7207 -0.6932
vn 0.9998 -0.0020 -0.0205
vn -0.0000 -0.8368 -0.5475
vn 1.0000 0.0021 -0.0023
vn 1.0000 0.0014 -0.0024
vn -0.0000 0.8127 0.5827
vn -0.0000 0.8619 0.5070
vn 1.0000 -0.0001 -0.0000
vn -0.0000 0.9800 0.1990
vn -0.0000 0.9834 0.1812
vn -0.0000 0.9921 -0.1252
vn -0.0001 0.9170 -0.3990
vn -0.0001 0.9739 -0.2271
vn -0.0000 0.9978 0.0662
vn 1.0000 -0.0017 0.0052
vn 1.0000 -0.0001 0.0009
vn -0.0001 -0.9994 -0.0342
vn 0.9980 0.0403 0.0489
vn 1.0000 0.0064 0.0049
vn 1.0000 0.0087 0.0039
vn 0.9997 0.0253 0.0049
vn 0.9999 -0.0083 0.0060
vn 1.0000 -0.0042 0.0047
vn 1.0000 -0.0030 0.0051
vn -0.0000 0.8692 0.4944
vn -0.0000 0.9780 0.2084
vn -0.0001 0.9953 -0.0970
vn -0.0000 0.9194 -0.3933
vn 1.0000 -0.0000 0.0001
vn -0.0000 0.7575 -0.6529
vn -0.0001 0.5246 -0.8513
vn -0.0000 0.2327 -0.9726
vn -0.0000 0.1792 -0.9838
vn 1.0000 -0.0001 0.0001
vn -0.0001 0.0365 -0.9993
vn -0.0000 -0.3727 -0.9279
vn 1.0000 0.0004 -0.0023
vn 1.0000 -0.0057 -0.0060
vn -0.0000 0.7207 -0.6933
vn -0.0000 -0.9754 -0.2207
vn 0.0001 0.7207 -0.6933
vn -0.0000 -0.5393 0.8421
vn -0.0001 -0.8390 0.5441
vn -0.0000 -0.9889 0.1486
vn 0.9994 -0.0154 0.0310
vn 0.9999 -0.0037 0.0157
vn 0.9996 -0.0000 0.0292
vn 0.9998 -0.0052 -0.0165
vn 0.9999 -0.0054 -0.0095
vn -0.0000 -0.7564 -0.6541
vn 1.0000 -0.0058 -0.0066
vn -0.0000 -0.8011 -0.5985
vn 1.0000 -0.0071 -0.0052
vn -0.0001 -0.9263 -0.3768
vn 1.0000 -0.0081 -0.0037
vn -0.0000 -0.9914 -0.1307
vn 1.0000 -0.0022 -0.0000
vn -0.0000 -0.9213 0.3888
vn -0.0000 -0.9282 0.3721
vn 0.9998 -0.0172 -0.0038
vn -0.0000 -0.9923 0.1239
vn -0.0000 -0.7870 -0.6170
vn -1.0000 -0.0000 0.0001
vn -1.0000 0.0001 -0.0000
vn -1.0000 -0.0000 -0.0000
vn 0.0001 0.8126 0.5828
vn 0.0001 0.1502 -0.9887
vn -1.0000 0.0002 -0.0011
vn -0.0000 0.2050 -0.9788
vn -1.0000 -0.0001 -0.0000
vn -0.0000 0.4343 -0.9008
vn -0.0000 0.6863 -0.7273
vn -0.0000 0.8741 -0.4858
vn -1.0000 0.0001 0.0001
vn -1.0000 -0.0000 -0.0001
vn 0.0001 0.9155 0.4024
vn -0.0000 0.9943 0.1067
vn 0.0001 0.9800 -0.1988
vn -0.0035 0.7279 -0.6856
vn 0.0001 0.9967 0.0814
vn -0.0000 0.7208 -0.6932
vn -1.0000 -0.0014 -0.0005
vn -1.0000 -0.0016 -0.0010
vn -1.0000 0.0088 -0.0033
vn -0.9999 0.0116 -0.0013
vn -0.0000 -0.4684 -0.8835
vn -0.0000 -0.9780 -0.2086
vn -0.0000 -0.9887 -0.1497
vn -1.0000 -0.0052 -0.0024
vn -0.9999 0.0121 0.0014
vn -0.9999 0.0128 0.0046
vn -1.0000 0.0022 0.0014
vn -0.0001 0.7207 -0.6932
vn -1.0000 -0.0056 -0.0055
vn -1.0000 -0.0026 -0.0040
vn -1.0000 -0.0013 -0.0034
vn -1.0000 -0.0005 -0.0030
vn -1.0000 0.0001 -0.0027
vn -0.0000 -0.5340 0.8455
vn -0.9980 0.0438 0.0458
vn -0.9992 0.0203 0.0344
vn -0.0000 0.9569 0.2903
vn -0.9999 0.0062 0.0093
vn -1.0000 0.0008 0.0019
vn -1.0000 -0.0022 0.0084
vn -0.0000 -0.9214 0.3887
vn -1.0000 -0.0002 0.0043
vn -1.0000 0.0012 0.0074
vn -1.0000 -0.0048 -0.0051
vn -0.9999 -0.0130 -0.0101
vn -0.0000 -0.9880 -0.1542
vn -0.0000 -0.8923 -0.4514
vn -0.9989 -0.0459 -0.0069
vn -0.0000 -0.9176 0.3975
vn -1.0000 -0.0078 0.0041
vn 0.0001 -0.9781 0.2083
vn -0.9998 -0.0169 0.0047
vn -1.0000 -0.0030 0.0002
vn 0.0001 -0.9993 0.0363
vn 0.0001 0.8958 0.4446
vn -1.0000 0.0006 -0.0025
vn -1.0000 0.0006 -0.0011
vn -0.0000 0.9834 0.1813
vn -1.0000 0.0059 -0.0075
vn -0.0000 0.9677 -0.2521
vn -0.9999 0.0079 -0.0065
vn -0.0000 0.9169 -0.3991
vn -1.0000 0.0073 -0.0038
vn -0.0000 0.9467 -0.3222
vn -1.0000 0.0079 -0.0022
vn -0.0000 0.9995 -0.0328
vn -1.0000 0.0082 -0.0005
vn -0.0000 0.9657 0.2595
vn -0.9998 0.0176 0.0026
vn -1.0000 0.0077 0.0029
vn -0.9999 0.0100 0.0064
vn -0.9999 0.0120 0.0118
vn 0.0001 -0.9898 0.1425
vn -0.9998 -0.0178 0.0006
vn -0.9994 -0.0336 -0.0067
vn -0.0000 -0.0487 0.9988
vn -0.0000 0.2879 0.9576
vn -0.0000 0.5673 0.8235
vn -0.9995 0.0095 0.0305
vn -0.9999 0.0011 0.0156
vn 0.0001 -0.4508 0.8926
vn -1.0000 -0.0039 0.0079
vn -1.0000 -0.0018 0.0022
vn -0.9998 -0.0143 0.0118
vn -0.0000 -0.7563 -0.6542
vn 0.0001 -0.8493 -0.5279
vn -0.9994 -0.0054 0.0344
vn -0.9998 -0.0067 0.0165
vn -0.9998 -0.0103 0.0145
vn -0.0000 -0.7523 0.6588
vn -0.9998 -0.0134 0.0118
vn -0.0000 -0.9085 0.4179
vn -0.9998 -0.0158 0.0085
vn -0.9994 -0.0337 0.0091
vn -0.0000 -0.9551 -0.2962
vn -0.0000 -0.9990 -0.0456
vn -0.0000 -0.9912 -0.1324
vn -0.0000 -0.9573 0.2891
vn -0.0000 -0.4127 0.9109
vn -0.0000 -0.7523 0.6589
vn -0.0000 -0.2667 -0.9638
vn -0.0019 0.1924 -0.9813
vn -0.0000 -0.7684 -0.6399
vn -0.0140 -0.8132 -0.5818
vn -0.0081 -0.8773 -0.4799
vn -0.0178 -0.8941 -0.4476
vn -0.0042 -0.9631 -0.2690
vn -0.0140 -0.9870 -0.1602
vn -0.0081 -0.9991 -0.0408
vn -0.0178 -0.9998 -0.0042
vn -0.0041 -0.9824 0.1866
vn -0.0140 -0.9555 0.2946
vn -0.0081 -0.9135 0.4069
vn -0.0178 -0.8978 0.4401
vn -0.0041 -0.7974 0.6034
vn -0.0140 -0.7253 0.6883
vn -0.0081 -0.6380 0.7700
vn -0.0178 -0.6091 0.7929
vn -0.0041 -0.4465 0.8948
vn -0.0140 -0.3443 0.9387
vn -0.0081 -0.2301 0.9731
vn -0.0178 -0.1938 0.9809
vn -0.0042 -0.0027 1.0000
vn -0.0140 0.1083 0.9940
vn -0.0081 0.2257 0.9742
vn -0.0178 0.2617 0.9650
vn -0.0041 0.4416 0.8972
vn -0.0140 0.5384 0.8426
vn -0.0081 0.6346 0.7728
vn -0.0178 0.6629 0.7485
vn -0.0042 0.7941 0.6078
vn -0.0140 0.8565 0.5159
vn -0.0081 0.9116 0.4109
vn -0.0178 0.9263 0.3764
vn -0.0042 0.9814 0.1920
vn -0.0140 0.9965 0.0820
vn -0.0081 0.9993 -0.0363
vn -0.0178 0.9971 -0.0739
vn -0.0040 0.9737 -0.2276
vn -0.0111 0.9419 -0.3358
vn -0.0001 0.9129 -0.4083
vn -0.0059 0.1924 -0.9813
vn 0.0001 0.1924 -0.9813
vn -0.0000 0.1924 -0.9813
vn -0.9802 -0.1531 0.1257
vn -0.9716 -0.1088 0.2103
vn -0.9119 -0.0211 0.4099
vn -0.7058 0.2813 0.6502
vn 0.0037 0.1924 -0.9813
vn -0.0000 0.9532 -0.3024
vn 0.0107 0.9733 -0.2292
vn 0.0081 0.9936 -0.1131
vn 0.0178 0.9969 -0.0768
vn 0.0042 0.9934 0.1146
vn 0.0140 0.9744 0.2244
vn 0.0081 0.9405 0.3396
vn 0.0178 0.9274 0.3737
vn 0.0041 0.8392 0.5438
vn 0.0140 0.7735 0.6337
vn 0.0081 0.6922 0.7217
vn 0.0178 0.6651 0.7466
vn 0.0041 0.5105 0.8599
vn 0.0140 0.4117 0.9112
vn 0.0081 0.3000 0.9539
vn 0.0178 0.2645 0.9642
vn 0.0042 0.0755 0.9971
vn 0.0140 -0.0357 0.9993
vn 0.0081 -0.1545 0.9880
vn 0.0178 -0.1910 0.9814
vn 0.0042 -0.3751 0.9270
vn 0.0140 -0.4757 0.8795
vn 0.0081 -0.5769 0.8168
vn 0.0178 -0.6068 0.7947
vn 0.0041 -0.7477 0.6640
vn 0.0140 -0.8167 0.5769
vn 0.0082 -0.8794 0.4760
vn 0.0178 -0.8965 0.4427
vn 0.0041 -0.9648 0.2629
vn 0.0140 -0.9879 0.1543
vn 0.0081 -0.9993 0.0363
vn 0.0178 -0.9998 -0.0013
vn 0.0042 -0.9812 -0.1929
vn 0.0140 -0.9537 -0.3004
vn 0.0081 -0.9116 -0.4110
vn 0.0178 -0.8954 -0.4449
vn 0.0040 -0.8157 -0.5785
vn 0.0100 -0.7460 -0.6659
vn -0.0000 0.1925 -0.9813
vn 0.0036 0.1924 -0.9813
vn 0.9674 -0.1639 -0.1931
vn -0.0001 0.1924 -0.9813
vn 0.9762 -0.0783 0.2021
vn 0.7058 -0.5060 0.4958
vn 0.7071 0.0256 0.7066
vn 0.9857 0.0801 0.1481
vn 0.0209 -0.8305 0.5567
vn -0.0000 -0.7923 0.6101
vn 0.0121 -0.6726 0.7399
vn -0.0000 -0.6217 0.7833
vn 0.0121 -0.5040 0.8636
vn 0.0092 -0.4139 0.9103
vn 0.0294 -0.2815 0.9591
vn 0.0183 -0.2493 0.9683
vn 0.0208 -0.1420 0.9896
vn 0.0093 -0.0421 0.9991
vn 0.0294 0.1330 0.9907
vn 0.0182 0.1661 0.9859
vn 0.0208 0.2728 0.9619
vn 0.0093 0.3679 0.9298
vn 0.0294 0.5244 0.8509
vn 0.0183 0.5527 0.8332
vn 0.0209 0.6404 0.7677
vn 0.0093 0.7143 0.6998
vn 0.0294 0.8252 0.5641
vn 0.0183 0.8438 0.5363
vn 0.0209 0.8973 0.4409
vn 0.0093 0.9372 0.3487
vn 0.0294 0.9833 0.1797
vn 0.0183 0.9890 0.1467
vn 0.0209 0.9991 0.0378
vn 0.0093 0.9980 -0.0626
vn 0.0294 0.9714 -0.2358
vn 0.0183 0.9632 -0.2682
vn 0.0209 0.9281 -0.3718
vn 0.0093 0.8863 -0.4631
vn 0.0294 0.7915 -0.6105
vn 0.0183 0.7708 -0.6368
vn 0.0209 0.6966 -0.7172
vn 0.0093 0.6213 -0.7835
vn 0.0294 0.4747 -0.8796
vn 0.0183 0.4452 -0.8953
vn 0.0209 0.3447 -0.9385
vn 0.0093 0.2489 -0.9685
vn 0.0294 0.0759 -0.9967
vn 0.0183 0.0425 -0.9989
vn 0.0209 -0.0668 -0.9975
vn 0.0093 -0.1666 -0.9860
vn 0.0294 -0.3360 -0.9414
vn 0.0183 -0.3674 -0.9299
vn 0.0209 -0.4668 -0.8841
vn 0.0093 -0.5532 -0.8330
vn 0.0294 -0.6899 -0.7233
vn 0.0182 -0.7139 -0.7000
vn 0.0209 -0.7860 -0.6178
vn 0.0093 -0.8442 -0.5360
vn 0.0294 -0.9244 -0.3802
vn 0.0183 -0.9369 -0.3491
vn 0.0209 -0.9694 -0.2447
vn 0.0093 -0.9892 -0.1463
vn 0.0294 -0.9992 0.0287
vn 0.0183 -0.9979 0.0621
vn 0.0209 -0.9851 0.1707
vn 0.0093 -0.9632 0.2687
vn 0.0294 -0.9011 0.4326
vn 0.0182 -0.8864 0.4626
vn -0.0185 -0.2831 0.9589
vn -0.0185 -0.6486 0.7609
vn -0.0224 -0.4773 0.8785
vn -0.0177 -0.2853 0.9583
vn -0.0224 -0.0787 0.9966
vn -0.0185 0.1314 0.9912
vn -0.0177 0.1291 0.9915
vn -0.0223 0.3335 0.9425
vn -0.0185 0.5232 0.8520
vn -0.0177 0.5212 0.8532
vn -0.0224 0.6880 0.7254
vn -0.0185 0.8245 0.5655
vn -0.0177 0.8232 0.5675
vn -0.0223 0.9236 0.3828
vn -0.0185 0.9833 0.1813
vn -0.0177 0.9828 0.1836
vn -0.0223 0.9994 -0.0259
vn -0.0185 0.9720 -0.2343
vn -0.0177 0.9725 -0.2321
vn -0.0224 0.9025 -0.4302
vn -0.0138 0.8520 -0.5233
vn -0.0121 0.7729 -0.6344
vn -0.0000 0.6749 -0.7379
vn -0.0121 0.6241 -0.7812
vn -0.0110 0.4203 -0.9073
vn -0.0177 0.4783 -0.8780
vn -0.0224 0.2842 -0.9585
vn -0.0185 0.0775 -0.9968
vn -0.0177 0.0798 -0.9967
vn -0.0223 -0.1303 -0.9912
vn -0.0185 -0.3346 -0.9422
vn -0.0177 -0.3325 -0.9430
vn -0.0224 -0.5222 -0.8526
vn -0.0185 -0.6889 -0.7246
vn -0.0177 -0.6872 -0.7262
vn -0.0223 -0.8238 -0.5665
vn -0.0185 -0.9241 -0.3818
vn -0.0177 -0.9232 -0.3839
vn -0.0223 -0.9830 -0.1824
vn -0.0185 -0.9995 0.0271
vn -0.0177 -0.9995 0.0248
vn -0.0223 -0.9722 0.2332
vn -0.0185 -0.9020 0.4313
vn -0.0177 -0.9030 0.4292
vn -0.0224 -0.7933 0.6084
vn -0.0177 -0.6504 0.7594
vn -0.8674 0.3170 -0.3836
vn -0.8674 0.2303 -0.4411
vn -0.8674 0.1336 -0.4794
vn -0.8674 0.0310 -0.4967
vn -0.8674 -0.0730 -0.4922
vn -0.8674 -0.1737 -0.4663
vn -0.8674 -0.2669 -0.4200
vn -0.8674 -0.3484 -0.3554
vn -0.8674 -0.4146 -0.2752
vn -0.8674 -0.4628 -0.1829
vn -0.8674 -0.4907 -0.0827
vn -0.8674 -0.4972 0.0211
vn -0.8674 -0.4819 0.1240
vn -0.8674 -0.4456 0.2215
vn -0.8674 -0.3898 0.3093
vn -0.8674 -0.3170 0.3836
vn -0.8674 -0.2303 0.4411
vn -0.8674 -0.1336 0.4794
vn -0.8674 -0.0310 0.4967
vn -0.8674 0.0730 0.4922
vn -0.8674 0.1737 0.4663
vn -0.8674 0.2669 0.4200
vn -0.8674 0.3484 0.3554
vn -0.8674 0.4146 0.2752
vn -0.8674 0.4628 0.1829
vn -0.8674 0.4907 0.0827
vn -0.8674 0.4972 -0.0211
vn -0.8674 0.4819 -0.1240
vn -0.8674 0.4456 -0.2215
vn -0.8674 0.3898 -0.3093
vn -0.5014 0.5581 -0.6611
vn -0.5014 0.4085 -0.7627
vn -0.5014 0.2410 -0.8310
vn -0.5014 0.0629 -0.8629
vn -0.5014 -0.1179 -0.8571
vn -0.5014 -0.2935 -0.8139
vn -0.5014 -0.4563 -0.7351
vn -0.5014 -0.5992 -0.6242
vn -0.5014 -0.7158 -0.4859
vn -0.5014 -0.8012 -0.3265
vn -0.5014 -0.8516 -0.1528
vn -0.5014 -0.8648 0.0276
vn -0.5014 -0.8401 0.2068
vn -0.5014 -0.7788 0.3770
vn -0.5014 -0.6834 0.5306
vn -0.5014 -0.5581 0.6611
vn -0.5014 -0.4085 0.7627
vn -0.5014 -0.2410 0.8310
vn -0.5014 -0.0629 0.8629
vn -0.5014 0.1179 0.8571
vn -0.5014 0.2935 0.8139
vn -0.5014 0.4563 0.7351
vn -0.5014 0.5992 0.6242
vn -0.5014 0.7158 0.4859
vn -0.5014 0.8012 0.3265
vn -0.5014 0.8516 0.1528
vn -0.5014 0.8648 -0.0276
vn -0.5014 0.8401 -0.2068
vn -0.5014 0.7788 -0.3770
vn -0.5014 0.6834 -0.5306
vn 0.5014 0.5644 -0.6557
vn 0.5014 0.4158 -0.7588
vn 0.5014 0.2489 -0.8286
vn 0.5014 0.0712 -0.8623
vn 0.5014 -0.1096 -0.8582
vn 0.5014 -0.2857 -0.8167
vn 0.5014 -0.4492 -0.7395
vn 0.5014 -0.5931 -0.6299
vn 0.5014 -0.7111 -0.4928
vn 0.5014 -0.7981 -0.3342
vn 0.5014 -0.8501 -0.1609
vn 0.5014 -0.8650 0.0193
vn 0.5014 -0.8421 0.1987
vn 0.5014 -0.7823 0.3695
vn 0.5014 -0.6884 0.5241
vn 0.5014 -0.5644 0.6557
vn 0.5014 -0.4157 0.7588
vn 0.5014 -0.2489 0.8286
vn 0.5014 -0.0712 0.8623
vn 0.5014 0.1096 0.8582
vn 0.5014 0.2857 0.8167
vn 0.5014 0.4492 0.7394
vn 0.5014 0.5931 0.6299
vn 0.5014 0.7111 0.4928
vn 0.5014 0.7981 0.3342
vn 0.5014 0.8501 0.1610
vn 0.5014 0.8650 -0.0193
vn 0.5014 0.8421 -0.1987
vn 0.5014 0.7823 -0.3695
vn 0.5014 0.6884 -0.5241
vn 0.8674 0.3286 -0.3737
vn 0.8674 0.2437 -0.4339
vn 0.8674 0.1482 -0.4750
vn 0.8674 0.0462 -0.4955
vn 0.8674 -0.0579 -0.4942
vn 0.8674 -0.1594 -0.4714
vn 0.8674 -0.2539 -0.4280
vn 0.8674 -0.3373 -0.3658
vn 0.8674 -0.4060 -0.2877
vn 0.8674 -0.4570 -0.1970
vn 0.8674 -0.4879 -0.0977
vn 0.8674 -0.4976 0.0059
vn 0.8674 -0.4855 0.1092
vn 0.8674 -0.4522 0.2078
vn 0.8674 -0.3991 0.2972
vn 0.8674 -0.3286 0.3737
vn 0.8674 -0.2437 0.4339
vn 0.8674 -0.1482 0.4750
vn 0.8674 -0.0461 0.4955
vn 0.8674 0.0579 0.4942
vn 0.8674 0.1594 0.4714
vn 0.8674 0.2539 0.4280
vn 0.8674 0.3373 0.3658
vn 0.8674 0.4060 0.2877
vn 0.8674 0.4570 0.1970
vn 0.8674 0.4879 0.0977
vn 0.8674 0.4976 -0.0059
vn 0.8674 0.4855 -0.1092
vn 0.8674 0.4522 -0.2078
vn 0.8674 0.3991 -0.2972
vn 0.1902 0.1889 -0.9634
vn 0.2571 0.1860 -0.9483
vn 0.4529 0.1716 -0.8749
vn 0.6147 0.1517 -0.7740
vn 0.4530 0.1716 -0.8749
vn 0.9143 0.1135 -0.3889
vn 0.8930 0.0867 -0.4417
vn 0.8450 0.1029 -0.5247
vn 0.7617 0.1247 -0.6358
vn 0.7043 0.1366 -0.6967
vn 0.6143 0.1518 -0.7743
vn 0.9890 0.0494 -0.1391
vn 0.9760 0.0512 -0.2118
vn 0.9879 0.0298 -0.1519
vn 0.8930 0.0866 -0.4417
vn 0.9738 0.0437 -0.2231
vn 0.5753 -0.5649 -0.5915
vn 0.9079 -0.2896 -0.3032
vn 0.8464 0.5112 -0.1492
vn 0.4251 0.8639 -0.2700
vn 0.5031 -0.6622 -0.5553
vn 0.5031 -0.7714 -0.3896
vn 0.5031 -0.8399 -0.2035
vn 0.5031 -0.8642 -0.0066
vn 0.5031 -0.8429 0.1907
vn 0.5031 -0.7772 0.3778
vn 0.5031 -0.6706 0.5451
vn 0.5031 -0.5287 0.6837
vn 0.5031 -0.3588 0.7862
vn 0.5031 -0.1701 0.8473
vn 0.5031 0.0276 0.8638
vn 0.5031 0.2238 0.8347
vn 0.5031 0.4083 0.7617
vn 0.5031 0.5712 0.6485
vn 0.5031 0.7040 0.5012
vn 0.5031 0.7998 0.3274
vn 0.5031 0.8534 0.1364
vn 0.5031 0.8620 -0.0618
vn 0.8690 -0.3757 -0.3222
vn 0.8690 -0.4392 -0.2280
vn 0.8690 -0.4797 -0.1219
vn 0.8690 -0.4948 -0.0093
vn 0.8690 -0.4839 0.1038
vn 0.8690 -0.4475 0.2114
vn 0.8689 -0.3875 0.3079
vn 0.8689 -0.3071 0.3881
vn 0.8689 -0.2105 0.4479
vn 0.8689 -0.1028 0.4841
vn 0.8689 0.0103 0.4948
vn 0.8689 0.1229 0.4794
vn 0.8689 0.2289 0.4388
vn 0.8689 0.3230 0.3750
vn 0.8690 0.4000 0.2915
vn 0.8690 0.4559 0.1926
vn 0.8689 0.4878 0.0836
vn 0.8690 0.4940 -0.0299
vn -0.2170 0.1878 -0.9579
vn -0.7043 0.1366 -0.6967
vn -0.6501 0.1462 -0.7457
vn -0.6214 0.2615 -0.7385
vn -0.4529 0.1715 -0.8749
vn -0.4529 0.1716 -0.8749
vn -0.2168 0.1879 -0.9580
vn -0.7928 0.1173 -0.5981
vn -0.8160 0.1112 -0.5673
vn -0.7043 0.1365 -0.6967
vn -0.8930 0.0866 -0.4417
vn -0.9115 0.1097 -0.3965
vn -0.8930 0.0867 -0.4417
vn -0.9624 0.0522 -0.2665
vn -0.9821 0.0466 -0.1826
vn -0.9879 0.0298 -0.1520
vn -0.9890 0.0495 -0.1391
vn -0.5500 0.7985 -0.2448
vn -0.8964 0.4220 -0.1355
vn -0.8183 -0.3970 -0.4157
vn -0.4199 -0.6269 -0.6563
vn -0.8689 -0.3855 -0.3103
vn -0.8689 -0.4461 -0.2142
vn -0.8690 -0.4832 -0.1068
vn -0.8689 -0.4949 0.0062
vn -0.8690 -0.4804 0.1188
vn -0.8689 -0.4407 0.2253
vn -0.8689 -0.3777 0.3198
vn -0.8689 -0.2948 0.3975
vn -0.8689 -0.1964 0.4543
vn -0.8689 -0.0876 0.4871
vn -0.8689 0.0257 0.4942
vn -0.8690 0.1377 0.4753
vn -0.8690 0.2425 0.4314
vn -0.8689 0.3345 0.3647
vn -0.8690 0.4089 0.2789
vn -0.8689 0.4617 0.1783
vn -0.8689 0.4902 0.0683
vn -0.8690 0.4928 -0.0453
vn -0.5031 -0.6671 -0.5493
vn -0.5031 -0.7748 -0.3827
vn -0.5031 -0.8417 -0.1960
vn -0.5031 -0.8642 0.0011
vn -0.5031 -0.8412 0.1982
vn -0.5031 -0.7738 0.3848
vn -0.5031 -0.6657 0.5511
vn -0.5031 -0.5225 0.6884
vn -0.5031 -0.3518 0.7894
vn -0.5031 -0.1625 0.8488
vn -0.5031 0.0353 0.8635
vn -0.5031 0.2313 0.8327
vn -0.5031 0.4151 0.7580
vn -0.5031 0.5770 0.6434
vn -0.5031 0.7085 0.4949
vn -0.5031 0.8027 0.3203
vn -0.5031 0.8546 0.1288
vn -0.5031 0.8614 -0.0695
s 1
usemtl black
f 1//1 2//2 3//3
f 3//3 2//2 4//3
f 3//3 4//3 5//4
f 5//4 4//3 6//3
f 5//4 6//3 7//5
f 8//6 9//7 10//8
f 11//9 12//10 13//11
f 10//8 14//12 8//6
f 8//6 14//12 15//13
f 8//6 15//13 16//14
f 17//3 18//15 19//16
f 20//17 21//18 22//19
f 23//20 24//21 25//22
f 26//23 27//3 28//24
f 28//24 27//3 29//25
f 11//9 13//11 30//26
f 30//26 13//11 31//27
f 30//26 31//27 32//28
f 32//28 31//27 33//29
f 32//28 33//29 29//25
f 15//13 34//30 16//14
f 16//14 34//30 35//31
f 16//14 35//31 36//32
f 36//32 35//31 37//33
f 36//32 37//33 38//34
f 38//34 37//33 39//35
f 38//34 39//35 40//36
f 40//36 39//35 41//37
f 40//36 41//37 42//38
f 43//39 44//40 45//41
f 46//42 47//43 26//23
f 28//24 48//44 26//23
f 26//23 48//44 49//45
f 26//23 49//45 50//46
f 19//16 51//47 17//3
f 17//3 51//47 52//48
f 17//3 52//48 53//49
f 12//10 11//9 21//18
f 21//18 11//9 54//50
f 21//18 54//50 22//19
f 55//3 56//51 25//22
f 47//43 57//52 58//53
f 50//46 59//54 26//23
f 26//23 59//54 60//55
f 26//23 60//55 46//42
f 61//56 62//57 63//58
f 63//58 62//57 64//59
f 63//58 64//59 27//3
f 27//3 64//59 65//60
f 27//3 65//60 29//25
f 29//25 65//60 66//61
f 29//25 66//61 67//62
f 67//62 68//63 29//25
f 29//25 68//63 69//64
f 29//25 69//64 32//28
f 70//65 71//66 72//67
f 72//67 71//66 73//3
f 24//21 74//68 25//22
f 25//22 74//68 75//69
f 25//22 75//69 55//3
f 55//3 75//69 76//70
f 55//3 76//70 6//3
f 6//3 76//70 77//71
f 6//3 77//71 7//5
f 44//40 78//72 45//41
f 45//41 78//72 79//73
f 45//41 79//73 72//67
f 72//67 79//73 80//74
f 72//67 80//74 70//65
f 61//56 63//58 81//75
f 81//75 63//58 82//3
f 81//75 82//3 83//76
f 83//76 82//3 84//3
f 83//76 84//3 85//77
f 85//77 84//3 86//3
f 85//77 86//3 87//78
f 87//78 86//3 88//79
f 87//78 88//79 89//80
f 89//80 88//79 90//3
f 89//80 90//3 91//81
f 91//81 90//3 92//3
f 91//81 92//3 93//82
f 93//82 92//3 94//3
f 93//82 94//3 95//83
f 94//3 96//84 95//83
f 95//83 96//84 97//3
f 95//83 97//3 98//85
f 98//85 97//3 1//1
f 98//85 1//1 99//86
f 99//86 1//1 100//79
f 100//79 1//1 3//3
f 100//79 3//3 101//51
f 101//51 3//3 102//87
f 101//51 102//87 9//7
f 9//7 102//87 103//88
f 9//7 103//88 10//8
f 18//15 17//3 104//51
f 104//51 17//3 105//89
f 104//51 105//89 106//51
f 106//51 105//89 73//3
f 106//51 73//3 22//19
f 22//19 73//3 71//66
f 22//19 71//66 20//17
f 58//53 107//90 47//43
f 47//43 107//90 108//1
f 47//43 108//1 26//23
f 26//23 108//1 109//51
f 26//23 109//51 55//3
f 55//3 109//51 110//91
f 55//3 110//91 56//51
f 111//92 112//93 52//48
f 52//48 112//93 113//94
f 52//48 113//94 53//49
f 41//37 114//95 42//38
f 42//38 114//95 115//96
f 42//38 115//96 25//22
f 25//22 115//96 116//97
f 25//22 116//97 23//20
f 57//52 117//98 58//53
f 58//53 117//98 118//99
f 58//53 118//99 119//100
f 119//100 118//99 120//101
f 119//100 120//101 121//102
f 121//102 120//101 122//103
f 121//102 122//103 123//104
f 123//104 122//103 124//105
f 123//104 124//105 125//106
f 43//39 45//41 126//107
f 126//107 45//41 127//108
f 126//107 127//108 128//109
f 124//105 129//110 125//106
f 125//106 129//110 126//107
f 125//106 126//107 130//111
f 130//111 126//107 128//109
f 131//112 132//113 133//114
f 134//115 135//116 136//115
f 137//113 138//114 139//117
f 140//114 141//114 142//115
f 142//115 141//114 143//114
f 142//115 143//114 144//118
f 139//117 138//114 145//119
f 145//119 138//114 146//120
f 145//119 146//120 147//121
f 147//121 146//120 148//113
f 147//121 148//113 149//122
f 150//120 151//123 152//115
f 152//115 151//123 149//122
f 152//115 149//122 153//115
f 153//115 149//122 148//113
f 133//114 132//113 154//124
f 136//115 135//116 155//125
f 155//125 135//116 156//126
f 155//125 156//126 157//125
f 157//125 156//126 158//127
f 157//125 158//127 150//120
f 150//120 158//127 159//128
f 150//120 159//128 151//123
f 160//115 161//129 162//120
f 162//120 161//129 163//19
f 164//130 165//131 166//115
f 162//120 167//132 168//133
f 140//114 142//115 169//114
f 169//114 142//115 170//134
f 169//114 170//134 171//135
f 137//113 139//117 172//113
f 172//113 139//117 173//51
f 172//113 173//51 133//114
f 133//114 173//51 174//136
f 133//114 174//136 131//112
f 175//137 176//138 177//139
f 171//135 178//140 169//114
f 169//114 178//140 179//141
f 169//114 179//141 180//142
f 136//115 162//120 134//115
f 134//115 162//120 168//133
f 134//115 168//133 181//143
f 181//143 168//133 182//144
f 181//143 182//144 183//145
f 183//145 184//146 181//143
f 181//143 184//146 185//147
f 181//143 185//147 186//148
f 162//120 169//114 160//115
f 160//115 169//114 180//142
f 160//115 180//142 187//149
f 187//149 180//142 188//150
f 187//149 188//150 189//151
f 190//152 191//153 165//131
f 165//131 191//153 192//154
f 165//131 192//154 166//115
f 193//155 194//156 195//157
f 195//157 194//156 166//115
f 195//157 166//115 196//158
f 196//158 166//115 192//154
f 143//114 154//124 144//118
f 144//118 154//124 132//113
f 144//118 132//113 197//159
f 197//159 132//113 175//137
f 197//159 175//137 198//160
f 198//160 175//137 177//139
f 163//19 199//161 162//120
f 162//120 199//161 200//115
f 162//120 200//115 167//132
f 167//132 200//115 201//162
f 167//132 201//162 202//163
f 203//164 204//165 205//166
f 205//166 204//165 206//167
f 205//166 206//167 207//168
f 166//115 208//169 164//130
f 164//130 208//169 209//131
f 164//130 209//131 210//143
f 210//143 209//131 211//51
f 212//51 213//51 211//51
f 211//51 213//51 214//170
f 211//51 214//170 210//143
f 186//148 215//171 181//143
f 181//143 215//171 216//172
f 181//143 216//172 217//173
f 217//173 216//172 218//174
f 217//173 218//174 219//175
f 219//175 218//174 220//176
f 219//175 220//176 221//177
f 221//177 220//176 222//178
f 221//177 222//178 223//179
f 223//179 222//178 224//180
f 223//179 224//180 225//181
f 225//181 224//180 226//182
f 225//181 226//182 227//183
f 226//182 228//184 227//183
f 227//183 228//184 229//185
f 227//183 229//185 230//26
f 230//26 229//185 231//186
f 230//26 231//186 190//152
f 190//152 231//186 232//187
f 190//152 232//187 191//153
f 233//188 234//189 176//138
f 176//138 234//189 235//190
f 176//138 235//190 177//139
f 236//191 237//192 212//51
f 212//51 237//192 238//193
f 212//51 238//193 213//51
f 189//151 239//194 187//149
f 187//149 239//194 240//195
f 187//149 240//195 241//196
f 193//155 242//197 194//156
f 194//156 242//197 243//198
f 194//156 243//198 203//164
f 203//164 243//198 244//199
f 203//164 244//199 204//165
f 202//163 201//162 207//168
f 207//168 201//162 245//200
f 207//168 245//200 246//201
f 240//195 247//202 241//196
f 241//196 247//202 248//203
f 241//196 248//203 249//149
f 249//149 248//203 250//204
f 249//149 250//204 251//205
f 251//205 250//204 252//206
f 251//205 252//206 253//207
f 253//207 252//206 254//208
f 253//207 254//208 233//188
f 233//188 254//208 255//209
f 233//188 255//209 234//189
f 246//201 256//210 207//168
f 207//168 256//210 257//211
f 207//168 257//211 205//166
f 212//51 258//212 259//213
f 236//191 212//51 260//214
f 260//214 212//51 259//213
f 260//214 259//213 261//215
f 22//19 164//130 210//143
f 22//19 210//143 106//51
f 106//51 210//143 214//170
f 106//51 214//170 104//51
f 104//51 214//170 213//51
f 104//51 213//51 18//15
f 18//15 213//51 238//193
f 18//15 238//193 19//16
f 19//16 238//193 237//192
f 19//16 237//192 51//47
f 51//47 237//192 236//191
f 51//47 236//191 52//48
f 52//48 236//191 260//214
f 52//48 260//214 111//92
f 111//92 260//214 261//215
f 111//92 261//215 112//93
f 112//93 261//215 259//213
f 112//93 259//213 113//94
f 113//94 259//213 258//212
f 113//94 258//212 53//49
f 53//49 258//212 212//51
f 53//49 212//51 17//3
f 17//3 212//51 105//89
f 105//89 212//51 211//51
f 105//89 211//51 73//3
f 73//3 211//51 209//131
f 73//3 209//131 72//67
f 72//67 209//131 208//169
f 72//67 208//169 45//41
f 45//41 208//169 166//115
f 45//41 166//115 127//108
f 127//108 166//115 194//156
f 128//109 127//108 203//164
f 203//164 127//108 194//156
f 128//109 203//164 205//166
f 128//109 205//166 130//111
f 130//111 205//166 257//211
f 130//111 257//211 125//106
f 125//106 257//211 256//210
f 125//106 256//210 123//104
f 123//104 256//210 246//201
f 123//104 246//201 121//102
f 121//102 246//201 245//200
f 121//102 245//200 119//100
f 200//115 199//161 107//90
f 107//90 199//161 108//1
f 108//1 199//161 109//51
f 109//51 199//161 163//19
f 109//51 163//19 110//91
f 110//91 163//19 161//129
f 110//91 161//129 56//51
f 56//51 161//129 160//115
f 56//51 160//115 25//22
f 25//22 160//115 187//149
f 25//22 187//149 42//38
f 42//38 187//149 241//196
f 176//138 175//137 8//6
f 8//6 175//137 9//7
f 139//117 145//119 95//83
f 95//83 145//119 93//82
f 93//82 145//119 147//121
f 93//82 147//121 91//81
f 91//81 147//121 149//122
f 91//81 149//122 89//80
f 89//80 149//122 151//123
f 89//80 151//123 87//78
f 87//78 151//123 159//128
f 87//78 159//128 85//77
f 85//77 159//128 158//127
f 85//77 158//127 83//76
f 83//76 158//127 156//126
f 83//76 156//126 81//75
f 81//75 156//126 135//116
f 81//75 135//116 61//56
f 65//60 64//59 217//173
f 217//173 64//59 181//143
f 67//62 221//177 223//179
f 67//62 223//179 68//63
f 68//63 223//179 225//181
f 68//63 225//181 69//64
f 69//64 225//181 227//183
f 69//64 227//183 32//28
f 32//28 227//183 230//26
f 32//28 230//26 30//26
f 165//131 164//130 54//50
f 54//50 164//130 22//19
f 262//216 263//217 264//218
f 264//218 263//217 265//219
f 264//218 265//219 266//220
f 266//220 265//219 267//221
f 266//220 267//221 268//222
f 268//222 267//221 269//223
f 268//222 269//223 270//224
f 270//224 269//223 271//225
f 270//224 271//225 272//226
f 272//226 271//225 273//227
f 272//226 273//227 274//228
f 274//228 273//227 275//229
f 274//228 275//229 276//230
f 276//230 275//229 277//231
f 276//230 277//231 278//232
f 278//232 277//231 279//233
f 278//232 279//233 280//234
f 280//234 279//233 281//235
f 280//234 281//235 282//236
f 282//236 281//235 283//237
f 282//236 283//237 284//238
f 284//238 283//237 285//239
f 284//238 285//239 286//240
f 286//240 285//239 287//241
f 286//240 287//241 288//242
f 288//242 287//241 289//243
f 288//242 289//243 290//244
f 290//244 289//243 291//245
f 290//244 291//245 292//246
f 292//246 291//245 293//247
f 292//246 293//247 294//248
f 294//248 293//247 295//249
f 294//248 295//249 296//250
f 296//250 295//249 297//251
f 296//250 297//251 298//252
f 298//252 297//251 299//253
f 298//252 299//253 300//254
f 300//254 299//253 301//255
f 300//254 301//255 302//256
f 302//256 301//255 303//257
f 302//256 303//257 304//258
f 304//258 303//257 263//217
f 304//258 263//217 305//259
f 305//259 263//217 262//216
f 306//115 307//260 308//115
f 304//258 305//259 309//115
f 309//115 305//259 310//115
f 309//115 310//115 311//115
f 311//115 310//115 308//115
f 308//115 310//115 312//115
f 308//115 312//115 306//115
f 307//260 313//261 308//115
f 308//115 313//261 314//262
f 308//115 314//262 315//263
f 316//259 317//264 318//265
f 318//265 317//264 319//266
f 318//265 319//266 320//267
f 320//267 319//266 321//268
f 320//267 321//268 322//269
f 322//269 321//268 323//270
f 322//269 323//270 324//271
f 324//271 323//270 325//272
f 324//271 325//272 326//273
f 326//273 325//272 327//274
f 326//273 327//274 328//275
f 328//275 327//274 329//276
f 328//275 329//276 330//277
f 330//277 329//276 331//278
f 330//277 331//278 332//279
f 332//279 331//278 333//280
f 332//279 333//280 334//281
f 334//281 333//280 335//282
f 334//281 335//282 336//283
f 336//283 335//282 337//284
f 336//283 337//284 338//285
f 338//285 337//284 339//286
f 338//285 339//286 340//287
f 340//287 339//286 341//288
f 340//287 341//288 342//289
f 342//289 341//288 343//290
f 342//289 343//290 344//291
f 344//291 343//290 345//292
f 344//291 345//292 346//293
f 346//293 345//292 347//294
f 346//293 347//294 348//295
f 348//295 347//294 349//296
f 348//295 349//296 350//297
f 350//297 349//296 351//298
f 350//297 351//298 352//299
f 352//299 351//298 353//300
f 352//299 353//300 354//301
f 354//301 353//300 355//302
f 354//301 355//302 356//303
f 356//303 355//302 357//304
f 358//305 356//303 359//306
f 359//306 356//303 357//304
f 359//306 357//304 316//259
f 316//259 357//304 317//264
f 360//307 361//308 362//3
f 362//3 363//3 364//3
f 358//305 359//306 365//3
f 365//3 359//306 363//3
f 365//3 363//3 366//3
f 366//3 363//3 362//3
f 367//309 360//307 368//310
f 368//310 360//307 362//3
f 368//310 362//3 369//3
f 369//3 362//3 364//3
f 90//3 370//58 92//3
f 92//3 370//58 371//3
f 92//3 371//3 94//3
f 94//3 371//3 372//3
f 94//3 372//3 96//84
f 96//84 372//3 373//3
f 96//84 373//3 97//3
f 97//3 373//3 374//3
f 97//3 374//3 1//1
f 1//1 374//3 375//3
f 1//1 375//3 2//2
f 2//2 375//3 376//3
f 2//2 376//3 4//3
f 4//3 376//3 377//3
f 4//3 377//3 6//3
f 6//3 377//3 378//3
f 6//3 378//3 55//3
f 55//3 378//3 379//3
f 55//3 379//3 26//23
f 26//23 379//3 380//3
f 26//23 380//3 27//3
f 27//3 380//3 381//3
f 27//3 381//3 63//58
f 63//58 381//3 382//3
f 63//58 382//3 82//3
f 82//3 382//3 383//3
f 82//3 383//3 84//3
f 84//3 383//3 384//3
f 84//3 384//3 86//3
f 86//3 384//3 385//3
f 86//3 385//3 88//79
f 88//79 385//3 386//3
f 88//79 386//3 90//3
f 90//3 386//3 370//58
f 386//3 385//3 387//3
f 386//3 387//3 370//58
f 373//3 372//3 387//3
f 387//3 372//3 371//3
f 387//3 371//3 370//58
f 376//3 375//3 387//3
f 387//3 375//3 374//3
f 387//3 374//3 373//3
f 379//3 378//3 387//3
f 387//3 378//3 377//3
f 387//3 377//3 376//3
f 382//3 381//3 387//3
f 387//3 381//3 380//3
f 387//3 380//3 379//3
f 385//3 384//3 387//3
f 387//3 384//3 383//3
f 387//3 383//3 382//3
f 388//311 389//312 390//313
f 390//313 389//312 391//314
f 390//313 391//314 392//315
f 392//315 391//314 393//316
f 392//315 393//316 394//317
f 394//317 393//316 395//318
f 394//317 395//318 396//319
f 396//319 395//318 397//320
f 396//319 397//320 398//321
f 398//321 397//320 399//322
f 398//321 399//322 400//323
f 400//323 399//322 401//324
f 400//323 401//324 402//325
f 402//325 401//324 403//326
f 402//325 403//326 404//327
f 404//327 403//326 405//328
f 404//327 405//328 406//329
f 406//329 405//328 407//330
f 406//329 407//330 408//331
f 408//331 407//330 409//332
f 408//331 409//332 410//333
f 410//333 409//332 411//334
f 410//333 411//334 412//335
f 412//335 411//334 413//336
f 412//335 413//336 414//337
f 414//337 413//336 415//338
f 414//337 415//338 416//339
f 416//339 415//338 417//340
f 416//339 417//340 418//341
f 418//341 417//340 419//342
f 418//341 419//342 420//343
f 420//343 419//342 421//344
f 420//343 421//344 422//345
f 422//345 421//344 423//346
f 422//345 423//346 424//347
f 424//347 423//346 425//348
f 424//347 425//348 426//349
f 426//349 425//348 427//350
f 426//349 427//350 428//351
f 428//351 427//350 429//352
f 428//351 429//352 430//353
f 430//353 429//352 431//354
f 430//353 431//354 432//355
f 432//355 431//354 433//356
f 432//355 433//356 434//357
f 434//357 433//356 435//358
f 434//357 435//358 436//359
f 436//359 435//358 437//360
f 436//359 437//360 438//361
f 438//361 437//360 439//362
f 438//361 439//362 440//363
f 440//363 439//362 441//364
f 440//363 441//364 442//365
f 442//365 441//364 443//366
f 442//365 443//366 444//367
f 444//367 443//366 445//368
f 444//367 445//368 446//369
f 446//369 445//368 447//370
f 446//369 447//370 388//311
f 388//311 447//370 389//312
f 448//3 449//3 450//3
f 451//3 452//3 450//3
f 450//3 452//3 453//3
f 450//3 453//3 448//3
f 454//3 455//3 450//3
f 450//3 455//3 456//3
f 450//3 456//3 451//3
f 457//3 458//3 450//3
f 450//3 458//3 459//3
f 450//3 459//3 454//3
f 460//3 461//3 450//3
f 450//3 461//3 462//3
f 450//3 462//3 457//3
f 449//3 463//3 450//3
f 450//3 463//3 464//3
f 450//3 464//3 460//3
f 152//115 153//115 465//115
f 465//115 466//113 152//115
f 152//115 466//113 467//115
f 152//115 467//115 150//120
f 150//120 467//115 468//115
f 150//120 468//115 157//125
f 157//125 468//115 469//115
f 157//125 469//115 155//125
f 155//125 469//115 470//115
f 155//125 470//115 136//115
f 136//115 470//115 471//115
f 136//115 471//115 162//120
f 162//120 471//115 472//115
f 162//120 472//115 169//114
f 169//114 472//115 473//115
f 169//114 473//115 140//114
f 140//114 473//115 474//115
f 140//114 474//115 141//114
f 141//114 474//115 475//115
f 141//114 475//115 143//114
f 143//114 475//115 476//115
f 143//114 476//115 154//124
f 154//124 476//115 477//115
f 154//124 477//115 133//114
f 133//114 477//115 478//115
f 133//114 478//115 172//113
f 172//113 478//115 479//115
f 172//113 479//115 137//113
f 137//113 479//115 480//115
f 137//113 480//115 138//114
f 138//114 480//115 481//115
f 138//114 481//115 146//120
f 146//120 481//115 465//115
f 146//120 465//115 148//113
f 148//113 465//115 153//115
f 474//115 473//115 482//115
f 474//115 482//115 475//115
f 478//115 477//115 482//115
f 482//115 477//115 476//115
f 482//115 476//115 475//115
f 481//115 480//115 482//115
f 482//115 480//115 479//115
f 482//115 479//115 478//115
f 467//115 466//113 482//115
f 482//115 466//113 465//115
f 482//115 465//115 481//115
f 470//115 469//115 482//115
f 482//115 469//115 468//115
f 482//115 468//115 467//115
f 473//115 472//115 482//115
f 482//115 472//115 471//115
f 482//115 471//115 470//115
f 483//371 484//372 485//373
f 485//373 486//374 483//371
f 483//371 486//374 487//375
f 483//371 487//375 488//376
f 487//375 489//377 488//376
f 488//376 489//377 490//378
f 488//376 490//378 491//379
f 490//378 492//380 491//379
f 491//379 492//380 493//381
f 491//379 493//381 494//382
f 493//381 495//383 494//382
f 494//382 495//383 496//384
f 494//382 496//384 497//385
f 496//384 498//386 497//385
f 497//385 498//386 499//387
f 497//385 499//387 500//388
f 499//387 501//389 500//388
f 500//388 501//389 502//390
f 500//388 502//390 503//391
f 503//391 502//390 504//392
f 503//391 504//392 505//393
f 505//393 504//392 506//394
f 505//393 506//394 507//395
f 506//394 508//396 507//395
f 507//395 508//396 509//397
f 507//395 509//397 510//398
f 509//397 511//399 510//398
f 510//398 511//399 512//400
f 510//398 512//400 513//401
f 512//400 514//402 513//401
f 513//401 514//402 515//403
f 513//401 515//403 516//404
f 515//403 517//405 516//404
f 516//404 517//405 518//406
f 516//404 518//406 519//407
f 518//406 520//408 519//407
f 519//407 520//408 521//409
f 519//407 521//409 522//410
f 521//409 523//411 522//410
f 522//410 523//411 524//412
f 522//410 524//412 525//413
f 524//412 526//414 525//413
f 525//413 526//414 527//415
f 525//413 527//415 484//372
f 484//372 527//415 528//416
f 484//372 528//416 485//373
f 529//115 530//115 531//115
f 532//115 533//115 531//115
f 531//115 533//115 534//115
f 531//115 534//115 529//115
f 535//115 536//115 531//115
f 531//115 536//115 537//115
f 531//115 537//115 532//115
f 538//115 539//115 531//115
f 531//115 539//115 540//115
f 531//115 540//115 535//115
f 541//115 542//115 531//115
f 531//115 542//115 543//115
f 531//115 543//115 538//115
f 530//115 544//115 531//115
f 531//115 544//115 545//115
f 531//115 545//115 541//115
f 309//115 300//254 304//258
f 304//258 300//254 302//256
f 310//115 305//259 262//216
f 262//216 264//218 310//115
f 310//115 264//218 266//220
f 310//115 266//220 312//115
f 266//220 268//222 312//115
f 312//115 268//222 270//224
f 312//115 270//224 306//115
f 270//224 272//226 306//115
f 306//115 272//226 274//228
f 306//115 274//228 307//260
f 274//228 276//230 307//260
f 307//260 276//230 278//232
f 307//260 278//232 313//261
f 313//261 278//232 280//234
f 313//261 280//234 314//262
f 280//234 282//236 314//262
f 314//262 282//236 284//238
f 314//262 284//238 315//263
f 284//238 286//240 315//263
f 315//263 286//240 288//242
f 315//263 288//242 308//115
f 288//242 290//244 308//115
f 308//115 290//244 292//246
f 308//115 292//246 311//115
f 292//246 294//248 311//115
f 311//115 294//248 296//250
f 311//115 296//250 309//115
f 309//115 296//250 298//252
f 309//115 298//252 300//254
f 365//3 354//301 358//305
f 358//305 354//301 356//303
f 363//3 359//306 316//259
f 316//259 318//265 363//3
f 363//3 318//265 320//267
f 363//3 320//267 364//3
f 320//267 322//269 364//3
f 364//3 322//269 324//271
f 364//3 324//271 369//3
f 324//271 326//273 369//3
f 369//3 326//273 328//275
f 369//3 328//275 368//310
f 328//275 330//277 368//310
f 368//310 330//277 332//279
f 368//310 332//279 367//309
f 332//279 334//281 367//309
f 367//309 334//281 336//283
f 367//309 336//283 360//307
f 360//307 336//283 338//285
f 360//307 338//285 361//308
f 338//285 340//287 361//308
f 361//308 340//287 342//289
f 361//308 342//289 362//3
f 342//289 344//291 362//3
f 362//3 344//291 346//293
f 362//3 346//293 366//3
f 346//293 348//295 366//3
f 366//3 348//295 350//297
f 366//3 350//297 365//3
f 365//3 350//297 352//299
f 365//3 352//299 354//301
f 530//115 529//115 505//393
f 505//393 529//115 503//391
f 529//115 534//115 503//391
f 503//391 534//115 533//115
f 503//391 533//115 500//388
f 500//388 533//115 532//115
f 500//388 532//115 497//385
f 497//385 532//115 537//115
f 497//385 537//115 494//382
f 494//382 537//115 536//115
f 494//382 536//115 491//379
f 491//379 536//115 535//115
f 491//379 535//115 488//376
f 488//376 535//115 540//115
f 488//376 540//115 483//371
f 483//371 540//115 539//115
f 483//371 539//115 484//372
f 484//372 539//115 538//115
f 484//372 538//115 525//413
f 525//413 538//115 543//115
f 525//413 543//115 522//410
f 522//410 543//115 542//115
f 522//410 542//115 519//407
f 519//407 542//115 541//115
f 519//407 541//115 516//404
f 516//404 541//115 545//115
f 516//404 545//115 513//401
f 513//401 545//115 544//115
f 513//401 544//115 510//398
f 510//398 544//115 530//115
f 510//398 530//115 507//395
f 507//395 530//115 505//393
f 459//3 458//3 419//342
f 419//342 417//340 459//3
f 459//3 417//340 415//338
f 459//3 415//338 454//3
f 415//338 413//336 454//3
f 454//3 413//336 411//334
f 454//3 411//334 455//3
f 411//334 409//332 455//3
f 455//3 409//332 407//330
f 455//3 407//330 456//3
f 407//330 405//328 456//3
f 456//3 405//328 403//326
f 456//3 403//326 451//3
f 451//3 403//326 401//324
f 451//3 401//324 452//3
f 452//3 401//324 399//322
f 399//322 397//320 452//3
f 452//3 397//320 395//318
f 452//3 395//318 453//3
f 453//3 395//318 393//316
f 453//3 393//316 448//3
f 448//3 393//316 391//314
f 448//3 391//314 449//3
f 449//3 391//314 389//312
f 449//3 389//312 463//3
f 463//3 389//312 447//370
f 447//370 445//368 463//3
f 463//3 445//368 443//366
f 463//3 443//366 464//3
f 443//366 441//364 464//3
f 464//3 441//364 439//362
f 464//3 439//362 460//3
f 460//3 439//362 437//360
f 460//3 437//360 461//3
f 461//3 437//360 435//358
f 435//358 433//356 461//3
f 461//3 433//356 431//354
f 461//3 431//354 462//3
f 431//354 429//352 462//3
f 462//3 429//352 427//350
f 462//3 427//350 457//3
f 427//350 425//348 457//3
f 457//3 425//348 423//346
f 457//3 423//346 458//3
f 458//3 423//346 421//344
f 458//3 421//344 419//342
f 546//417 218//174 547//418
f 547//418 218//174 216//172
f 547//418 216//172 548//419
f 548//419 216//172 215//171
f 548//419 215//171 549//420
f 549//420 215//171 186//148
f 549//420 186//148 550//421
f 550//421 186//148 185//147
f 550//421 185//147 551//422
f 551//422 185//147 184//146
f 551//422 184//146 552//423
f 552//423 184//146 183//145
f 552//423 183//145 553//424
f 553//424 183//145 182//144
f 553//424 182//144 554//425
f 554//425 182//144 168//133
f 554//425 168//133 555//426
f 555//426 168//133 167//132
f 555//426 167//132 556//427
f 556//427 167//132 202//163
f 556//427 202//163 557//428
f 557//428 202//163 207//168
f 557//428 207//168 558//429
f 558//429 207//168 206//167
f 558//429 206//167 559//430
f 559//430 206//167 204//165
f 559//430 204//165 560//431
f 560//431 204//165 244//199
f 560//431 244//199 561//432
f 561//432 244//199 243//198
f 561//432 243//198 562//433
f 562//433 243//198 242//197
f 562//433 242//197 563//434
f 563//434 242//197 193//155
f 563//434 193//155 564//435
f 564//435 193//155 195//157
f 564//435 195//157 565//436
f 565//436 195//157 196//158
f 565//436 196//158 566//437
f 566//437 196//158 192//154
f 566//437 192//154 567//438
f 567//438 192//154 191//153
f 567//438 191//153 568//439
f 568//439 191//153 232//187
f 568//439 232//187 569//440
f 569//440 232//187 231//186
f 569//440 231//186 570//441
f 570//441 231//186 229//185
f 570//441 229//185 571//442
f 571//442 229//185 228//184
f 571//442 228//184 572//443
f 572//443 228//184 226//182
f 572//443 226//182 573//444
f 573//444 226//182 224//180
f 573//444 224//180 574//445
f 574//445 224//180 222//178
f 574//445 222//178 575//446
f 575//446 222//178 220//176
f 575//446 220//176 546//417
f 546//417 220//176 218//174
f 576//447 546//417 577//448
f 577//448 546//417 547//418
f 577//448 547//418 578//449
f 578//449 547//418 548//419
f 578//449 548//419 579//450
f 579//450 548//419 549//420
f 579//450 549//420 580//451
f 580//451 549//420 550//421
f 580//451 550//421 581//452
f 581//452 550//421 551//422
f 581//452 551//422 582//453
f 582//453 551//422 552//423
f 582//453 552//423 583//454
f 583//454 552//423 553//424
f 583//454 553//424 584//455
f 584//455 553//424 554//425
f 584//455 554//425 585//456
f 585//456 554//425 555//426
f 585//456 555//426 586//457
f 586//457 555//426 556//427
f 586//457 556//427 587//458
f 587//458 556//427 557//428
f 587//458 557//428 588//459
f 588//459 557//428 558//429
f 588//459 558//429 589//460
f 589//460 558//429 559//430
f 589//460 559//430 590//461
f 590//461 559//430 560//431
f 590//461 560//431 591//462
f 591//462 560//431 561//432
f 591//462 561//432 592//463
f 592//463 561//432 562//433
f 592//463 562//433 593//464
f 593//464 562//433 563//434
f 593//464 563//434 594//465
f 594//465 563//434 564//435
f 594//465 564//435 595//466
f 595//466 564//435 565//436
f 595//466 565//436 596//467
f 596//467 565//436 566//437
f 596//467 566//437 597//468
f 597//468 566//437 567//438
f 597//468 567//438 598//469
f 598//469 567//438 568//439
f 598//469 568//439 599//470
f 599//470 568//439 569//440
f 599//470 569//440 600//471
f 600//471 569//440 570//441
f 600//471 570//441 601//472
f 601//472 570//441 571//442
f 601//472 571//442 602//473
f 602//473 571//442 572//443
f 602//473 572//443 603//474
f 603//474 572//443 573//444
f 603//474 573//444 604//475
f 604//475 573//444 574//445
f 604//475 574//445 605//476
f 605//476 574//445 575//446
f 605//476 575//446 576//447
f 576//447 575//446 546//417
f 506//394 576//447 508//396
f 508//396 576//447 577//448
f 508//396 577//448 509//397
f 509//397 577//448 578//449
f 509//397 578//449 511//399
f 511//399 578//449 579//450
f 511//399 579//450 512//400
f 512//400 579//450 580//451
f 512//400 580//451 514//402
f 514//402 580//451 581//452
f 514//402 581//452 515//403
f 515//403 581//452 582//453
f 515//403 582//453 517//405
f 517//405 582//453 583//454
f 517//405 583//454 518//406
f 518//406 583//454 584//455
f 518//406 584//455 520//408
f 520//408 584//455 585//456
f 520//408 585//456 521//409
f 521//409 585//456 586//457
f 521//409 586//457 523//411
f 523//411 586//457 587//458
f 523//411 587//458 524//412
f 524//412 587//458 588//459
f 524//412 588//459 526//414
f 526//414 588//459 589//460
f 526//414 589//460 527//415
f 527//415 589//460 590//461
f 527//415 590//461 528//416
f 528//416 590//461 591//462
f 528//416 591//462 485//373
f 485//373 591//462 592//463
f 485//373 592//463 486//374
f 486//374 592//463 593//464
f 486//374 593//464 487//375
f 487//375 593//464 594//465
f 487//375 594//465 489//377
f 489//377 594//465 595//466
f 489//377 595//466 490//378
f 490//378 595//466 596//467
f 490//378 596//467 492//380
f 492//380 596//467 597//468
f 492//380 597//468 493//381
f 493//381 597//468 598//469
f 493//381 598//469 495//383
f 495//383 598//469 599//470
f 495//383 599//470 496//384
f 496//384 599//470 600//471
f 496//384 600//471 498//386
f 498//386 600//471 601//472
f 498//386 601//472 499//387
f 499//387 601//472 602//473
f 499//387 602//473 501//389
f 501//389 602//473 603//474
f 501//389 603//474 502//390
f 502//390 603//474 604//475
f 502//390 604//475 504//392
f 504//392 604//475 605//476
f 504//392 605//476 506//394
f 506//394 605//476 576//447
f 606//477 420//343 607//478
f 607//478 420//343 422//345
f 607//478 422//345 608//479
f 608//479 422//345 424//347
f 608//479 424//347 609//480
f 609//480 424//347 426//349
f 609//480 426//349 610//481
f 610//481 426//349 428//351
f 610//481 428//351 611//482
f 611//482 428//351 430//353
f 611//482 430//353 612//483
f 612//483 430//353 432//355
f 612//483 432//355 613//484
f 613//484 432//355 434//357
f 613//484 434//357 614//485
f 614//485 434//357 436//359
f 614//485 436//359 615//486
f 615//486 436//359 438//361
f 615//486 438//361 616//487
f 616//487 438//361 440//363
f 616//487 440//363 617//488
f 617//488 440//363 442//365
f 617//488 442//365 618//489
f 618//489 442//365 444//367
f 618//489 444//367 619//490
f 619//490 444//367 446//369
f 619//490 446//369 620//491
f 620//491 446//369 388//311
f 620//491 388//311 621//492
f 621//492 388//311 390//313
f 621//492 390//313 622//493
f 622//493 390//313 392//315
f 622//493 392//315 623//494
f 623//494 392//315 394//317
f 623//494 394//317 624//495
f 624//495 394//317 396//319
f 624//495 396//319 625//496
f 625//496 396//319 398//321
f 625//496 398//321 626//497
f 626//497 398//321 400//323
f 626//497 400//323 627//498
f 627//498 400//323 402//325
f 627//498 402//325 628//499
f 628//499 402//325 404//327
f 628//499 404//327 629//500
f 629//500 404//327 406//329
f 629//500 406//329 630//501
f 630//501 406//329 408//331
f 630//501 408//331 631//502
f 631//502 408//331 410//333
f 631//502 410//333 632//503
f 632//503 410//333 412//335
f 632//503 412//335 633//504
f 633//504 412//335 414//337
f 633//504 414//337 634//505
f 634//505 414//337 416//339
f 634//505 416//339 635//506
f 635//506 416//339 418//341
f 635//506 418//341 606//477
f 606//477 418//341 420//343
f 636//507 606//477 637//508
f 637//508 606//477 607//478
f 637//508 607//478 638//509
f 638//509 607//478 608//479
f 638//509 608//479 639//510
f 639//510 608//479 609//480
f 639//510 609//480 640//511
f 640//511 609//480 610//481
f 640//511 610//481 641//512
f 641//512 610//481 611//482
f 641//512 611//482 642//513
f 642//513 611//482 612//483
f 642//513 612//483 643//514
f 643//514 612//483 613//484
f 643//514 613//484 644//515
f 644//515 613//484 614//485
f 644//515 614//485 645//516
f 645//516 614//485 615//486
f 645//516 615//486 646//517
f 646//517 615//486 616//487
f 646//517 616//487 647//518
f 647//518 616//487 617//488
f 647//518 617//488 648//519
f 648//519 617//488 618//489
f 648//519 618//489 649//520
f 649//520 618//489 619//490
f 649//520 619//490 650//521
f 650//521 619//490 620//491
f 650//521 620//491 651//522
f 651//522 620//491 621//492
f 651//522 621//492 652//523
f 652//523 621//492 622//493
f 652//523 622//493 653//524
f 653//524 622//493 623//494
f 653//524 623//494 654//525
f 654//525 623//494 624//495
f 654//525 624//495 655//526
f 655//526 624//495 625//496
f 655//526 625//496 656//527
f 656//527 625//496 626//497
f 656//527 626//497 657//528
f 657//528 626//497 627//498
f 657//528 627//498 658//529
f 658//529 627//498 628//499
f 658//529 628//499 659//530
f 659//530 628//499 629//500
f 659//530 629//500 660//531
f 660//531 629//500 630//501
f 660//531 630//501 661//532
f 661//532 630//501 631//502
f 661//532 631//502 662//533
f 662//533 631//502 632//503
f 662//533 632//503 663//534
f 663//534 632//503 633//504
f 663//534 633//504 664//535
f 664//535 633//504 634//505
f 664//535 634//505 665//536
f 665//536 634//505 635//506
f 665//536 635//506 636//507
f 636//507 635//506 606//477
f 59//54 636//507 60//55
f 60//55 636//507 637//508
f 60//55 637//508 46//42
f 46//42 637//508 638//509
f 46//42 638//509 47//43
f 47//43 638//509 639//510
f 47//43 639//510 57//52
f 57//52 639//510 640//511
f 57//52 640//511 117//98
f 117//98 640//511 641//512
f 117//98 641//512 118//99
f 118//99 641//512 642//513
f 118//99 642//513 120//101
f 120//101 642//513 643//514
f 120//101 643//514 122//103
f 122//103 643//514 644//515
f 122//103 644//515 124//105
f 124//105 644//515 645//516
f 124//105 645//516 129//110
f 129//110 645//516 646//517
f 129//110 646//517 126//107
f 126//107 646//517 647//518
f 126//107 647//518 43//39
f 43//39 647//518 648//519
f 43//39 648//519 44//40
f 44//40 648//519 649//520
f 44//40 649//520 78//72
f 78//72 649//520 650//521
f 78//72 650//521 79//73
f 79//73 650//521 651//522
f 79//73 651//522 80//74
f 80//74 651//522 652//523
f 80//74 652//523 70//65
f 70//65 652//523 653//524
f 70//65 653//524 71//66
f 71//66 653//524 654//525
f 71//66 654//525 20//17
f 20//17 654//525 655//526
f 20//17 655//526 21//18
f 21//18 655//526 656//527
f 21//18 656//527 12//10
f 12//10 656//527 657//528
f 12//10 657//528 13//11
f 13//11 657//528 658//529
f 13//11 658//529 31//27
f 31//27 658//529 659//530
f 31//27 659//530 33//29
f 33//29 659//530 660//531
f 33//29 660//531 29//25
f 29//25 660//531 661//532
f 29//25 661//532 28//24
f 28//24 661//532 662//533
f 28//24 662//533 48//44
f 48//44 662//533 663//534
f 48//44 663//534 49//45
f 49//45 663//534 664//535
f 49//45 664//535 50//46
f 50//46 664//535 665//536
f 50//46 665//536 59//54
f 59//54 665//536 636//507
f 317//264 357//304 666//537
f 666//537 357//304 667//538
f 666//537 667//538 668//539
f 669//540 670//539 671//541
f 671//541 670//539 668//539
f 671//541 668//539 672//539
f 672//539 668//539 667//538
f 673//542 674//543 675//544
f 675//544 674//543 676//545
f 675//544 676//545 677//546
f 677//546 676//545 678//546
f 677//546 678//546 669//540
f 669//540 678//546 679//547
f 669//540 679//547 670//539
f 3//3 680//548 102//87
f 102//87 680//548 681//549
f 102//87 681//549 682//550
f 675//544 683//551 673//542
f 673//542 683//551 684//551
f 673//542 684//551 681//549
f 681//549 684//551 685//552
f 681//549 685//552 682//550
f 669//540 671//541 686//553
f 686//553 671//541 672//539
f 684//551 683//551 687//554
f 687//554 683//551 675//544
f 687//554 675//544 677//546
f 685//552 103//88 682//550
f 682//550 103//88 102//87
f 673//542 681//549 5//4
f 5//4 681//549 680//548
f 5//4 680//548 3//3
f 670//539 679//547 688//555
f 679//547 678//546 688//555
f 688//555 678//546 676//545
f 688//555 676//545 674//543
f 317//264 666//537 689//556
f 689//556 666//537 668//539
f 672//539 667//538 686//553
f 686//553 667//538 357//304
f 686//553 357//304 690//557
f 690//557 357//304 355//302
f 690//557 355//302 691//558
f 691//558 355//302 353//300
f 691//558 353//300 692//559
f 692//559 353//300 351//298
f 692//559 351//298 693//560
f 693//560 351//298 349//296
f 693//560 349//296 694//561
f 694//561 349//296 347//294
f 694//561 347//294 695//562
f 695//562 347//294 345//292
f 695//562 345//292 696//563
f 696//563 345//292 343//290
f 696//563 343//290 697//564
f 697//564 343//290 341//288
f 697//564 341//288 698//565
f 698//565 341//288 339//286
f 698//565 339//286 699//566
f 699//566 339//286 337//284
f 699//566 337//284 700//567
f 700//567 337//284 335//282
f 700//567 335//282 701//568
f 701//568 335//282 333//280
f 701//568 333//280 702//569
f 702//569 333//280 331//278
f 702//569 331//278 703//570
f 703//570 331//278 329//276
f 703//570 329//276 704//571
f 704//571 329//276 327//274
f 704//571 327//274 705//572
f 705//572 327//274 325//272
f 705//572 325//272 706//573
f 706//573 325//272 323//270
f 706//573 323//270 707//574
f 707//574 323//270 321//268
f 707//574 321//268 689//556
f 689//556 321//268 319//266
f 689//556 319//266 317//264
f 677//546 669//540 687//554
f 687//554 669//540 686//553
f 687//554 686//553 708//575
f 708//575 686//553 690//557
f 708//575 690//557 709//576
f 709//576 690//557 691//558
f 709//576 691//558 710//577
f 710//577 691//558 692//559
f 710//577 692//559 711//578
f 711//578 692//559 693//560
f 711//578 693//560 712//579
f 712//579 693//560 694//561
f 712//579 694//561 713//580
f 713//580 694//561 695//562
f 713//580 695//562 714//581
f 714//581 695//562 696//563
f 714//581 696//563 715//582
f 715//582 696//563 697//564
f 715//582 697//564 716//583
f 716//583 697//564 698//565
f 716//583 698//565 717//584
f 717//584 698//565 699//566
f 717//584 699//566 718//585
f 718//585 699//566 700//567
f 718//585 700//567 719//586
f 719//586 700//567 701//568
f 719//586 701//568 720//587
f 720//587 701//568 702//569
f 720//587 702//569 721//588
f 721//588 702//569 703//570
f 721//588 703//570 722//589
f 722//589 703//570 704//571
f 722//589 704//571 723//590
f 723//590 704//571 705//572
f 723//590 705//572 724//591
f 724//591 705//572 706//573
f 724//591 706//573 725//592
f 725//592 706//573 707//574
f 725//592 707//574 688//555
f 688//555 707//574 689//556
f 688//555 689//556 670//539
f 670//539 689//556 668//539
f 685//552 684//551 103//88
f 103//88 684//551 687//554
f 103//88 687//554 10//8
f 10//8 687//554 708//575
f 10//8 708//575 14//12
f 14//12 708//575 709//576
f 14//12 709//576 15//13
f 15//13 709//576 710//577
f 15//13 710//577 34//30
f 34//30 710//577 711//578
f 34//30 711//578 35//31
f 35//31 711//578 712//579
f 35//31 712//579 37//33
f 37//33 712//579 713//580
f 37//33 713//580 39//35
f 39//35 713//580 714//581
f 39//35 714//581 41//37
f 41//37 714//581 715//582
f 41//37 715//582 114//95
f 114//95 715//582 716//583
f 114//95 716//583 115//96
f 115//96 716//583 717//584
f 115//96 717//584 116//97
f 116//97 717//584 718//585
f 116//97 718//585 23//20
f 23//20 718//585 719//586
f 23//20 719//586 24//21
f 24//21 719//586 720//587
f 24//21 720//587 74//68
f 74//68 720//587 721//588
f 74//68 721//588 75//69
f 75//69 721//588 722//589
f 75//69 722//589 76//70
f 76//70 722//589 723//590
f 76//70 723//590 77//71
f 77//71 723//590 724//591
f 77//71 724//591 7//5
f 7//5 724//591 725//592
f 7//5 725//592 5//4
f 5//4 725//592 688//555
f 5//4 688//555 673//542
f 673//542 688//555 674//543
f 726//593 263//217 303//257
f 727//594 728//595 729//596
f 729//596 728//595 730//597
f 729//596 730//597 731//598
f 731//598 730//597 732//597
f 731//598 732//597 733//598
f 733//598 732//597 726//593
f 733//598 726//593 734//599
f 734//599 726//593 303//257
f 735//600 736//601 727//594
f 727//594 736//601 737//602
f 727//594 737//602 728//595
f 738//603 739//603 740//604
f 740//604 739//603 736//601
f 740//604 736//601 741//605
f 741//605 736//601 735//600
f 738//603 740//604 742//606
f 742//606 740//604 743//607
f 742//606 743//607 744//608
f 744//608 743//607 144//118
f 144//118 743//607 745//609
f 144//118 745//609 142//115
f 734//599 303//257 301//255
f 729//596 731//598 746//610
f 746//610 731//598 733//598
f 740//604 741//605 747//611
f 747//611 741//605 735//600
f 747//611 735//600 727//594
f 743//607 170//134 745//609
f 745//609 170//134 142//115
f 739//603 738//603 197//159
f 738//603 742//606 197//159
f 197//159 742//606 744//608
f 197//159 744//608 144//118
f 730//597 728//595 748//612
f 748//612 728//595 737//602
f 748//612 737//602 736//601
f 726//593 732//597 749//613
f 736//601 739//603 748//612
f 748//612 739//603 197//159
f 748//612 197//159 750//614
f 750//614 197//159 198//160
f 750//614 198//160 751//615
f 751//615 198//160 177//139
f 751//615 177//139 752//616
f 752//616 177//139 235//190
f 752//616 235//190 753//617
f 753//617 235//190 234//189
f 753//617 234//189 754//618
f 754//618 234//189 255//209
f 754//618 255//209 755//619
f 755//619 255//209 254//208
f 755//619 254//208 756//620
f 756//620 254//208 252//206
f 756//620 252//206 757//621
f 757//621 252//206 250//204
f 757//621 250//204 758//622
f 758//622 250//204 248//203
f 758//622 248//203 759//623
f 759//623 248//203 247//202
f 759//623 247//202 760//624
f 760//624 247//202 240//195
f 760//624 240//195 761//625
f 761//625 240//195 239//194
f 761//625 239//194 762//626
f 762//626 239//194 189//151
f 762//626 189//151 763//627
f 763//627 189//151 188//150
f 763//627 188//150 764//628
f 764//628 188//150 180//142
f 764//628 180//142 765//629
f 765//629 180//142 179//141
f 765//629 179//141 766//630
f 766//630 179//141 178//140
f 766//630 178//140 767//631
f 767//631 178//140 171//135
f 767//631 171//135 747//611
f 747//611 171//135 170//134
f 747//611 170//134 740//604
f 740//604 170//134 743//607
f 732//597 730//597 749//613
f 749//613 730//597 748//612
f 749//613 748//612 768//632
f 768//632 748//612 750//614
f 768//632 750//614 769//633
f 769//633 750//614 751//615
f 769//633 751//615 770//634
f 770//634 751//615 752//616
f 770//634 752//616 771//635
f 771//635 752//616 753//617
f 771//635 753//617 772//636
f 772//636 753//617 754//618
f 772//636 754//618 773//637
f 773//637 754//618 755//619
f 773//637 755//619 774//638
f 774//638 755//619 756//620
f 774//638 756//620 775//639
f 775//639 756//620 757//621
f 775//639 757//621 776//640
f 776//640 757//621 758//622
f 776//640 758//622 777//641
f 777//641 758//622 759//623
f 777//641 759//623 778//642
f 778//642 759//623 760//624
f 778//642 760//624 779//643
f 779//643 760//624 761//625
f 779//643 761//625 780//644
f 780//644 761//625 762//626
f 780//644 762//626 781//645
f 781//645 762//626 763//627
f 781//645 763//627 782//646
f 782//646 763//627 764//628
f 782//646 764//628 783//647
f 783//647 764//628 765//629
f 783//647 765//629 784//648
f 784//648 765//629 766//630
f 784//648 766//630 785//649
f 785//649 766//630 767//631
f 785//649 767//631 746//610
f 746//610 767//631 747//611
f 746//610 747//611 729//596
f 729//596 747//611 727//594
f 733//598 734//599 746//610
f 746//610 734//599 301//255
f 746//610 301//255 785//649
f 785//649 301//255 299//253
f 785//649 299//253 784//648
f 784//648 299//253 297//251
f 784//648 297//251 783//647
f 783//647 297//251 295//249
f 783//647 295//249 782//646
f 782//646 295//249 293//247
f 782//646 293//247 781//645
f 781//645 293//247 291//245
f 781//645 291//245 780//644
f 780//644 291//245 289//243
f 780//644 289//243 779//643
f 779//643 289//243 287//241
f 779//643 287//241 778//642
f 778//642 287//241 285//239
f 778//642 285//239 777//641
f 777//641 285//239 283//237
f 777//641 283//237 776//640
f 776//640 283//237 281//235
f 776//640 281//235 775//639
f 775//639 281//235 279//233
f 775//639 279//233 774//638
f 774//638 279//233 277//231
f 774//638 277//231 773//637
f 773//637 277//231 275//229
f 773//637 275//229 772//636
f 772//636 275//229 273//227
f 772//636 273//227 771//635
f 771//635 273//227 271//225
f 771//635 271//225 770//634
f 770//634 271//225 269//223
f 770//634 269//223 769//633
f 769//633 269//223 267//221
f 769//633 267//221 768//632
f 768//632 267//221 265//219
f 768//632 265//219 749//613
f 749//613 265//219 263//217
f 749//613 263//217 726//593
f 119//100 245//200 58//53
f 58//53 245//200 201//162
f 58//53 201//162 107//90
f 107//90 201//162 200//115
f 65//60 217//173 66//61
f 66//61 217//173 219//175
f 66//61 219//175 67//62
f 67//62 219//175 221//177
f 30//26 230//26 11//9
f 11//9 230//26 190//152
f 11//9 190//152 54//50
f 54//50 190//152 165//131
f 61//56 135//116 62//57
f 62//57 135//116 134//115
f 62//57 134//115 64//59
f 64//59 134//115 181//143
f 42//38 241//196 249//149
f 42//38 249//149 40//36
f 40//36 249//149 251//205
f 40//36 251//205 38//34
f 38//34 251//205 253//207
f 38//34 253//207 36//32
f 36//32 253//207 233//188
f 36//32 233//188 16//14
f 16//14 233//188 176//138
f 16//14 176//138 8//6
f 9//7 175//137 132//113
f 9//7 132//113 101//51
f 101//51 132//113 131//112
f 101//51 131//112 100//79
f 100//79 131//112 174//136
f 100//79 174//136 99//86
f 99//86 174//136 173//51
f 99//86 173//51 98//85
f 98//85 173//51 139//117
f 98//85 139//117 95//83
