# Blender 3.6.1
# www.blender.org
mtllib Chopstick.mtl
o Chopstick
v -0.124183 0.002978 -0.003031
v -0.124113 -0.003122 -0.003028
v -0.124120 -0.003117 0.003075
v -0.124190 0.002983 0.003073
v -0.124016 -0.003817 0.003079
v -0.123926 -0.003717 0.003382
v -0.123933 -0.003517 0.003582
v -0.123941 -0.003117 0.003681
v -0.124011 0.002983 0.003679
v -0.124008 0.003283 0.003579
v -0.124006 0.003483 0.003379
v -0.123996 0.003582 0.003079
v -0.123988 0.003582 -0.003024
v -0.123975 0.003483 -0.003424
v -0.123963 0.003283 -0.003623
v -0.123960 0.002983 -0.003723
v -0.123989 -0.003117 -0.003724
v -0.123988 -0.003517 -0.003624
v -0.123995 -0.003717 -0.003424
v -0.124008 -0.003817 -0.003025
v -0.123428 -0.004112 0.003599
v -0.123411 -0.004212 0.003099
v -0.123446 -0.003712 0.003998
v -0.123458 -0.003212 0.004198
v -0.123428 0.002993 0.004199
v -0.123426 0.003493 0.003999
v -0.123418 0.003892 0.003599
v -0.123401 0.004092 0.003099
v -0.123490 0.004087 -0.003107
v -0.123473 0.003887 -0.003607
v -0.123455 0.003488 -0.004006
v -0.123446 0.002988 -0.004106
v -0.123476 -0.003212 -0.004107
v -0.123475 -0.003712 -0.004007
v -0.123483 -0.004112 -0.003607
v -0.123400 -0.004212 -0.003104
v -0.122732 -0.004202 0.003722
v -0.122706 -0.004402 0.003123
v -0.122750 -0.003802 0.004122
v -0.122762 -0.003202 0.004322
v -0.122732 0.002998 0.004323
v -0.122730 0.003598 0.004123
v -0.122722 0.004097 0.003723
v -0.122701 0.004197 0.003123
v -0.122691 0.004197 -0.003080
v -0.122770 0.004092 -0.003683
v -0.122748 0.003592 -0.004183
v -0.122740 0.002993 -0.004282
v -0.122770 -0.003207 -0.004283
v -0.122768 -0.003807 -0.004183
v -0.122680 -0.004202 -0.003680
v -0.122696 -0.004402 -0.003080
v 0.123180 -0.001707 0.001272
v 0.123165 -0.001607 0.001572
v 0.123158 -0.001407 0.001772
v 0.123158 -0.001207 0.001772
v 0.123128 0.001393 0.001771
v 0.123123 0.001593 0.001771
v 0.123130 0.001793 0.001571
v 0.123140 0.001893 0.001271
v 0.123129 0.001893 -0.001331
v 0.123135 0.001793 -0.001531
v 0.123142 0.001593 -0.001730
v 0.123151 0.001393 -0.001830
v 0.123181 -0.001207 -0.001829
v 0.123177 -0.001407 -0.001729
v 0.123170 -0.001607 -0.001529
v 0.123165 -0.001707 -0.001229
v 0.123468 -0.001602 0.001482
v 0.123475 -0.001602 0.001283
v 0.123461 -0.001402 0.001682
v 0.123461 -0.001202 0.001682
v 0.123431 0.001398 0.001681
v 0.123426 0.001598 0.001681
v 0.123433 0.001798 0.001481
v 0.123440 0.001798 0.001281
v 0.123428 0.001798 -0.001321
v 0.123435 0.001798 -0.001520
v 0.123439 0.001598 -0.001620
v 0.123447 0.001398 -0.001720
v 0.123477 -0.001202 -0.001719
v 0.123474 -0.001402 -0.001619
v 0.123470 -0.001602 -0.001519
v 0.123463 -0.001602 -0.001319
v 0.123672 -0.001402 0.001389
v 0.123675 -0.001402 0.001289
v 0.123668 -0.001302 0.001489
v 0.123665 -0.001202 0.001589
v 0.123638 0.001398 0.001488
v 0.123638 0.001498 0.001488
v 0.123637 0.001598 0.001388
v 0.123640 0.001598 0.001288
v 0.123628 0.001598 -0.001314
v 0.123632 0.001598 -0.001414
v 0.123640 0.001498 -0.001513
v 0.123640 0.001398 -0.001513
v 0.123670 -0.001202 -0.001512
v 0.123670 -0.001302 -0.001512
v 0.123667 -0.001402 -0.001413
v 0.123663 -0.001402 -0.001313
v 0.123775 -0.001197 0.001293
v 0.123745 0.001403 0.001292
v 0.123733 0.001398 -0.001310
v 0.123763 -0.001202 -0.001309
vn -0.9834 0.1284 -0.1283
vn -0.9947 -0.0692 -0.0757
vn -0.9873 -0.0792 0.1381
vn -0.9851 0.1251 0.1180
vn -0.8392 -0.5203 0.1582
vn -0.8131 -0.4339 0.3880
vn -0.8385 -0.3042 0.4521
vn -0.8604 -0.0688 0.5050
vn -0.8266 0.0947 0.5548
vn -0.8075 0.3192 0.4960
vn -0.8062 0.5078 0.3036
vn -0.8182 0.5686 0.0849
vn -0.8431 0.5302 -0.0897
vn -0.8145 0.4869 -0.3154
vn -0.8053 0.2837 -0.5206
vn -0.7955 0.0936 -0.5987
vn -0.8413 -0.0605 -0.5372
vn -0.8392 -0.2661 -0.4743
vn -0.8341 -0.4792 -0.2732
vn -0.8278 -0.5556 -0.0781
vn -0.4109 -0.8064 0.4254
vn -0.3925 -0.9145 0.0983
vn -0.4454 -0.4912 0.7486
vn -0.4570 -0.1671 0.8736
vn -0.4293 0.1593 0.8890
vn -0.4404 0.4791 0.7593
vn -0.4492 0.7653 0.4610
vn -0.3985 0.9023 0.1643
vn -0.4606 0.8750 -0.1494
vn -0.4835 0.7258 -0.4893
vn -0.4548 0.4057 -0.7928
vn -0.4285 0.0918 -0.8989
vn -0.4302 -0.0883 -0.8984
vn -0.4298 -0.4427 -0.7870
vn -0.4217 -0.8074 -0.4126
vn -0.4115 -0.9088 -0.0688
vn -0.1048 -0.8504 0.5156
vn -0.1250 -0.9797 0.1569
vn -0.1004 -0.5261 0.8445
vn -0.0862 -0.1643 0.9826
vn -0.0812 0.1593 0.9839
vn -0.1002 0.4835 0.8696
vn -0.1443 0.8595 0.4903
vn -0.0949 0.9903 0.1018
vn -0.0585 0.9952 -0.0783
vn -0.1192 0.8746 -0.4699
vn -0.1309 0.4526 -0.8820
vn -0.1183 0.0839 -0.9894
vn -0.1154 -0.0815 -0.9900
vn -0.1278 -0.5125 -0.8491
vn -0.0736 -0.8726 -0.4829
vn -0.1074 -0.9839 -0.1429
vn 0.1391 -0.9817 0.1298
vn 0.0924 -0.8366 0.5400
vn 0.1375 -0.3663 0.9203
vn 0.1482 0.0019 0.9890
vn 0.1484 0.0020 0.9889
vn 0.1336 0.3676 0.9203
vn 0.1040 0.8479 0.5199
vn 0.1551 0.9756 0.1556
vn 0.1135 0.9755 -0.1887
vn 0.0488 0.7911 -0.6098
vn 0.1486 0.5728 -0.8061
vn 0.1739 0.2224 -0.9593
vn 0.1763 -0.2210 -0.9592
vn 0.1307 -0.5505 -0.8245
vn 0.0543 -0.8642 -0.5002
vn 0.1485 -0.9786 -0.1422
vn 0.4779 -0.7982 0.3667
vn 0.5370 -0.8435 0.0079
vn 0.4502 -0.3793 0.8084
vn 0.3561 0.0123 0.9344
vn 0.4964 0.0058 0.8681
vn 0.4785 0.3546 0.8033
vn 0.4023 0.8567 0.3229
vn 0.4830 0.8743 0.0479
vn 0.5144 0.8575 0.0075
vn 0.4090 0.7620 -0.5021
vn 0.4240 0.4331 -0.7954
vn 0.5289 0.2030 -0.8240
vn 0.5180 -0.1791 -0.8364
vn 0.4854 -0.4129 -0.7707
vn 0.4255 -0.8006 -0.4219
vn 0.4783 -0.8772 -0.0421
vn 0.8191 -0.5203 0.2416
vn 0.8182 -0.5748 0.0122
vn 0.8167 -0.3892 0.4261
vn 0.7431 -0.1442 0.6535
vn 0.7892 0.0138 0.6140
vn 0.8002 0.2227 0.5568
vn 0.8075 0.5383 0.2413
vn 0.8055 0.5925 0.0117
vn 0.8040 0.5946 0.0117
vn 0.8220 0.5383 -0.1858
vn 0.7563 0.2022 -0.6221
vn 0.8053 0.0515 -0.5906
vn 0.8306 0.0089 -0.5568
vn 0.7926 -0.2701 -0.5466
vn 0.8169 -0.5277 -0.2329
vn 0.8169 -0.5767 0.0121
vn 0.9701 -0.1908 0.1501
vn 0.9612 0.1965 0.1935
vn 0.9668 0.1930 -0.1678
vn 0.9707 -0.1719 -0.1676
vt 0.088900 0.780600
vt 0.088900 0.820600
vt 0.048900 0.820600
vt 0.048900 0.778200
vt 0.048900 0.824700
vt 0.046900 0.824100
vt 0.045400 0.822600
vt 0.044800 0.820600
vt 0.044800 0.780600
vt 0.045400 0.778600
vt 0.046900 0.777100
vt 0.048900 0.776600
vt 0.088900 0.776600
vt 0.090900 0.777100
vt 0.092400 0.778600
vt 0.092900 0.780600
vt 0.092900 0.820600
vt 0.092400 0.822600
vt 0.090900 0.824100
vt 0.088900 0.824700
vt 0.045400 0.826700
vt 0.048900 0.827700
vt 0.042800 0.824100
vt 0.041900 0.820600
vt 0.041900 0.780600
vt 0.042800 0.777100
vt 0.045400 0.774600
vt 0.048900 0.773600
vt 0.088900 0.773600
vt 0.092400 0.774600
vt 0.095000 0.777100
vt 0.095900 0.780600
vt 0.095900 0.820600
vt 0.095000 0.824100
vt 0.092400 0.826700
vt 0.088900 0.827700
vt 0.044800 0.827700
vt 0.048900 0.828700
vt 0.041900 0.824700
vt 0.040800 0.820600
vt 0.040800 0.780600
vt 0.041900 0.776600
vt 0.044800 0.773600
vt 0.048900 0.772500
vt 0.088900 0.772500
vt 0.092900 0.773600
vt 0.095900 0.776600
vt 0.097000 0.780600
vt 0.097000 0.820600
vt 0.095900 0.824700
vt 0.092900 0.827700
vt 0.088900 0.828700
vt 0.945900 0.970300
vt 0.042200 0.970300
vt 0.042200 0.967600
vt 0.945900 0.967600
vt 0.042200 0.964900
vt 0.945900 0.964900
vt 0.042200 0.962300
vt 0.945900 0.962300
vt 0.042200 0.945400
vt 0.945900 0.945400
vt 0.042200 0.942900
vt 0.945900 0.942900
vt 0.042200 0.940400
vt 0.945900 0.940400
vt 0.042200 0.938000
vt 0.945900 0.938000
vt 0.042200 0.918700
vt 0.945900 0.918700
vt 0.042200 0.915800
vt 0.945900 0.915800
vt 0.042200 0.913200
vt 0.945900 0.913200
vt 0.042200 0.910300
vt 0.945900 0.910300
vt 0.042200 0.891600
vt 0.945900 0.891600
vt 0.042200 0.888900
vt 0.945900 0.888900
vt 0.042200 0.886200
vt 0.945900 0.886200
vt 0.042200 0.883600
vt 0.945900 0.883600
vt 0.042200 0.865500
vt 0.945900 0.865500
vt 0.048900 0.780600
s 1
f 1/1/1 2/2/2 3/3/3 4/4/4
f 3/3/3 5/5/5 6/6/6
f 3/3/3 6/6/6 7/7/7
f 3/3/3 7/7/7 8/8/8
f 9/9/9 4/4/4 3/3/3 8/8/8
f 4/4/4 9/9/9 10/10/10
f 4/4/4 10/10/10 11/11/11
f 4/4/4 11/11/11 12/12/12
f 13/13/13 1/1/1 4/4/4 12/12/12
f 1/1/1 13/13/13 14/14/14
f 1/1/1 14/14/14 15/15/15
f 1/1/1 15/15/15 16/16/16
f 17/17/17 2/2/2 1/1/1 16/16/16
f 2/2/2 17/17/17 18/18/18
f 2/2/2 18/18/18 19/19/19
f 2/2/2 19/19/19 20/20/20
f 5/5/5 3/3/3 2/2/2 20/20/20
f 21/21/21 6/6/6 5/5/5 22/22/22
f 23/23/23 7/7/7 6/6/6 21/21/21
f 24/24/24 8/8/8 7/7/7 23/23/23
f 25/25/25 9/9/9 8/8/8 24/24/24
f 26/26/26 10/10/10 9/9/9 25/25/25
f 27/27/27 11/11/11 10/10/10 26/26/26
f 28/28/28 12/12/12 11/11/11 27/27/27
f 29/29/29 13/13/13 12/12/12 28/28/28
f 30/30/30 14/14/14 13/13/13 29/29/29
f 31/31/31 15/15/15 14/14/14 30/30/30
f 32/32/32 16/16/16 15/15/15 31/31/31
f 33/33/33 17/17/17 16/16/16 32/32/32
f 34/34/34 18/18/18 17/17/17 33/33/33
f 35/35/35 19/19/19 18/18/18 34/34/34
f 36/36/36 20/20/20 19/19/19 35/35/35
f 22/22/22 5/5/5 20/20/20 36/36/36
f 37/37/37 21/21/21 22/22/22 38/38/38
f 39/39/39 23/23/23 21/21/21 37/37/37
f 40/40/40 24/24/24 23/23/23 39/39/39
f 41/41/41 25/25/25 24/24/24 40/40/40
f 42/42/42 26/26/26 25/25/25 41/41/41
f 43/43/43 27/27/27 26/26/26 42/42/42
f 44/44/44 28/28/28 27/27/27 43/43/43
f 45/45/45 29/29/29 28/28/28 44/44/44
f 46/46/46 30/30/30 29/29/29 45/45/45
f 47/47/47 31/31/31 30/30/30 46/46/46
f 48/48/48 32/32/32 31/31/31 47/47/47
f 49/49/49 33/33/33 32/32/32 48/48/48
f 50/50/50 34/34/34 33/33/33 49/49/49
f 51/51/51 35/35/35 34/34/34 50/50/50
f 52/52/52 36/36/36 35/35/35 51/51/51
f 38/38/38 22/22/22 36/36/36 52/52/52
f 38/53/38 53/54/53 54/55/54 37/56/37
f 37/56/37 54/55/54 55/57/55 39/58/39
f 39/58/39 55/57/55 56/59/56 40/60/40
f 56/59/56 57/61/57 41/62/41 40/60/40
f 41/62/41 57/61/57 58/63/58 42/64/42
f 42/64/42 58/63/58 59/65/59 43/66/43
f 43/66/43 59/65/59 60/67/60 44/68/44
f 60/67/60 61/69/61 45/70/45 44/68/44
f 45/70/45 61/69/61 62/71/62 46/72/46
f 46/72/46 62/71/62 63/73/63 47/74/47
f 47/74/47 63/73/63 64/75/64 48/76/48
f 64/75/64 65/77/65 49/78/49 48/76/48
f 49/78/49 65/77/65 66/79/66 50/80/50
f 50/80/50 66/79/66 67/81/67 51/82/51
f 51/82/51 67/81/67 68/83/68 52/84/52
f 68/83/68 53/85/53 38/86/38 52/84/52
f 69/27/69 54/43/54 53/44/53 70/28/70
f 71/26/71 55/42/55 54/43/54 69/27/69
f 72/25/72 56/41/56 55/42/55 71/26/71
f 73/24/73 57/40/57 56/41/56 72/25/72
f 74/23/74 58/39/58 57/40/57 73/24/73
f 75/21/75 59/37/59 58/39/58 74/23/74
f 76/22/76 60/38/60 59/37/59 75/21/75
f 77/36/77 61/52/61 60/38/60 76/22/76
f 78/35/78 62/51/62 61/52/61 77/36/77
f 79/34/79 63/50/63 62/51/62 78/35/78
f 80/33/80 64/49/64 63/50/63 79/34/79
f 81/32/81 65/48/65 64/49/64 80/33/80
f 82/31/82 66/47/66 65/48/65 81/32/81
f 83/30/83 67/46/67 66/47/66 82/31/82
f 84/29/84 68/45/68 67/46/67 83/30/83
f 70/28/70 53/44/53 68/45/68 84/29/84
f 85/11/85 69/27/69 70/28/70 86/12/86
f 87/10/87 71/26/71 69/27/69 85/11/85
f 88/9/88 72/25/72 71/26/71 87/10/87
f 89/8/89 73/24/73 72/25/72 88/9/88
f 90/7/90 74/23/74 73/24/73 89/8/89
f 91/6/91 75/21/75 74/23/74 90/7/90
f 92/5/92 76/22/76 75/21/75 91/6/91
f 93/20/93 77/36/77 76/22/76 92/5/92
f 94/19/94 78/35/78 77/36/77 93/20/93
f 95/18/95 79/34/79 78/35/78 94/19/94
f 96/17/96 80/33/80 79/34/79 95/18/95
f 97/16/97 81/32/81 80/33/80 96/17/96
f 98/15/98 82/31/82 81/32/81 97/16/97
f 99/14/99 83/30/83 82/31/82 98/15/98
f 100/13/100 84/29/84 83/30/83 99/14/99
f 86/12/86 70/28/70 84/29/84 100/13/100
f 86/12/86 101/87/101 85/11/85
f 85/11/85 101/87/101 87/10/87
f 87/10/87 101/87/101 88/9/88
f 102/3/102 89/8/89 88/9/88 101/87/101
f 89/8/89 102/3/102 90/7/90
f 90/7/90 102/3/102 91/6/91
f 91/6/91 102/3/102 92/5/92
f 103/2/103 93/20/93 92/5/92 102/3/102
f 93/20/93 103/2/103 94/19/94
f 94/19/94 103/2/103 95/18/95
f 95/18/95 103/2/103 96/17/96
f 104/1/104 97/16/97 96/17/96 103/2/103
f 97/16/97 104/1/104 98/15/98
f 98/15/98 104/1/104 99/14/99
f 99/14/99 104/1/104 100/13/100
f 101/87/101 86/12/86 100/13/100 104/1/104
f 102/3/102 101/87/101 104/1/104 103/2/103
