# Blender 3.6.1
# www.blender.org
mtllib cereal_box_visual.mtl
o SM_CerealBox
v 0.035000 -0.100000 0.150000
v 0.035000 -0.100000 -0.150000
v -0.035000 -0.100000 0.150000
v -0.035000 -0.100000 -0.150000
v 0.035000 0.100000 0.150000
v 0.035000 0.100000 -0.150000
v -0.035000 0.100000 0.150000
v -0.035000 0.100000 -0.150000
vn -0.0000 -0.0000 1.0000
vn -1.0000 -0.0000 -0.0000
vn -0.0000 1.0000 -0.0000
vn -0.0000 -0.0000 -1.0000
vn -0.0000 -1.0000 -0.0000
vn 1.0000 -0.0000 -0.0000
vt 0.146250 0.689249
vt 0.504242 0.689249
vt 0.504242 0.801966
vt 0.146250 0.801966
vt 0.976805 0.149880
vt 0.976805 0.685504
vt 0.618471 0.685504
vt 0.618471 0.149880
vt 0.617227 0.151125
vt 0.617227 0.685234
vt 0.505812 0.685234
vt 0.505812 0.151125
vt 0.146372 0.031678
vt 0.504019 0.031678
vt 0.504019 0.142150
vt 0.146372 0.142150
vt 0.140710 0.147721
vt 0.140710 0.688216
vt 0.031165 0.688216
vt 0.031165 0.147721
vt 0.503170 0.147810
vt 0.503170 0.688127
vt 0.143314 0.688127
vt 0.143314 0.147810
s 1
usemtl cereal_box_visual
f 1/1/1 5/2/1 7/3/1
f 1/1/1 7/3/1 3/4/1
f 4/5/2 3/6/2 7/7/2
f 4/5/2 7/7/2 8/8/2
f 8/9/3 7/10/3 5/11/3
f 8/9/3 5/11/3 6/12/3
f 6/13/4 2/14/4 4/15/4
f 6/13/4 4/15/4 8/16/4
f 2/17/5 1/18/5 3/19/5
f 2/17/5 3/19/5 4/20/5
f 6/21/6 5/22/6 1/23/6
f 6/21/6 1/23/6 2/24/6
