# Blender 3.6.1
# www.blender.org
mtllib Cube.mtl
o Cube7
v 0.500000 -0.500000 -0.500000
v 0.000000 -0.500000 -0.500000
v 0.500000 0.000000 -0.500000
v 0.000000 0.000000 -0.500000
v -0.500000 -0.500000 -0.500000
v 0.500000 0.500000 -0.500000
v -0.500000 0.000000 -0.500000
v 0.000000 0.500000 -0.500000
v -0.500000 0.500000 -0.500000
v 0.500000 -0.000000 0.500000
v 0.000000 -0.500000 0.500000
v 0.500000 -0.500000 0.500000
v 0.000000 -0.000000 0.500000
v 0.500000 0.500000 0.500000
v -0.500000 -0.500000 0.500000
v 0.000000 0.500000 0.500000
v -0.500000 -0.000000 0.500000
v -0.500000 0.500000 0.500000
v 0.500000 -0.500000 -0.000000
v 0.000000 -0.500000 -0.500000
v 0.500000 -0.500000 -0.500000
v 0.000000 -0.500000 -0.000000
v 0.500000 -0.500000 0.500000
v -0.500000 -0.500000 -0.500000
v 0.000000 -0.500000 0.500000
v -0.500000 -0.500000 -0.000000
v -0.500000 -0.500000 0.500000
v 0.500000 0.500000 0.000000
v 0.500000 0.000000 -0.500000
v 0.500000 0.500000 -0.500000
v 0.500000 -0.000000 -0.000000
v 0.500000 0.500000 0.500000
v 0.500000 -0.500000 -0.500000
v 0.500000 -0.000000 0.500000
v 0.500000 -0.500000 -0.000000
v 0.500000 -0.500000 0.500000
v -0.500000 0.500000 0.000000
v 0.000000 0.500000 -0.500000
v -0.500000 0.500000 -0.500000
v 0.000000 0.500000 0.000000
v -0.500000 0.500000 0.500000
v 0.500000 0.500000 -0.500000
v 0.000000 0.500000 0.500000
v 0.500000 0.500000 0.000000
v 0.500000 0.500000 0.500000
v -0.500000 -0.500000 -0.000000
v -0.500000 0.000000 -0.500000
v -0.500000 -0.500000 -0.500000
v -0.500000 -0.000000 -0.000000
v -0.500000 -0.500000 0.500000
v -0.500000 0.500000 -0.500000
v -0.500000 -0.000000 0.500000
v -0.500000 0.500000 0.000000
v -0.500000 0.500000 0.500000
vn -0.0000 -0.0000 -1.0000
vn -0.0000 -0.0000 1.0000
vn -0.0000 -1.0000 -0.0000
vn 1.0000 -0.0000 -0.0000
vn -0.0000 1.0000 -0.0000
vn -1.0000 -0.0000 -0.0000
vt 0.000000 0.000000
vt 0.500000 0.000000
vt 0.000000 0.500000
vt 0.500000 0.500000
vt 1.000000 0.000000
vt 0.000000 1.000000
vt 1.000000 0.500000
vt 0.500000 1.000000
vt 1.000000 1.000000
s 1
usemtl M_Glass
f 1/1/1 2/2/1 3/3/1
f 2/2/1 4/4/1 3/3/1
f 2/2/1 5/5/1 4/4/1
f 3/3/1 4/4/1 6/6/1
f 5/5/1 7/7/1 4/4/1
f 4/4/1 8/8/1 6/6/1
f 4/4/1 7/7/1 8/8/1
f 7/7/1 9/9/1 8/8/1
f 10/7/2 11/2/2 12/5/2
f 10/7/2 13/4/2 11/2/2
f 14/9/2 13/4/2 10/7/2
f 13/4/2 15/1/2 11/2/2
f 14/9/2 16/8/2 13/4/2
f 13/4/2 17/3/2 15/1/2
f 16/8/2 17/3/2 13/4/2
f 16/8/2 18/6/2 17/3/2
f 19/7/3 20/2/3 21/5/3
f 19/7/3 22/4/3 20/2/3
f 23/9/3 22/4/3 19/7/3
f 22/4/3 24/1/3 20/2/3
f 23/9/3 25/8/3 22/4/3
f 22/4/3 26/3/3 24/1/3
f 25/8/3 26/3/3 22/4/3
f 25/8/3 27/6/3 26/3/3
f 28/7/4 29/2/4 30/5/4
f 28/7/4 31/4/4 29/2/4
f 32/9/4 31/4/4 28/7/4
f 31/4/4 33/1/4 29/2/4
f 32/9/4 34/8/4 31/4/4
f 31/4/4 35/3/4 33/1/4
f 34/8/4 35/3/4 31/4/4
f 34/8/4 36/6/4 35/3/4
f 37/7/5 38/2/5 39/5/5
f 37/7/5 40/4/5 38/2/5
f 41/9/5 40/4/5 37/7/5
f 40/4/5 42/1/5 38/2/5
f 41/9/5 43/8/5 40/4/5
f 40/4/5 44/3/5 42/1/5
f 43/8/5 44/3/5 40/4/5
f 43/8/5 45/6/5 44/3/5
f 46/7/6 47/2/6 48/5/6
f 46/7/6 49/4/6 47/2/6
f 50/9/6 49/4/6 46/7/6
f 49/4/6 51/1/6 47/2/6
f 50/9/6 52/8/6 49/4/6
f 49/4/6 53/3/6 51/1/6
f 52/8/6 53/3/6 49/4/6
f 52/8/6 54/6/6 53/3/6
