# Blender 3.6.1
# www.blender.org
mtllib SM_Kleiderschrank_GriffLinks.mtl
o SM_Kleiderschrank_GriffLinks
v -0.005545 -0.007541 0.050413
v -0.005545 -0.007541 -0.055601
v -0.005545 0.007541 0.050413
v -0.005545 0.007541 -0.055601
v 0.020031 -0.007541 0.050413
v -0.005545 0.007541 0.050413
v 0.020031 0.007541 0.050413
v -0.005545 -0.007541 0.050413
v 0.020031 0.007541 -0.055601
v -0.005545 0.007541 -0.055601
v 0.020031 -0.007541 -0.055601
v -0.005545 -0.007541 -0.055601
v -0.020031 0.007541 0.065000
v -0.020031 0.007541 0.050413
v -0.020031 -0.007541 0.065000
v -0.020031 -0.007541 0.050413
v -0.020031 0.007541 -0.055601
v -0.020031 -0.007541 -0.055601
v -0.020031 0.007541 -0.065000
v -0.020031 -0.007541 -0.065000
v -0.020031 -0.007541 -0.065000
v -0.020031 0.007541 -0.065000
v -0.005545 0.007541 -0.065000
v -0.005545 -0.007541 -0.065000
v 0.020031 -0.007541 -0.065000
v 0.020031 0.007541 -0.065000
v -0.005545 0.007541 0.065000
v -0.020031 0.007541 0.065000
v -0.020031 -0.007541 0.065000
v -0.005545 -0.007541 0.065000
v 0.020031 -0.007541 0.065000
v 0.020031 0.007541 0.065000
v 0.020031 -0.007541 0.065000
v -0.005545 -0.007541 0.065000
v 0.020031 -0.007541 0.050413
v -0.005545 -0.007541 0.050413
v -0.020031 -0.007541 0.050413
v -0.020031 -0.007541 0.065000
v -0.020031 -0.007541 -0.055601
v -0.005545 -0.007541 -0.055601
v -0.020031 -0.007541 -0.065000
v -0.005545 -0.007541 -0.065000
v 0.020031 -0.007541 -0.065000
v 0.020031 -0.007541 -0.055601
v -0.005545 0.007541 -0.065000
v 0.020031 0.007541 -0.055601
v 0.020031 0.007541 -0.065000
v -0.005545 0.007541 -0.055601
v -0.020031 0.007541 -0.055601
v -0.020031 0.007541 -0.065000
v -0.020031 0.007541 0.050413
v -0.005545 0.007541 0.050413
v -0.020031 0.007541 0.065000
v -0.005545 0.007541 0.065000
v 0.020031 0.007541 0.065000
v 0.020031 0.007541 0.050413
vn 1.0000 -0.0000 -0.0000
vn -0.0000 -0.0000 -1.0000
vn -0.0000 -0.0000 1.0000
vn -1.0000 -0.0000 -0.0000
vn -0.0000 -1.0000 -0.0000
vn -0.0000 1.0000 -0.0000
vt 0.356689 0.838989
vt 0.356689 0.042480
vt 0.469971 0.838989
vt 0.469971 0.042480
vt 0.515137 0.208008
vt 0.707031 0.321289
vt 0.515137 0.321289
vt 0.707031 0.208008
vt 0.515137 0.340332
vt 0.707031 0.340332
vt 0.515137 0.453613
vt 0.707031 0.453613
vt 0.989746 0.010254
vt 0.989746 0.120117
vt 0.876465 0.010254
vt 0.876465 0.120117
vt 0.989746 0.916443
vt 0.876465 0.916443
vt 0.989746 0.987061
vt 0.876465 0.987061
vt 0.278564 0.510742
vt 0.165283 0.510742
vt 0.165283 0.401855
vt 0.278564 0.401855
vt 0.278564 0.209961
vt 0.165283 0.209961
vt 0.165283 0.636719
vt 0.165283 0.527832
vt 0.278564 0.527832
vt 0.278564 0.636719
vt 0.278564 0.828979
vt 0.165283 0.828979
vt 0.558105 0.010254
vt 0.750488 0.010254
vt 0.558105 0.120117
vt 0.750488 0.120117
vt 0.859375 0.120117
vt 0.859375 0.010254
vt 0.859375 0.916443
vt 0.750488 0.916443
vt 0.859375 0.987061
vt 0.750488 0.987061
vt 0.558105 0.987061
vt 0.558105 0.916443
vt 0.118835 0.987061
vt 0.311035 0.916443
vt 0.311035 0.987061
vt 0.118835 0.916443
vt 0.009995 0.916443
vt 0.009995 0.987061
vt 0.009995 0.120117
vt 0.118835 0.120117
vt 0.009995 0.010254
vt 0.118835 0.010254
vt 0.311035 0.010254
vt 0.311035 0.120117
s 1
usemtl M_Metal_Dark
f 1/1/1 2/2/1 3/3/1
f 3/3/1 2/2/1 4/4/1
f 5/5/2 6/6/2 7/7/2
f 6/6/2 5/5/2 8/8/2
f 9/9/3 10/10/3 11/11/3
f 10/10/3 12/12/3 11/11/3
f 13/13/4 14/14/4 15/15/4
f 15/15/4 14/14/4 16/16/4
f 14/14/4 17/17/4 16/16/4
f 16/16/4 17/17/4 18/18/4
f 18/18/4 17/17/4 19/19/4
f 18/18/4 19/19/4 20/20/4
f 21/21/2 22/22/2 23/23/2
f 24/24/2 21/21/2 23/23/2
f 23/23/2 25/25/2 24/24/2
f 25/25/2 23/23/2 26/26/2
f 27/27/3 28/28/3 29/29/3
f 27/27/3 29/29/3 30/30/3
f 27/27/3 30/30/3 31/31/3
f 32/32/3 27/27/3 31/31/3
f 33/33/5 34/34/5 35/35/5
f 36/36/5 35/35/5 34/34/5
f 37/37/5 34/34/5 38/38/5
f 34/34/5 37/37/5 36/36/5
f 37/37/5 39/39/5 36/36/5
f 36/36/5 39/39/5 40/40/5
f 40/40/5 39/39/5 41/41/5
f 40/40/5 41/41/5 42/42/5
f 42/42/5 43/43/5 40/40/5
f 44/44/5 40/40/5 43/43/5
f 45/45/6 46/46/6 47/47/6
f 46/46/6 45/45/6 48/48/6
f 49/49/6 45/45/6 50/50/6
f 49/49/6 48/48/6 45/45/6
f 51/51/6 48/48/6 49/49/6
f 52/52/6 48/48/6 51/51/6
f 53/53/6 52/52/6 51/51/6
f 54/54/6 52/52/6 53/53/6
f 55/55/6 52/52/6 54/54/6
f 52/52/6 55/55/6 56/56/6
