# Blender 3.6.1
# www.blender.org
mtllib SM_Living_Wall_06.mtl
o SM_Living_Wall_06
v -0.948889 0.000000 1.525850
v 0.723033 0.000000 0.971170
v 0.723033 0.000000 1.525850
v -0.948889 0.000000 0.971170
v -0.948889 0.000000 1.525850
v -9.380225 0.000003 1.525850
v -0.948889 0.000000 0.971170
v -9.380225 0.000003 0.971170
v -0.948890 0.000000 -1.525850
v -9.380225 0.000003 -1.525850
v 9.380225 -0.000003 -1.525850
v 0.723033 0.000000 0.971170
v 0.723033 0.000000 -1.525850
v 9.380225 -0.000003 0.971170
v 0.723033 0.000000 1.525850
v 9.380225 -0.000003 1.525850
vn -0.0000 -1.0000 -0.0000
vt -0.641113 2.025391
vt 1.640625 0.500244
vt 1.640625 2.025391
vt -0.641113 0.500000
vt -8.875000 2.025391
vt -8.875000 0.500000
vt -0.641113 -1.025391
vt -8.875000 -1.025391
vt 9.875000 -1.025391
vt 1.640625 -1.025391
vt 9.875000 0.500244
vt 9.875000 2.025391
s 1
usemtl M_Basic_Wall
f 1/1/1 2/2/1 3/3/1
f 2/2/1 1/1/1 4/4/1
f 5/1/1 6/5/1 7/4/1
f 8/6/1 7/4/1 6/5/1
f 8/6/1 9/7/1 7/4/1
f 9/7/1 8/6/1 10/8/1
f 11/9/1 12/2/1 13/10/1
f 12/2/1 11/9/1 14/11/1
f 14/11/1 15/3/1 12/2/1
f 15/3/1 14/11/1 16/12/1
