# Blender 3.6.1
# www.blender.org
mtllib SM_Living_Wall_02.mtl
o SM_Living_Wall_02
v -0.102276 -2.483446 -1.466858
v -0.102274 2.329248 -1.466858
v -0.102276 -2.483446 -1.039071
v -0.102274 2.329248 -1.039071
v -0.102276 -2.483446 0.604879
v -0.102274 2.329248 0.604879
v -0.102274 2.329247 1.513093
v -0.102276 -2.483446 1.513093
v -0.102276 -2.483446 1.530121
v -0.102274 2.329247 1.530121
v 0.087276 2.329247 1.530121
v -0.102274 2.329247 1.530121
v -0.102274 2.329247 1.513093
v 0.087276 2.329247 1.513093
v -0.102274 2.329248 0.604879
v 0.087276 2.329248 0.604879
v 0.087276 2.329248 -1.039071
v -0.102274 2.329248 -1.039071
v -0.102274 2.329248 -1.466858
v 0.087276 2.329248 -1.466858
v 0.087276 2.483448 -1.039071
v 0.087276 2.329248 -1.466858
v 0.087276 2.483448 -1.466858
v 0.087276 2.329248 -1.039071
v 0.087276 2.329248 0.604879
v 0.087276 2.483448 0.604879
v 0.087276 2.483448 1.513093
v 0.087276 2.329247 1.513093
v 0.087276 2.329247 1.530121
v 0.087276 2.483448 1.530121
v -0.096258 2.324905 -1.466858
v -0.096260 -2.479082 -1.466858
v -0.096260 -2.479082 -1.521580
v -0.096258 2.324905 -1.521580
v 0.091451 2.324905 -1.466858
v -0.096258 2.324905 -1.466858
v -0.096258 2.324905 -1.521580
v 0.091451 2.324905 -1.521580
v 0.091451 2.324905 -1.466858
v 0.091451 2.479375 -1.521580
v 0.091451 2.479376 -1.466858
v 0.091451 2.324905 -1.521580
v 0.091451 2.479376 -1.466858
v 0.087276 2.329248 -1.466858
v 0.091451 2.324905 -1.466858
v 0.087276 2.483448 -1.466858
v 0.087276 2.329248 -1.466858
v -0.102274 2.329248 -1.466858
v -0.096258 2.324905 -1.466858
v 0.091451 2.324905 -1.466858
v -0.096260 -2.479082 -1.466858
v -0.096258 2.324905 -1.466858
v -0.102274 2.329248 -1.466858
v -0.102276 -2.483446 -1.466858
v -0.087274 2.314248 -1.530121
v -0.096260 -2.479082 -1.521580
v -0.087276 -2.468446 -1.530121
v -0.096258 2.324905 -1.521580
v 0.091451 2.324905 -1.521580
v -0.096258 2.324905 -1.521580
v -0.087274 2.314248 -1.530121
v 0.102276 2.314248 -1.530121
v 0.102276 2.468447 -1.530121
v 0.091451 2.324905 -1.521580
v 0.102276 2.314248 -1.530121
v 0.091451 2.479375 -1.521580
vn 1.0000 -0.0000 -0.0000
vn -0.0000 -1.0000 -0.0000
vn -0.0000 -0.0000 1.0000
vn 0.6890 -0.0000 0.7248
vn 0.6890 -0.0000 0.7247
vn -0.0000 -0.6254 0.7803
vn -0.0000 -0.6253 0.7804
vn 0.6194 -0.0000 0.7851
vt -1.950195 -0.966797
vt 2.861328 -0.966797
vt -1.950195 -0.539062
vt 2.861328 -0.539062
vt -1.950195 1.104858
vt 2.861328 1.104858
vt 2.861328 2.012695
vt -1.950195 2.012695
vt -1.950195 2.029297
vt 2.861328 2.029297
vt -8.781250 2.029297
vt -8.968750 2.029297
vt -8.968750 2.012695
vt -8.781250 2.012695
vt -8.968750 1.104858
vt -8.781250 1.104858
vt -8.781250 -0.539062
vt -8.968750 -0.539062
vt -8.968750 -0.966797
vt -8.781250 -0.966797
vt 3.015625 -0.539062
vt 3.015625 -0.966797
vt 3.015625 1.104858
vt 3.015625 2.012695
vt 3.015625 2.029297
vt 2.855469 -0.966797
vt -1.946289 -0.966797
vt -1.946289 -1.021484
vt 2.855469 -1.021484
vt -8.968750 -1.021484
vt -8.781250 -1.021484
vt 3.009766 -1.021484
vt 3.009766 -0.966797
vt 9.781250 -2.009766
vt 9.781250 -1.861328
vt 9.781250 -1.855469
vt 9.781250 -2.015625
vt 9.968750 -1.861328
vt 9.968750 -1.855469
vt 9.968750 2.946289
vt 9.968750 2.950195
vt 9.953125 -1.845703
vt 9.953125 2.935547
vt 9.765625 -1.845703
vt 9.765625 -2.000000
s 1
usemtl M_Basic_Wall
f 1/1/1 2/2/1 3/3/1
f 4/4/1 3/3/1 2/2/1
f 3/3/1 4/4/1 5/5/1
f 6/6/1 5/5/1 4/4/1
f 7/7/1 5/5/1 6/6/1
f 7/7/1 8/8/1 5/5/1
f 8/8/1 7/7/1 9/9/1
f 10/10/1 9/9/1 7/7/1
f 11/11/2 12/12/2 13/13/2
f 11/11/2 13/13/2 14/14/2
f 13/13/2 15/15/2 14/14/2
f 14/14/2 15/15/2 16/16/2
f 17/17/2 16/16/2 15/15/2
f 15/15/2 18/18/2 17/17/2
f 18/18/2 19/19/2 17/17/2
f 17/17/2 19/19/2 20/20/2
f 21/21/1 22/2/1 23/22/1
f 24/4/1 22/2/1 21/21/1
f 25/6/1 24/4/1 21/21/1
f 21/21/1 26/23/1 25/6/1
f 27/24/1 25/6/1 26/23/1
f 28/7/1 25/6/1 27/24/1
f 27/24/1 29/10/1 28/7/1
f 29/10/1 27/24/1 30/25/1
usemtl WorldGridMaterial
f 31/26/1 32/27/1 33/28/1
f 31/26/1 33/28/1 34/29/1
f 35/20/2 36/19/2 37/30/2
f 35/20/2 37/30/2 38/31/2
f 39/26/1 40/32/1 41/33/1
f 40/32/1 39/26/1 42/29/1
f 43/34/3 44/35/3 45/36/3
f 44/35/3 43/34/3 46/37/3
f 47/35/3 48/38/3 49/39/3
f 47/35/3 49/39/3 50/36/3
f 51/40/3 52/39/3 53/38/3
f 53/38/3 54/41/3 51/40/3
f 55/42/4 56/40/5 57/43/5
f 56/40/5 55/42/4 58/39/4
f 59/36/6 60/39/7 61/42/7
f 61/42/7 62/44/6 59/36/6
f 63/45/8 64/36/8 65/44/8
f 64/36/8 63/45/8 66/34/8
