# Blender 3.6.1
# www.blender.org
mtllib SM_Living_Wall_05.mtl
o SM_Living_Wall_05
v 0.124497 1.155298 -1.525850
v 0.124497 1.155298 1.525850
v 0.124497 0.955298 1.325850
v 0.124497 0.955298 -1.325850
v 0.124497 -0.955299 1.325850
v 0.124497 -1.155299 -1.525850
v 0.124497 -1.155299 1.525850
v 0.124497 -0.955299 -1.325850
v -0.124496 0.955298 1.325850
v 0.124497 0.955298 -1.325850
v 0.124497 0.955298 1.325850
v -0.124496 0.955298 -1.325850
v 0.124497 -0.955299 1.325850
v -0.124496 0.955298 1.325850
v 0.124497 0.955298 1.325850
v -0.124496 -0.955299 1.325850
v -0.124496 -0.955299 -1.325850
v -0.124496 -0.955299 1.325850
v 0.124497 -0.955299 1.325850
v 0.124497 -0.955299 -1.325850
v -0.124496 0.955298 -1.325850
v 0.124497 -0.955299 -1.325850
v 0.124497 0.955298 -1.325850
v -0.124496 -0.955299 -1.325850
vn 1.0000 -0.0000 -0.0000
vn -0.0000 -1.0000 -0.0000
vn -0.0000 -0.0000 -1.0000
vn -0.0000 1.0000 -0.0000
vn -0.0000 -0.0000 1.0000
vt 1.655273 -1.025391
vt 1.655273 2.025391
vt -0.655273 2.025391
vt -0.655273 -1.025391
s 1
usemtl M_Basic_Wall
f 1/1/1 2/2/1 3/2/1
f 1/1/1 3/2/1 4/1/1
f 2/2/1 5/3/1 3/2/1
f 6/4/1 1/1/1 4/1/1
f 2/2/1 7/3/1 5/3/1
f 6/4/1 4/1/1 8/4/1
f 7/3/1 8/4/1 5/3/1
f 7/3/1 6/4/1 8/4/1
f 9/2/2 10/1/2 11/2/2
f 10/1/2 9/2/2 12/1/2
f 13/3/3 14/2/3 15/2/3
f 14/2/3 13/3/3 16/3/3
f 17/4/4 18/3/4 19/3/4
f 19/3/4 20/4/4 17/4/4
f 21/1/5 22/4/5 23/1/5
f 22/4/5 21/1/5 24/4/5
