# Blender 3.6.1
# www.blender.org
mtllib SM_Nachttisch.mtl
o SM_Nachttisch
v -0.153000 -0.153000 -0.230000
v -0.153000 -0.156000 -0.227000
v -0.156000 -0.153000 -0.227000
v -0.153000 -0.153000 0.230000
v -0.156000 -0.153000 0.227000
v -0.153000 -0.156000 0.227000
v 0.153000 -0.156000 0.227000
v 0.156000 -0.153000 0.227000
v 0.153000 -0.153000 0.230000
v 0.156000 -0.153000 -0.227000
v 0.153000 -0.156000 -0.227000
v 0.153000 -0.153000 -0.230000
v 0.156000 0.153000 0.227000
v 0.153000 0.156000 0.227000
v 0.153000 0.153000 0.230000
v 0.153000 0.156000 -0.227000
v 0.156000 0.153000 -0.227000
v 0.153000 0.153000 -0.230000
v -0.153000 0.156000 0.227000
v -0.156000 0.153000 0.227000
v -0.153000 0.153000 0.230000
v -0.156000 0.153000 -0.227000
v -0.153000 0.156000 -0.227000
v -0.153000 0.153000 -0.230000
v -0.153000 0.153000 0.230000
v 0.153000 -0.153000 0.230000
v 0.153000 0.153000 0.230000
v -0.153000 -0.153000 0.230000
v -0.153000 -0.156000 0.227000
v 0.153000 -0.156000 -0.227000
v 0.153000 -0.156000 0.227000
v -0.153000 -0.156000 -0.227000
v 0.156000 -0.153000 0.227000
v 0.156000 0.153000 -0.227000
v 0.156000 0.153000 0.227000
v 0.156000 -0.153000 -0.227000
v 0.153000 0.156000 0.227000
v -0.153000 0.156000 -0.227000
v -0.153000 0.156000 0.227000
v 0.153000 0.156000 -0.227000
v -0.156000 0.153000 0.227000
v -0.156000 -0.153000 -0.227000
v -0.156000 -0.153000 0.227000
v -0.156000 0.153000 -0.227000
v -0.156000 -0.153000 -0.227000
v -0.153000 0.153000 -0.230000
v -0.153000 -0.153000 -0.230000
v -0.156000 0.153000 -0.227000
v -0.153000 0.156000 -0.227000
v 0.153000 0.153000 -0.230000
v -0.153000 0.153000 -0.230000
v 0.153000 0.156000 -0.227000
v 0.156000 0.153000 -0.227000
v 0.156000 -0.153000 -0.227000
v 0.153000 -0.153000 -0.230000
v 0.153000 0.153000 -0.230000
v 0.153000 -0.156000 -0.227000
v -0.153000 -0.156000 -0.227000
v -0.153000 -0.153000 -0.230000
v 0.153000 -0.153000 -0.230000
v -0.153000 -0.156000 0.227000
v 0.153000 -0.153000 0.230000
v -0.153000 -0.153000 0.230000
v 0.153000 -0.156000 0.227000
v 0.156000 -0.153000 0.227000
v 0.156000 0.153000 0.227000
v 0.153000 0.153000 0.230000
v 0.153000 -0.153000 0.230000
v 0.153000 0.156000 0.227000
v -0.153000 0.156000 0.227000
v -0.153000 0.153000 0.230000
v 0.153000 0.153000 0.230000
v -0.156000 0.153000 0.227000
v -0.153000 -0.153000 0.230000
v -0.153000 0.153000 0.230000
v -0.156000 -0.153000 0.227000
v 0.156000 -0.153000 -0.227000
v 0.156000 -0.153000 0.227000
v 0.153000 -0.156000 0.227000
v 0.153000 -0.156000 -0.227000
v -0.156000 -0.153000 0.227000
v -0.153000 -0.156000 -0.227000
v -0.153000 -0.156000 0.227000
v -0.156000 -0.153000 -0.227000
v 0.153000 0.156000 -0.227000
v 0.153000 0.156000 0.227000
v 0.156000 0.153000 0.227000
v 0.156000 0.153000 -0.227000
v -0.156000 0.153000 -0.227000
v -0.156000 0.153000 0.227000
v -0.153000 0.156000 0.227000
v -0.153000 0.156000 -0.227000
vn -0.5773 -0.5774 -0.5774
vn -0.5773 -0.5774 0.5774
vn 0.5773 -0.5774 0.5774
vn 0.5773 -0.5774 -0.5774
vn 0.5773 0.5774 0.5774
vn 0.5773 0.5774 -0.5774
vn -0.5773 0.5774 0.5774
vn -0.5773 0.5774 -0.5774
vn -0.0000 -0.0000 1.0000
vn -0.0000 -1.0000 -0.0000
vn 1.0000 -0.0000 -0.0000
vn -0.0000 1.0000 -0.0000
vn -1.0000 -0.0000 -0.0000
vn -0.7071 -0.0000 -0.7071
vn -0.0000 0.7071 -0.7071
vn 0.7071 -0.0000 -0.7071
vn -0.0000 -0.7071 -0.7071
vn -0.0000 -0.7071 0.7071
vn 0.7071 -0.0000 0.7071
vn -0.0000 0.7071 0.7071
vn -0.7071 -0.0000 0.7071
vn 0.7071 -0.7071 -0.0000
vn -0.7071 -0.7071 -0.0000
vn 0.7071 0.7071 -0.0000
vn -0.7071 0.7071 -0.0000
vt 0.500488 0.611816
vt 0.497070 0.613770
vt 0.497070 0.610107
vt 0.004654 0.612549
vt 0.007671 0.610107
vt 0.007671 0.613525
vt 0.000059 0.498535
vt 0.003607 0.498535
vt 0.001904 0.501953
vt 0.003569 0.008789
vt 0.000000 0.008789
vt 0.001784 0.005371
vt 0.333008 0.498535
vt 0.336670 0.498535
vt 0.334717 0.501709
vt 0.336670 0.008789
vt 0.333008 0.008789
vt 0.334961 0.005371
vt 0.666504 0.498535
vt 0.669922 0.498535
vt 0.667969 0.501709
vt 0.669922 0.008789
vt 0.666504 0.008789
vt 0.667969 0.005371
vt 0.544922 0.971222
vt 0.972656 0.542969
vt 0.972656 0.971222
vt 0.544434 0.543213
vt 0.497070 0.943420
vt 0.007671 0.943420
vt 0.999512 0.008789
vt 1.000000 0.498535
vt 0.669922 0.005371
vt 1.000000 0.005371
vt 0.336426 0.005371
vt 0.666504 0.005371
vt 0.003403 0.005371
vt 0.333252 0.005371
vt 0.500000 0.615234
vt 0.500488 0.943420
vt 0.004372 0.942444
vt 0.333008 0.501709
vt 0.004520 0.501953
vt 0.666016 0.501709
vt 0.336426 0.501465
vt 0.999023 0.501465
vt 0.669922 0.501709
s 1
usemtl M_Nachttisch
f 1/1/1 2/2/1 3/3/1
f 4/4/2 5/5/2 6/6/2
f 7/7/3 8/8/3 9/9/3
f 10/10/4 11/11/4 12/12/4
f 13/13/5 14/14/5 15/15/5
f 16/16/6 17/17/6 18/18/6
f 19/19/7 20/20/7 21/21/7
f 22/22/8 23/23/8 24/24/8
f 25/25/9 26/26/9 27/27/9
f 26/26/9 25/25/9 28/28/9
f 29/6/10 30/29/10 31/30/10
f 30/29/10 29/6/10 32/2/10
f 33/8/11 34/17/11 35/13/11
f 34/17/11 33/8/11 36/10/11
f 37/14/12 38/23/12 39/19/12
f 38/23/12 37/14/12 40/16/12
f 41/20/13 42/31/13 43/32/13
f 42/31/13 41/20/13 44/22/13
f 45/31/14 46/33/14 47/34/14
f 46/33/14 45/31/14 48/22/14
f 49/23/15 50/35/15 51/36/15
f 50/35/15 49/23/15 52/16/15
f 53/17/16 54/10/16 55/37/16
f 55/37/16 56/38/16 53/17/16
f 57/29/17 58/2/17 59/39/17
f 57/29/17 59/39/17 60/40/17
f 61/6/18 62/41/18 63/4/18
f 62/41/18 61/6/18 64/30/18
f 65/8/19 66/13/19 67/42/19
f 67/42/19 68/43/19 65/8/19
f 69/14/20 70/19/20 71/44/20
f 69/14/20 71/44/20 72/45/20
f 73/20/21 74/46/21 75/47/21
f 74/46/21 73/20/21 76/32/21
f 77/10/22 78/8/22 79/7/22
f 79/7/22 80/11/22 77/10/22
f 81/5/23 82/2/23 83/6/23
f 82/2/23 81/5/23 84/3/23
f 85/16/24 86/14/24 87/13/24
f 87/13/24 88/17/24 85/16/24
f 89/22/25 90/20/25 91/19/25
f 91/19/25 92/23/25 89/22/25
