# Blender 3.6.1
# www.blender.org
mtllib SM_Steckdosenbox_01.mtl
o SM_Steckdosenbox_01
v 0.272538 -0.031481 0.021500
v 0.288266 -0.031481 0.089366
v 0.272538 -0.031481 0.089366
v 0.288266 -0.031481 0.021500
v -0.151780 -0.031481 0.089366
v -0.288266 -0.031481 0.089366
v -0.288266 -0.031481 0.021500
v -0.151780 -0.031481 0.021500
v 0.067715 -0.019369 -0.039428
v 0.067715 -0.019369 -0.124150
v 0.067716 0.031481 -0.039428
v 0.067716 0.031481 -0.124150
v -0.070320 0.031481 -0.039428
v -0.070320 0.031481 -0.124150
v -0.070320 -0.019369 -0.039428
v -0.070320 -0.019369 -0.124150
v 0.288266 0.031481 0.094549
v 0.285560 -0.019369 0.091957
v 0.285560 0.031481 0.091957
v 0.288266 -0.019369 0.094549
v 0.288266 -0.031481 0.094549
v 0.285560 -0.028815 0.091957
v 0.285560 -0.019369 0.091957
v -0.041260 -0.031481 0.021500
v -0.041260 -0.031481 0.089366
v -0.080283 -0.031481 0.089366
v -0.080283 -0.031481 0.021500
v 0.100588 -0.031481 0.089366
v 0.122714 -0.031481 0.021500
v 0.122715 -0.031481 0.089366
v 0.100588 -0.031481 0.021500
v 0.288266 -0.031481 0.089366
v 0.288266 -0.031481 0.021500
v 0.288266 -0.019369 0.089366
v 0.288266 -0.019369 0.021500
v 0.288266 0.031481 0.089366
v 0.288266 0.031481 0.021500
v -0.070320 -0.019369 -0.039428
v -0.070320 -0.019369 -0.124150
v -0.048193 -0.019369 -0.124150
v -0.048193 -0.019369 -0.039428
v 0.045589 -0.019369 -0.124150
v 0.045589 -0.019369 -0.039428
v 0.067715 -0.019369 -0.124150
v 0.067715 -0.019369 -0.039428
v -0.288266 0.031481 0.021500
v -0.288266 -0.019369 0.089366
v -0.288266 0.031481 0.089366
v -0.288266 -0.019369 0.021500
v -0.288266 -0.031481 0.089366
v -0.288266 -0.031481 0.021500
v 0.288266 -0.019369 0.124150
v 0.272538 -0.019369 0.124150
v 0.288266 -0.031481 0.112037
v 0.272538 -0.031481 0.112037
v 0.122715 -0.019369 0.124150
v 0.122715 -0.031481 0.112037
v 0.100588 -0.019369 0.124150
v 0.100588 -0.031481 0.112037
v -0.041260 -0.019369 0.124150
v -0.041260 -0.031481 0.112037
v -0.080283 -0.019369 0.124150
v -0.080283 -0.031481 0.112037
v -0.151780 -0.019369 0.124150
v -0.151780 -0.031481 0.112037
v -0.288266 -0.019369 0.124150
v -0.288266 -0.031481 0.112037
v -0.146799 -0.025109 -0.039428
v -0.288266 -0.031481 -0.033056
v -0.288266 -0.025109 -0.039428
v -0.146799 -0.031481 -0.033056
v -0.070320 -0.025109 -0.039428
v -0.070320 -0.031481 -0.033056
v -0.048193 -0.025109 -0.039428
v -0.048193 -0.031481 -0.033056
v 0.045589 -0.025109 -0.039428
v 0.045589 -0.031481 -0.033056
v 0.067715 -0.025109 -0.039428
v 0.067715 -0.031481 -0.033056
v 0.267314 -0.025109 -0.039428
v 0.267314 -0.031481 -0.033056
v 0.288266 -0.025109 -0.039428
v 0.288266 -0.031481 -0.033056
v -0.151780 -0.031481 0.016317
v -0.288266 -0.031481 0.016317
v -0.288266 -0.031481 -0.033056
v -0.146799 -0.031481 -0.033056
v -0.080283 -0.031481 0.016317
v -0.070320 -0.031481 -0.033056
v -0.041260 -0.031481 0.016317
v -0.048193 -0.031481 -0.033056
v 0.045589 -0.031481 -0.033056
v 0.100588 -0.031481 0.016317
v 0.067715 -0.031481 -0.033056
v 0.122714 -0.031481 0.016317
v 0.267314 -0.031481 -0.033056
v 0.272538 -0.031481 0.016317
v 0.288266 -0.031481 -0.033056
v 0.288266 -0.031481 0.016317
v 0.288266 -0.019369 0.021500
v 0.288266 -0.031481 0.021500
v 0.285560 -0.028815 0.018909
v 0.285560 -0.019369 0.018909
v 0.288266 0.031481 0.021500
v 0.285560 0.031481 0.018909
v -0.288266 0.031481 0.089366
v -0.285560 -0.019369 0.091957
v -0.285560 0.031481 0.091957
v -0.288266 -0.019369 0.089366
v -0.285560 -0.028815 0.091957
v -0.288266 -0.031481 0.089366
v 0.285560 -0.028815 0.091957
v 0.272538 -0.031481 0.089366
v 0.288266 -0.031481 0.089366
v 0.270090 -0.028815 0.091957
v 0.122715 -0.031481 0.089366
v 0.122715 -0.028815 0.091957
v 0.100588 -0.028815 0.091957
v 0.100588 -0.031481 0.089366
v -0.041260 -0.028815 0.091957
v -0.041260 -0.031481 0.089366
v -0.080283 -0.028815 0.091957
v -0.080283 -0.031481 0.089366
v -0.150428 -0.028815 0.091957
v -0.151780 -0.031481 0.089366
v -0.285560 -0.028815 0.091957
v -0.288266 -0.031481 0.089366
v -0.151780 -0.031481 0.021500
v -0.288266 -0.031481 0.021500
v -0.285560 -0.028815 0.018909
v -0.150428 -0.028815 0.018909
v -0.080283 -0.031481 0.021500
v -0.080283 -0.028815 0.018909
v -0.041260 -0.028815 0.018909
v -0.041260 -0.031481 0.021500
v 0.100588 -0.028815 0.018909
v 0.100588 -0.031481 0.021500
v 0.122714 -0.028815 0.018909
v 0.122714 -0.031481 0.021500
v 0.270089 -0.028815 0.018909
v 0.272538 -0.031481 0.021500
v 0.285560 -0.028815 0.018909
v 0.288266 -0.031481 0.021500
v -0.285560 -0.019369 0.018909
v -0.285560 0.031481 0.018909
v -0.288266 0.031481 0.016317
v -0.288266 -0.019369 0.016317
v -0.285560 -0.028815 0.018909
v -0.288266 -0.031481 0.016317
v 0.288266 -0.031481 0.094549
v 0.272538 -0.031481 0.094549
v 0.285560 -0.028815 0.091957
v 0.270090 -0.028815 0.091957
v 0.122715 -0.031481 0.094549
v 0.122715 -0.028815 0.091957
v 0.100588 -0.031481 0.094549
v 0.100588 -0.028815 0.091957
v -0.041260 -0.031481 0.094549
v -0.041260 -0.028815 0.091957
v -0.080283 -0.031481 0.094549
v -0.080283 -0.028815 0.091957
v -0.150428 -0.028815 0.091957
v -0.151780 -0.031481 0.094549
v -0.285560 -0.028815 0.091957
v -0.288266 -0.031481 0.094549
v -0.288266 -0.031481 0.016317
v -0.151780 -0.031481 0.016317
v -0.285560 -0.028815 0.018909
v -0.150428 -0.028815 0.018909
v -0.080283 -0.031481 0.016317
v -0.080283 -0.028815 0.018909
v -0.041260 -0.031481 0.016317
v -0.041260 -0.028815 0.018909
v 0.100588 -0.031481 0.016317
v 0.100588 -0.028815 0.018909
v 0.122714 -0.031481 0.016317
v 0.122714 -0.028815 0.018909
v 0.270089 -0.028815 0.018909
v 0.272538 -0.031481 0.016317
v 0.285560 -0.028815 0.018909
v 0.288266 -0.031481 0.016317
v -0.288266 -0.019369 0.124150
v -0.151780 -0.019369 0.124150
v -0.288266 0.031481 0.124150
v -0.151780 0.031481 0.124150
v -0.080283 -0.019369 0.124150
v -0.080283 0.031481 0.124150
v -0.041260 -0.019369 0.124150
v -0.041260 0.031481 0.124150
v 0.100588 -0.019369 0.124150
v 0.100588 0.031481 0.124150
v 0.122714 0.031481 0.124150
v 0.122715 -0.019369 0.124150
v 0.272538 0.031481 0.124150
v 0.272538 -0.019369 0.124150
v 0.288266 -0.019369 0.124150
v 0.288266 0.031481 0.124150
v 0.288266 -0.019369 0.094549
v 0.288266 -0.031481 0.112037
v 0.288266 -0.031481 0.094549
v 0.288266 -0.019369 0.124150
v 0.288266 0.031481 0.124150
v 0.288266 0.031481 0.094549
v -0.288266 -0.019369 0.094549
v -0.288266 0.031481 0.124150
v -0.288266 0.031481 0.094549
v -0.288266 -0.019369 0.124150
v -0.288266 -0.031481 0.112037
v -0.288266 -0.031481 0.094549
v -0.288266 -0.019369 0.016317
v -0.288266 0.031481 0.016317
v -0.288266 0.031481 -0.039428
v -0.288266 -0.019369 -0.039428
v -0.288266 -0.031481 -0.033056
v -0.288266 -0.031481 0.016317
v -0.288266 -0.025109 -0.039428
v 0.288266 -0.031481 0.112037
v 0.272538 -0.031481 0.094549
v 0.288266 -0.031481 0.094549
v 0.272538 -0.031481 0.112037
v 0.122715 -0.031481 0.112037
v 0.122715 -0.031481 0.094549
v 0.100588 -0.031481 0.112037
v 0.100588 -0.031481 0.094549
v -0.041260 -0.031481 0.112037
v -0.041260 -0.031481 0.094549
v -0.080283 -0.031481 0.112037
v -0.080283 -0.031481 0.094549
v -0.151780 -0.031481 0.094549
v -0.151780 -0.031481 0.112037
v -0.288266 -0.031481 0.112037
v -0.288266 -0.031481 0.094549
v 0.288266 0.031481 0.016317
v 0.288266 -0.019369 -0.039428
v 0.288266 0.031481 -0.039428
v 0.288266 -0.019369 0.016317
v 0.288266 -0.031481 -0.033056
v 0.288266 -0.031481 0.016317
v 0.288266 -0.025109 -0.039428
v 0.288266 -0.019369 0.089366
v 0.285560 -0.028815 0.091957
v 0.288266 -0.031481 0.089366
v 0.285560 -0.019369 0.091957
v 0.285560 0.031481 0.091957
v 0.288266 0.031481 0.089366
v -0.285560 0.031481 0.018909
v -0.288266 -0.019369 0.021500
v -0.288266 0.031481 0.021500
v -0.285560 -0.019369 0.018909
v -0.285560 -0.028815 0.018909
v -0.288266 -0.031481 0.021500
v 0.288266 -0.019369 0.016317
v 0.285560 -0.028815 0.018909
v 0.288266 -0.031481 0.016317
v 0.285560 -0.019369 0.018909
v 0.285560 0.031481 0.018909
v 0.288266 0.031481 0.016317
v -0.285560 0.031481 0.091957
v -0.285560 -0.019369 0.091957
v -0.288266 -0.019369 0.094549
v -0.288266 0.031481 0.094549
v -0.285560 -0.028815 0.091957
v -0.285560 -0.019369 0.091957
v -0.288266 -0.031481 0.094549
v -0.146799 -0.019369 -0.039428
v -0.288266 -0.019369 -0.039428
v -0.288266 0.031481 -0.039428
v -0.146799 0.031481 -0.039428
v -0.288266 -0.025109 -0.039428
v -0.070320 0.031481 -0.039428
v -0.146799 -0.025109 -0.039428
v -0.070320 -0.019369 -0.039428
v -0.070320 -0.025109 -0.039428
v -0.048193 -0.019369 -0.039428
v -0.048193 -0.025109 -0.039428
v 0.045589 -0.019369 -0.039428
v 0.045589 -0.025109 -0.039428
v 0.067715 -0.019369 -0.039428
v 0.067715 -0.025109 -0.039428
v 0.267314 -0.019369 -0.039428
v 0.067716 0.031481 -0.039428
v 0.267314 -0.025109 -0.039428
v 0.267314 0.031481 -0.039428
v 0.288266 -0.025109 -0.039428
v 0.288266 0.031481 -0.039428
v 0.288266 -0.019369 -0.039428
vn -0.0000 -1.0000 -0.0000
vn 1.0000 -0.0000 -0.0000
vn -1.0000 -0.0000 -0.0000
vn 0.6917 -0.0000 -0.7222
vn -0.0000 -0.7071 0.7071
vn -0.0000 -0.7071 -0.7071
vn -0.6917 -0.0000 0.7222
vn -0.0000 -0.6970 0.7171
vn -0.0000 -0.6970 -0.7171
vn -0.0000 -0.0000 1.0000
vn 0.6917 -0.0000 0.7222
vn -0.6917 -0.0000 -0.7222
vn -0.0000 -0.0000 -1.0000
vt -65.437500 0.657959
vt -65.250000 1.407227
vt -65.437500 1.407227
vt -65.250000 0.657959
vt -69.937500 1.407227
vt -71.000000 1.407227
vt -71.000000 0.657959
vt -69.937500 0.657959
vt 0.279053 0.117676
vt 0.279053 -0.729492
vt 0.841797 0.117676
vt 0.841797 -0.729492
vt 0.157959 0.117676
vt 0.157959 -0.729492
vt 0.720703 0.117676
vt 0.720703 -0.729492
vt 66.250000 0.842041
vt 66.312500 0.279297
vt 66.312500 0.842041
vt 66.250000 0.279297
vt 66.250000 0.158203
vt 66.312500 0.185059
vt -68.625000 0.657959
vt -68.625000 1.407227
vt -68.812500 1.407227
vt -68.812500 0.657959
vt -67.687500 1.407227
vt -67.437500 0.657959
vt -67.437500 1.407227
vt -67.687500 0.657959
vt 0.157959 1.407227
vt 0.157959 0.657959
vt 0.279053 1.407227
vt 0.279053 0.657959
vt 0.841797 1.407227
vt 0.841797 0.657959
vt -68.812500 0.117676
vt -68.812500 -0.729492
vt -68.625000 -0.729492
vt -68.625000 0.117676
vt -67.687500 -0.729492
vt -67.687500 0.117676
vt -67.437500 -0.729492
vt -67.437500 0.117676
vt 0.720703 1.407227
vt 0.720703 0.657959
vt -65.250000 0.279297
vt -65.437500 0.279297
vt -65.250000 0.158203
vt -65.437500 0.158203
vt -67.437500 0.279297
vt -67.437500 0.158203
vt -67.687500 0.279297
vt -67.687500 0.158203
vt -68.625000 0.279297
vt -68.625000 0.158203
vt -68.812500 0.279297
vt -68.812500 0.158203
vt -69.937500 0.279297
vt -69.937500 0.158203
vt -71.000000 0.279297
vt -71.000000 0.158203
vt 70.937500 0.222168
vt 72.000000 0.158203
vt 72.000000 0.222168
vt 70.937500 0.158203
vt 69.812500 0.222168
vt 69.812500 0.158203
vt 69.625000 0.222168
vt 69.625000 0.158203
vt 68.687500 0.222168
vt 68.687500 0.158203
vt 68.437500 0.222168
vt 68.437500 0.158203
vt 66.437500 0.222168
vt 66.437500 0.158203
vt 66.250000 0.222168
vt -69.937500 0.605957
vt -71.000000 0.605957
vt -71.000000 0.181641
vt -69.937500 0.181641
vt -68.812500 0.605957
vt -68.812500 0.181641
vt -68.625000 0.605957
vt -68.625000 0.181641
vt -67.687500 0.181641
vt -67.687500 0.605957
vt -67.437500 0.181641
vt -67.437500 0.605957
vt -65.437500 0.181641
vt -65.437500 0.605957
vt -65.250000 0.181641
vt -65.250000 0.605957
vt -71.000000 0.842041
vt -71.000000 0.185059
vt -65.312500 0.185059
vt -65.500000 0.185059
vt -67.437500 0.185059
vt -67.687500 0.185059
vt -68.625000 0.185059
vt -68.812500 0.185059
vt -69.937500 0.185059
vt 72.000000 0.185059
vt 70.937500 0.185059
vt 69.812500 0.185059
vt 69.625000 0.185059
vt 68.687500 0.185059
vt 68.437500 0.185059
vt 66.500000 0.185059
vt -69.937500 0.842041
vt -68.812500 0.842041
vt -68.625000 0.842041
vt -67.687500 0.842041
vt -67.437500 0.842041
vt -65.437500 0.842041
vt -65.250000 0.842041
vt 0.279053 1.458984
vt 0.157959 1.608398
vt 0.157959 1.458984
vt 0.279053 1.729492
vt 0.841797 1.729492
vt 0.841797 1.458984
vt 0.720703 1.458984
vt 0.157959 1.729492
vt 0.720703 1.729492
vt 0.841797 1.608398
vt 0.720703 0.605957
vt 0.157959 0.605957
vt 0.841797 0.181641
vt 0.841797 0.605957
vt 0.777832 0.117676
vt -65.250000 1.608398
vt -65.437500 1.458984
vt -65.250000 1.458984
vt -65.437500 1.608398
vt -67.437500 1.608398
vt -67.437500 1.458984
vt -67.687500 1.608398
vt -67.687500 1.458984
vt -68.625000 1.608398
vt -68.625000 1.458984
vt -68.812500 1.608398
vt -68.812500 1.458984
vt -69.937500 1.458984
vt -69.937500 1.608398
vt -71.000000 1.608398
vt -71.000000 1.458984
vt 0.279053 0.605957
vt 0.157959 0.181641
vt 0.221680 0.117676
vt -65.312500 0.279297
vt -65.312500 0.842041
vt 72.000000 0.842041
vt 72.000000 0.279297
vt 70.937500 0.279297
vt 70.937500 0.842041
vt 69.812500 0.842041
vt 69.812500 0.279297
vt 69.625000 0.279297
vt 68.687500 0.279297
vt 68.437500 0.279297
vt 66.437500 0.279297
vt 68.437500 0.842041
vt 66.437500 0.842041
s 1
usemtl M_Metal_Brushed
f 1/1/1 2/2/1 3/3/1
f 2/2/1 1/1/1 4/4/1
f 5/5/1 6/6/1 7/7/1
f 5/5/1 7/7/1 8/8/1
f 9/9/2 10/10/2 11/11/2
f 11/11/2 10/10/2 12/12/2
f 13/13/3 14/14/3 15/15/3
f 15/15/3 14/14/3 16/16/3
f 17/17/4 18/18/4 19/19/4
f 18/18/4 17/17/4 20/20/4
f 20/20/4 21/21/4 22/22/4
f 20/20/4 22/22/4 23/18/4
f 24/23/1 25/24/1 26/25/1
f 26/25/1 27/26/1 24/23/1
f 28/27/1 29/28/1 30/29/1
f 29/28/1 28/27/1 31/30/1
f 32/31/2 33/32/2 34/33/2
f 34/33/2 33/32/2 35/34/2
f 34/33/2 35/34/2 36/35/2
f 36/35/2 35/34/2 37/36/2
f 38/37/1 39/38/1 40/39/1
f 40/39/1 41/40/1 38/37/1
f 41/40/1 40/39/1 42/41/1
f 43/42/1 41/40/1 42/41/1
f 44/43/1 43/42/1 42/41/1
f 43/42/1 44/43/1 45/44/1
f 46/32/3 47/45/3 48/31/3
f 47/45/3 46/32/3 49/46/3
f 47/45/3 49/46/3 50/35/3
f 50/35/3 49/46/3 51/36/3
f 52/47/5 53/48/5 54/49/5
f 53/48/5 55/50/5 54/49/5
f 53/48/5 56/51/5 55/50/5
f 57/52/5 55/50/5 56/51/5
f 58/53/5 57/52/5 56/51/5
f 57/52/5 58/53/5 59/54/5
f 58/53/5 60/55/5 59/54/5
f 61/56/5 59/54/5 60/55/5
f 60/55/5 62/57/5 61/56/5
f 63/58/5 61/56/5 62/57/5
f 62/57/5 64/59/5 63/58/5
f 65/60/5 63/58/5 64/59/5
f 64/59/5 66/61/5 65/60/5
f 67/62/5 65/60/5 66/61/5
f 68/63/6 69/64/6 70/65/6
f 69/64/6 68/63/6 71/66/6
f 72/67/6 71/66/6 68/63/6
f 71/66/6 72/67/6 73/68/6
f 72/67/6 74/69/6 73/68/6
f 75/70/6 73/68/6 74/69/6
f 74/69/6 76/71/6 75/70/6
f 77/72/6 75/70/6 76/71/6
f 78/73/6 77/72/6 76/71/6
f 77/72/6 78/73/6 79/74/6
f 78/73/6 80/75/6 79/74/6
f 81/76/6 79/74/6 80/75/6
f 80/75/6 82/77/6 81/76/6
f 83/21/6 81/76/6 82/77/6
f 84/78/1 85/79/1 86/80/1
f 84/78/1 86/80/1 87/81/1
f 88/82/1 84/78/1 87/81/1
f 87/81/1 89/83/1 88/82/1
f 89/83/1 90/84/1 88/82/1
f 90/84/1 89/83/1 91/85/1
f 92/86/1 90/84/1 91/85/1
f 93/87/1 90/84/1 92/86/1
f 93/87/1 92/86/1 94/88/1
f 94/88/1 95/89/1 93/87/1
f 94/88/1 96/90/1 95/89/1
f 97/91/1 95/89/1 96/90/1
f 98/92/1 97/91/1 96/90/1
f 97/91/1 98/92/1 99/93/1
f 100/20/4 101/21/4 102/22/4
f 102/22/4 103/18/4 100/20/4
f 104/17/4 100/20/4 103/18/4
f 103/18/4 105/19/4 104/17/4
f 106/94/7 107/61/7 108/94/7
f 107/61/7 106/94/7 109/61/7
f 109/61/7 110/95/7 107/61/7
f 109/61/7 111/62/7 110/95/7
f 112/96/8 113/50/8 114/49/8
f 112/96/8 115/97/8 113/50/8
f 115/97/8 116/52/8 113/50/8
f 115/97/8 117/98/8 116/52/8
f 118/99/8 116/52/8 117/98/8
f 116/52/8 118/99/8 119/54/8
f 118/99/8 120/100/8 119/54/8
f 121/56/8 119/54/8 120/100/8
f 120/100/8 122/101/8 121/56/8
f 123/58/8 121/56/8 122/101/8
f 124/102/8 123/58/8 122/101/8
f 123/58/8 124/102/8 125/60/8
f 124/102/8 126/95/8 125/60/8
f 127/62/8 125/60/8 126/95/8
f 128/66/9 129/64/9 130/103/9
f 130/103/9 131/104/9 128/66/9
f 132/68/9 128/66/9 131/104/9
f 132/68/9 131/104/9 133/105/9
f 133/105/9 134/106/9 132/68/9
f 135/70/9 132/68/9 134/106/9
f 136/107/9 135/70/9 134/106/9
f 135/70/9 136/107/9 137/72/9
f 138/108/9 137/72/9 136/107/9
f 137/72/9 138/108/9 139/74/9
f 138/108/9 140/109/9 139/74/9
f 141/76/9 139/74/9 140/109/9
f 142/22/9 141/76/9 140/109/9
f 143/21/9 141/76/9 142/22/9
f 144/61/7 145/94/7 146/94/7
f 146/94/7 147/61/7 144/61/7
f 148/95/7 144/61/7 147/61/7
f 147/61/7 149/62/7 148/95/7
f 150/21/9 151/76/9 152/22/9
f 152/22/9 151/76/9 153/109/9
f 151/76/9 154/74/9 153/109/9
f 155/108/9 153/109/9 154/74/9
f 156/72/9 155/108/9 154/74/9
f 155/108/9 156/72/9 157/107/9
f 156/72/9 158/70/9 157/107/9
f 159/106/9 157/107/9 158/70/9
f 158/70/9 160/68/9 159/106/9
f 161/105/9 159/106/9 160/68/9
f 160/68/9 162/104/9 161/105/9
f 160/68/9 163/66/9 162/104/9
f 163/66/9 164/103/9 162/104/9
f 163/66/9 165/64/9 164/103/9
f 166/62/8 167/60/8 168/95/8
f 169/102/8 168/95/8 167/60/8
f 170/58/8 169/102/8 167/60/8
f 169/102/8 170/58/8 171/101/8
f 170/58/8 172/56/8 171/101/8
f 173/100/8 171/101/8 172/56/8
f 174/54/8 173/100/8 172/56/8
f 173/100/8 174/54/8 175/99/8
f 176/52/8 175/99/8 174/54/8
f 175/99/8 176/52/8 177/98/8
f 178/97/8 177/98/8 176/52/8
f 176/52/8 179/50/8 178/97/8
f 180/96/8 178/97/8 179/50/8
f 179/50/8 181/49/8 180/96/8
f 182/61/10 183/59/10 184/94/10
f 185/110/10 184/94/10 183/59/10
f 185/110/10 183/59/10 186/57/10
f 187/111/10 185/110/10 186/57/10
f 187/111/10 186/57/10 188/55/10
f 189/112/10 187/111/10 188/55/10
f 190/53/10 189/112/10 188/55/10
f 189/112/10 190/53/10 191/113/10
f 190/53/10 192/114/10 191/113/10
f 192/114/10 190/53/10 193/51/10
f 193/51/10 194/115/10 192/114/10
f 194/115/10 193/51/10 195/48/10
f 196/47/10 194/115/10 195/48/10
f 194/115/10 196/47/10 197/116/10
f 198/117/2 199/118/2 200/119/2
f 198/117/2 201/120/2 199/118/2
f 201/120/2 198/117/2 202/121/2
f 202/121/2 198/117/2 203/122/2
f 204/123/3 205/124/3 206/119/3
f 205/124/3 204/123/3 207/125/3
f 207/125/3 204/123/3 208/126/3
f 208/126/3 204/123/3 209/122/3
f 210/127/3 211/128/3 212/13/3
f 210/127/3 212/13/3 213/15/3
f 214/129/3 210/127/3 213/15/3
f 210/127/3 214/129/3 215/130/3
f 214/129/3 213/15/3 216/131/3
f 217/132/1 218/133/1 219/134/1
f 220/135/1 218/133/1 217/132/1
f 220/135/1 221/136/1 218/133/1
f 222/137/1 218/133/1 221/136/1
f 223/138/1 222/137/1 221/136/1
f 222/137/1 223/138/1 224/139/1
f 223/138/1 225/140/1 224/139/1
f 226/141/1 224/139/1 225/140/1
f 225/140/1 227/142/1 226/141/1
f 228/143/1 226/141/1 227/142/1
f 227/142/1 229/144/1 228/143/1
f 227/142/1 230/145/1 229/144/1
f 230/145/1 231/146/1 229/144/1
f 232/147/1 229/144/1 231/146/1
f 233/130/2 234/9/2 235/11/2
f 233/130/2 236/148/2 234/9/2
f 236/148/2 237/149/2 234/9/2
f 238/128/2 237/149/2 236/148/2
f 234/9/2 237/149/2 239/150/2
f 240/47/11 241/96/11 242/49/11
f 241/96/11 240/47/11 243/151/11
f 244/152/11 243/151/11 240/47/11
f 240/47/11 245/116/11 244/152/11
f 246/153/12 247/154/12 248/153/12
f 247/154/12 246/153/12 249/154/12
f 250/103/12 247/154/12 249/154/12
f 247/154/12 250/103/12 251/64/12
f 252/47/11 253/96/11 254/49/11
f 253/96/11 252/47/11 255/151/11
f 252/47/11 256/152/11 255/151/11
f 256/152/11 252/47/11 257/116/11
f 258/153/12 259/154/12 260/154/12
f 260/154/12 261/153/12 258/153/12
f 262/103/12 260/154/12 263/154/12
f 260/154/12 262/103/12 264/64/12
f 265/155/13 266/154/13 267/153/13
f 265/155/13 267/153/13 268/156/13
f 266/154/13 265/155/13 269/65/13
f 270/157/13 265/155/13 268/156/13
f 271/63/13 269/65/13 265/155/13
f 265/155/13 270/157/13 272/158/13
f 265/155/13 272/158/13 271/63/13
f 273/67/13 271/63/13 272/158/13
f 272/158/13 274/159/13 273/67/13
f 275/69/13 273/67/13 274/159/13
f 274/159/13 276/160/13 275/69/13
f 277/71/13 275/69/13 276/160/13
f 278/161/13 277/71/13 276/160/13
f 277/71/13 278/161/13 279/73/13
f 278/161/13 280/162/13 279/73/13
f 281/163/13 280/162/13 278/161/13
f 282/75/13 279/73/13 280/162/13
f 280/162/13 281/163/13 283/164/13
f 284/77/13 282/75/13 280/162/13
f 285/17/13 280/162/13 283/164/13
f 284/77/13 280/162/13 286/20/13
f 280/162/13 285/17/13 286/20/13
