# Blender 3.6.1
# www.blender.org
mtllib SM_Steckdosenbox_02.mtl
o SM_Steckdosenbox_02
v 0.267952 -0.031481 0.087433
v 0.267952 -0.031481 0.020929
v 0.288266 -0.031481 0.087433
v 0.288266 -0.031481 0.020929
v -0.152050 -0.031481 0.087433
v -0.288266 -0.031481 0.087433
v -0.288266 -0.031481 0.020929
v -0.152050 -0.031481 0.020929
v 0.067716 -0.019369 -0.041361
v 0.067716 -0.019369 -0.122217
v 0.067716 0.031481 -0.041361
v 0.067716 0.031481 -0.122217
v -0.070321 0.031481 -0.041361
v -0.070321 0.031481 -0.122217
v -0.070321 -0.019369 -0.041361
v -0.070321 -0.019369 -0.122217
v 0.288266 0.031481 0.092616
v 0.285559 -0.019369 0.090025
v 0.285559 0.031481 0.090025
v 0.288266 -0.019369 0.092616
v 0.288266 -0.031481 0.092616
v 0.285559 -0.028815 0.090025
v 0.285559 -0.019369 0.090025
v -0.041313 -0.031481 0.087433
v -0.079835 -0.031481 0.087433
v -0.041313 -0.031481 0.020929
v -0.079835 -0.031481 0.020929
v 0.103625 -0.031481 0.087433
v 0.125752 -0.031481 0.020929
v 0.125753 -0.031481 0.087433
v 0.103625 -0.031481 0.020929
v 0.288266 -0.031481 0.087433
v 0.288266 -0.031481 0.020929
v 0.288266 -0.019369 0.087433
v 0.288266 -0.019369 0.020929
v 0.288266 0.031481 0.087433
v 0.288266 0.031481 0.020929
v -0.288266 0.031481 0.087433
v -0.288266 0.031481 0.020929
v -0.288266 -0.019369 0.087433
v -0.288266 -0.019369 0.020929
v -0.288266 -0.031481 0.087433
v -0.288266 -0.031481 0.020929
v -0.070321 -0.019369 -0.041361
v -0.070321 -0.019369 -0.122217
v -0.048193 -0.019369 -0.122217
v -0.048193 -0.019369 -0.041361
v 0.045589 -0.019369 -0.122217
v 0.045589 -0.019369 -0.041361
v 0.067716 -0.019369 -0.122217
v 0.067716 -0.019369 -0.041361
v 0.288266 -0.019369 0.122217
v 0.267952 -0.019369 0.122217
v 0.288266 -0.031481 0.110105
v 0.267952 -0.031481 0.110105
v 0.125753 -0.019369 0.122217
v 0.125753 -0.031481 0.110105
v 0.103625 -0.019369 0.122217
v 0.103625 -0.031481 0.110105
v -0.041313 -0.019369 0.122217
v -0.041313 -0.031481 0.110105
v -0.079835 -0.019369 0.122217
v -0.079835 -0.031481 0.110105
v -0.152050 -0.019369 0.122217
v -0.152050 -0.031481 0.110105
v -0.288266 -0.019369 0.122217
v -0.288266 -0.031481 0.110105
v -0.152050 -0.025109 -0.041361
v -0.288266 -0.031481 -0.034988
v -0.288266 -0.025109 -0.041361
v -0.152050 -0.031481 -0.034988
v -0.070321 -0.025109 -0.041361
v -0.070321 -0.031481 -0.034988
v -0.048193 -0.025109 -0.041361
v -0.048193 -0.031481 -0.034988
v 0.045589 -0.025109 -0.041361
v 0.045589 -0.031481 -0.034988
v 0.067716 -0.025109 -0.041361
v 0.067716 -0.031481 -0.034988
v 0.260697 -0.025109 -0.041361
v 0.260697 -0.031481 -0.034988
v 0.288266 -0.025109 -0.041361
v 0.288266 -0.031481 -0.034988
v -0.152050 -0.031481 0.015745
v -0.288266 -0.031481 0.015745
v -0.288266 -0.031481 -0.034988
v -0.152050 -0.031481 -0.034988
v -0.079835 -0.031481 0.015745
v -0.070321 -0.031481 -0.034988
v -0.041313 -0.031481 0.015745
v -0.048193 -0.031481 -0.034988
v 0.045589 -0.031481 -0.034988
v 0.103625 -0.031481 0.015745
v 0.067716 -0.031481 -0.034988
v 0.125752 -0.031481 0.015745
v 0.260697 -0.031481 -0.034988
v 0.267952 -0.031481 0.015745
v 0.288266 -0.031481 -0.034988
v 0.288266 -0.031481 0.015745
v 0.288266 -0.019369 0.020929
v 0.288266 -0.031481 0.020929
v 0.285559 -0.028815 0.018337
v 0.285559 -0.019369 0.018337
v 0.288266 0.031481 0.020929
v 0.285559 0.031481 0.018337
v -0.288266 0.031481 0.087433
v -0.285559 -0.019369 0.090025
v -0.285559 0.031481 0.090025
v -0.288266 -0.019369 0.087433
v -0.285559 -0.028815 0.090025
v -0.288266 -0.031481 0.087433
v 0.285559 -0.028815 0.090025
v 0.267952 -0.031481 0.087433
v 0.288266 -0.031481 0.087433
v 0.265583 -0.028815 0.090025
v 0.125753 -0.031481 0.087433
v 0.125753 -0.028815 0.090025
v 0.103625 -0.028815 0.090025
v 0.103625 -0.031481 0.087433
v -0.041313 -0.028815 0.090025
v -0.041313 -0.031481 0.087433
v -0.079835 -0.028815 0.090025
v -0.079835 -0.031481 0.087433
v -0.151035 -0.028815 0.090025
v -0.152050 -0.031481 0.087433
v -0.285559 -0.028815 0.090025
v -0.288266 -0.031481 0.087433
v -0.152050 -0.031481 0.020929
v -0.288266 -0.031481 0.020929
v -0.285559 -0.028815 0.018337
v -0.151035 -0.028815 0.018337
v -0.079835 -0.031481 0.020929
v -0.079835 -0.028815 0.018337
v -0.041313 -0.028815 0.018337
v -0.041313 -0.031481 0.020929
v 0.103625 -0.028815 0.018337
v 0.103625 -0.031481 0.020929
v 0.125752 -0.028815 0.018337
v 0.125752 -0.031481 0.020929
v 0.265583 -0.028815 0.018337
v 0.267952 -0.031481 0.020929
v 0.285559 -0.028815 0.018337
v 0.288266 -0.031481 0.020929
v -0.285559 -0.019369 0.018337
v -0.285559 0.031481 0.018337
v -0.288266 0.031481 0.015745
v -0.288266 -0.019369 0.015745
v -0.285559 -0.028815 0.018337
v -0.288266 -0.031481 0.015745
v 0.288266 -0.031481 0.092616
v 0.267952 -0.031481 0.092616
v 0.285559 -0.028815 0.090025
v 0.265583 -0.028815 0.090025
v 0.125753 -0.031481 0.092616
v 0.125753 -0.028815 0.090025
v 0.103625 -0.031481 0.092616
v 0.103625 -0.028815 0.090025
v -0.041313 -0.031481 0.092616
v -0.041313 -0.028815 0.090025
v -0.079835 -0.031481 0.092616
v -0.079835 -0.028815 0.090025
v -0.151035 -0.028815 0.090025
v -0.152050 -0.031481 0.092616
v -0.285559 -0.028815 0.090025
v -0.288266 -0.031481 0.092616
v -0.288266 -0.031481 0.015745
v -0.152050 -0.031481 0.015745
v -0.285559 -0.028815 0.018337
v -0.151035 -0.028815 0.018337
v -0.079835 -0.031481 0.015745
v -0.079835 -0.028815 0.018337
v -0.041313 -0.031481 0.015745
v -0.041313 -0.028815 0.018337
v 0.103625 -0.031481 0.015745
v 0.103625 -0.028815 0.018337
v 0.125752 -0.031481 0.015745
v 0.125752 -0.028815 0.018337
v 0.265583 -0.028815 0.018337
v 0.267952 -0.031481 0.015745
v 0.285559 -0.028815 0.018337
v 0.288266 -0.031481 0.015745
v -0.288266 -0.019369 0.122217
v -0.152050 -0.019369 0.122217
v -0.288266 0.031481 0.122217
v -0.152050 0.031481 0.122217
v -0.079835 -0.019369 0.122217
v -0.079835 0.031481 0.122217
v -0.041313 -0.019369 0.122217
v -0.041313 0.031481 0.122217
v 0.103625 -0.019369 0.122217
v 0.103625 0.031481 0.122217
v 0.125752 0.031481 0.122217
v 0.125753 -0.019369 0.122217
v 0.267952 0.031481 0.122217
v 0.267952 -0.019369 0.122217
v 0.288266 -0.019369 0.122217
v 0.288266 0.031481 0.122217
v 0.288266 -0.019369 0.092616
v 0.288266 -0.031481 0.110105
v 0.288266 -0.031481 0.092616
v 0.288266 -0.019369 0.122217
v 0.288266 0.031481 0.122217
v 0.288266 0.031481 0.092616
v -0.288266 -0.019369 0.092616
v -0.288266 0.031481 0.122217
v -0.288266 0.031481 0.092616
v -0.288266 -0.019369 0.122217
v -0.288266 -0.031481 0.110105
v -0.288266 -0.031481 0.092616
v -0.288266 -0.019369 0.015745
v -0.288266 0.031481 0.015745
v -0.288266 0.031481 -0.041361
v -0.288266 -0.019369 -0.041361
v -0.288266 -0.031481 -0.034988
v -0.288266 -0.031481 0.015745
v -0.288266 -0.025109 -0.041361
v 0.288266 -0.031481 0.110105
v 0.267952 -0.031481 0.092616
v 0.288266 -0.031481 0.092616
v 0.267952 -0.031481 0.110105
v 0.125753 -0.031481 0.110105
v 0.125753 -0.031481 0.092616
v 0.103625 -0.031481 0.110105
v 0.103625 -0.031481 0.092616
v -0.041313 -0.031481 0.110105
v -0.041313 -0.031481 0.092616
v -0.079835 -0.031481 0.110105
v -0.079835 -0.031481 0.092616
v -0.152050 -0.031481 0.092616
v -0.152050 -0.031481 0.110105
v -0.288266 -0.031481 0.110105
v -0.288266 -0.031481 0.092616
v 0.288266 0.031481 0.015745
v 0.288266 -0.019369 -0.041361
v 0.288266 0.031481 -0.041361
v 0.288266 -0.019369 0.015745
v 0.288266 -0.031481 -0.034988
v 0.288266 -0.031481 0.015745
v 0.288266 -0.025109 -0.041361
v 0.288266 -0.019369 0.087433
v 0.285559 -0.028815 0.090025
v 0.288266 -0.031481 0.087433
v 0.285559 -0.019369 0.090025
v 0.285559 0.031481 0.090025
v 0.288266 0.031481 0.087433
v -0.285559 0.031481 0.018337
v -0.288266 -0.019369 0.020929
v -0.288266 0.031481 0.020929
v -0.285559 -0.019369 0.018337
v -0.285559 -0.028815 0.018337
v -0.288266 -0.031481 0.020929
v 0.288266 -0.019369 0.015745
v 0.285559 -0.028815 0.018337
v 0.288266 -0.031481 0.015745
v 0.285559 -0.019369 0.018337
v 0.285559 0.031481 0.018337
v 0.288266 0.031481 0.015745
v -0.285559 0.031481 0.090025
v -0.285559 -0.019369 0.090025
v -0.288266 -0.019369 0.092616
v -0.288266 0.031481 0.092616
v -0.285559 -0.028815 0.090025
v -0.285559 -0.019369 0.090025
v -0.288266 -0.031481 0.092616
v -0.152050 -0.019369 -0.041361
v -0.288266 -0.019369 -0.041361
v -0.288266 0.031481 -0.041361
v -0.152050 0.031481 -0.041361
v -0.288266 -0.025109 -0.041361
v -0.070321 0.031481 -0.041361
v -0.152050 -0.025109 -0.041361
v -0.070321 -0.019369 -0.041361
v -0.070321 -0.025109 -0.041361
v -0.048193 -0.019369 -0.041361
v -0.048193 -0.025109 -0.041361
v 0.045589 -0.019369 -0.041361
v 0.045589 -0.025109 -0.041361
v 0.067716 -0.019369 -0.041361
v 0.067716 -0.025109 -0.041361
v 0.260697 -0.019369 -0.041361
v 0.067716 0.031481 -0.041361
v 0.260697 -0.025109 -0.041361
v 0.260697 0.031481 -0.041361
v 0.288266 -0.025109 -0.041361
v 0.288266 0.031481 -0.041361
v 0.288266 -0.019369 -0.041361
vn -0.0000 -1.0000 -0.0000
vn 1.0000 -0.0000 -0.0000
vn -1.0000 -0.0000 -0.0000
vn 0.6916 -0.0000 -0.7223
vn -0.0000 -0.7071 0.7071
vn -0.0000 -0.7071 -0.7071
vn -0.6916 -0.0000 0.7223
vn -0.0000 -0.6970 0.7171
vn -0.0000 -0.6970 -0.7171
vn -0.0000 -0.0000 1.0000
vn 0.6916 -0.0000 0.7223
vn -0.6916 -0.0000 -0.7223
vn -0.0000 -0.0000 -1.0000
vt -38.156250 1.368652
vt -38.156250 0.619141
vt -37.875000 1.368652
vt -37.875000 0.619141
vt -42.281250 1.368652
vt -43.656250 1.368652
vt -43.656250 0.619141
vt -42.281250 0.619141
vt 0.279053 0.079102
vt 0.279053 -0.729492
vt 0.841797 0.079102
vt 0.841797 -0.729492
vt 0.157959 0.079102
vt 0.157959 -0.729492
vt 0.720703 0.079102
vt 0.720703 -0.729492
vt 38.875000 0.842041
vt 38.906250 0.279297
vt 38.906250 0.842041
vt 38.875000 0.279297
vt 38.875000 0.158203
vt 38.906250 0.185059
vt -41.250000 1.368652
vt -41.468750 1.368652
vt -41.250000 0.619141
vt -41.468750 0.619141
vt -40.312500 1.368652
vt -40.093750 0.619141
vt -40.093750 1.368652
vt -40.312500 0.619141
vt 0.157959 1.368652
vt 0.157959 0.619141
vt 0.279053 1.368652
vt 0.279053 0.619141
vt 0.841797 1.368652
vt 0.841797 0.619141
vt 0.720703 1.368652
vt 0.720703 0.619141
vt -41.468750 0.079102
vt -41.468750 -0.729492
vt -41.250000 -0.729492
vt -41.250000 0.079102
vt -40.312500 -0.729492
vt -40.312500 0.079102
vt -40.093750 -0.729492
vt -40.093750 0.079102
vt -37.875000 0.279297
vt -38.156250 0.279297
vt -37.875000 0.158203
vt -38.156250 0.158203
vt -40.093750 0.279297
vt -40.093750 0.158203
vt -40.312500 0.279297
vt -40.312500 0.158203
vt -41.250000 0.279297
vt -41.250000 0.158203
vt -41.468750 0.279297
vt -41.468750 0.158203
vt -42.281250 0.279297
vt -42.281250 0.158203
vt -43.656250 0.279297
vt -43.656250 0.158203
vt 43.281250 0.222168
vt 44.656250 0.158203
vt 44.656250 0.222168
vt 43.281250 0.158203
vt 42.468750 0.222168
vt 42.468750 0.158203
vt 42.250000 0.222168
vt 42.250000 0.158203
vt 41.312500 0.222168
vt 41.312500 0.158203
vt 41.093750 0.222168
vt 41.093750 0.158203
vt 39.156250 0.222168
vt 39.156250 0.158203
vt 38.875000 0.222168
vt -42.281250 0.567383
vt -43.656250 0.567383
vt -43.656250 0.143066
vt -42.281250 0.143066
vt -41.468750 0.567383
vt -41.468750 0.143066
vt -41.250000 0.567383
vt -41.250000 0.143066
vt -40.312500 0.143066
vt -40.312500 0.567383
vt -40.093750 0.143066
vt -40.093750 0.567383
vt -38.156250 0.143066
vt -38.156250 0.567383
vt -37.875000 0.143066
vt -37.875000 0.567383
vt -43.656250 0.842041
vt -43.625000 0.279297
vt -43.625000 0.842041
vt -43.625000 0.185059
vt -37.906250 0.185059
vt -38.187500 0.185059
vt -40.093750 0.185059
vt -40.312500 0.185059
vt -41.250000 0.185059
vt -41.468750 0.185059
vt -42.281250 0.185059
vt 44.625000 0.185059
vt 43.281250 0.185059
vt 42.468750 0.185059
vt 42.250000 0.185059
vt 41.312500 0.185059
vt 41.093750 0.185059
vt 39.187500 0.185059
vt -42.281250 0.842041
vt -41.468750 0.842041
vt -41.250000 0.842041
vt -40.312500 0.842041
vt -40.093750 0.842041
vt -38.156250 0.842041
vt -37.875000 0.842041
vt 0.279053 1.420410
vt 0.157959 1.569824
vt 0.157959 1.420410
vt 0.279053 1.690918
vt 0.841797 1.690918
vt 0.841797 1.420410
vt 0.720703 1.420410
vt 0.157959 1.690918
vt 0.720703 1.690918
vt 0.841797 1.569824
vt 0.720703 0.567383
vt 0.157959 0.567383
vt 0.841797 0.143066
vt 0.841797 0.567383
vt 0.777832 0.079102
vt -37.875000 1.569824
vt -38.156250 1.420410
vt -37.875000 1.420410
vt -38.156250 1.569824
vt -40.093750 1.569824
vt -40.093750 1.420410
vt -40.312500 1.569824
vt -40.312500 1.420410
vt -41.250000 1.569824
vt -41.250000 1.420410
vt -41.468750 1.569824
vt -41.468750 1.420410
vt -42.281250 1.420410
vt -42.281250 1.569824
vt -43.656250 1.569824
vt -43.656250 1.420410
vt 0.279053 0.567383
vt 0.157959 0.143066
vt 0.221680 0.079102
vt -37.906250 0.279297
vt -37.906250 0.842041
vt 44.625000 0.842041
vt 44.656250 0.279297
vt 44.656250 0.842041
vt 44.625000 0.279297
vt 43.281250 0.279297
vt 43.281250 0.842041
vt 42.468750 0.842041
vt 42.468750 0.279297
vt 42.250000 0.279297
vt 41.312500 0.279297
vt 41.093750 0.279297
vt 39.156250 0.279297
vt 41.093750 0.842041
vt 39.156250 0.842041
s 1
usemtl M_Metal_Brushed
f 1/1/1 2/2/1 3/3/1
f 3/3/1 2/2/1 4/4/1
f 5/5/1 6/6/1 7/7/1
f 5/5/1 7/7/1 8/8/1
f 9/9/2 10/10/2 11/11/2
f 11/11/2 10/10/2 12/12/2
f 13/13/3 14/14/3 15/15/3
f 15/15/3 14/14/3 16/16/3
f 17/17/4 18/18/4 19/19/4
f 18/18/4 17/17/4 20/20/4
f 20/20/4 21/21/4 22/22/4
f 20/20/4 22/22/4 23/18/4
f 24/23/1 25/24/1 26/25/1
f 25/24/1 27/26/1 26/25/1
f 28/27/1 29/28/1 30/29/1
f 29/28/1 28/27/1 31/30/1
f 32/31/2 33/32/2 34/33/2
f 34/33/2 33/32/2 35/34/2
f 34/33/2 35/34/2 36/35/2
f 36/35/2 35/34/2 37/36/2
f 38/31/3 39/32/3 40/37/3
f 40/37/3 39/32/3 41/38/3
f 40/37/3 41/38/3 42/35/3
f 42/35/3 41/38/3 43/36/3
f 44/39/1 45/40/1 46/41/1
f 46/41/1 47/42/1 44/39/1
f 47/42/1 46/41/1 48/43/1
f 49/44/1 47/42/1 48/43/1
f 50/45/1 49/44/1 48/43/1
f 49/44/1 50/45/1 51/46/1
f 52/47/5 53/48/5 54/49/5
f 53/48/5 55/50/5 54/49/5
f 53/48/5 56/51/5 55/50/5
f 57/52/5 55/50/5 56/51/5
f 58/53/5 57/52/5 56/51/5
f 57/52/5 58/53/5 59/54/5
f 58/53/5 60/55/5 59/54/5
f 61/56/5 59/54/5 60/55/5
f 60/55/5 62/57/5 61/56/5
f 63/58/5 61/56/5 62/57/5
f 62/57/5 64/59/5 63/58/5
f 65/60/5 63/58/5 64/59/5
f 64/59/5 66/61/5 65/60/5
f 67/62/5 65/60/5 66/61/5
f 68/63/6 69/64/6 70/65/6
f 69/64/6 68/63/6 71/66/6
f 72/67/6 71/66/6 68/63/6
f 71/66/6 72/67/6 73/68/6
f 72/67/6 74/69/6 73/68/6
f 75/70/6 73/68/6 74/69/6
f 74/69/6 76/71/6 75/70/6
f 77/72/6 75/70/6 76/71/6
f 78/73/6 77/72/6 76/71/6
f 77/72/6 78/73/6 79/74/6
f 78/73/6 80/75/6 79/74/6
f 81/76/6 79/74/6 80/75/6
f 80/75/6 82/77/6 81/76/6
f 83/21/6 81/76/6 82/77/6
f 84/78/1 85/79/1 86/80/1
f 84/78/1 86/80/1 87/81/1
f 87/81/1 88/82/1 84/78/1
f 88/82/1 87/81/1 89/83/1
f 89/83/1 90/84/1 88/82/1
f 90/84/1 89/83/1 91/85/1
f 92/86/1 90/84/1 91/85/1
f 93/87/1 90/84/1 92/86/1
f 93/87/1 92/86/1 94/88/1
f 94/88/1 95/89/1 93/87/1
f 94/88/1 96/90/1 95/89/1
f 97/91/1 95/89/1 96/90/1
f 98/92/1 97/91/1 96/90/1
f 97/91/1 98/92/1 99/93/1
f 100/20/4 101/21/4 102/22/4
f 102/22/4 103/18/4 100/20/4
f 104/17/4 100/20/4 103/18/4
f 103/18/4 105/19/4 104/17/4
f 106/94/7 107/95/7 108/96/7
f 107/95/7 106/94/7 109/61/7
f 109/61/7 110/97/7 107/95/7
f 109/61/7 111/62/7 110/97/7
f 112/98/8 113/50/8 114/49/8
f 112/98/8 115/99/8 113/50/8
f 115/99/8 116/52/8 113/50/8
f 115/99/8 117/100/8 116/52/8
f 118/101/8 116/52/8 117/100/8
f 116/52/8 118/101/8 119/54/8
f 118/101/8 120/102/8 119/54/8
f 121/56/8 119/54/8 120/102/8
f 120/102/8 122/103/8 121/56/8
f 123/58/8 121/56/8 122/103/8
f 124/104/8 123/58/8 122/103/8
f 123/58/8 124/104/8 125/60/8
f 124/104/8 126/97/8 125/60/8
f 127/62/8 125/60/8 126/97/8
f 128/66/9 129/64/9 130/105/9
f 130/105/9 131/106/9 128/66/9
f 132/68/9 128/66/9 131/106/9
f 132/68/9 131/106/9 133/107/9
f 133/107/9 134/108/9 132/68/9
f 135/70/9 132/68/9 134/108/9
f 136/109/9 135/70/9 134/108/9
f 135/70/9 136/109/9 137/72/9
f 138/110/9 137/72/9 136/109/9
f 137/72/9 138/110/9 139/74/9
f 138/110/9 140/111/9 139/74/9
f 141/76/9 139/74/9 140/111/9
f 142/22/9 141/76/9 140/111/9
f 143/21/9 141/76/9 142/22/9
f 144/95/7 145/96/7 146/94/7
f 146/94/7 147/61/7 144/95/7
f 148/97/7 144/95/7 147/61/7
f 147/61/7 149/62/7 148/97/7
f 150/21/9 151/76/9 152/22/9
f 152/22/9 151/76/9 153/111/9
f 151/76/9 154/74/9 153/111/9
f 155/110/9 153/111/9 154/74/9
f 156/72/9 155/110/9 154/74/9
f 155/110/9 156/72/9 157/109/9
f 156/72/9 158/70/9 157/109/9
f 159/108/9 157/109/9 158/70/9
f 158/70/9 160/68/9 159/108/9
f 161/107/9 159/108/9 160/68/9
f 160/68/9 162/106/9 161/107/9
f 160/68/9 163/66/9 162/106/9
f 163/66/9 164/105/9 162/106/9
f 163/66/9 165/64/9 164/105/9
f 166/62/8 167/60/8 168/97/8
f 169/104/8 168/97/8 167/60/8
f 170/58/8 169/104/8 167/60/8
f 169/104/8 170/58/8 171/103/8
f 170/58/8 172/56/8 171/103/8
f 173/102/8 171/103/8 172/56/8
f 174/54/8 173/102/8 172/56/8
f 173/102/8 174/54/8 175/101/8
f 176/52/8 175/101/8 174/54/8
f 175/101/8 176/52/8 177/100/8
f 178/99/8 177/100/8 176/52/8
f 176/52/8 179/50/8 178/99/8
f 180/98/8 178/99/8 179/50/8
f 179/50/8 181/49/8 180/98/8
f 182/61/10 183/59/10 184/94/10
f 185/112/10 184/94/10 183/59/10
f 185/112/10 183/59/10 186/57/10
f 187/113/10 185/112/10 186/57/10
f 187/113/10 186/57/10 188/55/10
f 189/114/10 187/113/10 188/55/10
f 190/53/10 189/114/10 188/55/10
f 189/114/10 190/53/10 191/115/10
f 190/53/10 192/116/10 191/115/10
f 192/116/10 190/53/10 193/51/10
f 193/51/10 194/117/10 192/116/10
f 194/117/10 193/51/10 195/48/10
f 196/47/10 194/117/10 195/48/10
f 194/117/10 196/47/10 197/118/10
f 198/119/2 199/120/2 200/121/2
f 198/119/2 201/122/2 199/120/2
f 201/122/2 198/119/2 202/123/2
f 202/123/2 198/119/2 203/124/2
f 204/125/3 205/126/3 206/121/3
f 205/126/3 204/125/3 207/127/3
f 207/127/3 204/125/3 208/128/3
f 208/128/3 204/125/3 209/124/3
f 210/129/3 211/130/3 212/13/3
f 210/129/3 212/13/3 213/15/3
f 214/131/3 210/129/3 213/15/3
f 210/129/3 214/131/3 215/132/3
f 214/131/3 213/15/3 216/133/3
f 217/134/1 218/135/1 219/136/1
f 220/137/1 218/135/1 217/134/1
f 220/137/1 221/138/1 218/135/1
f 222/139/1 218/135/1 221/138/1
f 223/140/1 222/139/1 221/138/1
f 222/139/1 223/140/1 224/141/1
f 223/140/1 225/142/1 224/141/1
f 226/143/1 224/141/1 225/142/1
f 225/142/1 227/144/1 226/143/1
f 228/145/1 226/143/1 227/144/1
f 227/144/1 229/146/1 228/145/1
f 229/146/1 227/144/1 230/147/1
f 230/147/1 231/148/1 229/146/1
f 232/149/1 229/146/1 231/148/1
f 233/132/2 234/9/2 235/11/2
f 233/132/2 236/150/2 234/9/2
f 236/150/2 237/151/2 234/9/2
f 238/130/2 237/151/2 236/150/2
f 234/9/2 237/151/2 239/152/2
f 240/47/11 241/98/11 242/49/11
f 241/98/11 240/47/11 243/153/11
f 244/154/11 243/153/11 240/47/11
f 240/47/11 245/118/11 244/154/11
f 246/155/12 247/156/12 248/157/12
f 247/156/12 246/155/12 249/158/12
f 250/105/12 247/156/12 249/158/12
f 247/156/12 250/105/12 251/64/12
f 252/47/11 253/98/11 254/49/11
f 253/98/11 252/47/11 255/153/11
f 252/47/11 256/154/11 255/153/11
f 256/154/11 252/47/11 257/118/11
f 258/155/12 259/158/12 260/156/12
f 260/156/12 261/157/12 258/155/12
f 262/105/12 260/156/12 263/158/12
f 260/156/12 262/105/12 264/64/12
f 265/159/13 266/156/13 267/157/13
f 265/159/13 267/157/13 268/160/13
f 266/156/13 265/159/13 269/65/13
f 270/161/13 265/159/13 268/160/13
f 271/63/13 269/65/13 265/159/13
f 265/159/13 270/161/13 272/162/13
f 265/159/13 272/162/13 271/63/13
f 273/67/13 271/63/13 272/162/13
f 272/162/13 274/163/13 273/67/13
f 275/69/13 273/67/13 274/163/13
f 274/163/13 276/164/13 275/69/13
f 277/71/13 275/69/13 276/164/13
f 278/165/13 277/71/13 276/164/13
f 277/71/13 278/165/13 279/73/13
f 278/165/13 280/166/13 279/73/13
f 281/167/13 280/166/13 278/165/13
f 282/75/13 279/73/13 280/166/13
f 280/166/13 281/167/13 283/168/13
f 284/77/13 282/75/13 280/166/13
f 285/17/13 280/166/13 283/168/13
f 284/77/13 280/166/13 286/20/13
f 280/166/13 285/17/13 286/20/13
