# Blender 3.6.1
# www.blender.org
mtllib SM_Vents_Short.mtl
o SM_Vents_Short
v -0.231888 0.005867 0.013366
v -0.231888 -0.001693 0.001826
v -0.231888 0.005867 -0.007100
v -0.231888 -0.001693 0.022292
v 0.231889 -0.001693 0.022292
v -0.231888 -0.001693 0.022292
v -0.231888 0.005867 0.013366
v 0.231889 0.005867 0.013366
v 0.231889 -0.001693 0.022292
v 0.231889 0.005867 0.013366
v 0.231889 -0.001693 0.001826
v 0.231889 0.005867 -0.007100
v -0.231888 -0.001693 0.001826
v 0.231889 -0.001693 0.001826
v 0.231889 0.005867 -0.007100
v -0.231888 0.005867 -0.007100
v -0.231888 0.006140 0.044071
v -0.231888 -0.001693 0.031613
v -0.231888 0.005867 0.022560
v -0.231888 -0.001420 0.053124
v 0.231889 -0.001420 0.053124
v -0.231888 -0.001420 0.053124
v -0.231888 0.006140 0.044071
v 0.231889 0.006140 0.044071
v 0.231889 -0.001420 0.053124
v 0.231889 0.006140 0.044071
v 0.231889 -0.001693 0.031613
v 0.231889 0.005867 0.022560
v -0.231888 -0.001693 0.031613
v 0.231889 -0.001693 0.031613
v 0.231889 0.005867 0.022560
v -0.231888 0.005867 0.022560
v -0.231888 0.005867 -0.022197
v -0.231888 -0.001693 -0.034520
v -0.231888 0.005867 -0.043446
v -0.231888 -0.001693 -0.013271
v 0.231889 -0.001693 -0.013271
v -0.231888 -0.001693 -0.013271
v -0.231888 0.005867 -0.022197
v 0.231889 0.005867 -0.022197
v 0.231889 -0.001693 -0.013271
v 0.231889 0.005867 -0.022197
v 0.231889 -0.001693 -0.034520
v 0.231889 0.005867 -0.043446
v -0.231888 -0.001693 -0.034520
v 0.231889 -0.001693 -0.034520
v 0.231889 0.005867 -0.043446
v -0.231888 0.005867 -0.043446
v -0.246772 -0.006140 -0.066270
v -0.246772 0.005867 -0.066270
v -0.231888 0.005867 -0.066270
v -0.231888 -0.006140 -0.066270
v 0.231889 0.005867 -0.066270
v 0.231889 -0.006140 -0.066270
v 0.246772 0.005867 -0.066270
v 0.246772 -0.006140 -0.066270
v -0.246772 0.005867 0.066270
v -0.246772 -0.006140 0.066270
v -0.231888 -0.006140 0.066270
v -0.231888 0.005867 0.066270
v 0.231889 -0.006140 0.066270
v 0.231889 0.005867 0.066270
v 0.246772 -0.006140 0.066270
v 0.246772 0.005867 0.066270
v 0.246772 0.005867 -0.043446
v 0.246772 -0.006140 -0.066270
v 0.246772 0.005867 -0.066270
v 0.246772 -0.006140 -0.043446
v 0.246772 0.005867 -0.022197
v 0.246772 -0.006140 -0.022197
v 0.246772 0.005867 -0.007100
v 0.246772 -0.006140 -0.007100
v 0.246772 0.005867 0.013366
v 0.246772 -0.006140 0.013366
v 0.246772 0.005867 0.022560
v 0.246772 -0.006140 0.022560
v 0.246772 -0.005867 0.044071
v 0.246772 0.006140 0.044071
v 0.246772 0.005867 0.066270
v 0.246772 -0.006140 0.066270
v -0.246772 -0.006140 -0.043446
v -0.246772 0.005867 -0.066270
v -0.246772 -0.006140 -0.066270
v -0.246772 0.005867 -0.043446
v -0.246772 -0.006140 -0.022197
v -0.246772 0.005867 -0.022197
v -0.246772 -0.006140 -0.007100
v -0.246772 0.005867 -0.007100
v -0.246772 -0.006140 0.013366
v -0.246772 0.005867 0.013366
v -0.246772 -0.006140 0.022560
v -0.246772 0.005867 0.022560
v -0.246772 -0.005867 0.044071
v -0.246772 0.006140 0.044071
v -0.246772 0.005867 0.066270
v -0.246772 -0.006140 0.066270
v -0.246772 0.005867 -0.043446
v -0.231888 0.005867 -0.066270
v -0.246772 0.005867 -0.066270
v -0.231888 0.005867 -0.043446
v -0.246772 0.005867 -0.022197
v 0.231889 0.005867 -0.066270
v -0.231888 0.005867 -0.022197
v 0.231889 0.005867 -0.043446
v -0.246772 0.005867 -0.007100
v 0.246772 0.005867 -0.066270
v 0.246772 0.005867 -0.043446
v 0.231889 0.005867 -0.022197
v 0.246772 0.005867 -0.022197
v -0.231888 0.005867 -0.007100
v -0.246772 0.005867 0.013366
v 0.231889 0.005867 -0.007100
v 0.246772 0.005867 -0.007100
v -0.231888 0.005867 0.013366
v 0.231889 0.005867 0.013366
v -0.246772 0.005867 0.022560
v 0.246772 0.005867 0.013366
v -0.231888 0.005867 0.022560
v -0.246772 0.006140 0.044071
v 0.231889 0.005867 0.022560
v 0.246772 0.005867 0.022560
v -0.231888 0.006140 0.044071
v 0.231889 0.006140 0.044071
v -0.246772 0.005867 0.066270
v 0.246772 0.006140 0.044071
v -0.231888 0.005867 0.066270
v 0.231889 0.005867 0.066270
v 0.246772 0.005867 0.066270
v -0.231888 -0.001693 0.022292
v 0.231889 -0.001693 0.022292
v 0.231889 -0.001693 0.001826
v -0.231888 -0.001693 0.001826
v -0.231888 -0.001420 0.053124
v 0.231889 -0.001420 0.053124
v 0.231889 -0.001693 0.031613
v -0.231888 -0.001693 0.031613
v -0.231888 -0.001693 -0.013271
v 0.231889 -0.001693 -0.013271
v 0.231889 -0.001693 -0.034520
v -0.231888 -0.001693 -0.034520
vn 1.0000 -0.0000 -0.0000
vn -0.0000 -0.7631 -0.6463
vn -1.0000 -0.0000 -0.0000
vn -0.0000 0.7631 0.6463
vn -0.0000 -0.7676 -0.6410
vn -0.0000 0.7676 0.6410
vn -0.0000 -0.0000 -1.0000
vn -0.0000 -0.0000 1.0000
vn -0.0000 1.0000 -0.0000
vn -0.0000 1.0000 -0.0063
vn -0.0000 1.0000 -0.0042
vn -0.0000 1.0000 -0.0002
vn -0.0000 1.0000 0.0040
vn -0.0000 0.9999 0.0123
vn -0.0000 0.9999 -0.0127
vt 0.505859 0.513428
vt 0.498291 0.501953
vt 0.505859 0.493164
vt 0.498291 0.522461
vt 0.743652 0.522461
vt 0.256104 0.522461
vt 0.256104 0.513428
vt 0.743652 0.513428
vt 0.501465 0.522461
vt 0.493896 0.513428
vt 0.501465 0.501953
vt 0.493896 0.493164
vt 0.743652 0.501953
vt 0.256104 0.501953
vt 0.256104 0.493164
vt 0.743652 0.493164
vt 0.505859 0.544189
vt 0.498291 0.531738
vt 0.505859 0.522705
vt 0.498535 0.553223
vt 0.743652 0.553223
vt 0.256104 0.553223
vt 0.256104 0.544189
vt 0.743652 0.544189
vt 0.500977 0.553223
vt 0.493652 0.544189
vt 0.501465 0.531738
vt 0.493896 0.522705
vt 0.743652 0.531738
vt 0.256104 0.531738
vt 0.256104 0.522705
vt 0.743652 0.522705
vt 0.505859 0.478027
vt 0.498291 0.465820
vt 0.505859 0.457031
vt 0.498291 0.486816
vt 0.743652 0.486816
vt 0.256104 0.486816
vt 0.256104 0.478027
vt 0.743652 0.478027
vt 0.501465 0.486816
vt 0.493896 0.478027
vt 0.501465 0.465820
vt 0.493896 0.457031
vt 0.743652 0.465820
vt 0.256104 0.465820
vt 0.256104 0.457031
vt 0.743652 0.457031
vt 0.758301 0.494141
vt 0.758301 0.506104
vt 0.743652 0.506104
vt 0.743652 0.494141
vt 0.256104 0.506104
vt 0.256104 0.494141
vt 0.241211 0.506104
vt 0.241211 0.494141
vt 0.493652 0.434082
vt 0.505859 0.434082
vt 0.493652 0.457031
vt 0.493652 0.478027
vt 0.493652 0.493164
vt 0.493652 0.513428
vt 0.493652 0.522705
vt 0.493896 0.544189
vt 0.505859 0.566406
vt 0.493652 0.566406
vt 0.493896 0.434082
vt 0.493896 0.566406
vt 0.758301 0.457031
vt 0.743652 0.434082
vt 0.758301 0.434082
vt 0.758301 0.478027
vt 0.256104 0.434082
vt 0.758301 0.493164
vt 0.241211 0.434082
vt 0.241211 0.457031
vt 0.241211 0.478027
vt 0.758301 0.513428
vt 0.241211 0.493164
vt 0.758301 0.522705
vt 0.241211 0.513428
vt 0.758301 0.544189
vt 0.241211 0.522705
vt 0.758301 0.566406
vt 0.241211 0.544189
vt 0.743652 0.566406
vt 0.256104 0.566406
vt 0.241211 0.566406
s 1
usemtl M_Metal_Chrome
f 1/1/1 2/2/1 3/3/1
f 2/2/1 1/1/1 4/4/1
f 5/5/2 6/6/2 7/7/2
f 5/5/2 7/7/2 8/8/2
f 9/9/3 10/10/3 11/11/3
f 10/10/3 12/12/3 11/11/3
f 13/13/4 14/14/4 15/15/4
f 13/13/4 15/15/4 16/16/4
f 17/17/1 18/18/1 19/19/1
f 18/18/1 17/17/1 20/20/1
f 21/21/5 22/22/5 23/23/5
f 21/21/5 23/23/5 24/24/5
f 25/25/3 26/26/3 27/27/3
f 26/26/3 28/28/3 27/27/3
f 29/29/6 30/30/6 31/31/6
f 29/29/6 31/31/6 32/32/6
f 33/33/1 34/34/1 35/35/1
f 34/34/1 33/33/1 36/36/1
f 37/37/2 38/38/2 39/39/2
f 37/37/2 39/39/2 40/40/2
f 41/41/3 42/42/3 43/43/3
f 42/42/3 44/44/3 43/43/3
f 45/45/4 46/46/4 47/47/4
f 45/45/4 47/47/4 48/48/4
f 49/49/7 50/50/7 51/51/7
f 52/52/7 49/49/7 51/51/7
f 53/53/7 52/52/7 51/51/7
f 52/52/7 53/53/7 54/54/7
f 55/55/7 54/54/7 53/53/7
f 54/54/7 55/55/7 56/56/7
f 57/55/8 58/56/8 59/54/8
f 60/53/8 57/55/8 59/54/8
f 61/52/8 60/53/8 59/54/8
f 60/53/8 61/52/8 62/51/8
f 63/49/8 62/51/8 61/52/8
f 62/51/8 63/49/8 64/50/8
f 65/35/1 66/57/1 67/58/1
f 68/59/1 66/57/1 65/35/1
f 69/33/1 68/59/1 65/35/1
f 70/60/1 68/59/1 69/33/1
f 71/3/1 70/60/1 69/33/1
f 71/3/1 72/61/1 70/60/1
f 73/1/1 72/61/1 71/3/1
f 72/61/1 73/1/1 74/62/1
f 75/19/1 74/62/1 73/1/1
f 76/63/1 74/62/1 75/19/1
f 75/19/1 77/64/1 76/63/1
f 77/64/1 75/19/1 78/17/1
f 79/65/1 77/64/1 78/17/1
f 80/66/1 77/64/1 79/65/1
f 81/35/3 82/67/3 83/58/3
f 84/44/3 82/67/3 81/35/3
f 85/33/3 84/44/3 81/35/3
f 86/42/3 84/44/3 85/33/3
f 87/3/3 86/42/3 85/33/3
f 87/3/3 88/12/3 86/42/3
f 89/1/3 88/12/3 87/3/3
f 90/10/3 88/12/3 89/1/3
f 91/19/3 90/10/3 89/1/3
f 92/28/3 90/10/3 91/19/3
f 93/17/3 92/28/3 91/19/3
f 94/26/3 92/28/3 93/17/3
f 93/17/3 95/68/3 94/26/3
f 95/68/3 93/17/3 96/65/3
f 97/69/9 98/70/9 99/71/9
f 97/69/9 100/48/9 98/70/9
f 101/72/9 100/48/9 97/69/9
f 100/48/9 102/73/9 98/70/9
f 101/72/9 103/40/9 100/48/9
f 100/48/9 104/47/9 102/73/9
f 105/74/9 103/40/9 101/72/9
f 104/47/9 106/75/9 102/73/9
f 104/47/9 107/76/9 106/75/9
f 108/39/9 107/76/9 104/47/9
f 108/39/9 109/77/9 107/76/9
f 105/74/9 110/16/9 103/40/9
f 110/16/9 108/39/9 103/40/9
f 111/78/9 110/16/9 105/74/9
f 112/15/9 109/77/9 108/39/9
f 110/16/9 112/15/9 108/39/9
f 112/15/9 113/79/9 109/77/9
f 110/16/9 111/78/9 114/8/9
f 115/7/9 113/79/9 112/15/9
f 116/80/10 114/8/9 111/78/9
f 115/7/9 117/81/9 113/79/9
f 118/32/11 114/8/9 116/80/10
f 118/32/11 115/7/9 114/8/9
f 119/82/12 118/32/11 116/80/10
f 120/31/11 117/81/9 115/7/9
f 118/32/11 120/31/11 115/7/9
f 121/83/10 117/81/9 120/31/11
f 122/24/13 118/32/11 119/82/12
f 123/23/13 121/83/10 120/31/11
f 124/84/14 122/24/13 119/82/12
f 125/85/12 121/83/10 123/23/13
f 126/86/14 122/24/13 124/84/14
f 126/86/14 123/23/13 122/24/13
f 126/86/14 127/87/14 123/23/13
f 127/87/14 125/85/12 123/23/13
f 128/88/14 125/85/12 127/87/14
usemtl M_Metal_Dark
f 129/5/9 130/6/9 131/14/9
f 129/5/9 131/14/9 132/13/9
f 133/21/15 134/22/15 135/30/15
f 133/21/15 135/30/15 136/29/15
f 137/37/9 138/38/9 139/46/9
f 137/37/9 139/46/9 140/45/9
