# Blender 3.6.1
# www.blender.org
mtllib SM_Wall_04.mtl
o SM_Wall_04
v -2.480468 0.007500 1.513093
v 2.480468 0.007500 1.530121
v -2.480468 0.007500 1.530120
v 2.480468 0.007500 1.513093
v 2.480468 0.007500 0.604879
v -2.480468 0.007500 0.604879
v -0.333064 0.007500 -0.354091
v 0.687575 0.007500 -0.304179
v 0.820563 0.007501 -0.304179
v 0.687575 0.007500 -0.374462
v 2.064777 0.007500 -1.039071
v -0.333064 0.007500 -0.422589
v 0.820563 0.007500 -0.374462
v -0.539842 0.007500 -0.353008
v 2.480468 0.007500 -1.039071
v -1.625425 0.007500 -0.840383
v -0.539842 0.007500 -0.421641
v -1.761087 0.007500 -0.840383
v -1.625425 0.007500 -0.902075
v -2.480468 0.007500 -1.039071
v -1.761087 0.007500 -0.902075
v -1.715987 0.007500 -1.466858
v -2.480468 0.007500 -1.466858
v -1.693256 0.007500 -1.039071
v -1.036931 0.007500 -1.466858
v -0.375458 0.007500 -1.004822
v -0.502043 0.007500 -1.200795
v -0.502043 0.007500 -1.267679
v -0.441322 0.007500 -1.466858
v -0.441524 0.007500 -1.200795
v -0.441473 0.007500 -1.267679
v -0.393237 0.007500 -1.200795
v -0.393135 0.007500 -1.267679
v -0.392831 0.007500 -1.466858
v -0.320488 0.007500 -1.200795
v -0.320335 0.007500 -1.267679
v -0.319880 0.007500 -1.466858
v -0.272165 0.007500 -1.200795
v -0.271961 0.007500 -1.267679
v -0.271354 0.007500 -1.466858
v -0.199197 0.007500 -1.267679
v 0.172144 0.007500 -1.466858
v -0.199451 0.007500 -1.200795
v 0.542158 0.007500 -1.260667
v 0.737243 0.007500 -1.466858
v 0.541965 0.007500 -1.190645
v 0.607784 0.007500 -1.260667
v 0.772804 0.007500 -1.039071
v 0.607597 0.007500 -1.190645
v 0.865577 0.007500 -1.190645
v 1.077439 0.007500 -1.190645
v 0.865723 0.007500 -1.260667
v 1.077543 0.007500 -1.260667
v 1.529025 0.007500 -1.466858
v 1.988173 0.007500 -1.190378
v 1.988214 0.007500 -1.266845
v 2.064961 0.007500 -1.466858
v 2.064853 0.007500 -1.190378
v 2.064886 0.007500 -1.266845
v 2.105576 0.007500 -1.190378
v 2.254758 0.007500 -1.190378
v 2.105601 0.007500 -1.266845
v 2.180238 0.007500 -1.466858
v 2.254776 0.007500 -1.266845
v 2.293257 0.007500 -1.466858
v 2.293223 0.007500 -1.195053
v 2.293233 0.007500 -1.271520
v 2.442691 0.007500 -1.195053
v 2.442694 0.007500 -1.271520
v 2.480468 0.007500 -1.466858
v -1.712970 0.000012 -1.521580
v -2.475109 0.000012 -1.521580
v -2.465468 -0.007500 -1.530121
v -1.705611 -0.007500 -1.530121
v -1.036122 0.000012 -1.521580
v -1.030914 -0.007500 -1.530121
v -0.442413 0.000012 -1.521580
v -0.439058 -0.007500 -1.530121
v -0.394058 0.000012 -1.521580
v -0.390834 -0.007500 -1.530121
v -0.321241 0.000012 -1.521580
v -0.318148 -0.007500 -1.530121
v -0.272849 0.000012 -1.521580
v -0.269888 -0.007500 -1.530121
v 0.169379 0.000012 -1.521580
v 0.171103 -0.007500 -1.530121
v 0.732520 0.000012 -1.521580
v 0.732336 -0.007500 -1.530121
v 1.518311 -0.007500 -1.530121
v 1.521360 0.000013 -1.521580
v 2.051794 -0.007500 -1.530121
v 2.056054 0.000013 -1.521580
v 2.166438 -0.007500 -1.530121
v 2.171011 0.000013 -1.521580
v 2.278825 -0.007500 -1.530121
v 2.283710 0.000013 -1.521580
v 2.465467 -0.007500 -1.530121
v 2.470632 0.000013 -1.521580
v -1.715987 0.007500 -1.466858
v -2.480468 0.007500 -1.466858
v -2.475109 0.000012 -1.466858
v -1.712970 0.000012 -1.466858
v -1.036931 0.007500 -1.466858
v -1.036122 0.000012 -1.466858
v -0.442413 0.000012 -1.466858
v -0.441322 0.007500 -1.466858
v -0.394058 0.000012 -1.466858
v -0.392831 0.007500 -1.466858
v -0.321241 0.000012 -1.466858
v -0.319880 0.007500 -1.466858
v -0.272849 0.000012 -1.466858
v -0.271354 0.007500 -1.466858
v 0.169379 0.000012 -1.466858
v 0.172144 0.007500 -1.466858
v 0.732520 0.000012 -1.466858
v 0.737243 0.007500 -1.466858
v 1.521361 0.000013 -1.466858
v 1.529025 0.007500 -1.466858
v 2.056054 0.000013 -1.466858
v 2.064961 0.007500 -1.466858
v 2.171011 0.000013 -1.466858
v 2.180238 0.007500 -1.466858
v 2.283710 0.000013 -1.466858
v 2.293257 0.007500 -1.466858
v 2.470632 0.000013 -1.466858
v 2.480468 0.007500 -1.466858
v -1.712970 0.000012 -1.466858
v -2.475109 0.000012 -1.466858
v -2.475109 0.000012 -1.521580
v -1.712970 0.000012 -1.521580
v -1.036122 0.000012 -1.521580
v -1.036122 0.000012 -1.466858
v -0.442413 0.000012 -1.521580
v -0.442413 0.000012 -1.466858
v -0.394058 0.000012 -1.521580
v -0.394058 0.000012 -1.466858
v -0.321241 0.000012 -1.466858
v -0.321241 0.000012 -1.521580
v -0.272849 0.000012 -1.521580
v -0.272849 0.000012 -1.466858
v 0.169379 0.000012 -1.521580
v 0.169379 0.000012 -1.466858
v 0.732520 0.000012 -1.521580
v 0.732520 0.000012 -1.466858
v 1.521360 0.000013 -1.521580
v 1.521361 0.000013 -1.466858
v 2.056054 0.000013 -1.521580
v 2.056054 0.000013 -1.466858
v 2.171011 0.000013 -1.521580
v 2.171011 0.000013 -1.466858
v 2.283710 0.000013 -1.521580
v 2.283710 0.000013 -1.466858
v 2.470632 0.000013 -1.466858
v 2.470632 0.000013 -1.521580
vn -0.0000 -1.0000 -0.0000
vn -0.0000 -0.7509 0.6605
vn -0.0000 -0.7508 0.6605
vn -0.0000 -0.0000 1.0000
vt -1.979492 2.012695
vt 2.978516 2.029297
vt -1.979492 2.029297
vt 2.978516 2.012695
vt 2.978516 1.104858
vt -1.979492 1.104858
vt 0.166870 0.145996
vt 1.187500 0.196289
vt 1.320312 0.196289
vt 1.187500 0.125977
vt 2.564453 -0.539062
vt 0.166870 0.077637
vt 1.320312 0.125977
vt -0.039825 0.147461
vt 2.978516 -0.539062
vt -1.125000 -0.339844
vt -0.039825 0.078613
vt -1.260742 -0.339844
vt -1.125000 -0.401367
vt -1.979492 -0.539062
vt -1.260742 -0.401367
vt -1.215820 -0.966797
vt -1.979492 -0.966797
vt -1.192383 -0.539062
vt -0.536621 -0.966797
vt 0.124512 -0.503906
vt -0.002041 -0.700195
vt -0.002041 -0.767578
vt 0.058655 -0.966797
vt 0.058472 -0.700195
vt 0.058502 -0.767578
vt 0.106750 -0.700195
vt 0.106812 -0.767578
vt 0.107117 -0.966797
vt 0.179443 -0.700195
vt 0.179565 -0.767578
vt 0.180054 -0.966797
vt 0.227783 -0.700195
vt 0.228027 -0.767578
vt 0.228638 -0.966797
vt 0.300781 -0.767578
vt 0.671875 -0.966797
vt 0.300537 -0.700195
vt 1.041992 -0.759766
vt 1.236328 -0.966797
vt 1.041016 -0.690430
vt 1.107422 -0.759766
vt 1.272461 -0.539062
vt 1.107422 -0.690430
vt 1.365234 -0.690430
vt 1.577148 -0.690430
vt 1.365234 -0.759766
vt 1.577148 -0.759766
vt 2.027344 -0.966797
vt 2.486328 -0.689453
vt 2.486328 -0.766602
vt 2.564453 -0.966797
vt 2.564453 -0.689453
vt 2.564453 -0.766602
vt 2.605469 -0.689453
vt 2.753906 -0.689453
vt 2.605469 -0.766602
vt 2.679688 -0.966797
vt 2.753906 -0.766602
vt 2.792969 -0.966797
vt 2.792969 -0.694336
vt 2.792969 -0.771484
vt 2.941406 -0.694336
vt 2.941406 -0.771484
vt 2.978516 -0.966797
vt -1.212891 -1.021484
vt -1.974609 -1.021484
vt -1.964844 -1.029297
vt -1.205078 -1.029297
vt -0.535645 -1.021484
vt -0.530762 -1.029297
vt 0.057556 -1.021484
vt 0.060913 -1.029297
vt 0.105896 -1.021484
vt 0.109131 -1.029297
vt 0.178711 -1.021484
vt 0.181763 -1.029297
vt 0.227051 -1.021484
vt 0.230103 -1.029297
vt 0.668945 -1.021484
vt 0.670898 -1.029297
vt 1.232422 -1.021484
vt 1.231445 -1.029297
vt 2.017578 -1.029297
vt 2.019531 -1.021484
vt 2.550781 -1.029297
vt 2.554688 -1.021484
vt 2.666016 -1.029297
vt 2.669922 -1.021484
vt 2.777344 -1.029297
vt 2.783203 -1.021484
vt 2.964844 -1.029297
vt 2.968750 -1.021484
vt 0.492432 -1.214844
vt 0.492432 -1.978516
vt 0.499756 -1.974609
vt 0.499756 -1.212891
vt 0.492432 -0.536133
vt 0.499756 -0.535156
vt 0.499756 0.057617
vt 0.492432 0.059082
vt 0.499756 0.105957
vt 0.492432 0.107422
vt 0.499756 0.179199
vt 0.492432 0.180176
vt 0.499756 0.227539
vt 0.492432 0.229004
vt 0.499756 0.669434
vt 0.492432 0.672363
vt 0.499756 1.232422
vt 0.492432 1.237183
vt 0.499756 2.020508
vt 0.492432 2.028320
vt 0.499756 2.555664
vt 0.492432 2.564453
vt 0.499756 2.670898
vt 0.492432 2.679688
vt 0.499756 2.783203
vt 0.492432 2.792969
vt 0.499756 2.969727
vt 0.492432 2.979492
vt -1.212891 -0.966797
vt -1.974609 -0.966797
vt -0.535645 -0.966797
vt 0.057556 -0.966797
vt 0.105896 -0.966797
vt 0.178711 -0.966797
vt 0.227051 -0.966797
vt 0.668945 -0.966797
vt 1.232422 -0.966797
vt 2.019531 -0.966797
vt 2.554688 -0.966797
vt 2.669922 -0.966797
vt 2.783203 -0.966797
vt 2.968750 -0.966797
s 1
usemtl M_Basic_Wall
f 1/1/1 2/2/1 3/3/1
f 2/2/1 1/1/1 4/4/1
f 1/1/1 5/5/1 4/4/1
f 5/5/1 1/1/1 6/6/1
f 5/5/1 6/6/1 7/7/1
f 5/5/1 7/7/1 8/8/1
f 5/5/1 8/8/1 9/9/1
f 8/8/1 7/7/1 10/10/1
f 9/9/1 11/11/1 5/5/1
f 12/12/1 10/10/1 7/7/1
f 11/11/1 9/9/1 13/13/1
f 7/7/1 6/6/1 14/14/1
f 5/5/1 11/11/1 15/15/1
f 6/6/1 16/16/1 14/14/1
f 14/14/1 16/16/1 17/17/1
f 16/16/1 6/6/1 18/18/1
f 19/19/1 17/17/1 16/16/1
f 20/20/1 18/18/1 6/6/1
f 18/18/1 20/20/1 21/21/1
f 22/22/1 20/20/1 23/23/1
f 20/20/1 24/24/1 21/21/1
f 20/20/1 22/22/1 24/24/1
f 21/21/1 24/24/1 19/19/1
f 24/24/1 22/22/1 25/25/1
f 19/19/1 26/26/1 17/17/1
f 19/19/1 24/24/1 26/26/1
f 26/26/1 12/12/1 17/17/1
f 25/25/1 27/27/1 24/24/1
f 26/26/1 24/24/1 27/27/1
f 27/27/1 25/25/1 28/28/1
f 29/29/1 28/28/1 25/25/1
f 30/30/1 26/26/1 27/27/1
f 28/28/1 29/29/1 31/31/1
f 32/32/1 30/30/1 31/31/1
f 32/32/1 26/26/1 30/30/1
f 31/31/1 29/29/1 33/33/1
f 32/32/1 31/31/1 33/33/1
f 33/33/1 29/29/1 34/34/1
f 35/35/1 26/26/1 32/32/1
f 33/33/1 34/34/1 36/36/1
f 36/36/1 34/34/1 37/37/1
f 35/35/1 36/36/1 38/38/1
f 38/38/1 26/26/1 35/35/1
f 36/36/1 37/37/1 39/39/1
f 38/38/1 36/36/1 39/39/1
f 39/39/1 37/37/1 40/40/1
f 39/39/1 40/40/1 41/41/1
f 40/40/1 42/42/1 41/41/1
f 43/43/1 26/26/1 38/38/1
f 41/41/1 42/42/1 44/44/1
f 44/44/1 43/43/1 41/41/1
f 45/45/1 44/44/1 42/42/1
f 43/43/1 44/44/1 46/46/1
f 46/46/1 26/26/1 43/43/1
f 44/44/1 45/45/1 47/47/1
f 48/48/1 26/26/1 46/46/1
f 12/12/1 26/26/1 48/48/1
f 12/12/1 48/48/1 10/10/1
f 48/48/1 13/13/1 10/10/1
f 49/49/1 48/48/1 46/46/1
f 13/13/1 48/48/1 11/11/1
f 50/50/1 48/48/1 49/49/1
f 50/50/1 49/49/1 47/47/1
f 51/51/1 48/48/1 50/50/1
f 11/11/1 48/48/1 51/51/1
f 50/50/1 47/47/1 52/52/1
f 47/47/1 45/45/1 52/52/1
f 45/45/1 53/53/1 52/52/1
f 45/45/1 54/54/1 53/53/1
f 55/55/1 51/51/1 53/53/1
f 11/11/1 51/51/1 55/55/1
f 53/53/1 54/54/1 56/56/1
f 55/55/1 53/53/1 56/56/1
f 57/57/1 56/56/1 54/54/1
f 58/58/1 11/11/1 55/55/1
f 56/56/1 57/57/1 59/59/1
f 60/60/1 11/11/1 58/58/1
f 58/58/1 59/59/1 60/60/1
f 61/61/1 11/11/1 60/60/1
f 60/60/1 59/59/1 62/62/1
f 59/59/1 57/57/1 62/62/1
f 57/57/1 63/63/1 62/62/1
f 62/62/1 63/63/1 64/64/1
f 11/11/1 61/61/1 15/15/1
f 65/65/1 64/64/1 63/63/1
f 61/61/1 64/64/1 66/66/1
f 66/66/1 15/15/1 61/61/1
f 66/66/1 64/64/1 67/67/1
f 64/64/1 65/65/1 67/67/1
f 68/68/1 15/15/1 66/66/1
f 69/69/1 67/67/1 65/65/1
f 69/69/1 15/15/1 68/68/1
f 65/65/1 70/70/1 69/69/1
f 70/70/1 15/15/1 69/69/1
usemtl M_Plastic_White
f 71/71/2 72/72/2 73/73/2
f 73/73/2 74/74/2 71/71/2
f 75/75/2 71/71/2 74/74/2
f 74/74/2 76/76/2 75/75/2
f 77/77/2 75/75/2 76/76/2
f 77/77/2 76/76/2 78/78/2
f 79/79/2 77/77/2 78/78/2
f 79/79/2 78/78/2 80/80/2
f 81/81/2 79/79/2 80/80/2
f 80/80/2 82/82/2 81/81/2
f 83/83/2 81/81/2 82/82/2
f 82/82/2 84/84/2 83/83/2
f 85/85/2 83/83/2 84/84/2
f 85/85/2 84/84/2 86/86/2
f 86/86/2 87/87/2 85/85/2
f 87/87/2 86/86/2 88/88/2
f 89/89/3 87/87/2 88/88/2
f 87/87/2 89/89/3 90/90/3
f 89/89/3 91/91/3 90/90/3
f 92/92/3 90/90/3 91/91/3
f 91/91/3 93/93/3 92/92/3
f 94/94/3 92/92/3 93/93/3
f 95/95/3 94/94/3 93/93/3
f 96/96/3 94/94/3 95/95/3
f 97/97/3 96/96/3 95/95/3
f 98/98/3 96/96/3 97/97/3
f 99/99/4 100/100/4 101/101/4
f 101/101/4 102/102/4 99/99/4
f 103/103/4 99/99/4 102/102/4
f 102/102/4 104/104/4 103/103/4
f 105/105/4 103/103/4 104/104/4
f 106/106/4 103/103/4 105/105/4
f 107/107/4 106/106/4 105/105/4
f 108/108/4 106/106/4 107/107/4
f 109/109/4 108/108/4 107/107/4
f 110/110/4 108/108/4 109/109/4
f 111/111/4 110/110/4 109/109/4
f 112/112/4 110/110/4 111/111/4
f 113/113/4 112/112/4 111/111/4
f 114/114/4 112/112/4 113/113/4
f 115/115/4 114/114/4 113/113/4
f 116/116/4 114/114/4 115/115/4
f 115/115/4 117/117/4 116/116/4
f 118/118/4 116/116/4 117/117/4
f 119/119/4 118/118/4 117/117/4
f 120/120/4 118/118/4 119/119/4
f 119/119/4 121/121/4 120/120/4
f 122/122/4 120/120/4 121/121/4
f 121/121/4 123/123/4 122/122/4
f 124/124/4 122/122/4 123/123/4
f 123/123/4 125/125/4 124/124/4
f 126/126/4 124/124/4 125/125/4
f 127/127/1 128/128/1 129/72/1
f 127/127/1 129/72/1 130/71/1
f 131/75/1 127/127/1 130/71/1
f 127/127/1 131/75/1 132/129/1
f 131/75/1 133/77/1 132/129/1
f 134/130/1 132/129/1 133/77/1
f 134/130/1 133/77/1 135/79/1
f 136/131/1 134/130/1 135/79/1
f 135/79/1 137/132/1 136/131/1
f 137/132/1 135/79/1 138/81/1
f 139/83/1 137/132/1 138/81/1
f 137/132/1 139/83/1 140/133/1
f 141/85/1 140/133/1 139/83/1
f 140/133/1 141/85/1 142/134/1
f 141/85/1 143/87/1 142/134/1
f 144/135/1 142/134/1 143/87/1
f 145/90/1 144/135/1 143/87/1
f 144/135/1 145/90/1 146/136/1
f 145/90/1 147/92/1 146/136/1
f 148/137/1 146/136/1 147/92/1
f 147/92/1 149/94/1 148/137/1
f 150/138/1 148/137/1 149/94/1
f 151/96/1 150/138/1 149/94/1
f 150/138/1 151/96/1 152/139/1
f 151/96/1 153/140/1 152/139/1
f 153/140/1 151/96/1 154/98/1
